<?xml version="1.0" encoding="utf-8"?>
<!-- Generator: Adobe Illustrator 21.0.0, SVG Export Plug-In . SVG Version: 6.00 Build 0)  -->
<svg version="1.1" id="Layer_1" xmlns="http://www.w3.org/2000/svg" xmlns:xlink="http://www.w3.org/1999/xlink" x="0px" y="0px"
	 viewBox="0 0 400 100" style="enable-background:new 0 0 400 100;" xml:space="preserve">
<style type="text/css">
	.st0{fill:#047272;}
</style>
<title>02-hanja</title>
<g>
	<path class="st0" d="M273.4,34.7L273.4,34.7c-2.8-2.4-5-4.2-6.5-5.4c0.1-0.4,0.2-0.8,0.3-1.2l0.6-1.5l0-0.1c0.2-1.3,0-2.6-0.7-3.7
		c-0.4-0.5-0.8-0.5-1-0.4c-0.6,0.1-1,0.8-1.3,2.1c-0.6,1.7-1.1,3.5-1.5,5.3c-0.8,2.8-1.5,5-2.1,6.5c-2.7-7.1-4.5-11.5-5.4-13.4
		c-0.7-1.4-1.5-1.4-2.1-1.3c-1,0.3-0.9,1.6-0.8,2.8l0,0.1c0.6,1.7,1.2,3.4,2,5c-1.2,1-2.9,2.3-4.9,4.1l-0.1,0.1
		c-0.2,0.3-0.5,0.6-0.9,0.9l-0.1,0.1c-0.6,0.7-0.8,1.5-0.7,2.4l0.1,0.2c0.2,0.4,0.8,1.1,2.2,0.4c2-1.3,4-2.6,6.1-3.7
		c0.2,0.7,0.5,1.4,0.8,2l0.6,1.5c0.8,2,1.2,4,1.2,6.1v0.7l-6.8,0c-0.9-0.1-1.6,0-2,0.5c-0.4,0.4-0.5,0.9-0.4,1.5
		c0,2.2,1.2,2.5,2,2.5c0,0,0,0,0,0c2.4-0.3,4.8-0.5,7.2-0.5c0,1.7,0.1,3.4,0.2,5.1l-7,0c-1-0.1-1.8,0-2.3,0.5
		c-0.4,0.4-0.6,0.9-0.6,1.5c-0.1,0.9,0.1,1.6,0.6,2.1c0.4,0.4,1.1,0.6,1.9,0.5c1.3-0.2,3.8-0.3,7.4-0.2c0,8.9-0.1,15.2-0.2,18.7
		c0,2.3,0.8,2.8,1.5,2.8h0.1L261,79c0.8-0.4,1.3-1.6,1.5-3.7V57.6c2-0.1,4.2-0.2,6.6-0.2c1.2,0.1,2-0.1,2.4-0.5
		c0.4-0.4,0.5-0.9,0.4-1.5c0-0.8-0.3-2-2.4-2h-7v-5.1c1.8-0.1,3.7-0.2,5.6-0.2c2.2,0,2.6-1.3,2.6-2.1c-0.1-0.9-0.7-1.9-2.8-1.9
		c0,0,0,0,0,0c-1.5,0.2-3.3,0.2-5.3,0.2v-0.5c0-1.9,0.4-3.8,1.2-5.6c0.3-0.7,0.7-1.9,1.3-3.6c0.2-0.5,0.3-0.9,0.4-1.2
		c1.6,1,3.7,2.4,6.2,4.2l0.1,0.1c0.7,0.2,1.6,0,2-0.7l0.1-0.2C274.1,36.1,273.9,35.3,273.4,34.7z"/>
	<path class="st0" d="M156.4,39.7h-10.1c0-1.7,0.1-4.3,0.2-7.5v-7c0-1.3,0-5.3-2.2-5.3c-0.5,0-0.9,0.2-1.2,0.5
		c-0.8,0.8-1.1,2.6-1,5.6c0.2,3.3,0.2,7.8,0.2,13.5l-4.5,0c-2.8-0.3-5.7-0.3-8.5,0c-2.1,0-2.4,1.4-2.4,2.1c-0.1,0.8,0.2,1.2,0.4,1.5
		c0.6,0.6,1.7,0.8,3.5,0.5c1.7-0.2,5.6-0.2,11.5-0.2l0,2.9c-0.2,3.2-0.2,6.5,0,9.8c0.2,0.8,0.9,1.3,1.7,1.3c0.1,0,0.3,0,0.4,0
		c0.6-0.2,1.1-0.6,1.3-1.3l0-0.1l0-1.6c0.1-0.8,0.2-1.6,0.2-2.5l0-4.3c0-0.8,0.1-1.6,0.2-2.4v-1.7h10.4c0.8,0,3.4,0,3.4-1.6
		c0.1-0.4,0-0.8-0.3-1.1C159.3,40,158.2,39.7,156.4,39.7z"/>
	<path class="st0" d="M151.5,50.1L151.5,50.1c-0.6,0.3-0.8,0.8-0.8,1.7l0,3c0.1,1.3,0.2,2.3,0.2,3c-3.6-0.1-8.3-0.2-14-0.2
		c0-1,0.2-2,0.7-2.9c0.6-1.1,0.4-2.5-0.5-4c-0.3-0.9-0.8-1.1-1.2-1.1c-0.3,0-0.6,0.2-1.1,0.7c-1.1,1.2-1.6,4-1.8,8.6
		c0.2,5.4,1.3,9.5,3.2,12.1c2,2.7,5,4,8.9,4.1c4.6-0.2,7.5-2.2,8.7-6.2c0.7-3.1,1.1-6.3,1.2-9.5c0-2.9-0.6-5.7-1.7-8.4
		C152.9,50.2,152.2,49.9,151.5,50.1z M136.8,61.7c4.7-0.4,9.5-0.3,14.2,0.2c-0.1,2-0.4,3.9-0.8,5.8l-0.1,0.3
		c-0.7,2.2-2.5,3.3-5.3,3.3c-3.7,0-5.9-1.5-7-4.5C137.4,65.1,137,63.4,136.8,61.7L136.8,61.7z"/>
	<path class="st0" d="M179.6,46.4c0.2,0.1,0.5,0.2,0.8,0.2c0.3,0,0.5,0,0.9-0.1l0.1,0l0,0c0.2,0,1-0.2,4-0.2c0.8,0,1.4-0.2,1.8-0.5
		c0.3-0.3,0.4-0.7,0.4-1.1c0.1-0.5,0-0.9-0.2-1.2c-0.3-0.4-0.8-0.5-1.5-0.5l-4.1,0c-0.4,0-0.8,0-1.2-0.2l-0.2,0
		c-1.5,0-1.7,0.8-1.7,1.2c0,0.6,0.1,1.1,0.2,1.6C179.1,45.9,179.3,46.2,179.6,46.4z"/>
	<path class="st0" d="M207.3,32.1c-1.5-1.4-3.1-2.7-4.9-3.7c-0.5-0.4-1-0.7-1.5-1l-0.1,0c-0.2-0.1-0.4-0.5-0.4-1.2l0-0.1
		c-0.3-1.3-0.5-2.6-0.5-4l0-0.1l0-0.1c-0.3-1.2-1.1-1.4-1.4-1.4c-0.7-0.1-1.4,0.3-1.6,1.1c0,0.1,0,0.3,0,0.4
		c-0.4,1.4-0.6,2.9-0.7,4.3c-0.1,0.6-0.5,1.1-1.1,1.3l-0.1,0.1c-1.9,1.5-3.7,3.1-5.4,4.9c0.1-0.2,0.2-0.5,0.3-0.8
		c0.4-2.3,0.6-4.6,0.5-6.9c-0.1-1.1-0.8-1.9-1.8-2.2l-0.1,0c-0.5,0-0.8,0.2-0.9,0.4c-0.3,0.4-0.4,1-0.3,1.8c0.2,1.6,0.1,3.1-0.2,4.7
		c-0.1,0.7-0.4,1.6-1.9,1.9v-8.6c0-1.9-1-2.5-1.9-2.7c-0.8,0-1.7,0.5-1.7,2.7c0,1,0.1,2.3,0.2,3.9v4.5c-2.1-0.5-2.4-1.5-2.4-2.3
		c0-0.9,0.1-1.7,0.2-2.7l0-1.1c-0.2-1.5-0.8-2.4-1.8-2.6l-0.1,0l-0.1,0c-0.6,0.2-1.2,1-1.8,2.5c-0.4,1.6,0,3.6,1,6.1
		c1.3,2.7,3,4,5,4c0,0.5,0.1,1,0.2,1.4v0.4c-2-0.1-3.9,0.4-5.6,1.3c-0.6,0.3-1,0.9-1.2,1.5l0,0.2c0,0.8-0.1,1.6-0.2,2.4
		c-0.3,2.9,0.8,5.8,3,7.6c0.8,1.1,2.3,1.5,3.6,1.2h0.5c-0.2,0.6-0.3,1.2-0.3,1.9v0c-0.1,0.1-0.1,0.2-0.1,0.2
		c-0.6,0.1-1.2,0.2-1.8,0.2c-0.8,0.1-1.7,0-2.5-0.2c-0.8-0.2-1.7,0-2.4,0.6l-0.1,0.2c-0.7,1.5-0.2,2.4,0.3,2.7
		c0.7,0.7,1.7,1,2.6,0.6c0.9,0,1.8-0.1,2.7-0.3c0.5-0.1,1.1-0.2,1.6-0.2l0.1,0.1c0,0,0.1,0.1,0.1,0.1l0,0.2l0.1,0.1
		c0.2,0.2,0.3,0.4,0.4,0.7c0.7,1.1,1.1,2.2,1.4,3.4c0.2,2.4-0.5,4.9-1.8,6.8c-1.8,1.8-3.6,3.7-5.5,5.8c-0.6,0.6-0.8,1.5-0.3,2.3
		c0.3,0.4,0.6,0.5,0.8,0.6c0.1,0,0.1,0,0.2,0c0.4,0,0.7-0.2,1.1-0.5c2.7-2,5-4.4,6.9-7.2c1.5-2.7,2.1-5.9,1.5-9
		c-0.1-1.1-0.5-2.2-1-3.3c0-0.1-0.1-0.3-0.1-0.4c1.3-0.1,2.6-0.2,3.8-0.2c1.6,0,2-0.8,1.9-1.4c0.1-0.8,0-1.3-0.4-1.7
		c-0.3-0.4-0.8-0.5-1.3-0.5c-1.6,0-3.3,0-4.9,0.2c0.2-0.7,0.5-1.4,0.8-2.1l0.6,0c0.4,0.1,0.9,0,1.2-0.2c0.5,0,1-0.2,1.3-0.6
		c2.3-0.9,3.1-4.1,2.6-9.6c-0.2-2-1.8-3.6-3.9-3.6h-3c0-0.1,0.1-0.2,0.1-0.3l0-0.7c0.1-0.3,0.2-0.6,0.2-0.9c1.7-0.3,3-0.8,3.8-1.6
		c-0.1,0.5-0.1,1,0.2,1.4c0.2,0.4,0.7,0.7,1.1,0.7c0.2,0,0.4,0,0.5-0.1c0.1-0.1,0.2-0.1,0.3-0.2c1.8-1.5,3.7-2.9,5.7-4.1
		c1.1-0.7,2.5-0.8,3.6-0.2c1.8,1.1,3.6,2.3,5.3,3.6c0.5,0.4,1,0.5,1.4,0.4c0.2,0,0.5-0.2,0.8-0.6C208.3,33.7,208,32.7,207.3,32.1z
		 M186.4,40.7c0.8,0.2,1.9,0.6,2,1.5c0.1,3.3-0.3,5.3-1.2,5.5c-0.3,0-0.6,0.1-0.8,0.3c-0.2,0-0.4,0.1-0.5,0.2h-4.6l0,0.1
		c-0.9,0-1.8-0.5-2.3-1.2c-1-1.4-1.2-3.2-0.7-4.8l0.3-0.3c0.9-0.6,2-1,3.2-0.9C183.3,40.7,184.9,40.6,186.4,40.7z"/>
	<path class="st0" d="M203.6,43.1c-2.1-1.1-4.5-1.5-6.8-1l-0.1,0c-1.1,0.5-1.5,0.3-1.6,0.3c-0.1-0.1-0.2-0.3-0.2-0.5
		c0-0.7,0-1.4,0.2-2c0.1-0.4,0.4-1.6,3.1-1.6c1.7,0,3.3,0,5,0.2c0.9,0.1,1.5,0,1.9-0.3c0.2-0.1,0.4-0.4,0.4-0.8
		c0.2-0.7,0.1-1.3-0.2-1.7c-0.3-0.4-0.8-0.6-1.4-0.6c-4.6-0.8-8.1-0.6-10.6,0.7c-0.7,0.2-1.5,0.8-1.5,2.6c0,3.5,0.2,5.6,0.5,6.5
		l0,0.1c0.8,1.2,1.7,1.7,2.5,1.6c-0.3,0-0.5,0.1-0.6,0.3c-0.4,0.3-0.5,0.9-0.3,1.8c0.3,2.7,0.3,5.4,0,8c-0.7,3.2-2.8,8.1-6.2,14.6
		c-0.3,0.6-0.4,1-0.2,1.4c0.1,0.2,0.2,0.4,0.4,0.5c0.3,0.3,0.9,0.6,1.9-0.3c2.5-2.7,4.5-5.8,5.9-9.3c0.2,0.1,0.5,0.2,0.7,0.2
		c0.3,0.2,0.6,0.4,0.9,0.6c0.5,0.5,1.1,0.9,1.7,1.2c0.4,0.4,1,0.5,1.4,0.2c0.1-0.1,0.1-0.1,0.2-0.2c-0.8,3-1.7,6-2.7,8.9
		c-0.3,0.6-0.3,1.1-0.1,1.5c0.1,0.3,0.4,0.5,0.7,0.6c0.2,0,0.3,0.1,0.5,0.1c0.7,0,1.3-0.4,1.5-1c1.6-2.8,3.1-7.5,4.4-14.2
		c1-7.8,1.4-12.5,1.2-14.3C206.1,45.1,205.2,43.7,203.6,43.1z M197.4,54.6c0-0.3,0.1-0.6,0.2-1l0-0.9l1.8,0c1.7-0.3,2.8-0.9,3.4-1.8
		c-0.1,1.6-0.3,3.3-0.5,4.9c-0.2,0-0.4-0.1-0.6-0.2l-0.1,0c-0.6-0.1-1.2-0.2-1.9-0.5C198.7,55,197.9,54.8,197.4,54.6z M200.4,45.5
		c1.4,0.2,2.5,1.4,2.5,2.9c0,0.1,0,0.2,0,0.2c0,0-0.1-0.1-0.1-0.1c-0.3-0.3-0.8-0.3-1.5-0.1l-0.2,0.1c-0.6,0.5-1.4,0.8-2.1,0.9
		c-0.6,0-1.1,0-1.7-0.1c0-0.4-0.1-0.8-0.2-1.1c0-0.4-0.2-0.8-0.5-1c-0.3-0.3-0.7-0.4-1.1-0.4c-0.1,0-0.2,0-0.3,0c-0.1,0-0.1,0-0.2,0
		c0.5,0,1-0.2,1.4-0.5C197.6,45.4,199,45.2,200.4,45.5z M198.4,61.3c-0.7-0.4-1.2-0.8-1.7-1c0-0.7,0.1-1.3,0.3-2
		c0.7,0.3,1.5,0.4,2.3,0.6c0.5,0,1.1,0.1,1.6,0.2c0.4,0.1,0.7,0.2,1.1,0.3v0.6c-0.1,0.4-0.2,0.8-0.2,1.2c-0.3,1.2-0.5,2.3-0.8,3.5
		c0-0.2-0.1-0.5-0.1-0.7C200.3,62.7,199.5,61.8,198.4,61.3z"/>
	<path class="st0" d="M246.9,45.9c-0.2-1.6-0.2-3.2,0-4.8c0.3-1.9-0.2-4.4-4-5.4c-1.6-0.5-3.3-0.8-4.9-1c0-0.9,0-1.9,0-2.6
		c0-0.3,0-0.6,0-0.6l0-0.1c-0.1-0.2,0-0.4,0-0.6l0.2,0c1.2-0.1,2.5,0.1,3.7,0.5c0.7,0.4,1.3,0.6,1.9,0.4c0.5-0.1,0.9-0.5,1.2-1
		c0.9-1.7,1.1-3.7,0.6-5.5c-0.1-1.1-0.8-2-1.8-2.4c-2.2-0.9-4.5-1.3-6.9-1.4c-2.3,0-4.4,0.5-6.5,1.4l-0.1,0.1c0,0-0.1,0-0.1,0.1
		c0,0-0.1-0.1-0.2-0.3c-0.2-0.3-0.2-0.7,0-1.1c0.3-0.5,0.3-1.1,0.1-1.7c-0.2-0.4-0.6-0.7-1-0.8c-1.4-0.3-2.1,1.8-2.3,2.5
		c-0.4,1.4,0,2.8,1,3.8c1,1.4,2.2,1.9,3.4,1.4c0.2,0.4,0.4,0.8,0.5,1.2l0,0.1c0.1,0.1-0.1,0.6-1.5,1.4c-2.9,1.7-4.9,4.4-5.8,7.6
		c-0.9,2.7-1.6,5.5-2.1,8.2c-0.1,0.3-0.2,0.6-0.2,1c0,0.7,0.1,1.6,0.7,1.9c0.2,0.1,0.4,0.1,0.7,0c0.4-0.1,0.7-0.6,1.1-1.3
		c0.8-2.7,1.3-4.6,1.6-5.8c0-0.2,0.1-0.4,0.2-0.7c0,0.1,0,0.1,0,0.2c-0.3,8.7-0.1,9.7,0.5,13.2c0.1,0.5,0.2,1.1,0.3,1.8
		c0.7,3.9,2.4,5.2,5.3,5.6c0,0-0.1,0.1-0.1,0.1c-1.8,2.4-2.9,5.3-3.2,8.2c-0.3,1.9-0.5,3.9-0.4,5.8v0.4c0,1.4,0.8,1.6,1.1,1.6
		c0.8,0,1-0.6,1.3-1.4c0.3-0.9,0.4-1.8,0.5-2.8c0.2-1.5,0.4-2.6,0.5-3.2c0.6-2.9,1.3-4.9,2.1-6c0.2-0.2,0.5-0.4,0.8-0.6l0,13.4
		c0.2,1.9,0.6,3.6,1.6,3.6c1,0,1.4-1.5,1.5-3.7l0-8.2c-0.1-0.9-0.2-2.6-0.2-5c0.4,0.2,0.7,0.5,0.9,0.9c0.8,1.9,1.4,3.8,1.7,5.9
		c0.1,0.5,0.2,1.1,0.4,1.6c0.8,3.7,0.8,4.5,0.8,4.6l0,0.1c0.2,0.7,0.6,1.2,1.2,1.5l0.2,0.1l0.2-0.1c0.4-0.2,0.9-0.6,0.9-1.7
		c0-2.2-0.3-4.4-0.7-6.5c-0.3-2.2-0.8-4.3-1.6-6.4c-0.3-0.9-0.9-1.8-1.6-2.4c0.4,0,0.9-0.1,1.3-0.2c2.9-0.1,4.7-1.1,5.1-5.7
		c0-0.3,0.1-0.6,0.1-0.8l0-0.3c0.1-1.2,0.1-2.5,0-3.6l0.1-2.8L246.9,45.9z M235.6,46.6c-2.3,0.1-4.4,0.2-6.2,0.2c0-0.8,0-1.5,0-2.3
		c0-0.2,0-0.5,0.1-0.8c0-0.3,0.1-0.6,0.1-1l0-0.1l0-0.1c-0.2-1,0.1-2,0.6-2.8c0.2-0.2,0.5-0.3,0.8-0.3c0,0,0,0,0.1,0l0.1,0l0.1,0
		c1.2-0.3,2.5-0.6,3.8-0.7l0,0.1C235.5,41.4,235.7,44,235.6,46.6z M235.7,50c0,1.7,0,2.4-0.1,3.5l0,0.2c0,0.5,0,1.1,0,1.9
		c0,0.6,0,1.2-0.1,2c-0.3,0-0.6-0.1-0.8-0.1l-0.1,0l-0.1,0c-0.4,0-0.8,0-1.3-0.2c-2.2-0.4-3.1-0.6-3.3-3.1c-0.1-0.5-0.2-1-0.3-1.4
		c-0.2-0.8-0.3-1.6-0.2-2.4c1-0.1,2-0.1,3.1-0.1C233.8,50,234.8,50,235.7,50z M232.3,31.9c1.2-0.4,2.1-1.5,2.1-2.8
		c0.2-1.4,0-2.8-0.7-4c2-0.6,4.6-0.5,7.8,0.3c0.7,0.3,1.3,0.9,1.3,1.7c-0.1,1.2-0.5,1.2-0.6,1.2c-0.1,0-0.2,0-0.3,0
		c-1.3-0.4-2.7-0.7-4.1-0.8c-0.9-0.1-1.7,0.1-2.1,0.5c-0.4,0.4-0.6,0.9-0.6,1.6V33c-0.1,0.3-0.2,0.7-0.2,1.7c-2,0.1-4,0.4-5.8,1
		c-0.4,0.1-0.9,0.3-1.4,0.6C228.8,34.3,230.4,32.8,232.3,31.9z M243.6,54.2c0,0.1,0,0.2,0,0.3c0.1,2.4-0.6,2.7-3.3,2.8h-1.1l-0.1,0
		c-0.1,0-0.2,0-0.2,0.1c0-1.4-0.1-2.4-0.1-3.1l0-0.6c0-0.6,0-1,0-1.5c0-0.6,0-1.2,0-2.1l2.6,0c1,0.1,1.9,0.2,2.5,0.2
		c0,3.5-0.1,3.6-0.1,3.8L243.6,54.2L243.6,54.2z M243.6,43.8l0,0.1c0.1,0.9,0.1,1.9,0.1,2.8l-2.3,0c-1.2-0.1-2.1-0.2-2.9-0.2
		c-0.1-2.7-0.1-5.4,0.1-8c0.7,0,1.4,0.2,2.1,0.5l0.1,0c2.1,0.3,2.9,1.5,2.6,4C243.6,43.4,243.6,43.6,243.6,43.8z"/>
</g>
</svg>
