<?xml version="1.0" encoding="utf-8"?>
<!-- Generator: Adobe Illustrator 21.0.0, SVG Export Plug-In . SVG Version: 6.00 Build 0)  -->
<svg version="1.1" id="Layer_1" xmlns="http://www.w3.org/2000/svg" xmlns:xlink="http://www.w3.org/1999/xlink" x="0px" y="0px"
	 viewBox="0 0 400 100" style="enable-background:new 0 0 400 100;" xml:space="preserve">
<style type="text/css">
	.st0{fill:#047272;}
</style>
<title>03-hieroglyphs</title>
<g>
	<path class="st0" d="M96.1,35.8h19.5c0.8,0,1.5-0.7,1.5-1.5c0-6.7-5-12.2-11.2-12.2s-11.2,5.5-11.2,12.2
		C94.6,35.2,95.2,35.8,96.1,35.8z M97.7,32.8c0.6-4.4,4.1-7.7,8.1-7.7s7.5,3.3,8.1,7.7H97.7z"/>
	<path class="st0" d="M298.8,64.7c-6.2,0-11.2,5.5-11.2,12.2c0,0.8,0.7,1.5,1.5,1.5h19.5c0.8,0,1.5-0.7,1.5-1.5
		C310.1,70.2,305,64.7,298.8,64.7z M306.9,75.4h-16.3c0.6-4.4,4.1-7.7,8.1-7.7C302.9,67.7,306.3,71,306.9,75.4z"/>
	<rect x="89.6" y="42.1" class="st0" width="32" height="3"/>
	<polygon class="st0" points="146.5,26.9 151.6,34.7 154.1,33 146.6,21.8 131.1,42 133.4,43.9 	"/>
	<path class="st0" d="M173.2,19.9c-2-0.3-3.9,0.3-5.6,1.6c-3.4,2.7-4.2,4.9-5,7.3c-0.7,2-1.4,4.1-4.2,6.9
		c-5.3,5.5-11,15.1-12.7,18.1L131,62c-0.7,0.4-1,1.3-0.6,2c0.2,0.3,0.5,0.6,0.9,0.7c0.4,0.1,0.8,0.1,1.1-0.1l4.5-2.6l-4.5,4.2
		c-0.6,0.6-0.6,1.5-0.1,2.1c0.3,0.3,0.7,0.5,1.1,0.5c0.4,0,0.7-0.1,1-0.4l3.4-3.1l-1.5,1.7c-0.5,0.6-0.5,1.6,0.1,2.1
		c0.6,0.5,1.6,0.5,2.1-0.1l3.9-4.4l-1.3,2.8c-0.4,0.7,0,1.6,0.7,2c0.2,0.1,0.4,0.1,0.6,0.1c0.6,0,1.1-0.3,1.4-0.9l5.8-12.2
		c1.9-0.3,4.5-0.7,7.3-1.5c-0.1,1.8,0,6.4,2.3,9.6c1.1,1.6,1.6,3,1.9,4c-3.8,0.3-8.4,0.9-8.4,2.5c0,2.6,12.5,2.6,13.1,2.6
		s13.1,0,13.1-2.6c0-1.8-5.8-2.4-9.7-2.5c-0.3-1.4-1-3.4-2.5-5.7c-1.5-2.2-1.6-7.9-1.3-11.2c6.6-3.4,10.8-8.2,12.4-14.2
		c0.7-0.7,2-2.6,5.1-9.7c0.2-0.5,0.1-1.1-0.2-1.5C182.6,26.2,178.3,20.6,173.2,19.9z M164.4,64.7c1,1.5,1.6,2.8,1.9,3.9
		c-0.1,0-0.2,0-0.3,0c-0.1,0-0.7,0-1.7,0c-0.3-1.4-1-3.4-2.5-5.6c-2.2-3.1-1.7-8.4-1.7-8.4c0-0.2,0-0.3,0-0.4
		c0.2-0.1,0.4-0.1,0.5-0.2c0.6-0.2,1.3-0.5,1.9-0.7C162.3,56.2,162.3,61.8,164.4,64.7z M179.8,27.6c-1.6,3.7-3.3,7-3.9,7.8
		c-0.4,0.2-0.7,0.6-0.8,1c-2.9,12.8-19.3,16.3-25.8,17.2c2.3-3.8,7-11.4,11.3-15.8c3.2-3.3,4.1-5.8,4.9-8.1c0.7-2.2,1.3-3.7,4-5.9
		c0.9-0.7,1.7-1,2.7-1c0.2,0,0.4,0,0.6,0C175.8,23.3,178.7,26.3,179.8,27.6z"/>
	<path class="st0" d="M191.1,38.2h3.5c0.8,0,1.5-0.7,1.5-1.5s-0.7-1.5-1.5-1.5h-1.3l3.1-7.9l2.8,9.8c0.2,0.6,0.8,1.1,1.4,1.1h40
		c0.8,0,1.5-0.7,1.5-1.5s-0.7-1.5-1.5-1.5h-38.9l-3.7-13c-0.2-0.6-0.7-1.1-1.4-1.1c-0.6,0-1.2,0.4-1.5,1l-5.5,14.1
		c-0.2,0.5-0.1,1,0.2,1.4C190.1,38,190.6,38.2,191.1,38.2z"/>
	<path class="st0" d="M191.1,58.9h3.5c0.8,0,1.5-0.7,1.5-1.5s-0.7-1.5-1.5-1.5h-1.3l3.1-7.9l2.8,9.8c0.2,0.6,0.8,1.1,1.4,1.1h40
		c0.8,0,1.5-0.7,1.5-1.5s-0.7-1.5-1.5-1.5h-38.9l-3.7-13c-0.2-0.6-0.7-1.1-1.4-1.1c-0.6,0-1.2,0.3-1.5,1l-5.5,14.1
		c-0.2,0.5-0.1,1,0.2,1.4C190.1,58.6,190.6,58.9,191.1,58.9z"/>
	<path class="st0" d="M239.8,67.7c-0.1,0.1-0.3,0.2-0.4,0.2c-0.2,0.1-0.5,0.3-0.8,0.4l-0.2,0.1c-0.3,0.1-0.6,0.2-1,0.4l-0.2,0.1
		c-1,0.3-2,0.4-3.1,0.4c-2.4,0-5.2-0.7-7.9-1.5L224,67c-0.9-0.3-1.8-0.5-2.6-0.6c-1.6-0.3-3.2-0.3-5.4-0.2c-1.8,0.1-3.5,0.4-5.1,0.7
		c-1,0.2-2,0.4-3,0.6c-0.6,0.1-1.2,0.3-1.8,0.4l-2.2,0.4c-0.3,0.1-0.7,0.1-1,0.2l-0.5,0.1l-1,0c-0.5,0-0.9,0-1.4,0
		c-0.2,0-0.4,0-0.7,0c-0.4,0-0.8-0.1-1.2-0.1c-1.1-0.2-2.1-0.3-3.3-0.6c-0.4-0.1-0.7-0.2-1.1-0.2c-0.5-0.1-1-0.2-1.5-0.3
		c-1.4-0.3-2.2-0.6-2.2-0.6l-3.1-0.9l2.7,1.8c0,0,0.7,0.5,2.1,1.2c0.7,0.4,1.5,0.8,2.5,1.1l1.5,0.6c0.4,0.1,0.7,0.3,1.1,0.4
		c0.2,0.1,0.4,0.1,0.7,0.2c1.3,0.4,2.7,0.7,4.3,0.8l0.6,0l0.6,0c0.4,0,0.8,0,1.2-0.1c0.7,0,1.4-0.1,2.1-0.2l1.3-0.2
		c1.3-0.2,2.5-0.3,3.8-0.5c1.4-0.2,3.1-0.4,4.8-0.6c1.7-0.1,3.2-0.1,4.5,0c0.6,0.1,1.3,0.2,2.2,0.4l2.3,0.5c1.6,0.4,3.1,0.6,4.6,0.8
		c0.7,0.1,1.3,0.1,2,0.1c0.8,0,1.6-0.1,2.3-0.2c0.7-0.1,1.3-0.2,1.9-0.4l0.5-0.2c0.5-0.2,0.9-0.3,1.3-0.5l0.3-0.2
		c0.4-0.2,0.8-0.4,1.1-0.7l0.1-0.1c0.3-0.3,0.7-0.5,0.9-0.8l0.2-0.2c0.2-0.2,0.4-0.4,0.5-0.6l2.8-3.9l-3.8,2.9
		C240.1,67.5,240,67.6,239.8,67.7z"/>
	<circle class="st0" cx="258.6" cy="32.9" r="3"/>
	<path class="st0" d="M280.5,40.4c0.1,0.1,0.1,0.1,0.2,0.2c0.9,2.8,2.1,5.1,2.9,6.4c-2,0.2-4.5,0.6-4.5,1.9c0,1.9,6.1,2,6.8,2
		s6.8-0.1,6.8-2c0-1.2-2.2-1.6-4-1.8c1.4-1.3,2.3-3.1,3-5.1c0.1-0.1,0.1-0.1,0.2-0.2l5-7c0.5-0.7,0.3-1.6-0.3-2.1
		c-0.7-0.5-1.6-0.3-2.1,0.3l-1.5,2.2c0.1-1.2,0-2.5,0-3.6c-0.3-4.8-1.8-10.3-5-11.4c-1-0.3-2.6-0.4-4.3,1.5c-3.1,3.6-4.5,8.1-4,13.2
		l-2.8-3c-0.6-0.6-1.5-0.6-2.1-0.1c-0.6,0.6-0.6,1.5-0.1,2.1L280.5,40.4z M286,45.3c-2.1-3.7-7-14.1-0.3-21.6c0.5-0.6,0.8-0.7,1-0.7
		l0.1,0c1,0.3,2.6,3.6,3,8.8C290.1,36.4,289.3,42.5,286,45.3z"/>
	<path class="st0" d="M258.6,56.9c-0.8,0-1.5,0.7-1.5,1.5s0.7,1.5,1.5,1.5h38c4.7,0,13.5-2,13.5-9.5c0-0.8-0.7-1.5-1.5-1.5
		s-1.5,0.7-1.5,1.5c0,6.4-10.4,6.5-10.5,6.5H258.6z"/>
	<path class="st0" d="M272.6,63.7h-14c-0.8,0-1.5,0.7-1.5,1.5v8.7h-1c-0.8,0-1.5,0.7-1.5,1.5s0.7,1.5,1.5,1.5h2.5
		c0.8,0,1.5-0.7,1.5-1.5v-8.7h11v9.7h-2.5c-0.8,0-1.5,0.7-1.5,1.5s0.7,1.5,1.5,1.5h4c0.8,0,1.5-0.7,1.5-1.5V65.2
		C274.1,64.4,273.4,63.7,272.6,63.7z"/>
</g>
</svg>
