<?xml version="1.0" encoding="utf-8"?>
<!-- Generator: Adobe Illustrator 21.0.0, SVG Export Plug-In . SVG Version: 6.00 Build 0)  -->
<svg version="1.1" id="Layer_1" xmlns="http://www.w3.org/2000/svg" xmlns:xlink="http://www.w3.org/1999/xlink" x="0px" y="0px"
	 viewBox="0 0 400 100" style="enable-background:new 0 0 400 100;" xml:space="preserve">
<style type="text/css">
	.st0{fill:#047272;}
</style>
<title>04-phoenician</title>
<g>
	<path class="st0" d="M100.8,37v-9.8h-4V37h-19v4h19v13.4l-15.4,12l2.5,3.2l12.9-10.1V69h4V56.4L125.6,37H100.8z M100.8,41H114
		l-13.2,10.3V41z"/>
	<path class="st0" d="M154.1,51.7l-0.2-0.1c-1.4-12.4-5.9-24.3-6.2-25.1l-1.1-2.8L126,43.9l24,10.5c0.6,8-0.4,15.5-4.9,19.3l2.6,3.1
		c6.2-5.3,7.2-15.1,6.2-24.7L154.1,51.7z M133.1,42.6L145,30.8c1.7,4.9,3.6,11.9,4.6,18.9L133.1,42.6z"/>
	<path class="st0" d="M182.8,25.8l1.3,11.2l-12.3,3l-1-8.7l-4,0.5l4.7,41.8l4-0.5l-1.6-14l12.2-3.4l1.4,11.9l4-0.5l-4.7-41.8
		L182.8,25.8z M173.5,55l-1.3-11.1l12.3-3l1.2,10.7L173.5,55z"/>
	<path class="st0" d="M224.6,36.8l-7-9.3l-9.4,7.7l-10.2-12l-3.1,2.6l12.7,15l9.2-7.5l7.4,9.9l10.2-11.7l0.5,29.4
		c-1.1,4.7-2.9,9.4-3.9,10c0,0,0.1-0.1,0.3-0.1v4c3.8,0,6.2-7.2,7.5-13.3l0.1-0.2L238.4,21L224.6,36.8z"/>
	<path class="st0" d="M263.5,46.5v29.7h4V21.4l-26,26L263.5,46.5z M263.5,42.5l-12,0.5l12-12V42.5z"/>
	<path class="st0" d="M317.6,34c-5-6.7-11.6-10.7-17.8-10.7c-6.2,0-12.3,3.1-16.7,8.4c-4.7,5.8-6.7,13-5.3,20
		c1.6,8,6.2,21.5,19.1,22.2c0.3,0,0.6,0,1,0c10.8,0,22.3-9.4,24.9-17.7C324.8,49.4,322.9,41.1,317.6,34z M318.9,54.9
		c-2.2,6.9-12.9,15.3-21.8,14.8c-7.7-0.4-13-7-15.3-19c-1.1-5.6,0.6-11.9,4.5-16.6c3.6-4.4,8.6-7,13.6-7c4.9,0,10.4,3.5,14.6,9.1
		C318.9,42.4,320.6,49.5,318.9,54.9z"/>
</g>
</svg>
