<svg id="Layer_1" data-name="Layer 1" xmlns="http://www.w3.org/2000/svg" viewBox="0 0 400 100"><defs><style>.cls-1{fill:#047272;}</style></defs><title>11-renaissance</title><path class="cls-1" d="M142.11,23.58c-1.68,0-4.86.24-7.38.24-1.74,0-4.5-.06-5.58-.06-.36,0-.72.06-.84.42a10.48,10.48,0,0,0-.36,1.5c4.56.36,4.86.48,5,4.08.12,1.56.18,4.56.18,10.74V52.68c0,4.14-.06,9-.24,13.38-.06,2.94-.54,4.26-1.5,5.1a4.22,4.22,0,0,1-2.94,1.2,9,9,0,0,1-4.74-1.56,1.11,1.11,0,0,0-1.2-.12,13,13,0,0,0-1.92,1.86,1.81,1.81,0,0,0-.3,1,1.67,1.67,0,0,0,.6,1.26,7.25,7.25,0,0,0,4.26,1.62,6.73,6.73,0,0,0,2.94-.78c3-1.44,7-4.14,8.88-7.44a9.62,9.62,0,0,0,1.14-4.92c0-4.86.06-14.22.06-17.88V37.8c0-6.6.12-9.06.24-10.5.12-1.08.48-1.32,2.7-1.56l1.74-.24-.36-1.62C142.47,23.64,142.41,23.58,142.11,23.58Z"/><path class="cls-1" d="M166,44.82c-.18-.18-1.32.06-1.92.18a10.34,10.34,0,0,0-2.34-4,8,8,0,0,0-5.1-2.1,10.43,10.43,0,0,0-5.34,1.86A14.49,14.49,0,0,0,145,52.38a11.64,11.64,0,0,0,2.64,7.56,10.57,10.57,0,0,0,7.68,3.36,7.86,7.86,0,0,0,2.22-.3A21.55,21.55,0,0,0,165,59c.36-.36.42-.78.54-2.22,0-.18-.72-.18-1,.06a10.62,10.62,0,0,1-7.14,2.94c-4,0-7.14-2.52-7.32-8.4,0-.66.12-1,.42-1.08,2.58-.78,10.26-2.22,14.4-3.18.54-.18,1-1.26,1.08-1.8C166.17,45.12,166.17,44.94,166,44.82Zm-7.26,1.8c-2.7.72-5.46,1.14-8.28,1.92-.06-2.52.9-5.52,2.7-6.78a3,3,0,0,1,1.5-.54c2.46,0,4.74,2.76,4.74,4.44C159.38,46.32,159.08,46.56,158.72,46.62Z"/><path class="cls-1" d="M195.35,60.54c-1,.06-2.64.24-3.18.24-.18,0-.24-.12-.24-.6,0-1.38-.06-4-.06-8.34,0-2.58,0-4.08-.12-5.28-.3-2.58-1.08-4.74-2.7-5.94A6,6,0,0,0,185,39.3a8.43,8.43,0,0,0-3.36.84,44.65,44.65,0,0,0-5.22,2.7c-.3.06-.36-.24-.36-.48,0-1.08-.06-2.16-.12-3.18,0-.24-.3-.42-.54-.42a1.59,1.59,0,0,0-.72.18c-.3.24-2.94,1.68-5.46,2.88-.42.18-.6.3-.6.48-.18,1-.06.84.18,1.14,2.7.66,2.94.84,2.94,1.44.12,1.14.18,3.18.18,5.52a77,77,0,0,1-.36,8.28c-.24,1.62-.9,2-2.82,2.76l-.06,1.26c-.06.24,0,.36.18.36,1.14,0,3.12-.3,5.46-.3h5.16l.3-1.26c.12-.3,0-.42-.3-.48-3.12-.48-3.3-.6-3.3-1.38,0-3.24,0-11.82.12-13.86a1.75,1.75,0,0,1,.72-1.5,12.48,12.48,0,0,1,5-1.62,5.24,5.24,0,0,1,4,1.5c1.44,1.5,1.44,3.18,1.44,6.54a63.88,63.88,0,0,1-.3,8.16c-.3,1.68-1,2.16-2.7,2.82l.3,1.2c.06.24.36.24.72.24,2.28,0,4.08-.24,9.42-.24.3,0,.36,0,.48-.3a5.54,5.54,0,0,0,.3-1.5C195.66,60.72,195.54,60.54,195.35,60.54Z"/><path class="cls-1" d="M208.85,49.2c-2.46-1.26-4.92-2.52-4.92-5.22a2.87,2.87,0,0,1,2.64-3.12c3.06,0,4.68,2.76,5.46,4.32.54.78.78.84,1.74.84.12,0,.54-.3.54-.54a23.8,23.8,0,0,1-1.14-6,.36.36,0,0,0-.18-.36c-.18-.18-.3-.18-.42-.06a3.42,3.42,0,0,1-1.08.12c-1.26,0-2.52-.24-4-.24a8.92,8.92,0,0,0-5.16,1.86,6.35,6.35,0,0,0-2.64,5c0,3.9,4.38,5.76,5.88,6.6,1.8,1,5.34,2.4,5.34,5.58,0,2.22-2.34,3.48-3.72,3.48a5.54,5.54,0,0,1-4-2.16,14.67,14.67,0,0,1-2.7-4.68,5.29,5.29,0,0,0-1.44.42c-.12.06-.12.18-.18.36a30.84,30.84,0,0,1,0,6.66c-.06.3-.06.48.12.66a1.1,1.1,0,0,0,.54.12,2.2,2.2,0,0,1,2-.12,36,36,0,0,0,5.16.54,10.68,10.68,0,0,0,6.06-1.68,5.73,5.73,0,0,0,2.88-4.86C215.69,52,210.47,50,208.85,49.2Z"/><path class="cls-1" d="M232,38.76a16.19,16.19,0,0,0-6.78,1.92,11.47,11.47,0,0,0-4,3.42,12.6,12.6,0,0,0-2.4,7.14A13.59,13.59,0,0,0,221.3,59c2.34,3.06,6.9,4.38,9.12,4.38a15.85,15.85,0,0,0,8-2.58,12,12,0,0,0,4.68-9.84A11.93,11.93,0,0,0,232,38.76Zm3.54,21.3a4.86,4.86,0,0,1-2.94,1,7.72,7.72,0,0,1-5.64-2.7,11.78,11.78,0,0,1-2.94-8c0-3.84.72-6.3,2.28-8A4.65,4.65,0,0,1,229.4,41a8.24,8.24,0,0,1,5.1,2.1c2.52,2.28,3.6,6.18,3.6,9.84S236.84,58.74,235.52,60.06Z"/><path class="cls-1" d="M272.7,60.54c-1,.06-2.64.24-3.18.24-.18,0-.24-.12-.24-.6,0-1.38-.06-4-.06-8.34,0-2.58,0-4.08-.12-5.28-.3-2.58-1.08-4.74-2.7-5.94a6,6,0,0,0-4.08-1.32,8.43,8.43,0,0,0-3.36.84,44.65,44.65,0,0,0-5.22,2.7c-.3.06-.36-.24-.36-.48,0-1.08-.06-2.16-.12-3.18,0-.24-.3-.42-.54-.42a1.59,1.59,0,0,0-.72.18c-.3.24-2.94,1.68-5.46,2.88-.42.18-.6.3-.6.48-.18,1-.06.84.18,1.14,2.7.66,2.94.84,2.94,1.44.12,1.14.18,3.18.18,5.52a77,77,0,0,1-.36,8.28c-.24,1.62-.9,2-2.82,2.76L246,62.7c-.06.24,0,.36.18.36,1.14,0,3.12-.3,5.46-.3h5.16l.3-1.26c.12-.3,0-.42-.3-.48-3.12-.48-3.3-.6-3.3-1.38,0-3.24,0-11.82.12-13.86a1.75,1.75,0,0,1,.72-1.5,12.48,12.48,0,0,1,5-1.62,5.24,5.24,0,0,1,4,1.5c1.44,1.5,1.44,3.18,1.44,6.54a63.88,63.88,0,0,1-.3,8.16c-.3,1.68-1,2.16-2.7,2.82l.3,1.2c.06.24.36.24.72.24,2.28,0,4.08-.24,9.42-.24.3,0,.36,0,.48-.3a5.54,5.54,0,0,0,.3-1.5C273,60.72,272.88,60.54,272.7,60.54Z"/></svg>