<svg id="Layer_1" data-name="Layer 1" xmlns="http://www.w3.org/2000/svg" viewBox="0 0 400 100"><defs><style>.cls-1{fill:#047272;}</style></defs><title>12-hangul-revival</title><path class="cls-1" d="M139.95,66.61l-.7.05-3,.7a18,18,0,0,1-4.08.38,5.24,5.24,0,0,1-2.41-.35,1.52,1.52,0,0,1-.54-1.37V64.35a4.86,4.86,0,0,1,.13-1.07,4.79,4.79,0,0,0,.13-.75q0-1.23-2.11-2.07a10,10,0,0,0-3.51-.83q-1.62,0-1.62.81a5.19,5.19,0,0,0,1.18,1.72,29.74,29.74,0,0,1,3.27,4.24,10.52,10.52,0,0,0,3.6,4.29,6.35,6.35,0,0,0,3.54,1.18,12.22,12.22,0,0,0,4.51-1q3.11-1.23,3.11-2.9Q141.51,66.61,139.95,66.61Z"/><path class="cls-1" d="M150.68,46.81a4.51,4.51,0,0,0-2.36-.64,5.79,5.79,0,0,0-2.2.59,11.24,11.24,0,0,1-3.49,1.13V32.16a8.21,8.21,0,0,1,.11-1.23,7.87,7.87,0,0,0,.11-.91q0-1.66-2.63-3.25a9.14,9.14,0,0,0-4.45-1.58q-2.09,0-2.09.86a2.48,2.48,0,0,0,.91,1.5,20.78,20.78,0,0,1,2.31,2.36,8.83,8.83,0,0,1,1.61,2.52l.27,27.26q0,1.18.21,1.18.38,0,1.42-2A17,17,0,0,0,142,54.48a37.56,37.56,0,0,0,.64-4.45q1.61,0,5.2.27.7.05,2,.05a1.92,1.92,0,0,0,1.42-.51,1.59,1.59,0,0,0,.51-1.15A2.06,2.06,0,0,0,150.68,46.81Z"/><path class="cls-1" d="M117.31,41.6a12.86,12.86,0,0,1,4.53-1.1,65.35,65.35,0,0,1,7.06-.35,1.86,1.86,0,0,0,1.29-.48,1.48,1.48,0,0,0,.54-1.13,2.08,2.08,0,0,0-1.1-1.66,3.72,3.72,0,0,0-2.07-.75,2.75,2.75,0,0,0-.86.16,16.68,16.68,0,0,0-1.61.7,14,14,0,0,1-4.35,1.1q-2.63.3-9.07.3-1.5,0-1.5.54t1.66,1.56q.7.48,2.09,1.29a4.18,4.18,0,0,0,1.66.59A5.29,5.29,0,0,0,117.31,41.6Z"/><path class="cls-1" d="M127.53,55a5.84,5.84,0,0,0,2-4.51,7,7,0,0,0-2.63-5.79A7.61,7.61,0,0,0,122,43a7.74,7.74,0,0,0-5.85,2.42,6.36,6.36,0,0,0-1.93,4.45,6.26,6.26,0,0,0,2.52,4.83A9.27,9.27,0,0,0,123,56.84,6.57,6.57,0,0,0,127.53,55Zm-8.67-2.58a2.77,2.77,0,0,1-1.72-2.36,2.89,2.89,0,0,1,1.53-2.52,6.64,6.64,0,0,1,3.62-1,4.94,4.94,0,0,1,3.22,1,3,3,0,0,1-.32,4.94,4.58,4.58,0,0,1-2.68.91A7.33,7.33,0,0,1,118.86,52.44Z"/><path class="cls-1" d="M117.48,34.14a7.07,7.07,0,0,0,1.72,1,8.14,8.14,0,0,0,2,.16,7.25,7.25,0,0,0,3.18-.7,2.74,2.74,0,0,0,1.89-2.41,1.09,1.09,0,0,0-.4-.94,2.54,2.54,0,0,0-1.43-.29q-2.37,0-4.63-.11a16,16,0,0,1-3.56-.48l-1.19-.16q-.81,0-.81.43,0,.64,1.35,1.93A17.15,17.15,0,0,0,117.48,34.14Z"/><path class="cls-1" d="M190.42,52.17q0-.59-1-1.5a8.37,8.37,0,0,0-1.51-1.13,1.63,1.63,0,0,0-.86-.27l-2.91,1.07a44.24,44.24,0,0,1-4.64.62q-1.94.13-5.18.13h-3.13q-1.4,0-1.4.53,0,.74,2.25,2a8.39,8.39,0,0,0,3.11,1.22,3.21,3.21,0,0,0,1.37-.48,6.44,6.44,0,0,1,1.31-.59,16.5,16.5,0,0,1,3.78-.72q1.9-.13,4.21-.13v4.78a41.48,41.48,0,0,1-4.86.75q-2.33.21-7.49.21h-.75a4.23,4.23,0,0,0-1.72.24.74.74,0,0,0-.48.67q0,.7,1.82,1.85a6.31,6.31,0,0,1,2.12,1.77,9.51,9.51,0,0,1,.56,2.23l.32,1.93a5.4,5.4,0,0,0,2.12,3.35,6.25,6.25,0,0,0,3.84,1.26,15.83,15.83,0,0,0,4.88-.86q3.43-1.13,3.43-3,0-1.45-1.66-1.45l-3.86.75a15.3,15.3,0,0,1-2.79.21h-2.58q-1.07,0-1.29-.54a6.61,6.61,0,0,1-.21-2.09V62.21l4.7-.7a35.78,35.78,0,0,1,5.39-.37,2.4,2.4,0,0,0,1.69-.62,1.75,1.75,0,0,0,.67-1.26,1.33,1.33,0,0,0-.43-1l-.86-.86A5.56,5.56,0,0,1,189,55Q189.63,53.73,190.42,52.17Z"/><path class="cls-1" d="M196.59,41.63a5.88,5.88,0,0,0-2.9-.78,10.68,10.68,0,0,0-2.66.4q-1.53.4-3.51,1a30.1,30.1,0,0,1-5.63.38l3.6-3.06q4.94-4.29,4.94-6.33,0-1.56-2-4A18.14,18.14,0,0,0,185.05,26a3.92,3.92,0,0,0-2.25-.91q-1.13,0-6.76,2.63t-5.63,3.6q0,.91,2,1.66a8.31,8.31,0,0,0,2.79.59,4.9,4.9,0,0,0,3-1.29q3.38-2.68,3.81-2.68,1.07,0,2.55,1.8a5.24,5.24,0,0,1,1.48,3,6.27,6.27,0,0,1-1.18,3.06,45.12,45.12,0,0,1-4.35,5.42q-2.79.16-4.51.16-9.55.27-15.13.27h-2q-2.15,0-2.15.64,0,.86,3,2.36a11.42,11.42,0,0,0,4.08,1.5,2.47,2.47,0,0,0,1-.27A9.71,9.71,0,0,1,166,47q2.63-1,10.25-1.56t12.18-.59a36.3,36.3,0,0,1,5,.7,14,14,0,0,0,2.52.27,1.93,1.93,0,0,0,1.5-.59,2,2,0,0,0,.54-1.4A2.4,2.4,0,0,0,196.59,41.63Z"/><path class="cls-1" d="M216.64,35.16q.43,3.06.91,6.06.7,4.45,1.77,4.45.86,0,1.61-1.61a24.17,24.17,0,0,0,5.15.43l2.36.05a17.66,17.66,0,0,0,4.29-.43q2.25-.59,2.25-1.93a1.71,1.71,0,0,0-.29-.94,12.07,12.07,0,0,0-.78-1,15.6,15.6,0,0,0,1.18-4.67,38.61,38.61,0,0,0,.16-4v-.8a5.78,5.78,0,0,1,.16-1.29,5.33,5.33,0,0,0,.16-.91q0-.7-1.13-1.56a15.8,15.8,0,0,0-2.36-1.5,6.05,6.05,0,0,0-2.63-.75q-1.07,0-1.07.7,1,1.66,2,3.33a5.06,5.06,0,0,1,.86,2.42v9.28A28.32,28.32,0,0,1,226,41.6a38.32,38.32,0,0,1-5,.38v-5.9a26.22,26.22,0,0,0,5.93-.54q2.23-.53,2.23-1.5a2.54,2.54,0,0,0-1-1.74,3,3,0,0,0-1.9-.94,6.19,6.19,0,0,0-2.47,1.21,5.87,5.87,0,0,1-2.84,1.21l.05-.86q0-1.39-2.55-2.74a9.58,9.58,0,0,0-4.16-1.34q-1.72,0-1.72.86,0,.32,1.9,2.23A7.76,7.76,0,0,1,216.64,35.16Z"/><path class="cls-1" d="M240.76,49a6.07,6.07,0,0,0-2.82-.78,8,8,0,0,0-1.48.19q-.94.19-1.74.4a51.59,51.59,0,0,1-8.61,1.29q-5.66.48-15.91.48h-6.71q-1.61,0-1.61.58,0,.79,3.19,2.36a13.11,13.11,0,0,0,4.21,1.57,2.62,2.62,0,0,0,.94-.27l1.42-.59A24.63,24.63,0,0,1,218,52.9a89.4,89.4,0,0,1,9.12-.4A6.53,6.53,0,0,1,228.28,56a107,107,0,0,1,.38,11.48v3q0,1.66.38,1.66t1.5-2.25a25.16,25.16,0,0,0,1.93-7.19,53.2,53.2,0,0,0,.48-7.4,3.31,3.31,0,0,0-.32-1.4q-.75-1.56-.75-1.61,1.13,0,5.21.48a26.31,26.31,0,0,0,3,.21,2.26,2.26,0,0,0,1.58-.56,1.79,1.79,0,0,0,.62-1.37A2.27,2.27,0,0,0,240.76,49Z"/><path class="cls-1" d="M290.81,45.79a3.71,3.71,0,0,0-2.17-.7,16.87,16.87,0,0,0-3.43.86,7.13,7.13,0,0,1-2.15.38V33a13.3,13.3,0,0,1,.11-1.5q.11-.91.11-1.23,0-1.82-3.11-3.51A11.49,11.49,0,0,0,275,25.07q-1.23,0-1.23.8,0,.59,2.55,3t2.55,3.89V49.22l-12.88,1a3.92,3.92,0,0,1,.21-1.34q0-.27-.8-1a8.13,8.13,0,0,0,2.47-1.77A4.71,4.71,0,0,0,269,42.89a5.38,5.38,0,0,0-2.25-4.67A7.93,7.93,0,0,0,262,36.88a6.26,6.26,0,0,0-5.1,2.2,5.34,5.34,0,0,0-1.34,3.49A4.37,4.37,0,0,0,257.3,46a13.34,13.34,0,0,0,4.08,2.09,1.24,1.24,0,0,0-.32.43q.21.54.43,1a2.5,2.5,0,0,1,.21,1q-2.15.27-3.43.38-3.76.32-6.65.32-2.58,0-2.58.64t2.79,2.17a10.76,10.76,0,0,0,3.76,1.48,2.44,2.44,0,0,0,1.13-.35,9.92,9.92,0,0,1,1.51-.7,79,79,0,0,1,10.27-1.6q7.74-.89,10.38-.89l.14.32A4.82,4.82,0,0,1,279.3,54a9.25,9.25,0,0,0-1.31.66,9.6,9.6,0,0,1-1.82.82,13.08,13.08,0,0,1-3,.43q-2,.13-5.42.13h-4q-1.29,0-1.29.42,0,.58,2.15,1.71a8.24,8.24,0,0,0,2.9,1.14,2.88,2.88,0,0,0,1.13-.38,9.91,9.91,0,0,1,1.07-.48,17.8,17.8,0,0,1,4-.75q2.09-.16,4.56-.16v3.17q-2.25.43-5.1.75a65.89,65.89,0,0,1-7.19.32h-.21a4.93,4.93,0,0,0-1.42.19.74.74,0,0,0-.62.72q0,.64,2.09,1.93T267.92,67v.43q0,1.61,2.12,3.06A7.17,7.17,0,0,0,274,72a17.16,17.16,0,0,0,4.88-.8q3.43-1,3.43-2.74,0-1.18-1.61-1.18l-.54.05q-.54.05-3,.4a37.06,37.06,0,0,1-5.23.35,2.67,2.67,0,0,1-1.66-.32,2.3,2.3,0,0,1-.32-1.5V65q5.15-.54,6-.64l3.78-.48a5.18,5.18,0,0,0,1.69-.46,1,1,0,0,0,.54-.94,1.52,1.52,0,0,0-.38-.91,7.94,7.94,0,0,0-.64-.7,4.87,4.87,0,0,1,.8-2.47,5.87,5.87,0,0,0,.8-1.61q0-.37-.72-1.1a17.69,17.69,0,0,0-2-1.64,22.39,22.39,0,0,0,2.24-3.54l.87-1.82h3.68l3,.54a2.3,2.3,0,0,0,1.57-.46,1.48,1.48,0,0,0,.51-1.15A2.14,2.14,0,0,0,290.81,45.79ZM263,44.93a7,7,0,0,1-3.3-.72q-1.37-.72-1.37-1.69a2.54,2.54,0,0,1,1-2.09,5.19,5.19,0,0,1,3.22-.81,4.35,4.35,0,0,1,2.55.81,2.69,2.69,0,0,1,1.15,2.36,1.83,1.83,0,0,1-1,1.82A5.52,5.52,0,0,1,263,44.93Z"/><path class="cls-1" d="M256.6,29.85a13.2,13.2,0,0,0,1.88,1.5,5.5,5.5,0,0,0,1.8,1,7.83,7.83,0,0,0,1.42.11h.7a6,6,0,0,0,2.84-.86,2.46,2.46,0,0,0,1.56-2.09q0-1.07-1.5-1.07a43.54,43.54,0,0,1-8.16-.7l-1.23-.16c-.47,0-.7.13-.7.38S255.67,29,256.6,29.85Z"/><path class="cls-1" d="M251.5,36a18.91,18.91,0,0,0,2.2,1.18,3,3,0,0,0,1.34.43,2.64,2.64,0,0,0,.91-.29,13,13,0,0,1,1.29-.51,14.28,14.28,0,0,1,3.06-.67q1.66-.19,5.58-.19h3.92a2.09,2.09,0,0,0,1.45-.48,1.43,1.43,0,0,0,.54-1.07q0-.81-1.23-1.4a5.06,5.06,0,0,0-2.09-.59,3.47,3.47,0,0,0-1.1.19c-.38.13-.76.24-1.15.35a20.06,20.06,0,0,1-4.64.8q-2.55.16-10.44.16-1.34,0-1.34.54T251.5,36Z"/></svg>