<svg id="Layer_1" data-name="Layer 1" xmlns="http://www.w3.org/2000/svg" viewBox="0 0 400 100"><defs><style>.cls-1{fill:#047272;}</style></defs><title>15-modernist</title><path class="cls-1" d="M110,47.56q3.9-1.2,3.9-6.1V36.81q0-4.15-3-6a14.7,14.7,0,0,0-8-1.87,15,15,0,0,0-8,1.88q-3,1.88-3,6v21.3q0,4.65,1.8,6.72t6.1,2.08h3.35a15.34,15.34,0,0,0,8.1-1.87,6.54,6.54,0,0,0,3.05-6V53.76Q114.41,48.61,110,47.56Zm.4,11.95q0,3.9-7.25,3.9H99.91a3.5,3.5,0,0,1-3-1.2,7.19,7.19,0,0,1-.87-4.1V36.31q0-3.9,7-3.9t7,3.9v5.15q0,4.4-5.4,4.4H98.75q-1,0-1,1.75t1,1.75H105q5.4,0,5.4,4.4Z"/><path class="cls-1" d="M135.08,28.91a22.11,22.11,0,0,0-6,.72,8.76,8.76,0,0,0-4.2,2.55,6.63,6.63,0,0,0-1.65,4.63V65.76q0,1.15,2,1.15t2-1.15V52.21h15.15V65.76q0,1.15,2,1.15t2-1.15V36.81Q146.38,28.91,135.08,28.91Zm7.3,19.8H127.23V36.31q0-3.9,7.58-3.9t7.58,3.9Z"/><path class="cls-1" d="M177.05,29.41q-2,0-2,1.15V60q0,3.9-7.58,3.9T159.9,60l0-29.45q0-1.15-2-1.15t-2,1.15V59.51q0,7.9,11.4,7.9a16.87,16.87,0,0,0,8.52-1.87,6.44,6.44,0,0,0,3.23-6V30.56Q179.05,29.41,177.05,29.41Z"/><path class="cls-1" d="M209.76,29.41q-2,0-2,1.15V46.71H192.61V30.56q0-1.15-2-1.15t-2,1.15v35.2q0,1.15,2,1.15t2-1.15V50.21h15.15V65.76q0,1.15,2,1.15t2-1.15V30.56Q211.76,29.41,209.76,29.41Z"/><path class="cls-1" d="M233.17,28.91a22.11,22.11,0,0,0-6,.72,8.76,8.76,0,0,0-4.2,2.55,6.63,6.63,0,0,0-1.65,4.63V65.76q0,1.15,2,1.15t2-1.15V52.21h15.15V65.76q0,1.15,2,1.15t2-1.15V36.81Q244.48,28.91,233.17,28.91Zm7.3,19.8H225.33V36.31q0-3.9,7.58-3.9t7.58,3.9Z"/><path class="cls-1" d="M275.15,29.41q-2,0-2,1.15V60q0,3.9-7.58,3.9T258,60l0-29.45q0-1.15-2-1.15t-2,1.15V59.51q0,7.9,11.4,7.9a16.87,16.87,0,0,0,8.52-1.87,6.44,6.44,0,0,0,3.23-6V30.56Q277.15,29.41,275.15,29.41Z"/><path class="cls-1" d="M308.05,51.21q-.45-.7-.77-1.17a3.2,3.2,0,0,0-1.23-.92q-.9-.45-1.57-.83A36,36,0,0,0,299,46.86l-4.45-1a5.35,5.35,0,0,1-3.07-1.53,6.26,6.26,0,0,1-.83-3.77V36.31q0-3.9,6.83-3.9t6.82,3.9V39q0,1.15,2,1.15t2-1.15v-2.2q0-4.15-2.95-6a17.42,17.42,0,0,0-15.73,0q-3,1.88-3,6v3.85q0,5.5,3.3,7.25a18.6,18.6,0,0,0,4.6,1.55l4.45,1a18.14,18.14,0,0,1,4.5,1.5,2.57,2.57,0,0,1,1.3,2.4V60a3.12,3.12,0,0,1-2.17,3,13.35,13.35,0,0,1-5.35,1A12.93,12.93,0,0,1,292,63,3.09,3.09,0,0,1,290,60v-2.7q0-1.15-2-1.15t-2,1.15v2.2a6.48,6.48,0,0,0,3.17,6,15.69,15.69,0,0,0,8.15,1.9,16.25,16.25,0,0,0,8.25-1.9,6.43,6.43,0,0,0,3.27-6V54.76A6.62,6.62,0,0,0,308.05,51.21Z"/></svg>