<svg id="Layer_1" data-name="Layer 1" xmlns="http://www.w3.org/2000/svg" viewBox="0 0 400 100"><defs><style>.cls-1{fill:#047272;}</style></defs><title>16-korean-independance</title><polygon class="cls-1" points="148 43.78 141.75 43.78 141.75 27.28 137.55 27.28 137.55 71.28 141.75 71.28 141.75 47.48 148 47.48 148 72.43 152.3 72.43 152.3 26.78 148 26.78 148 43.78"/><path class="cls-1" d="M120.05,56.83V34.43H131.7v-3.7h-16v29.8h5.45a59.64,59.64,0,0,0,14-1.8V55.18a62.15,62.15,0,0,1-13.45,1.65Z"/><rect class="cls-1" x="162.65" y="27.13" width="15.45" height="3.6"/><rect class="cls-1" x="156.8" y="33.68" width="27.1" height="3.6"/><polygon class="cls-1" points="169.15 60.58 164.8 60.58 164.8 71.53 193.8 71.53 193.8 67.78 169.15 67.78 169.15 60.58"/><polygon class="cls-1" points="192.8 26.78 188.5 26.78 188.5 62.03 192.8 62.03 192.8 46.23 200 46.23 200 42.43 192.8 42.43 192.8 26.78"/><path class="cls-1" d="M181.45,47.88c0-4.35-3.5-8.25-11.15-8.25s-11.15,3.9-11.15,8.25,3.5,8.3,11.15,8.3S181.45,52.28,181.45,47.88Zm-18,0c0-2.4,1.9-4.8,6.85-4.8s6.85,2.4,6.85,4.8-2,4.8-6.85,4.8S163.45,50.28,163.45,47.88Z"/><rect class="cls-1" x="234.65" y="26.78" width="4.3" height="32.9"/><polygon class="cls-1" points="214.8 57.53 210.45 57.53 210.45 71.53 239.95 71.53 239.95 67.78 214.8 67.78 214.8 57.53"/><path class="cls-1" d="M224.6,29.18H203.7v22h20.9Zm-4.25,18.3H208V32.83h12.35Z"/><path class="cls-1" d="M287,47.63v-3.7h-8.4a139.32,139.32,0,0,0,1.2-15.85H250v3.75h25.4a97.12,97.12,0,0,1-1,12.1h-30.9v3.7h19.7v9.25h-13.4v3.65H275.6V72.58h4.3V56.88H267.6V47.63Z"/></svg>