<?xml version="1.0" encoding="utf-8"?>
<!-- Generator: Adobe Illustrator 21.0.0, SVG Export Plug-In . SVG Version: 6.00 Build 0)  -->
<svg version="1.1" id="Layer_1" xmlns="http://www.w3.org/2000/svg" xmlns:xlink="http://www.w3.org/1999/xlink" x="0px" y="0px"
	 viewBox="0 0 560 560" style="enable-background:new 0 0 560 560;" xml:space="preserve">
<style type="text/css">
	.st0{fill:#FFFFFF;}
	.st1{fill:#FCDFEB;}
	.st2{fill:#FFCE00;}
	.st3{fill:none;}
</style>
<g>
	<path class="st0" d="M258.9,333.7L258.9,333.7c-24.2,0-38.1,15.4-38.1,42.4v16.5c0,26.9,13.9,42.4,38.1,42.4h0
		c24.2,0,38.1-15.4,38.1-42.4v-16.5C297,349.1,283.1,333.7,258.9,333.7z M274.1,390.3c0,11.5-1.8,23.2-15.2,23.2h0
		c-13.4,0-15.2-11.7-15.2-23.2v-12c0-11.5,1.8-23.2,15.2-23.2h0c13.4,0,15.2,11.7,15.2,23.2V390.3z"/>
	<g>
		<path class="st1" d="M95,519.5h25.7v6.5h-9v23.5h-7.8V526H95V519.5z"/>
		<path class="st1" d="M240,519.5L229.2,540v9.6h-7.8v-9.4l-11-20.6h7.8l7.1,12.9l6.9-12.9H240z"/>
		<path class="st1" d="M354.3,522.3c2.1,1.8,3.2,4.4,3.2,7.8c0,3.5-1.1,6.3-3.2,8.2c-2.1,2-5.1,2.9-8.9,2.9H340v8.3h-7.8v-30h13.2
			C349.2,519.5,352.2,520.5,354.3,522.3z M348.7,533.8c0.9-0.8,1.3-2,1.3-3.5c0-1.5-0.4-2.6-1.3-3.4c-0.9-0.8-2.1-1.2-3.7-1.2h-5
			v9.2h5C346.6,535,347.8,534.6,348.7,533.8z"/>
		<path class="st1" d="M440.9,519.5h23.7v6.2h-15.8v5.6H463v6.2l-14.3,0v5.7H465v6.2h-24.1V519.5z"/>
	</g>
	<g>
		<g>
			<g>
				<path class="st0" d="M275.8,194.9c-4.9-8.1-11.6-14.5-20.2-19.1c-8.6-4.6-18.1-7-28.7-7c-10.6,0-20.2,2.3-28.7,7
					c-8.6,4.6-15.3,11-20.2,19.1c-4.9,8.1-7.3,17.2-7.3,27.3c0,10.2,2.4,19.4,7.3,27.7c4.9,8.3,11.6,14.7,20.2,19.4
					c8.6,4.7,18.1,7,28.7,7c10.6,0,20.1-2.4,28.7-7.1c8.6-4.7,15.3-11.2,20.2-19.4c4.9-8.2,7.3-17.4,7.3-27.6
					C283.2,212.1,280.7,203,275.8,194.9z M251.6,238c-2.5,4.7-5.9,8.4-10.2,11.1c-4.3,2.7-9,4.1-14.2,4.1c-0.1,0-0.2,0-0.3,0
					c-5-0.1-9.7-1.4-13.9-4.1c-4.4-2.7-7.8-6.4-10.5-11.1c-2.6-4.7-3.9-9.9-3.9-15.7c0-5.6,1.3-10.8,3.9-15.5
					c2.6-4.7,6.1-8.4,10.5-11.1c4.3-2.6,9-3.9,14-4c0.1,0,0.2,0,0.3,0c5.1,0,9.9,1.3,14.2,4c4.3,2.7,7.7,6.4,10.2,11.1
					c2.5,4.7,3.7,9.9,3.7,15.5C255.3,228.1,254.1,233.3,251.6,238z"/>
				<path class="st2" d="M255.7,175.8c-8.6-4.6-18.1-7-28.7-7v23c0.1,0,0.2,0,0.3,0c5.1,0,9.9,1.3,14.2,4c4.3,2.7,7.7,6.4,10.2,11.1
					c2.5,4.7,3.7,9.9,3.7,15.5c0,5.7-1.2,11-3.7,15.7c-2.5,4.7-5.9,8.4-10.2,11.1c-4.3,2.7-9,4.1-14.2,4.1c-0.1,0-0.2,0-0.3,0v23.2
					c10.6,0,20.2-2.4,28.7-7.1c8.6-4.7,15.3-11.2,20.2-19.4c4.9-8.2,7.3-17.4,7.3-27.6c0-10.1-2.4-19.2-7.3-27.3
					C271,186.8,264.2,180.4,255.7,175.8z"/>
				<rect x="323.7" y="215.2" class="st0" width="61.6" height="21.7"/>
				<polygon class="st0" points="389.1,192.1 389.3,170.4 323.7,170.4 323.7,192.1 				"/>
				<polygon class="st1" points="338.7,192.1 338.7,170.4 311.5,170.4 311.5,274.4 338.7,274.4 338.7,236.9 338.7,215.2 				"/>
			</g>
			<g>
				<rect x="76.6" y="373.6" class="st1" width="57.7" height="20.8"/>
				<rect x="76.6" y="335.2" class="st0" width="60.9" height="20.8"/>
				<path class="st0" d="M143.8,410.1c-15.7,2.2-35.1,2.5-45.2,2.5H113H98.6h-7l-11.1-0.2v21h11.1h2.6c15.3,0,37.3-0.3,52.3-2.7
					l2.4-0.4l-2.5-20.6L143.8,410.1z"/>
				<polygon class="st2" points="68,335.2 68,356 68,394.4 68,412.6 68,433.4 91.6,433.4 91.6,335.2 				"/>
				<rect x="160.4" y="373.7" class="st0" width="34" height="21.3"/>
				<polygon class="st1" points="175.4,324.5 151.7,324.5 151.7,467.4 175.4,467.4 175.4,395 175.4,373.7 				"/>
				<rect x="311.2" y="324.5" class="st1" width="23.8" height="142.9"/>
				<path class="st2" d="M258.9,333.7L258.9,333.7l0,21.4h0c13.4,0,15.2,11.7,15.2,23.2v12c0,11.5-1.8,23.2-15.2,23.2h0v21.4h0
					c24.2,0,38.1-15.4,38.1-42.4v-16.5C297,349.1,283.1,333.7,258.9,333.7z"/>
			</g>
			<g>
				<rect x="150.4" y="68.7" class="st2" width="27.1" height="47.5"/>
				<rect x="382.1" y="75" class="st3" width="0" height="19.6"/>
				<path class="st3" d="M296.5,61.6c3-2.8,4.5-6.8,4.5-12c0-5-1.5-8.9-4.5-11.6c-3-2.7-7.3-4.1-12.8-4.1h-17.2v31.9h17.2
					C289.2,65.8,293.4,64.4,296.5,61.6z"/>
				<rect x="382.1" y="33.9" class="st3" width="0" height="19.4"/>
				<rect x="38.9" y="19.6" class="st0" width="27.1" height="96.6"/>
				<polygon class="st2" points="97.2,34.6 97.2,12.2 8,12.2 8,34.6 38.9,34.6 66,34.6 				"/>
				<polygon class="st0" points="177.6,83.7 177.6,83.7 215.1,12.2 188,12.2 163.9,56.9 163.6,56.3 163.6,83.7 				"/>
				<polygon class="st1" points="163.9,83.7 163.9,56.9 139.3,12.2 112.1,12.2 150.4,83.7 				"/>
				<path class="st0" d="M283.6,33.9c5.5,0,9.8,1.4,12.8,4.1c3,2.7,4.5,6.6,4.5,11.6c0,5.2-1.5,9.2-4.5,12c-3,2.8-7.3,4.2-12.8,4.2
					h-32.2v21.7H285c13.3,0,23.5-3.4,30.9-10.2c7.3-6.8,11-16.3,11-28.6c0-11.6-3.7-20.5-11-26.9c-7.3-6.4-17.6-9.6-30.9-9.6h-33.6
					v21.7H283.6z"/>
				<polygon class="st1" points="266.4,87.4 266.4,65.8 266.4,33.9 266.4,12.2 239.3,12.2 239.3,116.2 266.4,116.2 				"/>
				<polygon class="st1" points="431.7,74.8 431.7,53.3 367.1,53.3 367.1,75 				"/>
				<rect x="367.1" y="94.5" class="st0" width="71.4" height="21.7"/>
				<rect x="367.1" y="12.2" class="st0" width="69.9" height="21.7"/>
				<polygon class="st2" points="382.2,94.5 382.1,94.5 382.1,75 382.2,75 382.2,53.3 382.1,53.3 382.1,33.9 382.2,33.9 382.2,12.2 
					355,12.2 355,116.2 382.2,116.2 				"/>
				<g>
					<path class="st0" d="M523.9,35.5c6.3,2.1,12.2,4.7,17.7,8l5.6-11.9l4.6-9.8c-5.3-3.4-11.4-6.1-18.3-8.2l-9.8,21.8
						C523.8,35.5,523.8,35.5,523.9,35.5z"/>
					<path class="st0" d="M491.4,91.1c-7.2-3-13.4-6.8-18.6-11.4l-6.1,12.2l-4.5,9c6.2,5.2,13.6,9.4,22.2,12.4
						c1.2,0.4,2.5,0.8,3.7,1.2l9.5-21.1C495.6,92.8,493.6,92,491.4,91.1z"/>
					<path class="st2" d="M506,49.1c-2.5-0.9-4.6-2.2-6.2-3.7c-1.7-1.5-2.5-3.4-2.5-5.7c0-2.4,1-4.2,2.9-5.4
						c1.9-1.2,4.6-1.9,7.9-1.9c4.2,0,9.4,1,15.6,3.1l9.8-21.8c-0.3-0.1-0.6-0.2-1-0.3c-7.3-2.1-14.7-3.2-22.3-3.2
						c-8.3,0-15.6,1.3-21.9,3.9c-6.3,2.6-11.1,6.4-14.5,11.2c-3.4,4.8-5.1,10.5-5.1,16.9c0,6.8,1.7,12.3,5,16.4
						c3.3,4.1,7.3,7.2,11.9,9.2c4.6,2,10.5,4,17.7,6c1,0.3,1.9,0.5,2.8,0.8l9.9-22.1C511.7,51.1,508.3,49.9,506,49.1z"/>
					<path class="st1" d="M547,68.5c-3.4-4.3-7.4-7.5-12.1-9.6c-4.7-2.1-10.7-4.2-17.9-6.2c-0.3-0.1-0.6-0.2-0.9-0.3l-9.9,22.1
						c3.4,1,6.2,1.8,8.3,2.6c2.6,0.9,4.8,2.2,6.5,3.8c1.7,1.6,2.6,3.6,2.6,5.9c0,2.9-1.2,5-3.5,6.5c-2.3,1.5-5.5,2.2-9.6,2.2
						c-3.9,0-8.1-0.7-12.8-2.2l-9.5,21.1c7.3,2.2,14.7,3.3,22,3.3c7.8,0,14.9-1.2,21.3-3.7c6.4-2.5,11.4-6.2,15.1-11.1
						c3.7-4.9,5.5-10.8,5.5-17.7C552,78.4,550.3,72.8,547,68.5z"/>
				</g>
			</g>
		</g>
		<g>
			<rect x="413" y="403.4" class="st0" width="23.6" height="33.5"/>
		</g>
		<g>
			<rect x="413.5" y="356" class="st3" width="23.2" height="34.4"/>
			<rect x="389.9" y="341" class="st0" width="23.6" height="64.4"/>
			<rect x="436.8" y="341" class="st0" width="23.6" height="64.4"/>
		</g>
		<polygon class="st2" points="413,429.4 359.2,429.4 359.2,450 490.5,450 490.5,429.4 436.7,429.4 		"/>
	</g>
	<polygon class="st1" points="436.7,410.9 477.6,410.9 477.6,390.4 460.2,390.4 436.6,390.4 413.4,390.4 389.7,390.4 372.1,390.4 
		372.1,410.9 413,410.9 413,410.9 436.7,410.9 	"/>
	<polygon class="st2" points="436.8,356 460.4,356 476.6,356 476.6,335.5 373.1,335.5 373.1,356 389.9,356 413.5,356 	"/>
</g>
</svg>
