<?xml version="1.0" encoding="utf-8"?>
<!-- Generator: Adobe Illustrator 21.0.0, SVG Export Plug-In . SVG Version: 6.00 Build 0)  -->
<svg version="1.1" id="Layer_1" xmlns="http://www.w3.org/2000/svg" xmlns:xlink="http://www.w3.org/1999/xlink" x="0px" y="0px"
	 viewBox="0 0 560 560" style="enable-background:new 0 0 560 560;" xml:space="preserve">
<style type="text/css">
	.st0{fill:#FCDFEB;}
	.st1{fill:none;}
	.st2{fill:#FFCE00;}
	.st3{fill:#FFFFFF;}
</style>
<g>
	<g>
		<path class="st0" d="M93.5,521.7h25.9v6.5h-9.1v23.7h-7.9v-23.7h-9V521.7z"/>
		<path class="st0" d="M239.5,521.7l-10.9,20.6v9.7h-7.9v-9.4l-11.1-20.8h7.9l7.2,13l7-13H239.5z"/>
		<path class="st0" d="M354.7,524.5c2.1,1.9,3.2,4.5,3.2,7.8c0,3.6-1.1,6.3-3.2,8.3c-2.1,2-5.1,3-9,3h-5.4v8.4h-7.9v-30.2h13.3
			C349.6,521.7,352.6,522.6,354.7,524.5z M349.1,536c0.9-0.8,1.3-2,1.3-3.5c0-1.5-0.4-2.6-1.3-3.4c-0.9-0.8-2.1-1.2-3.7-1.2h-5v9.3
			h5C346.9,537.2,348.2,536.8,349.1,536z"/>
		<path class="st0" d="M442,521.7h23.8v6.3h-16v5.6h14.4v6.3l-14.4,0v5.7h16.4v6.3H442V521.7z"/>
	</g>
	<g>
		<g>
			<g>
				<path class="st1" d="M226.7,253.4c5.2,0,9.9-1.4,14.3-4.1c4.3-2.7,7.7-6.5,10.2-11.2c2.5-4.7,3.7-10,3.7-15.8
					c0-5.7-1.2-10.9-3.7-15.6c-2.5-4.7-5.9-8.4-10.2-11.1c-4.3-2.7-9.1-4-14.3-4c-0.1,0-0.2,0-0.3,0v61.9
					C226.5,253.3,226.6,253.4,226.7,253.4z"/>
				<path class="st1" d="M201.8,206.6c-2.6,4.7-3.9,9.9-3.9,15.6c0,5.8,1.3,11,4,15.8c2.6,4.7,6.2,8.5,10.5,11.2c4.3,2.7,9,4,14,4.1
					v-61.9c-5.1,0.1-9.8,1.4-14.1,4C207.9,198.2,204.4,201.9,201.8,206.6z"/>
				<path class="st2" d="M255.3,175.3c-8.6-4.7-18.3-7-28.9-7v23.2c0.1,0,0.2,0,0.3,0c5.2,0,9.9,1.3,14.3,4
					c4.3,2.7,7.7,6.4,10.2,11.1c2.5,4.7,3.7,9.9,3.7,15.6c0,5.8-1.2,11-3.7,15.8c-2.5,4.7-5.9,8.5-10.2,11.2
					c-4.3,2.7-9.1,4.1-14.3,4.1c-0.1,0-0.2,0-0.3,0v23.3c10.7,0,20.3-2.4,28.9-7.2c8.6-4.8,15.4-11.3,20.3-19.6
					c4.9-8.3,7.4-17.5,7.4-27.8c0-10.2-2.5-19.3-7.4-27.5C270.7,186.4,264,180,255.3,175.3z"/>
				<path class="st3" d="M212.4,249.2c-4.4-2.7-7.9-6.5-10.5-11.2c-2.6-4.7-4-10-4-15.8c0-5.7,1.3-10.9,3.9-15.6
					c2.6-4.7,6.1-8.4,10.5-11.1c4.3-2.6,9.1-4,14.1-4v-23.2c-10.7,0-20.3,2.3-28.9,7c-8.6,4.7-15.4,11.1-20.3,19.3
					c-4.9,8.2-7.4,17.3-7.4,27.5c0,10.3,2.5,19.6,7.4,27.9c4.9,8.3,11.7,14.8,20.3,19.6c8.6,4.7,18.3,7.1,28.9,7.1v-23.3
					C221.4,253.3,216.7,251.9,212.4,249.2z"/>
				<rect x="339" y="215.1" class="st3" width="46.9" height="21.8"/>
				<polygon class="st3" points="389.8,191.8 389.9,170 339,170 339,191.8 				"/>
				<polygon class="st0" points="339,191.8 339,170 311.6,170 311.6,274.7 339,274.7 339,236.9 339,215.1 				"/>
			</g>
			<g>
				<rect x="415.7" y="356.9" class="st1" width="23.4" height="34.6"/>
				<rect x="90.1" y="374.6" class="st0" width="43" height="21"/>
				<rect x="90.1" y="335.9" class="st3" width="46.2" height="21"/>
				<path class="st3" d="M142.7,411.4c-15.8,2.2-35.3,2.5-45.5,2.5h14.5H97.1h-7.1v21h2.6c15.4,0,37.6-0.3,52.7-2.7l2.4-0.4
					l-2.5-20.7L142.7,411.4z"/>
				<polygon class="st2" points="66.3,335.9 66.3,356.9 66.3,395.6 66.3,413.9 66.3,434.9 90.1,434.9 90.1,413.9 90.1,395.6 
					90.1,374.6 90.1,356.9 90.1,335.9 				"/>
				<rect x="174.5" y="374.8" class="st3" width="19.1" height="21.4"/>
				<polygon class="st0" points="174.5,325.2 150.5,325.2 150.5,469.1 174.5,469.1 174.5,396.2 174.5,374.8 				"/>
				<rect x="308.2" y="325.2" class="st0" width="24" height="144"/>
				<path class="st3" d="M240.3,391.5v-12.1c0-11.6,1.8-23.4,15.3-23.4v-21.6c-24.4,0-38.4,15.6-38.4,42.7v16.6
					c0,27.1,14,42.7,38.4,42.7v-21.6C242.1,414.8,240.3,403,240.3,391.5z"/>
				<path class="st2" d="M255.6,334.4L255.6,334.4l0,21.6h0c13.5,0,15.3,11.8,15.3,23.4v12.1c0,11.6-1.8,23.4-15.3,23.4h0v21.6h0
					c24.4,0,38.4-15.6,38.4-42.7v-16.6C293.9,350,280,334.4,255.6,334.4z"/>
				<polygon class="st2" points="415.4,430.8 361.1,430.8 361.1,451.7 493.5,451.7 493.5,430.8 439.2,430.8 				"/>
				<rect x="391.9" y="356.9" class="st3" width="23.8" height="34.6"/>
				<polygon class="st2" points="439.2,356.9 463,356.9 479.3,356.9 479.3,336.2 375,336.2 375,356.9 391.9,356.9 415.7,356.9 				
					"/>
				<rect x="439.2" y="356.9" class="st3" width="23.8" height="34.6"/>
			</g>
			<g>
				<rect x="382.8" y="73.8" class="st1" width="0" height="19.7"/>
				<path class="st1" d="M296.5,60.3c3-2.8,4.6-6.8,4.6-12.1c0-5.1-1.5-9-4.6-11.7c-3-2.7-7.3-4.1-12.9-4.1h-17.3v32.1h17.3
					C289.1,64.5,293.4,63.1,296.5,60.3z"/>
				<rect x="382.8" y="32.3" class="st1" width="0" height="19.6"/>
				<rect x="36.9" y="33.1" class="st3" width="27.4" height="82.2"/>
				<polygon class="st2" points="95.6,33.1 95.6,10.5 5.8,10.5 5.8,33.1 36.9,33.1 64.3,33.1 				"/>
				<polygon class="st3" points="176.7,82.6 176.7,81.8 214.5,10.5 187.1,10.5 162.9,55.5 162.6,55 162.6,82.6 				"/>
				<polygon class="st2" points="149.3,82.6 149.3,115.3 176.7,115.3 176.7,82.6 162.6,82.6 				"/>
				<polygon class="st0" points="162.6,82.6 162.6,55 138.1,10.5 110.7,10.5 149.3,82.6 				"/>
				<path class="st3" d="M283.5,32.3c5.6,0,9.9,1.4,12.9,4.1c3,2.7,4.6,6.7,4.6,11.7c0,5.3-1.5,9.3-4.6,12.1
					c-3,2.8-7.3,4.2-12.9,4.2h-17.3v21.8h18.7c13.4,0,23.7-3.4,31.1-10.2c7.4-6.8,11.1-16.4,11.1-28.8c0-11.7-3.7-20.7-11.1-27.1
					c-7.4-6.4-17.7-9.6-31.1-9.6h-18.7v21.8H283.5z"/>
				<polygon class="st0" points="266.2,86.3 266.2,64.5 266.2,32.3 266.2,10.5 238.8,10.5 238.8,115.3 266.2,115.3 				"/>
				<polygon class="st0" points="432.7,73.6 432.7,51.9 382.8,51.9 382.8,73.8 				"/>
				<rect x="382.8" y="93.5" class="st3" width="56.8" height="21.8"/>
				<rect x="382.8" y="10.5" class="st3" width="55.3" height="21.8"/>
				<polygon class="st2" points="382.8,93.5 382.8,93.5 382.8,73.8 382.8,73.8 382.8,51.9 382.8,51.9 382.8,32.3 382.8,32.3 
					382.8,10.5 355.4,10.5 355.4,115.3 382.8,115.3 				"/>
				<g>
					<path class="st3" d="M525.6,34c6.3,2.1,12.3,4.8,17.9,8.1l5.6-11.9l4.7-9.9c-5.3-3.4-11.5-6.2-18.5-8.3l-9.9,22
						C525.5,34,525.5,34,525.6,34z"/>
					<path class="st3" d="M492.8,90c-7.2-3-13.5-6.8-18.8-11.5L468,90.8l-4.5,9.1c6.3,5.3,13.7,9.4,22.3,12.5
						c1.3,0.4,2.5,0.8,3.8,1.2l9.6-21.3C497.1,91.7,495,90.9,492.8,90z"/>
					<path class="st2" d="M507.6,47.7c-2.5-0.9-4.6-2.2-6.3-3.7c-1.7-1.5-2.5-3.5-2.5-5.8c0-2.4,1-4.2,2.9-5.5
						c1.9-1.2,4.6-1.9,8-1.9c4.2,0,9.5,1,15.7,3.1l9.9-22c-0.3-0.1-0.6-0.2-1-0.3c-7.4-2.1-14.8-3.2-22.4-3.2c-8.4,0-15.7,1.3-22,4
						c-6.3,2.6-11.2,6.4-14.6,11.3c-3.4,4.9-5.2,10.6-5.2,17c0,6.9,1.7,12.4,5,16.5c3.3,4.1,7.3,7.2,12,9.3c4.7,2,10.6,4.1,17.8,6.1
						c1,0.3,1.9,0.5,2.8,0.8l10-22.3C513.3,49.7,509.9,48.6,507.6,47.7z"/>
					<path class="st0" d="M548.8,67.2c-3.4-4.3-7.4-7.5-12.2-9.6c-4.7-2.1-10.7-4.2-18-6.3c-0.3-0.1-0.6-0.2-0.9-0.3l-10,22.3
						c3.4,1,6.2,1.8,8.3,2.6c2.6,0.9,4.8,2.2,6.6,3.8c1.7,1.6,2.6,3.6,2.6,6c0,2.9-1.2,5.1-3.5,6.6c-2.3,1.5-5.6,2.2-9.6,2.2
						c-3.9,0-8.2-0.7-12.9-2.2l-9.6,21.3c7.4,2.2,14.8,3.3,22.2,3.3c7.9,0,15-1.2,21.4-3.7c6.4-2.5,11.5-6.2,15.2-11.1
						c3.7-4.9,5.5-10.9,5.5-17.9C553.9,77.2,552.2,71.6,548.8,67.2z"/>
				</g>
			</g>
		</g>
		<g>
			<polygon class="st0" points="428.6,412.2 469.8,412.2 469.8,391.5 452.3,391.5 428.5,391.5 405.1,391.5 381.3,391.5 363.5,391.5 
				363.5,412.2 404.7,412.2 404.7,412.2 428.6,412.2 			"/>
			<rect x="404.7" y="412.2" class="st3" width="23.8" height="18.6"/>
		</g>
	</g>
</g>
</svg>
