<?xml version="1.0" encoding="utf-8"?>
<!-- Generator: Adobe Illustrator 21.0.0, SVG Export Plug-In . SVG Version: 6.00 Build 0)  -->
<svg version="1.1" id="Layer_1" xmlns="http://www.w3.org/2000/svg" xmlns:xlink="http://www.w3.org/1999/xlink" x="0px" y="0px"
	 viewBox="0 0 950 310" style="enable-background:new 0 0 950 310;" xml:space="preserve">
<style type="text/css">
	.st0{fill:#FCDFEB;}
</style>
<g>
	<path class="st0" d="M131.8,39.8V78h-8.2V46.4H86.4v-6.6C86.4,39.8,131.8,39.8,131.8,39.8z"/>
	<path class="st0" d="M256.4,70.9v6.7h-46.1V40.2h8.2v30.7C218.5,70.9,256.4,70.9,256.4,70.9z"/>
	<path class="st0" d="M379.3,71.7v6.6h-45.2V39.9h44.6v6.6h-36.2v25.2H379.3z"/>
	<path class="st0" d="M503.6,71.9v6.8h-46.5V55.4h37.5v-9.8H457V39h45.5v23H465v9.9C465,71.9,503.6,71.9,503.6,71.9z"/>
	<path class="st0" d="M626.5,40.1v38h-45.4v-38H626.5z M589.2,46.8v24.6h29.1V46.8H589.2z"/>
	<path class="st0" d="M713,39v12.5h28.8V39h8.2v39.4h-45.1V39H713z M713,71.2h28.8V58.8H713V71.2z"/>
	<path class="st0" d="M855.1,49.9c0,11.4,8.2,20.1,21.8,23l-3.9,6.6c-10.3-2.6-18-8.2-21.9-16.3c-4,8.1-11.7,13.7-22,16.3l-3.9-6.6
		c13.6-2.9,21.8-11.6,21.8-23V38.7h8.2L855.1,49.9L855.1,49.9z"/>
	<path class="st0" d="M131.9,155c0,11.8-10.2,20.2-22.7,20.2c-12.6,0-22.8-8.4-22.8-20.2s10.2-20.2,22.8-20.2S131.9,143.2,131.9,155
		z M94.3,155c0,7.8,6.5,13.1,14.9,13.1c8.3,0,14.8-5.4,14.8-13.1c0-7.8-6.5-13.1-14.8-13.1C100.8,141.9,94.3,147.2,94.3,155z"/>
	<path class="st0" d="M237.3,145.3c0,11.4,7.6,20.2,20.6,23.4l-3.9,6.4c-9.9-2.8-17.2-8.7-20.8-16.9c-3.6,8.2-11,14.1-20.8,16.9
		l-3.9-6.3c13-3.2,20.6-12.1,20.6-23.4v-3.5h-18.4v-6.8H256v6.7h-18.6L237.3,145.3L237.3,145.3z"/>
	<path class="st0" d="M361.3,151.1c0,9.8,7,17.6,20.2,20.2l-3.8,6.4c-10.4-2.3-17.8-7.8-21.3-15.8c-3.4,8-10.9,13.5-21.3,15.8
		l-3.8-6.4c13.1-2.6,20.2-10.4,20.2-20.2v-1.5h-17.9v-6.8h18.7v-10.7h8.3v10.6h18.6v6.8h-18L361.3,151.1L361.3,151.1z"/>
	<path class="st0" d="M503.1,135v40.1h-8.3v-16.2l-37.2,2.5l-1-7.2l38.2-1.8v-10.8h-36.5V135H503.1z"/>
	<path class="st0" d="M627.1,167.8v6.7h-46v-38.8h45.4v6.6h-37v9H626v6.7h-36.4v9.7h37.6V167.8z"/>
	<path class="st0" d="M752,167.7v6.7H703v-6.7h9.4v-25.8H704v-6.6h46.8v6.6h-8.3v25.8H752z M720.6,167.7h13.7v-25.8h-13.7V167.7z"/>
	<path class="st0" d="M875,140.4v6.8h-47.8v-6.8H847v-9.3h8.3v9.4L875,140.4L875,140.4z M869.5,165.2c0,8-7.8,13.6-18.3,13.6
		c-10.6,0-18.3-5.6-18.3-13.6c0-7.9,7.8-13.5,18.3-13.5S869.5,157.3,869.5,165.2z M861,165.2c0-4.1-4.2-6.6-9.8-6.6
		s-9.9,2.6-9.9,6.6c0,4.2,4.3,6.7,9.9,6.7C856.8,172,861,169.4,861,165.2z"/>
	<path class="st0" d="M108.3,231.8V270h-8.2v-31.6H82.6v-6.6L108.3,231.8L108.3,231.8z M137.1,231.7v38.2h-8.2v-31.6h-16.8v-6.6
		L137.1,231.7L137.1,231.7z"/>
	<path class="st0" d="M216,262.9c5.2-0.2,10.1-0.5,15.3-1.8l0.8,6.8c-7,1.5-13,1.8-20.2,1.8h-3.9v-37.8h23.2v6.6H216V262.9z
		 M258.1,263.1v6.6h-23.4v-37.8h23v6.6h-14.9v24.6H258.1z"/>
	<path class="st0" d="M339.3,231.7V244h8.8v-12.3h7.5v38.7h-23.8v-38.7H339.3z M339.3,263.6h8.8v-12.8h-8.8V263.6z M365.9,231.6
		v12.3h8.9v-12.3h7.6v38.7h-24v-38.7H365.9z M365.9,263.6h8.9v-12.9h-8.9V263.6z"/>
	<path class="st0" d="M498,239.8c0,8.9,3.5,18.4,13.2,22.7l-4.6,6c-6.6-3.1-10.7-8.6-12.9-15.2c-2.2,6.8-6.4,13-13.1,16.2
		c-6.7-3.4-10.8-9.6-13-16.4c-2.2,6.6-6.2,12.2-12.8,15.4l-4.6-6c9.6-4.6,13.1-14.5,13.1-22.8v-7.5h8.3v7.8c0,6.8,2.6,15.2,9,20.7
		c6.5-5.4,9-13.8,9-20.7v-7.8h8.2v7.6H498z"/>
	<path class="st0" d="M622.2,239.2c0,9.8,3.2,20.1,13.1,24.7l-4.9,6.5c-5.8-2.9-9.6-7.6-11.9-13.4c-2.4,6.6-6.8,11.6-14.2,14.3
		c-7.4-2.7-11.8-7.8-14.2-14.5c-2.4,5.8-6.2,10.6-12.2,13.5l-4.9-6.5c10-4.6,13.4-14.8,13.4-24.7v-1.8h-9.8v-6.7h26.2v6.7h-8.2v1.8
		c0,10.7,2.5,19,9.7,23.3c7.2-4.2,9.7-12.6,9.7-23.3v-1.8h-8.2v-6.7h26.1v6.7h-9.7L622.2,239.2L622.2,239.2z"/>
</g>
</svg>
