<svg id="Layer_1" data-name="Layer 1" xmlns="http://www.w3.org/2000/svg" viewBox="0 0 175 175"><defs><style>.cls-1{fill:#ffce00;}.cls-2{fill:#fcdfeb;}.cls-3{fill:none;}.cls-4{fill:#047272;}</style></defs><title>hwa-2</title><rect class="cls-1" x="116.08" y="19.16" width="41.59" height="143.24"/><rect class="cls-2" x="17.91" y="19.12" width="86.25" height="86.25"/><rect class="cls-1" x="17.91" y="118.15" width="87.02" height="41.59"/><path class="cls-3" d="M76,70.91c-2.94-3.27-8-5.13-14.33-5.13-7.26,0-12.89,2.41-15.54,6.57a11,11,0,0,0-1.68,5.93,10.88,10.88,0,0,0,2.74,7.38c2.94,3.27,8,5.13,14.33,5.13,7.26,0,12.89-2.41,15.54-6.57a11,11,0,0,0,1.68-5.93A10.88,10.88,0,0,0,76,70.91Z"/><polygon class="cls-4" points="99.71 36.93 68.77 36.93 68.77 22.37 54.35 22.37 54.35 36.93 23.27 36.93 23.27 48.55 99.71 48.55 99.71 36.93"/><path class="cls-4" d="M68.94,55.26h-.08a48,48,0,0,0-7.23-.54,48.64,48.64,0,0,0-7.28.54h-.11l-.44.08c-.73.12-1.45.25-2.15.41H51.6c-11.92,2.62-19.82,10-20.8,20.3v0c-.07.7-.11,1.41-.11,2.14,0,0,0,0,0,0s0,0,0,0c0,12.15,9.31,20.78,23.49,23h.08a48,48,0,0,0,7.23.54,48.64,48.64,0,0,0,7.28-.54h.11l.44-.08q1.09-.18,2.15-.41h.06c11.92-2.62,19.82-10,20.8-20.3v0c.07-.7.11-1.41.11-2.14,0,0,0,0,0,0s0,0,0,0C92.43,66.08,83.12,57.45,68.94,55.26ZM61.49,90.79c-6.3,0-11.4-1.86-14.33-5.13a10.88,10.88,0,0,1-2.74-7.38,11,11,0,0,1,1.68-5.93c2.65-4.16,8.27-6.57,15.54-6.57,6.3,0,11.4,1.86,14.33,5.13a10.88,10.88,0,0,1,2.74,7.38A11,11,0,0,1,77,84.22C74.38,88.37,68.76,90.79,61.49,90.79Z"/></svg>