<?xml version="1.0" encoding="utf-8"?>
<!-- Generator: Adobe Illustrator 21.0.0, SVG Export Plug-In . SVG Version: 6.00 Build 0)  -->
<svg version="1.1" id="Layer_1" xmlns="http://www.w3.org/2000/svg" xmlns:xlink="http://www.w3.org/1999/xlink" x="0px" y="0px"
	 viewBox="0 0 900 300" style="enable-background:new 0 0 900 300;" xml:space="preserve">
<style type="text/css">
	.st0{fill:#047272;}
	.st1{fill:#FCDFEB;}
	.st2{fill:#FFCE00;}
	.st3{fill:#FFFFFF;}
	.st4{opacity:0.7;}
	.st5{fill:none;}
	.st6{font-family:'WorkSans-Regular';}
	.st7{font-size:24.6822px;}
</style>
<path class="st1" d="M42.1,124.9c11,0,22.3-0.9,34.6-3.4l0.9,5.8c-13,2.6-24.7,3.5-36.3,3.5h-6V81.1h6.9V124.9z"/>
<polygon class="st2" points="103.1,110 90.8,110 90.8,150 83.9,150 83.9,73.7 90.8,73.7 90.8,104.2 103.1,104.2 "/>
<rect x="113.7" y="112.6" class="st2" width="69.2" height="5.6"/>
<polygon class="st2" points="129.6,142.5 175.4,142.5 175.4,148.2 122.6,148.2 122.6,125.9 129.6,125.9 "/>
<polygon class="st1" points="175,102.4 123.1,102.4 123.1,76.5 130.1,76.5 130.1,96.7 175,96.7 "/>
<polygon class="st1" points="269.1,88.7 224.1,88.7 224.1,83.1 243.1,83.1 243.1,73.8 250.1,73.8 250.1,83.1 269.1,83.1 "/>
<path class="st1" d="M246.6,92.9c-10.8,0-18.2,5.6-18.2,14.1c0,8.6,7.4,14.2,18.2,14.2s18.3-5.6,18.3-14.2
	C264.9,98.6,257.4,92.9,246.6,92.9z M246.6,115.8c-7,0-11.6-3.4-11.6-8.8c0-5.3,4.6-8.7,11.6-8.7c6.9,0,11.7,3.4,11.7,8.7
	C258.2,112.4,253.5,115.8,246.6,115.8z"/>
<polygon class="st3" points="242.6,142.6 286.5,142.6 286.5,148.3 235.6,148.3 235.6,126.5 242.6,126.5 "/>
<polygon class="st2" points="294.4,98.9 294.4,104.8 283.1,104.8 283.1,131 276.1,131 276.1,73.8 283.1,73.8 283.1,98.9 "/>
<path class="st1" d="M357.1,104.6c2-9.2,2-15.9,2-21.6h-44.6v-5.6H366v5.5c0,5.7,0,12.7-1.9,21.7H357.1z"/>
<path class="st1" d="M405.2,79.1c-11.3,0-19.8,7.7-19.8,18.7c0,11.1,8.5,18.9,19.8,18.9c11.4,0,20-7.8,20-18.9
	C425.2,86.8,416.6,79.1,405.2,79.1z M405.2,110.6c-7.4,0-13-5.3-13-12.9c0-7.4,5.6-12.7,13-12.7c7.6,0,13.2,5.3,13.2,12.7
	C418.4,105.4,412.8,110.6,405.2,110.6z"/>
<polygon class="st3" points="448.6,142.6 448.6,148.3 397.1,148.3 397.1,123.8 404.1,123.8 404.1,142.6 "/>
<rect x="439.3" y="73.8" class="st2" width="7" height="55.7"/>
<path class="st1" d="M480.6,79.6c-11.3,0-19.4,10.4-19.4,26.6c0,16.3,8.1,26.6,19.4,26.6c11.3,0,19.4-10.4,19.4-26.6
	C500,90,492,79.6,480.6,79.6z M480.6,126.6c-7.5,0-12.8-8-12.8-20.4c0-12.3,5.3-20.3,12.8-20.3c7.4,0,12.7,8,12.7,20.3
	C493.3,118.6,488,126.6,480.6,126.6z"/>
<rect x="513.9" y="73.7" class="st2" width="7" height="76.5"/>
<path class="st1" d="M588.8,79.6c-11.2,0-19.2,10.4-19.2,26.6c0,16.3,8,26.6,19.2,26.6s19.2-10.4,19.2-26.6
	C608,90,600.1,79.6,588.8,79.6z M588.8,126.6c-7.4,0-12.6-8-12.6-20.4c0-12.3,5.2-20.3,12.6-20.3c7.3,0,12.5,8,12.5,20.3
	C601.3,118.6,596.1,126.6,588.8,126.6z"/>
<polygon class="st2" points="639.8,110 627.2,110 627.2,150 620.2,150 620.2,73.8 627.2,73.8 627.2,104.2 639.8,104.2 "/>
<path class="st1" d="M693.9,106.7c-12.8,2.6-24.2,3.5-37.5,3.5h-6.1V77.5h7v26.8c12.5,0,23.6-0.9,35.6-3.4L693.9,106.7z"/>
<path class="st3" d="M701.4,117.5v10.2h-35.3v-10.2h-6.9V149h49.1v-31.5H701.4z M701.4,143.3h-35.3v-10.1h35.3V143.3z"/>
<rect x="699.3" y="73.8" class="st2" width="7" height="40.2"/>
<path class="st1" d="M731.9,124.3c11.5,0,23.3-1,36-3.6l0.8,6c-13.3,2.7-25.3,3.6-37.5,3.6h-6.3V81.1h7V124.3z"/>
<rect x="774.7" y="73.7" class="st2" width="7" height="76.3"/>
<path class="st1" d="M806.4,125.2c13.5,0,23.3-0.6,34.4-2.6l0.8,5.8c-11.7,2.2-21.7,2.7-36.1,2.7h-6V81h35.5v5.8h-28.5V125.2z"/>
<polygon class="st2" points="867.5,109.6 854.9,109.6 854.9,150.2 847.9,150.2 847.9,73.7 854.9,73.7 854.9,103.8 867.5,103.8 "/>
<rect x="37.8" y="220.5" class="st5" width="61" height="38.1"/>
<text transform="matrix(1 0 0 1 53.7124 238.5605)"><tspan x="0" y="0" class="st1 st6 st7">n</tspan><tspan x="15.3" y="0" class="st2 st6 st7">a</tspan></text>
<rect x="112" y="220.5" class="st5" width="61" height="38.1"/>
<text transform="matrix(1 0 0 1 112.2227 238.5605)"><tspan x="0" y="0" class="st1 st6 st7">n</tspan><tspan x="15.3" y="0" class="st2 st6 st7">oo</tspan><tspan x="45.3" y="0" class="st3 st6 st7">n</tspan></text>
<rect x="235.1" y="220.5" class="st5" width="61" height="38.1"/>
<text transform="matrix(1 0 0 1 243.3584 238.5605)"><tspan x="0" y="0" class="st1 st6 st7">h</tspan><tspan x="15.3" y="0" class="st2 st6 st7">a</tspan><tspan x="29.2" y="0" class="st3 st6 st7">n</tspan></text>
<rect x="304.4" y="220.5" class="st5" width="61" height="38.1"/>
<text transform="matrix(1 0 0 1 306.1245 238.5605)"><tspan x="0" y="0" class="st1 st6 st7">g</tspan><tspan x="13.6" y="0" class="st2 st6 st7">oo</tspan><tspan x="43.6" y="0" class="st3 st6 st7">k</tspan></text>
<rect x="386.5" y="220.5" class="st5" width="61" height="38.1"/>
<text transform="matrix(1 0 0 1 395.0005 238.5605)"><tspan x="0" y="0" class="st2 st6 st7">ee</tspan><tspan x="28.7" y="0" class="st3 st6 st7">n</tspan></text>
<rect x="465.1" y="220.5" class="st5" width="61" height="38.1"/>
<text transform="matrix(1 0 0 1 481.3008 238.5605)" class="st2 st6 st7">ee</text>
<rect x="569.6" y="220.5" class="st5" width="61" height="38.1"/>
<text transform="matrix(1 0 0 1 593.1221 238.5605)" class="st2 st6 st7">a</text>
<rect x="652" y="220.5" class="st5" width="61" height="38.1"/>
<text transform="matrix(1 0 0 1 652.7793 238.5605)"><tspan x="0" y="0" class="st1 st6 st7">n</tspan><tspan x="15.3" y="0" class="st2 st6 st7">ee</tspan><tspan x="44" y="0" class="st3 st6 st7">b</tspan></text>
<rect x="727.6" y="220.5" class="st5" width="61" height="38.1"/>
<text transform="matrix(1 0 0 1 736.1768 238.5605)"><tspan x="0" y="0" class="st1 st6 st7">n</tspan><tspan x="15.3" y="0" class="st2 st6 st7">ee</tspan></text>
<rect x="802.9" y="220.5" class="st5" width="61" height="38.1"/>
<text transform="matrix(1 0 0 1 818.6709 238.5605)"><tspan x="0" y="0" class="st1 st6 st7">d</tspan><tspan x="15.5" y="0" class="st2 st6 st7">a</tspan></text>
<polygon class="st2" points="343.7,110.3 343.7,124.3 336.7,124.3 336.7,110.3 305.7,110.3 305.7,104.6 374.9,104.6 374.9,110.3 "/>
<polygon class="st2" points="366.4,124.3 366.4,150 359.4,150 359.4,129.9 313,129.9 313,124.3 "/>
</svg>
