<?xml version="1.0" encoding="utf-8"?>
<!-- Generator: Adobe Illustrator 21.0.0, SVG Export Plug-In . SVG Version: 6.00 Build 0)  -->
<svg version="1.1" id="Layer_1" xmlns="http://www.w3.org/2000/svg" xmlns:xlink="http://www.w3.org/1999/xlink" x="0px" y="0px"
	 viewBox="0 0 900 200" style="enable-background:new 0 0 900 200;" xml:space="preserve">
<style type="text/css">
	.st0{fill:#FCDFEB;}
	.st1{fill:#FFCE00;}
	.st2{fill:#FFFFFF;}
</style>
<g>
	<rect x="378.1" y="52.4" class="st0" width="43.8" height="43.8"/>
	<rect x="429.3" y="52.1" class="st1" width="21.1" height="72.8"/>
	<rect x="406.6" y="129.7" class="st2" width="43.8" height="43.8"/>
	<rect x="672" y="129.3" class="st2" width="43.8" height="43.8"/>
	<rect x="646.2" y="52.2" class="st0" width="43.8" height="43.8"/>
	<rect x="694.7" y="51.8" class="st1" width="21.1" height="72.8"/>
	<rect x="257.1" y="129.7" class="st2" width="43.8" height="43.8"/>
	<rect x="228.3" y="52.4" class="st0" width="43.8" height="43.8"/>
	<rect x="279.5" y="52.1" class="st1" width="21.1" height="72.8"/>
	<rect x="31.6" y="71.9" class="st0" width="43.8" height="43.8"/>
	<rect x="80.1" y="71.5" class="st1" width="21.1" height="72.8"/>
	<rect x="459" y="71.9" class="st0" width="43.8" height="43.8"/>
	<rect x="507.5" y="71.5" class="st1" width="21.1" height="72.8"/>
	<rect x="720.7" y="71.9" class="st0" width="43.8" height="43.8"/>
	<rect x="769.2" y="71.5" class="st1" width="21.1" height="72.8"/>
	<rect x="795.1" y="71.9" class="st0" width="43.8" height="43.8"/>
	<rect x="843.6" y="71.5" class="st1" width="21.1" height="72.8"/>
	<rect x="569" y="71.9" class="st0" width="43.8" height="43.8"/>
	<rect x="617.5" y="71.5" class="st1" width="21.1" height="72.8"/>
	<rect x="120.2" y="52" class="st0" width="43.8" height="43.8"/>
	<rect x="120.2" y="129.7" class="st2" width="43.8" height="43.8"/>
	<rect x="120.2" y="102.3" class="st1" width="44.2" height="21.1"/>
	<rect x="312.8" y="52.2" class="st0" width="43.8" height="43.8"/>
	<rect x="312.8" y="129.7" class="st2" width="43.8" height="43.8"/>
	<rect x="312.8" y="103.1" class="st1" width="44.2" height="21.1"/>
</g>
</svg>
