<?xml version="1.0" encoding="utf-8"?>
<!-- Generator: Adobe Illustrator 21.0.0, SVG Export Plug-In . SVG Version: 6.00 Build 0)  -->
<svg version="1.1" id="Layer_1" xmlns="http://www.w3.org/2000/svg" xmlns:xlink="http://www.w3.org/1999/xlink" x="0px" y="0px"
	 viewBox="0 0 950 310" style="enable-background:new 0 0 950 310;" xml:space="preserve">
<style type="text/css">
	.st0{fill:#FFCE00;}
</style>
<g>
	<path class="st0" d="M127.4,56.3h-15.9v36.1h-8.2V21.2h8.2v28.2h15.9V56.3z"/>
	<path class="st0" d="M265,47.6v13.3h15.5v6.8H265v24.7h-8.2V21.2h8.2v19.7h15.5v6.8H265z"/>
	<path class="st0" d="M432,21.2v71.2h-8.2V55.9h-16.2v-6.8h16.2V21.2H432z"/>
	<path class="st0" d="M587.9,21.2v71.2h-8.3V66.3h-16.3v-6.8h16.3V46.6h-16.3v-6.8h16.3V21.2H587.9z"/>
	<path class="st0" d="M142,163.8v6.8H76.9v-6.8h28.4v-29h8.2v29H142z"/>
	<path class="st0" d="M298,164.8v6.7h-65.2v-6.7h15.9v-30.6h8.2v30.6h17.2v-30.6h8.1v30.6H298z"/>
	<path class="st0" d="M453.6,141.1h-28.5v30.2h-8.2v-30.2h-28.4v-6.8h65.1V141.1z"/>
	<path class="st0" d="M608.8,141h-16.6v30.4H584V141h-15.8v30.4H560V141h-16.3v-6.8h65.2V141z"/>
	<path class="st0" d="M766.4,149.4v6.8h-65.1v-6.8H766.4z"/>
	<path class="st0" d="M114,213.2v71.2h-8.2v-71.2H114z"/>
	<path class="st0" d="M279.2,213.2v71.3h-7.8v-36.6h-11v33.9h-7.8v-67.4h7.8v26.6h11v-27.9H279.2z"/>
	<path class="st0" d="M434.4,213.2v71.3h-7.8v-26.1h-10.6v23.4h-7.8v-67.6h7.8v17.4h10.6v-18.4H434.4z M426.5,251.6v-13.2h-10.6
		v13.2H426.5z"/>
	<path class="st0" d="M570.1,214.4h7.8V282h-7.8v-34.2h-12v-6.8h12V214.4z M592.8,213.2v71.2H585v-71.2H592.8z"/>
	<path class="st0" d="M725.8,214.4h7.7V282h-7.7V258h-12.6v-6.8h12.6v-12.6h-12.5v-6.8h12.5V214.4z M748.2,213.2v71.2h-7.8v-71.2
		H748.2z"/>
</g>
</svg>
