<svg id="Layer_1" data-name="Layer 1" xmlns="http://www.w3.org/2000/svg" viewBox="0 0 400 100"><defs><style>.cls-1{fill:#047272;}</style></defs><title>01-cuneiform</title><polygon class="cls-1" points="260.11 24.08 273.69 37.65 273.69 75.92 274.66 75.92 274.66 37.65 288.23 24.08 260.11 24.08"/><polygon class="cls-1" points="303.26 39.63 303.26 37.17 316.34 24.08 288.23 24.08 302.29 38.14 302.29 39.63 288.23 39.63 302.29 53.69 302.29 75.92 303.26 75.92 303.26 52.72 316.34 39.63 303.26 39.63"/><polygon class="cls-1" points="172.62 65.42 186.68 51.36 172.62 37.31 172.62 65.42"/><polygon class="cls-1" points="115.42 37.65 128.99 24.08 100.87 24.08 114.45 37.65 114.45 50.88 97.23 50.88 83.66 37.31 83.66 65.42 97.23 51.85 114.45 51.85 114.45 62.35 100.88 75.92 128.99 75.92 115.42 62.35 115.42 37.65"/><polygon class="cls-1" points="233.97 50.88 213.13 50.88 213.13 37.17 226.22 24.08 198.1 24.08 212.16 38.14 212.16 50.88 201.1 50.88 187.52 37.31 187.52 65.42 201.09 51.85 212.16 51.85 212.16 75.92 213.13 75.92 213.13 51.85 233.97 51.85 233.97 51.37 248.03 65.42 248.03 37.31 233.97 51.37 233.97 50.88"/><polygon class="cls-1" points="144.02 37.17 157.1 24.08 128.99 24.08 143.05 38.14 143.05 61.86 143.05 61.86 128.99 75.92 157.11 75.92 144.02 62.83 144.02 37.17"/></svg>