<svg id="Layer_1" data-name="Layer 1" xmlns="http://www.w3.org/2000/svg" viewBox="0 0 400 100"><defs><style>.cls-1{fill:#047272;}</style></defs><title>02-hanja</title><path class="cls-1" d="M273,35q-4.4-3.78-6.71-5.55a9.31,9.31,0,0,0,.42-1.51l.63-1.51a4.48,4.48,0,0,0-.63-3.28q-.84-1-1.47,1.51a54.47,54.47,0,0,0-1.47,5.3q-1.68,5.55-2.52,7.82-4.4-11.6-5.87-14.63c-.42-.84-.91-1.17-1.47-1s-.56.93-.42,2.27a53.59,53.59,0,0,0,2.1,5.3q-1.89,1.51-5.24,4.29a4.7,4.7,0,0,1-1,1,2.64,2.64,0,0,0-.63,2c.28.5.77.59,1.47.25a71.07,71.07,0,0,1,6.71-4,18.31,18.31,0,0,0,1,2.52l.63,1.51a17.66,17.66,0,0,1,1.26,6.3V44.8h-7.34q-2.1-.25-1.89,1.51c0,1.35.49,2,1.47,2a55.7,55.7,0,0,1,7.76-.5q0,3,.21,6.05h-7.55c-1.54-.17-2.31.34-2.31,1.51q-.21,2.27,1.89,2t8-.25q0,13.87-.21,19.16c0,1.51.35,2.27,1,2.27q1-.51,1.26-3.28V57.15q3.14-.25,7.13-.25,2.52.25,2.31-1.51,0-1.51-1.89-1.51h-7.55V47.82q2.93-.25,6.08-.25,2.09,0,2.1-1.51-.21-1.51-2.31-1.51-2.52.25-5.87.25v-1a15.09,15.09,0,0,1,1.26-5.8q.42-1,1.26-3.53c.28-.84.49-1.43.63-1.76q2.52,1.51,6.71,4.54a1.3,1.3,0,0,0,1.47-.5A2,2,0,0,0,273,35Z"/><path class="cls-1" d="M156.43,40.21H145.81q0-2.65.24-8v-7q0-4.83-1.69-4.83-1.93,0-1.69,5.55.24,5.07.24,14h-5.07a37.09,37.09,0,0,0-8.45,0c-1.29,0-1.93.57-1.93,1.69q-.24,1.93,3.38,1.45,2.65-.24,12.07-.24v3.38a95.56,95.56,0,0,0,0,9.65,1.24,1.24,0,0,0,2.41,0V54.2a20.07,20.07,0,0,0,.24-2.41V47.45a19.39,19.39,0,0,1,.24-2.41V42.86h10.86c1.93,0,2.9-.4,2.9-1.21Q159.81,40.21,156.43,40.21Z"/><path class="cls-1" d="M151.6,50.58c-.32.16-.48.57-.48,1.21v2.9c.16,1.61.24,2.82.24,3.62q-5.56-.24-15-.24a6.41,6.41,0,0,1,.72-3.62q.72-1.45-.48-3.62-.24-.72-.72-.72c-.16,0-.4.16-.72.48q-1.45,1.69-1.69,8.21.24,8,3.14,11.83t8.45,3.86q6.52-.24,8.21-5.79a45.69,45.69,0,0,0,1.21-9.41,21,21,0,0,0-1.69-8.2A1,1,0,0,0,151.6,50.58Zm-1,17.62q-1.21,3.62-5.79,3.62-5.79,0-7.48-4.83a40.21,40.21,0,0,1-1-5.31V61.2a68,68,0,0,1,15.21.24A34,34,0,0,1,150.64,68.2Z"/><path class="cls-1" d="M187.21,44.55c.16-.8-.24-1.21-1.21-1.21h-4.1a3.32,3.32,0,0,1-1.45-.24c-.81,0-1.21.24-1.21.72a3.35,3.35,0,0,0,.24,1.45c.16.81.72,1,1.69.72.16-.16,1.61-.24,4.34-.24C186.64,45.76,187.21,45.36,187.21,44.55Z"/><path class="cls-1" d="M202.17,28.86a11.35,11.35,0,0,0-1.45-1c-.48-.16-.72-.72-.72-1.69a16.78,16.78,0,0,1-.48-4.1c-.16-.64-.48-1-1-1a.85.85,0,0,0-1,1,23.8,23.8,0,0,0-.72,4.34,2.2,2.2,0,0,1-1.45,1.69,55.38,55.38,0,0,0-5.79,5.31,1.2,1.2,0,0,0,0,1.45.77.77,0,0,0,1.21.24,35.49,35.49,0,0,1,5.79-4.1,4.15,4.15,0,0,1,4.1-.24A44.74,44.74,0,0,1,206,34.41q1,.72,1.45,0a1.58,1.58,0,0,0-.48-1.93A22.44,22.44,0,0,0,202.17,28.86Z"/><path class="cls-1" d="M203.38,43.58a9.76,9.76,0,0,0-6.52-1q-2.41,1-2.41-.72a7.25,7.25,0,0,1,.24-2.17q.48-1.93,3.62-1.93a36.3,36.3,0,0,1,5.07.24c1.12.16,1.69-.08,1.69-.72.32-1.12-.08-1.69-1.21-1.69q-6.76-1.21-10.38.72c-.81.16-1.21.89-1.21,2.17q0,5.07.48,6.28,1.45,2.17,3.38,1a5.78,5.78,0,0,1,4.34-.72,3.34,3.34,0,0,1,2.9,3.38,48.71,48.71,0,0,1-.72,8,3.93,3.93,0,0,1-1.21-.24,7.86,7.86,0,0,1-1.93-.48c-1.29-.32-2.17-.56-2.65-.72a6.52,6.52,0,0,1,.24-1.45V52.27h2.17q2.89-.48,3.38-2.17c.16-1.12-.24-1.53-1.21-1.21a4.69,4.69,0,0,1-2.41,1,7.29,7.29,0,0,1-2.17-.24,4.62,4.62,0,0,0-.24-1.45,1.09,1.09,0,0,0-1.45-1q-1-.24-.72,1.45a34.69,34.69,0,0,1,0,8.21q-1,4.83-6.28,14.72-.49,1,0,1.21c.32.32.72.24,1.21-.24a28.94,28.94,0,0,0,6-9.65,2.32,2.32,0,0,0,1.21.48,6.82,6.82,0,0,0,1,.72,4.66,4.66,0,0,0,1.69,1.21.6.6,0,0,0,1,0,1.58,1.58,0,0,0,0-1.21,4.27,4.27,0,0,0-2.17-2.41c-.81-.48-1.45-.88-1.93-1.21a9.05,9.05,0,0,1,.48-2.9,13.3,13.3,0,0,0,2.66.72,10.51,10.51,0,0,1,1.69.24,8,8,0,0,1,1.45.48v1a3.92,3.92,0,0,0-.24,1.21,124.83,124.83,0,0,1-3.86,13.52c-.32.8-.24,1.29.24,1.45a1.18,1.18,0,0,0,1.45-.72q2.41-4.11,4.34-14,1.45-11.58,1.21-14.24Q205.55,44.31,203.38,43.58Z"/><path class="cls-1" d="M185.52,57.58a2.69,2.69,0,0,0-.48-1c1.61-.16,3.14-.24,4.59-.24,1,0,1.45-.32,1.45-1,.16-1.12-.24-1.69-1.21-1.69a52.64,52.64,0,0,0-5.55.24,11.65,11.65,0,0,1,1.21-3.14h1a1.39,1.39,0,0,0,1-.24,1.63,1.63,0,0,0,1.21-.48q3.13-1.2,2.41-9.17a3.42,3.42,0,0,0-3.38-3.14h-3.62a4,4,0,0,1,.24-1V36.1a4,4,0,0,0,.24-1.21q4.1-.48,4.83-3.14a30,30,0,0,0,.48-6.76,1.82,1.82,0,0,0-1.45-1.69c-.65,0-.89.57-.72,1.69a16.37,16.37,0,0,1-.24,4.83q-.24,2.17-2.9,2.41V23.07q0-1.93-1.45-2.17c-.81,0-1.21.72-1.21,2.17,0,1,.08,2.26.24,3.86V32q-3.38-.48-3.38-2.9a19.69,19.69,0,0,1,.24-2.65v-1q-.24-1.93-1.45-2.17-.72.24-1.45,2.17-.49,2.17,1,5.79,1.93,4.11,5.07,3.62a7.81,7.81,0,0,0,.24,1.93v1A11.11,11.11,0,0,0,176.59,39a2.33,2.33,0,0,0-1,1.21,12.43,12.43,0,0,1-.24,2.41,8.18,8.18,0,0,0,2.9,7.24,2.87,2.87,0,0,0,3.14,1h1.21a10.14,10.14,0,0,0-.48,2.41v.24a.7.7,0,0,0-.24.48,11.08,11.08,0,0,1-2.17.24,8.15,8.15,0,0,1-2.65-.24,2.23,2.23,0,0,0-1.93.48q-.72,1.45.24,2.17a2,2,0,0,0,2.17.48,16.05,16.05,0,0,0,2.65-.24,10.7,10.7,0,0,1,1.93-.24.22.22,0,0,1,.24.24.71.71,0,0,1,.24.48,2.94,2.94,0,0,1,.48.72,10,10,0,0,1,1.45,3.62,11.2,11.2,0,0,1-1.93,7.24q-2.66,2.65-5.55,5.79a1.38,1.38,0,0,0-.24,1.69q.48.72,1.45,0a30.17,30.17,0,0,0,6.76-7,12.88,12.88,0,0,0,1.45-8.69A9.18,9.18,0,0,0,185.52,57.58Zm-3.86-8.93a3.49,3.49,0,0,1-3.14-1.45,5.88,5.88,0,0,1-.72-5.31l.24-.24.24-.24a5.3,5.3,0,0,1,3.38-1,27.86,27.86,0,0,1,4.83-.24c1.45.32,2.25,1,2.41,1.93q.24,5.56-1.69,6a1.88,1.88,0,0,0-.72.24.7.7,0,0,0-.48.24h-4.34Z"/><path class="cls-1" d="M246.58,47.6,246.45,46a19.21,19.21,0,0,1,0-4.9c.35-2.47-.89-4.11-3.7-4.89a22,22,0,0,0-5.27-1c0-1.45-.06-3.41-.06-3.68a1.44,1.44,0,0,1,.15-1.07.47.47,0,0,1,.37-.15l.21,0a10,10,0,0,1,3.9.55c1.1.68,1.93.51,2.41-.42a6.92,6.92,0,0,0,.54-5.22,2.44,2.44,0,0,0-1.46-2,18.73,18.73,0,0,0-6.72-1.34,15.51,15.51,0,0,0-6.3,1.34l0,0c-.4.33-.71.23-1-.35a1.43,1.43,0,0,1,0-1.6,1.69,1.69,0,0,0,.09-1.29,1.14,1.14,0,0,0-.69-.58c-.64-.14-1.21.57-1.69,2.18a3.32,3.32,0,0,0,.88,3.34c1,1.4,2.12,1.75,3.17,1a7.34,7.34,0,0,1,.79,1.79c.31.56-.26,1.28-1.68,2.12a12.3,12.3,0,0,0-5.57,7.29,49.9,49.9,0,0,0-2.07,8.18,3.46,3.46,0,0,0-.18.8c0,.83.13,1.29.41,1.44s.64-.14,1-1c.8-2.66,1.32-4.58,1.55-5.72,1-4.63,3.26-7.8,6.65-9.42a2.63,2.63,0,0,0,1.8-2.38,5.4,5.4,0,0,0-1-4.15C235.1,24,238,24,241.7,25a2.42,2.42,0,0,1,1.63,2.17c-.1,1.11-.47,1.64-1.15,1.64a1.67,1.67,0,0,1-.41-.06,20.68,20.68,0,0,0-4-.77c-1.47-.14-2.2.42-2.2,1.64v3.54c-.14.15-.17.64-.17,1.87v.12a23.81,23.81,0,0,0-6.22,1c-1.66.39-2.51,1.84-2.51,4.3-.3,8.69-.12,9.63.53,13.12.1.53.21,1.13.33,1.82.7,4.09,2.57,5,5.8,5.28h.16a3.26,3.26,0,0,0-.86.79,17.13,17.13,0,0,0-3.13,8,25.57,25.57,0,0,0-.35,5.72v.38c0,.71.21,1.07.64,1.07s.55-.33.8-1a16.88,16.88,0,0,0,.53-2.69c.23-1.54.4-2.59.52-3.23.57-3,1.31-5.1,2.2-6.21a3,3,0,0,1,1.69-.91v14c.24,2.15.61,3.15,1.15,3.15s.86-1,1-3.17V68.4c-.11-1-.17-2.9-.17-5.72a2.63,2.63,0,0,1,1.84,1.41,23.08,23.08,0,0,1,1.71,6,11.37,11.37,0,0,0,.35,1.55c.57,2.77.86,4.37.86,4.73v0a1.86,1.86,0,0,0,.93,1.21l0,0,0,0c.4-.15.6-.57.6-1.26a37.69,37.69,0,0,0-.69-6.48,33,33,0,0,0-1.56-6.31,6,6,0,0,0-2.4-3c1-.07,1.83-.17,2.56-.28,2.71-.13,4.25-1,4.6-5.28.06-.5.11-.78.14-1a15.85,15.85,0,0,0,0-3.6Zm-10.48,6c0,.9-.06,2.12-.11,4.41a10.8,10.8,0,0,1-1.43-.19,4,4,0,0,1-1.36-.19c-2.27-.38-3.47-.7-3.69-3.55a7.84,7.84,0,0,0-.3-1.33A8.4,8.4,0,0,1,229,49.8a23.43,23.43,0,0,1,3.51-.17c1.57-.12,2.77-.18,3.66-.19C236.17,51.64,236.15,52.3,236.11,53.58ZM229,47.3a14.66,14.66,0,0,1,0-2.84c0-.42.09-1,.15-1.88a4.41,4.41,0,0,1,.7-3.19,1.62,1.62,0,0,1,1.24-.49h0a24,24,0,0,1,4.35-.75l.1.59a37.82,37.82,0,0,1,.57,8.37C233.32,47.23,230.91,47.29,229,47.3Zm15.18,6.77a3,3,0,0,0-.07.4c.11,2.87-1,3.21-3.84,3.34h-1.07a5.14,5.14,0,0,1-.88.18c0-2.25-.08-3.47-.11-4.36,0-1.29-.06-2-.06-4.18h3.14c1.29.12,2.29.18,3,.19C244.27,53.65,244.23,53.8,244.17,54.06Zm-2.7-6.77c-1.46-.12-2.56-.18-3.34-.19a64.22,64.22,0,0,1,.16-9,5.94,5.94,0,0,1,2.76.55h0c2.36.37,3.34,1.82,3,4.45,0,.38.06.59.08.76a24.16,24.16,0,0,1,.09,3.37Z"/></svg>