<svg id="Layer_1" data-name="Layer 1" xmlns="http://www.w3.org/2000/svg" viewBox="0 0 400 100"><defs><style>.cls-1{fill:#047272;}</style></defs><title>03-hieroglyphs</title><path class="cls-1" d="M96.05,35.33h19.5a1,1,0,0,0,1-1c0-6.45-4.82-11.69-10.75-11.69S95.05,27.88,95.05,34.33A1,1,0,0,0,96.05,35.33Zm9.75-10.69c4.52,0,8.25,3.82,8.7,8.69H97.1C97.55,28.45,101.28,24.63,105.8,24.63Z"/><path class="cls-1" d="M298.8,65.21c-5.93,0-10.75,5.25-10.75,11.69a1,1,0,0,0,1,1h19.5a1,1,0,0,0,1-1C309.55,70.45,304.73,65.21,298.8,65.21ZM290.1,75.9c.45-4.88,4.18-8.69,8.7-8.69s8.25,3.82,8.7,8.69Z"/><rect class="cls-1" x="90.05" y="42.63" width="31" height="2"/><polygon class="cls-1" points="146.49 26.08 151.72 34 153.39 32.9 146.62 22.64 131.76 41.94 133.34 43.16 146.49 26.08"/><path class="cls-1" d="M173.16,20.38a6.74,6.74,0,0,0-5.23,1.47,12.83,12.83,0,0,0-4.82,7A16.36,16.36,0,0,1,158.84,36c-5.38,5.53-11.13,15.3-12.73,18.11l-14.84,8.37a1,1,0,1,0,1,1.74l8.29-4.68-7.67,7.07a1,1,0,1,0,1.36,1.47L144.3,58.8l-7.5,8.61a1,1,0,1,0,1.51,1.31l6.24-7.17-2.88,6.08a1,1,0,1,0,1.81.86l5.88-12.42a55.85,55.85,0,0,0,8.2-1.7c0,.42-.46,6.24,2.18,10a13.4,13.4,0,0,1,2.14,4.77c-4.94.29-8.49,1.08-8.49,2,0,1.18,5.63,2.14,12.58,2.14s12.58-1,12.58-2.14c0-1-4.1-1.85-9.61-2.08a15.14,15.14,0,0,0-2.53-5.86c-1.87-2.69-1.62-9.41-1.37-11.79,6.63-3.37,10.87-8.19,12.38-14.14.81-.73,2.2-2.94,5-9.59a1,1,0,0,0-.12-1C182.18,26.53,178.06,21,173.16,20.38Zm-8.39,44a13.48,13.48,0,0,1,2.12,4.66H166c-.71,0-1.4,0-2.07,0a15.17,15.17,0,0,0-2.53-5.83c-2.26-3.25-1.83-8.69-1.82-8.75a1,1,0,0,0-.21-.69l1.05-.36c.89-.32,1.74-.66,2.57-1C162.79,55.09,162.64,61.35,164.77,64.42ZM176.2,35.77a1,1,0,0,0-.62.71c-3.15,13.66-21,17-27.07,17.69a1.06,1.06,0,0,0-.05-.11c2.13-3.62,7.2-11.9,11.81-16.65A18.29,18.29,0,0,0,165,29.53a10.89,10.89,0,0,1,4.16-6.11,4.78,4.78,0,0,1,3-1.11,5.18,5.18,0,0,1,.69,0c3.34.44,6.48,3.91,7.51,5.15C178.84,31.1,176.9,35.05,176.2,35.77Z"/><path class="cls-1" d="M191.05,37.7h3.5a1,1,0,0,0,0-2h-2l3.89-9.94L199.59,37a1,1,0,0,0,1,.73h40a1,1,0,0,0,0-2H201.31l-3.79-13.34a1,1,0,0,0-1.89-.09l-5.5,14.07a1,1,0,0,0,.93,1.36Z"/><path class="cls-1" d="M191.05,58.39h3.5a1,1,0,0,0,0-2h-2l3.89-9.94,3.19,11.21a1,1,0,0,0,1,.73h40a1,1,0,0,0,0-2H201.31L197.51,43a1,1,0,0,0-1.89-.09L190.12,57a1,1,0,0,0,.93,1.36Z"/><path class="cls-1" d="M240.51,67.81c-.23.16-.51.32-.81.51a6.14,6.14,0,0,1-1,.52,8.67,8.67,0,0,1-1.28.46,11.46,11.46,0,0,1-3.18.38,30.37,30.37,0,0,1-8.05-1.55l-2.28-.68a17.54,17.54,0,0,0-2.53-.61,23.21,23.21,0,0,0-5.29-.15c-1.73.14-3.42.41-5.06.69s-3.22.65-4.74.94l-2.2.41c-.34.06-.69.12-1.06.16l-.51.06H202a13.57,13.57,0,0,1-1.95,0c-.64-.06-1.27-.06-1.87-.18-1.21-.18-2.32-.38-3.31-.59s-1.85-.4-2.56-.59c-1.42-.34-2.24-.57-2.24-.57a22.62,22.62,0,0,0,2,1.13c.66.34,1.47.72,2.42,1.12l1.54.61c.55.21,1.14.36,1.76.56a17.64,17.64,0,0,0,4.19.76l.59,0h.58c.36,0,.76,0,1.16-.06.81,0,1.57-.15,2.36-.25,1.57-.22,3.17-.43,4.78-.68s3.22-.46,4.82-.55a23.85,23.85,0,0,1,4.65,0c.73.1,1.41.24,2.23.44l2.33.54a35.14,35.14,0,0,0,4.58.76,16.87,16.87,0,0,0,4.25-.05,12.92,12.92,0,0,0,1.87-.39,12.31,12.31,0,0,0,1.6-.64,7.42,7.42,0,0,0,1.29-.77,6.68,6.68,0,0,0,1-.8c.27-.27.52-.49.7-.72l.44-.59.35-.49-.48.37Z"/><circle class="cls-1" cx="258.55" cy="32.9" r="2.54"/><path class="cls-1" d="M280.82,40a1,1,0,0,0,.22.16,33.25,33.25,0,0,0,3.34,7.2c-2.77.16-4.83.75-4.83,1.46s2.8,1.5,6.26,1.5,6.26-.67,6.26-1.5-2-1.29-4.75-1.45a11.83,11.83,0,0,0,3.83-5.79,1,1,0,0,0,.21-.18l5-7a1,1,0,1,0-1.62-1.17l-2.59,3.61a30.26,30.26,0,0,0,.09-5.35c-.32-4.44-1.74-10-4.71-11-.89-.3-2.26-.3-3.74,1.38-3.36,3.84-4.62,8.75-3.7,14.34l-3.81-4.1a1,1,0,0,0-1.47,1.36Zm4.48-16.74a2,2,0,0,1,1.34-.84.8.8,0,0,1,.26,0c1.36.46,3,4,3.35,9.22s-.6,11.66-4.37,14.28C284,42.93,278.08,31.53,285.3,23.29Z"/><path class="cls-1" d="M257.55,58.39a1,1,0,0,0,1,1h38c4.5,0,13-1.89,13-9a1,1,0,1,0-2,0c0,6.94-10.89,7-11,7h-38A1,1,0,0,0,257.55,58.39Z"/><path class="cls-1" d="M272.55,64.21h-14a1,1,0,0,0-1,1v9.15H256a1,1,0,1,0,0,2h2.54a1,1,0,0,0,1-1V66.21h12V76.9h-3a1,1,0,0,0,0,2h4a1,1,0,0,0,1-1V65.21A1,1,0,0,0,272.55,64.21Z"/></svg>