<svg id="Layer_1" data-name="Layer 1" xmlns="http://www.w3.org/2000/svg" viewBox="0 0 400 100"><defs><style>.cls-1{fill:#047272;}</style></defs><title>05-greek-roman</title><path class="cls-1" d="M293.73,30.56a1,1,0,0,0-1,1v15H272.07v-15a1,1,0,0,0-2,0V71.07a1,1,0,1,0,2,0V48.55h20.66V71.07a1,1,0,1,0,2,0V31.56A1,1,0,0,0,293.73,30.56Z"/><path class="cls-1" d="M220.42,69.58c-.15,0-15.43-4-15.43-17.77,0-5.74,2.52-10.38,7.5-13.8a24.87,24.87,0,0,1,7.69-3.49,1,1,0,0,0-.43-2,26.45,26.45,0,0,0-8.34,3.75A18.14,18.14,0,0,0,203,51.81c0,6.37,2.95,11.8,8.52,15.72a27.82,27.82,0,0,0,8.43,4,1,1,0,0,0,.48-1.94Z"/><path class="cls-1" d="M242,35.05a17,17,0,1,0,17,17A17,17,0,0,0,242,35.05Zm0,32a15,15,0,1,1,15-15A15,15,0,0,1,242,67.05Z"/><ellipse class="cls-1" cx="241.99" cy="51.31" rx="3.5" ry="3"/><path class="cls-1" d="M328.31,70.92,311.17,48.66l16.34-15.38a1,1,0,0,0-1.37-1.46L309.83,47.18V32.56a1,1,0,0,0-2,0v39a1,1,0,1,0,2,0V50.19l16.89,21.94a1,1,0,1,0,1.58-1.22Z"/><path class="cls-1" d="M126.83,31.56h-8a1,1,0,0,0,0,2h7V71.07a1,1,0,0,0,2,0V32.56A1,1,0,0,0,126.83,31.56Z"/><path class="cls-1" d="M149.33,31.56a1,1,0,0,0-1,1V71.07a1,1,0,0,0,2,0V32.56A1,1,0,0,0,149.33,31.56Z"/><path class="cls-1" d="M192.49,30.56a1,1,0,0,0-1,1v15H170.83v-15a1,1,0,0,0-2,0V71.07a1,1,0,0,0,2,0V48.55h20.66V71.07a1,1,0,1,0,2,0V31.56A1,1,0,0,0,192.49,30.56Z"/><path class="cls-1" d="M95.72,28.1a1,1,0,0,0-1.78.91l1.8,3.59c-2.15,5.17-7.35,14.4-13.15,23a1,1,0,0,0-.75,1,.93.93,0,0,0,0,.12,112.34,112.34,0,0,1-10.75,13.7,1,1,0,0,0,1.44,1.38A115.31,115.31,0,0,0,83.66,57.56h25l7.2,14a1,1,0,1,0,1.78-.92ZM85,55.56A168.3,168.3,0,0,0,96.94,34.83l10.67,20.72Z"/></svg>