<?xml version="1.0" encoding="utf-8"?>
<!-- Generator: Adobe Illustrator 21.0.0, SVG Export Plug-In . SVG Version: 6.00 Build 0)  -->
<svg version="1.1" id="Layer_1" xmlns="http://www.w3.org/2000/svg" xmlns:xlink="http://www.w3.org/1999/xlink" x="0px" y="0px"
	 viewBox="0 0 400 100" style="enable-background:new 0 0 400 100;" xml:space="preserve">
<style type="text/css">
	.st0{fill:#047272;}
</style>
<title>05-greek-roman</title>
<g>
	<path class="st0" d="M293.7,29.6c-1.1,0-2,0.9-2,2v14h-18.7v-14c0-1.1-0.9-2-2-2s-2,0.9-2,2v39.5c0,1.1,0.9,2,2,2s2-0.9,2-2V49.6
		h18.7v21.5c0,1.1,0.9,2,2,2s2-0.9,2-2V31.6C295.7,30.5,294.8,29.6,293.7,29.6z"/>
	<path class="st0" d="M220.7,68.6c-0.1,0-14.7-3.9-14.7-16.8c0-5.4,2.4-9.8,7.1-13c3.6-2.5,7.3-3.3,7.3-3.3c1.1-0.2,1.8-1.3,1.5-2.4
		c-0.1-0.5-0.4-1-0.9-1.3c-0.5-0.3-1-0.4-1.5-0.3c-0.2,0-4.4,1-8.7,3.9c-5.8,4-8.9,9.6-8.9,16.3c0,6.7,3.1,12.4,8.9,16.5
		c4.3,3,8.6,4.1,8.8,4.1c0.2,0,0.3,0.1,0.5,0.1c0.9,0,1.7-0.6,1.9-1.5c0.1-0.5,0-1.1-0.2-1.5C221.6,69.1,221.2,68.7,220.7,68.6z"/>
	<path class="st0" d="M242,34.1c-9.9,0-18,8.1-18,18c0,9.9,8.1,18,18,18s18-8.1,18-18C260,42.1,251.9,34.1,242,34.1z M242,38.1
		c7.7,0,14,6.3,14,14s-6.3,14-14,14s-14-6.3-14-14S234.3,38.1,242,38.1z"/>
	<ellipse class="st0" cx="242" cy="51.3" rx="4.5" ry="4"/>
	<path class="st0" d="M329.1,70.3l-16.6-21.5L328.2,34c0.4-0.4,0.6-0.9,0.6-1.4c0-0.5-0.2-1-0.5-1.4c-0.8-0.8-2-0.8-2.8-0.1
		l-14.6,13.8V32.6c0-1.1-0.9-2-2-2s-2,0.9-2,2v39c0,1.1,0.9,2,2,2s2-0.9,2-2V53.1l15.1,19.6c0.4,0.5,1,0.8,1.6,0.8
		c0.4,0,0.9-0.1,1.2-0.4c0.4-0.3,0.7-0.8,0.8-1.3C329.6,71.3,329.4,70.7,329.1,70.3z"/>
	<path class="st0" d="M126.8,30.6h-8c-1.1,0-2,0.9-2,2s0.9,2,2,2h6v36.5c0,1.1,0.9,2,2,2s2-0.9,2-2V32.6
		C128.8,31.5,127.9,30.6,126.8,30.6z"/>
	<path class="st0" d="M149.3,30.6c-1.1,0-2,0.9-2,2v38.5c0,1.1,0.9,2,2,2s2-0.9,2-2V32.6C151.3,31.5,150.4,30.6,149.3,30.6z"/>
	<path class="st0" d="M192.5,29.6c-1.1,0-2,0.9-2,2v14h-18.7v-14c0-1.1-0.9-2-2-2s-2,0.9-2,2v39.5c0,1.1,0.9,2,2,2s2-0.9,2-2V49.6
		h18.7v21.5c0,1.1,0.9,2,2,2s2-0.9,2-2V31.6C194.5,30.5,193.6,29.6,192.5,29.6z"/>
	<path class="st0" d="M96.6,27.6c-0.5-1-1.7-1.4-2.7-0.9c-1,0.5-1.4,1.7-0.9,2.7l1.6,3.2c-2.2,5.2-7.2,13.9-12.7,22.1
		c-0.6,0.3-1,0.9-1.1,1.6c-3.5,5.1-7.2,9.9-10.5,13.3c-0.8,0.8-0.7,2.1,0.1,2.8c0.4,0.4,0.9,0.6,1.4,0.6c0.5,0,1-0.2,1.4-0.6
		c3.5-3.6,7.3-8.6,10.9-13.9H108l6.9,13.4c0.3,0.7,1,1.1,1.8,1.1c0.3,0,0.6-0.1,0.9-0.2c1-0.5,1.4-1.7,0.9-2.7L96.6,27.6z M106,54.6
		H86.9C91,48.2,94.7,41.8,97,37.1L106,54.6z"/>
</g>
</svg>
