<svg id="Layer_1" data-name="Layer 1" xmlns="http://www.w3.org/2000/svg" viewBox="0 0 400 100"><defs><style>.cls-1{fill:#047272;}</style></defs><title>06-idu</title><path class="cls-1" d="M192.81,70.28c-.66-.11-1.21-.17-1.59-.28q-4-.66-14.85-4.79l-8.74-3.46c.06-.11.11-.28.22-.5a61.06,61.06,0,0,0,2.58-6.82l2-.11c5.17-.16,8.85-.27,11.11-.27a14.3,14.3,0,0,1,2.09.22,10.07,10.07,0,0,0,2.14.22c1.1,0,1.65-.61,1.65-1.76a1.65,1.65,0,0,0-.33-.77l.06-.05c.22-.71.49-1.87.82-3.52a33.09,33.09,0,0,0,.44-5.45,3.29,3.29,0,0,0-1-2.37,6.17,6.17,0,0,0-2.58-1.65,9.4,9.4,0,0,0-3.35-.71c-3,0-6.1.11-9.4.27q.58-3,.83-4.78c5.39-.28,9.35-.44,11.88-.44a13.7,13.7,0,0,1,2.47.27,11.15,11.15,0,0,0,2.58.28,1.87,1.87,0,0,0,2-2.14q0-1-2.31-2.47a7.38,7.38,0,0,0-3.08-1.32c-1.81.33-3,.5-3.63.55-1.37.16-4.51.38-9.35.61a2.08,2.08,0,0,1,.05-.55,14.92,14.92,0,0,0,.66-2.25c0-.61-.5-1.21-1.37-1.82a5.17,5.17,0,0,0-2.53-.71c-1.27,0-1.87.55-1.87,1.54,0,1.21-.11,2.58-.22,4.13-2.42.22-4.95.38-7.59.55q-5.94.5-13,1.32A.66.66,0,0,0,149,32a5.29,5.29,0,0,0,1,2.58c.6,1.1,1.32,1.6,2.09,1.6a7.79,7.79,0,0,0,1.87-.22l2.36-.55c3.63-.55,8.08-1,13.36-1.37-.22,1.54-.49,3.13-.77,4.84q-5.94.5-12.37,1.32c-.17-.11-.39-.22-.66-.38a5.88,5.88,0,0,0-2.25-.55,3.13,3.13,0,0,0-1.43.28c-.44.22-.6.5-.6.77a2.29,2.29,0,0,0,.11.88,2.84,2.84,0,0,1,.17,1.15,66.43,66.43,0,0,0,.82,12,2,2,0,0,0,.66,1.1,2.73,2.73,0,0,0,2,.77,2.78,2.78,0,0,0,1.7-.66l.06-.05a1.84,1.84,0,0,0,.49-.06,13.16,13.16,0,0,0,1.87-.22c1.59-.17,3.41-.33,5.5-.44-.38,1.1-.82,2.14-1.26,3.19-.33.66-.66,1.32-.94,2q-2.06-.82-3.79-1.48-2.39-1-2.47-1a3,3,0,0,0-2.15,1,3.5,3.5,0,0,0-.44,1.6,2.36,2.36,0,0,0,.49,1.26c1.27.44,2.86,1,4.84,1.71.38.16.88.38,1.54.61a37.1,37.1,0,0,1-4.07,5.61,20.23,20.23,0,0,1-1.92,1.54c-.55.28-1,.49-1.37.71,1.21,2.75,2.42,4.18,3.68,4.18.88,0,2.42-1.21,4.51-3.63a35.29,35.29,0,0,0,4.18-6.44c4,1.6,9.29,3.85,16.06,6.71,2.53,1.1,4.62,2,6.32,2.64a18.54,18.54,0,0,0,3.35.88,4.39,4.39,0,0,0,1.59-.27,3.68,3.68,0,0,0,1-1.37,10,10,0,0,0,.5-1.71A1.86,1.86,0,0,0,192.81,70.28ZM172.85,45a18.81,18.81,0,0,1,.5-2.53c3-.17,5.94-.28,9-.33,1.92,0,2.91.44,3,1.21a18.16,18.16,0,0,1-.94,5.61,6.34,6.34,0,0,0-.27.71,13.4,13.4,0,0,1-2.25.33c-1.21.11-4.12.22-8.69.38-.55,0-1.1.06-1.65.06C172,48.78,172.46,47,172.85,45Zm-8.52,5.77c-2.2.11-4.62.28-7.15.44a4.67,4.67,0,0,1-.11-1q-.16-1.4-.17-5.61a1.22,1.22,0,0,0,.55-.17c1-.22,1.65-.33,2-.38,2.86-.44,5.77-.82,8.74-1.1a61.48,61.48,0,0,1-1.87,7.75Z"/><path class="cls-1" d="M249.36,43.78a23.83,23.83,0,0,0,.17-2.91,2,2,0,0,0-.82-1.65A7.62,7.62,0,0,0,246.39,38a8.45,8.45,0,0,0-2.86-.49,109.8,109.8,0,0,0-18.81,1.87,5.08,5.08,0,0,0-1.87-.44,3.08,3.08,0,0,0-1.15.22c-.33.22-.44.38-.44.61a1.51,1.51,0,0,0,.11.71,4.1,4.1,0,0,1,.11,1,26.9,26.9,0,0,0,.44,5.83,1.62,1.62,0,0,0,.55.88,2,2,0,0,0,1.59.61,2.23,2.23,0,0,0,1.21-.38.94.94,0,0,0,.33-.06q.58-.16,1.48-.33a92.11,92.11,0,0,1,9.9-.93c4-.22,6.82-.33,8.52-.33a7.69,7.69,0,0,1,1.48.16,6.64,6.64,0,0,0,1.43.17,1.1,1.1,0,0,0,1.21-1.21c0-.22-.17-.44-.49-.77C249.19,44.77,249.25,44.33,249.36,43.78ZM229.51,45c-1.27.11-2.58.28-3.9.38a13.16,13.16,0,0,1-.11-2.53,1.91,1.91,0,0,1,.05-.5l1.21-.33c.83-.16,1.71-.33,2.69-.49l.06,3.3Zm7.7-.61v.05c-1.32.11-2.75.17-4.29.28v-2.8a1.5,1.5,0,0,1,.27-1c1.38-.16,2.8-.33,4.23-.44Zm7.64-.66-.11.22a.7.7,0,0,1-.33.05l-3.9.22.33-2.75a2.67,2.67,0,0,1,.17-1,.24.24,0,0,0,.06-.16h1.59c1.65,0,2.53.33,2.58.88A10.47,10.47,0,0,1,244.85,43.72Z"/><path class="cls-1" d="M250.89,33a4.11,4.11,0,0,0-1.65-.55c-.22,0-6.26.2-7.14.31l-4.73.49V30.8c2.91-.17,5.06-.28,6.49-.28.44,0,.88.05,1.21.05s.55.05,1,.05a2.79,2.79,0,0,0,.82.11,1.62,1.62,0,0,0,1.21-.49,1.42,1.42,0,0,0,.49-1.15,1.65,1.65,0,0,0-.55-1.32,6.2,6.2,0,0,0-1.21-.88,3.34,3.34,0,0,0-1.32-.27c-.22,0-.93.11-2,.27-.82.17-2.86.33-6.16.55a1.9,1.9,0,0,1,.39-1.1,2.79,2.79,0,0,0,.27-.94c0-.33-.39-.66-1.1-.88a6.08,6.08,0,0,0-2.36-.5c-1.1,0-1.59.5-1.59,1.38l.06,2.37c-4.89.44-7.48.61-7.7.61a3.66,3.66,0,0,1-.82-.05c-.33,0-.55,0-.66-.11l-.38-.11a2.4,2.4,0,0,0-.88,1.48,3.31,3.31,0,0,0,.17,1.1,2.25,2.25,0,0,0,.71.94,1.46,1.46,0,0,0,1.1.49,26.11,26.11,0,0,0,3.3-.44c1.26-.16,3-.33,5.22-.55l.05,1.92a1.7,1.7,0,0,0,.06.55h-.27L222,34.3c-.44,0-.6.22-.6.55a4.13,4.13,0,0,0,.38,1.59c.22.66.44,1,.77,1a3.17,3.17,0,0,0,1-.22c3.41-.55,10-1.14,12.76-1.31s4.78-.28,6.1-.28c.22,0,6.1,0,6.65,0s1,.05,1.15.05c1.1,0,1.7-.5,1.7-1.43C251.94,33.9,251.55,33.46,250.89,33Z"/><path class="cls-1" d="M205.68,28.76a1.73,1.73,0,0,0,.66-.22,14.71,14.71,0,0,1,3.57-.77c1.21-.06,2.09-.11,2.75-.11h1.81c.77.05,1.32.05,1.71.05a1,1,0,0,0,1-.71,10.11,10.11,0,0,0,.22-2.09q-.33-1.08-2.14-1.16c-1.21,0-2.14-.05-2.75-.05-1.15,0-2.42.11-3.79.22s-2.91.44-4.23.77a.78.78,0,0,0-.71.82,3.74,3.74,0,0,0,.6,2.14C204.75,28.43,205.19,28.76,205.68,28.76Z"/><path class="cls-1" d="M218.17,59.17a5.94,5.94,0,0,0-2-1.32,10.82,10.82,0,0,0-2.75-.33,35.67,35.67,0,0,0-7.2.82.79.79,0,0,1-.33-.11,12,12,0,0,0-2.09-.22c-.93,0-1.37.49-1.37,1.43a1.08,1.08,0,0,0,.05.38,2.25,2.25,0,0,0,.06.61l.6,11a2.62,2.62,0,0,0,.66,1.54,3.6,3.6,0,0,0,2.47.77,1.77,1.77,0,0,0,1-.61,27,27,0,0,1,3.46-.44c1.32-.11,2.25-.11,2.91-.11a8.11,8.11,0,0,1,1.43.11c.77.05,1.27.11,1.48.11q2.14-.08,2.14-1.81a1.43,1.43,0,0,0-.49-.94,53.81,53.81,0,0,0,.77-8.47A3.31,3.31,0,0,0,218.17,59.17Zm-4.4,9.68c-1.48.11-3,.27-4.51.38l-1.87.16c-.11-1.48-.17-3.08-.22-4.84l-.11-2.48c.44-.11,1.15-.27,2.2-.6a19.91,19.91,0,0,1,4-.44c.88,0,1.32.38,1.32,1A31,31,0,0,1,213.77,68.85Z"/><path class="cls-1" d="M249,71a2.54,2.54,0,0,1-.5-.17c-.22-.16-.94-.6-2-1.26s-2.2-1.21-3-1.65a12.19,12.19,0,0,1-1.59-.82,1.9,1.9,0,0,0-.94-.5,1.62,1.62,0,0,0-1.27.83,2.37,2.37,0,0,0-.6,1.43,1.43,1.43,0,0,0,.49,1,5,5,0,0,0,.66.49,4.49,4.49,0,0,1,1,.55A25.06,25.06,0,0,1,244.24,73c.82.66,1.38,1.1,1.59,1.32a1,1,0,0,0,.66.38,2.89,2.89,0,0,0,1.43-.33,2.83,2.83,0,0,0,1-1.21,6.88,6.88,0,0,0,.27-2C249.25,71.11,249.14,71.05,249,71Z"/><path class="cls-1" d="M231.59,67.81A13.79,13.79,0,0,1,229.78,69a34.55,34.55,0,0,1-3.46,1.65c-1.37.44-2.36.77-3,.88a3,3,0,0,0-.11,1,2.07,2.07,0,0,0,.94,1.54A2.71,2.71,0,0,0,226,75,8.36,8.36,0,0,0,228.3,74a33.77,33.77,0,0,0,3.46-2.14,14,14,0,0,0,1.48-1.15,2.4,2.4,0,0,0,.38-1.37,1.88,1.88,0,0,0-.38-1A2.28,2.28,0,0,0,231.59,67.81Z"/><path class="cls-1" d="M245.12,66.21a8.84,8.84,0,0,0,1.7.17A1.24,1.24,0,0,0,248.09,65c0-.22-.22-.5-.55-.83a5.9,5.9,0,0,0,.22-1.26V61.49c-.11-3.3-.11-6-.11-8a4.17,4.17,0,0,0-.6-2.37,7,7,0,0,0-1.65-1.43,5.77,5.77,0,0,0-2.58-.61,140.31,140.31,0,0,0-15.62,1.1,4.49,4.49,0,0,0-1.65-.39,2.55,2.55,0,0,0-1.26.28.92.92,0,0,0-.55.71,1.62,1.62,0,0,0,.11.71,2.42,2.42,0,0,1,.17,1c0,5.94.17,10.5.5,13.75a2.34,2.34,0,0,0,.55.94,2.76,2.76,0,0,0,1.81.77,2.8,2.8,0,0,0,1.21-.38,3.8,3.8,0,0,0,.71-.11c.33-.11.66-.22,1-.33a62.24,62.24,0,0,1,7.31-.88c2.92-.22,5-.27,6.27-.27A6.35,6.35,0,0,1,245.12,66.21Zm-2-3.74a.76.76,0,0,1-.16.22,2.12,2.12,0,0,1-.77.11c-.71.11-2.36.22-4.95.38-1.65.16-3.35.33-5.11.44-1,.11-2.15.28-3.35.38l-.16-1.81a7.9,7.9,0,0,0,.93-.11c2.09-.33,4.4-.6,6.93-.88s4.45-.33,5.88-.33h.88C243.2,61.87,243.14,62.36,243.14,62.48Zm.22-4.18h-.27c-4,.27-7.26.55-10,.82s-4.18.44-4.45.44h-.17a16.7,16.7,0,0,1-.05-1.81,8.25,8.25,0,0,0,.93-.11q3.13-.41,6.93-.83c2.53-.22,4.45-.33,5.88-.33h1.15Zm-.44-4.4c-4,.28-7.26.55-10,.83s-4.18.38-4.45.38h-.05v-1a3.05,3.05,0,0,1,.11-1,4.08,4.08,0,0,0,.66-.11,86.1,86.1,0,0,1,12.48-1,1.71,1.71,0,0,1,1.48.82,2.78,2.78,0,0,1,.17,1A1.08,1.08,0,0,1,242.92,53.9Z"/><path class="cls-1" d="M219.6,32.12a8.21,8.21,0,0,0-1.43-1,3.26,3.26,0,0,0-1.48-.33,9.41,9.41,0,0,0-1.37.27c-.39.11-6.1.61-5.94.71a.68.68,0,0,1-.33.06c-3.52.44-5.33.66-5.5.66a5.06,5.06,0,0,1-.94-.05,2.57,2.57,0,0,1-.77-.11l-.44-.17a2.44,2.44,0,0,0-1,1.71,2.9,2.9,0,0,0,.22,1.27,5.24,5.24,0,0,0,.83,1.1,1.59,1.59,0,0,0,1.26.55,13.38,13.38,0,0,0,2.09-.38,51.36,51.36,0,0,1,5.11-.72q3.38-.33,4.95-.33c.5,0,.94.05,1.32.05s.71.05,1.15.05a3.81,3.81,0,0,0,1,.11,1.8,1.8,0,0,0,1.43-.61,1.82,1.82,0,0,0,.55-1.32A1.85,1.85,0,0,0,219.6,32.12Z"/><path class="cls-1" d="M215.25,40.53c-1.21,0-2.14-.05-2.75-.05-1.15,0-2.42.11-3.79.22s-2.91.44-4.23.77a.78.78,0,0,0-.71.82,3.74,3.74,0,0,0,.6,2.14c.39.77.83,1.1,1.32,1.1a1.73,1.73,0,0,0,.66-.22,14.71,14.71,0,0,1,3.57-.77c1.21-.06,2.09-.11,2.75-.11h1.81c.77.05,1.32.05,1.71.05a1,1,0,0,0,1-.71,10.11,10.11,0,0,0,.22-2.09Q217.07,40.61,215.25,40.53Z"/><path class="cls-1" d="M212.56,48.84c-1.15,0-2.42.11-3.79.22s-2.86.39-4.18.61a.83.83,0,0,0-.71.88,4,4,0,0,0,.6,2.14c.39.71.83,1,1.32,1a1.71,1.71,0,0,0,.66-.22A23.4,23.4,0,0,1,210,53c1.21-.06,2.09-.11,2.75-.11h1.81c.77.05,1.32.05,1.7.05a.94.94,0,0,0,1-.77,10,10,0,0,0,.22-2c-.22-.77-.94-1.15-2.14-1.21S213.16,48.84,212.56,48.84Z"/></svg>