<svg id="Layer_1" data-name="Layer 1" xmlns="http://www.w3.org/2000/svg" viewBox="0 0 400 100"><defs><style>.cls-1{fill:#047272;}</style></defs><title>10-yeonsangun</title><path class="cls-1" d="M119.64,38.09c-1.21-.49-1.81-.44-3.35.17a36.64,36.64,0,0,1-5.61,1.43c.06-6.87.39-8.47.83-9.62.77-1.71.5-2.58-2.69-4.12s-3.85-.05-2.25,1.87c.93,1.16,1,2.64,1.43,12.37-2,.38-4.45.83-7.15,1.27-3.3-1.43-4.07-.77-2.58,1.32,1.15,1.71,1.76,4.34,3,13.36.11,1,.44,1.59.94,1.59s.6-.22.77-1l5.06-.55c0,4.29-.11,8.47-.27,11a38.4,38.4,0,0,0,.17,8c.44,1.54.82,1.71,1.37.17a31.3,31.3,0,0,0,1.15-7.75c.17-4,.27-8,.27-11.77,1.16-.11,2.53-.22,4-.27.49,0,.66.11,1.1.82.33.55.6.77.88.77.44,0,1.1-.55,1.65-1.59a37.55,37.55,0,0,0,2.42-6.87c.6-2.91,1.43-5.39,2.58-6.32s1.1-1.43.38-2.14A13.94,13.94,0,0,0,119.64,38.09Zm-11.55,9c-1.32.27-2.64.49-3.63.66s-.88.88,0,1.16a7.64,7.64,0,0,0,3.63.17c0,1.71-.06,3.63-.06,5.5-1.92.28-3.35.44-5,.61-.17-3.19-.83-8.8-1.32-12.48a29.45,29.45,0,0,0,6.38-.88Zm8.25,5.33c-.33,1.21-.5,1.48-1,1.43-.77-.11-1.65-.05-4.67.38v-5.5a21.49,21.49,0,0,0,4.34-1c1.1-.49,1.26-1,.33-1.59-.66-.38-1.71-.49-4.67.22V41.22a26.12,26.12,0,0,1,5.17-.71c1.76,0,2.2.55,2.15,1.92A46.14,46.14,0,0,1,116.34,52.44Z"/><path class="cls-1" d="M91,49.64a1.92,1.92,0,0,0-.94-.93c2.25-3.79,3.46-5.33,4.67-6.1,1.54-1,1.54-1.37-1.1-2.8-1.43-.71-2.25-.66-2.91.05-2,2.25-7.75,3.41-12.21,3.52-1.59.06-1.7.5-.82,1.21,2.25,1.87,2.8,2,4.4,1.38a58.61,58.61,0,0,1,7.59-2.42,33.64,33.64,0,0,1-4,7.37,52.2,52.2,0,0,1-9.84,11c-1.1.93-.77,1.48.55.88,4.34-2,9.51-7.09,12.81-12.54a4.26,4.26,0,0,1,.27,2c-.33,7.92-.6,9.13-1,10.83a8,8,0,0,0,.27,5.44c.83,1.54,1.65,1.54,2,.16a20.53,20.53,0,0,0,.66-6.65c-.11-1.37-.27-8.91-.22-10.28V50.52a30.21,30.21,0,0,1,3.35,3.25c1,1.1,2.64.66,2-1.43S95.33,49.91,91,49.64Z"/><path class="cls-1" d="M93.08,34.29c1.16.66,1.87.33,2.09-1.21.39-2.42-1.43-4.4-6.16-4.51-1.43-.05-1.54.33-.88,1.16A35.36,35.36,0,0,0,93.08,34.29Z"/><path class="cls-1" d="M152.59,38c.83,1.38,1.6,3.57,2.69,9.84.44,2.2,1.7,2.25,2.09-1.26,2.75-.55,5.55-1,9.79-1.59,1.38-.22,1.71-1.37.33-1.87-.77-.27-.94-.66-.5-1.65a8,8,0,0,1,2.2-3.57c1.1-.94,1-1.71-2.09-2.92-1.76-.66-2.48-.6-3.24-.05-1.1.77-5.06,2-8.25,2.36C152.42,35.83,151.82,36.82,152.59,38Zm10.06-.33c1.54-.27,1.65-.17,1.59.77a20.77,20.77,0,0,1-.44,4.18c-.17.66-1.15,1.27-6.49,2.31-.33-2.2-.55-3.79-.88-6C159,38.36,161.33,37.92,162.65,37.7Z"/><path class="cls-1" d="M171.94,67.07a7.69,7.69,0,0,0-6.21-1.48c-4.12.5-8.52,1-12.7,1.48V62.5c1.92-.33,3.74-.66,6.27-1.15,1.87-.44,2-1.59.77-1.87a8.31,8.31,0,0,0-4.67.05c-.88.22-1.65.44-2.36.61V55.68c1.15-.22,5.06-1.1,6.93-1.59,2-.49,2-1.54.88-1.92a8.9,8.9,0,0,0-4.73.22,77.1,77.1,0,0,1-14.3,3c-.88.11-.94.55,0,.83,2.25.6,3.13.6,8-.06l.11,4.67c-1.1.22-4.56.71-6.76,1-1.43.17-1.48.66-.06,1.1s2.42.6,6.87.05l.11,4.34c-8.08.77-15.56,1.26-18.48,1.15-1.26-.05-1.37.5-.44,1,2.42,1.59,3.68,1.92,6.27,1.43a132.65,132.65,0,0,1,15-2,82.5,82.5,0,0,1,17.27.28C173,69.76,173.48,68.22,171.94,67.07Z"/><path class="cls-1" d="M134.38,52.55C137,51.4,139,50.63,145.6,48.21a11.91,11.91,0,0,1-.44,2.2c-.22.77-.17,1.16.5,2.64s1.7,1.38,2.09-.33a33.43,33.43,0,0,0,.49-5.44c3-1.1,4.4-1.92,4.29-2.09-.38-.55-1.43-.55-4.29.33-.11-6.71.17-9.4.66-10.39.38-.77.22-1.21-1.43-1.87a40.25,40.25,0,0,0,5.33-.88c1.87-.44,1.87-1.16,0-1.76-1.43-.5-2.69-.55-5.22.05a112,112,0,0,1-15.4,2.58c-1.21.11-1.32.66-.33,1a9.08,9.08,0,0,0,4.45.44A9,9,0,0,1,137,39l.11,10c-4.12,1.21-6.43,1.54-7.64,1.38s-1.32.55-.44,1.26C131.58,53.38,132.29,53.54,134.38,52.55Zm10.5-19a14.52,14.52,0,0,1,.94,5.33c0,.61,0,5.72-.06,7.42-2.47.77-4.56,1.43-6.38,1.92v-4a7.67,7.67,0,0,0,4.34-.71c1-.44.88-1.15-.27-1.32a6.72,6.72,0,0,0-4,1V39.57A7.91,7.91,0,0,0,143.9,39c1-.38.82-1.21-.27-1.37s-2.2.05-4.18,1a4.93,4.93,0,0,1,.55-2.42c.39-.77.33-1.15-1.1-1.87C140.82,34.13,141.7,34,144.89,33.58Z"/><path class="cls-1" d="M216.88,40.12c-2.53-1.37-3-1.37-4.73-.28a16.13,16.13,0,0,1-4.62,1.38c-2.36.44-3.3.44-4.12.06a42.23,42.23,0,0,0,3.63-5.5,30.58,30.58,0,0,1,3.63-5.55c1.43-1.26,1-2-2.14-2.86-2.75-.72-2.91-.44-2.42,1.7.17.66-.17,2.2-1.87,6.1a56.75,56.75,0,0,1-8.08,12.37c-.94,1-.5,1.43.55.71a33.49,33.49,0,0,0,6-6.1,4.78,4.78,0,0,0,4,.93c1.76-.33,3-.55,5.17-.77,1.87-.16,2.31.55,2.42,4.13a59.57,59.57,0,0,1-1.65,14.19c-1,4.67-2.58,5.94-6,4.23-2.53-1.32-2.8-.77-1.37.82a17.51,17.51,0,0,1,2.92,5.22c.38,1.32,1.1,1.43,2.31.71,2.69-1.54,4.51-4.73,5.17-8.41a81.78,81.78,0,0,0,1.21-10.28c.17-5.33.55-7.53,1.43-8.63C219.9,42.32,219.74,41.66,216.88,40.12Z"/><path class="cls-1" d="M206.43,52.5c-.22-1.7-1.32-3-4.18-3.74-1.87-.5-2.14-.17-1.43,1.1a50.76,50.76,0,0,0,3,4.78C205.06,56.46,206.76,55.3,206.43,52.5Z"/><path class="cls-1" d="M193.29,41.17c-2.09-.88-2.58-.83-3.74-.28A31.52,31.52,0,0,1,184,42.76c3.35-4.89,5.88-8.3,7.48-9.73,1.37-1.27,1.43-2-1.48-2.8-3.35-.88-3.63-.33-2.86,1.76.33.82-1.43,5.39-5,11.22a8,8,0,0,1-1.1.22,6.1,6.1,0,0,0-1.32-.28c-1.37-.17-1.65.11-.88,1.32,1.32,2,2,8.58,1.7,16.44-.11,2.47.72,3.79,1.38,3.79.33,0,.71-.66,1-3.08a15,15,0,0,0,4.84-.55c1.38-.38,1.81-.33,2.15,1.1.55,2.42.93,3.13,1.43,3.13s1.7-2.14,2.09-4.4a87.12,87.12,0,0,0,.77-8.74c.16-3.35.44-6.82.88-7.48C196.2,43,195.87,42.32,193.29,41.17Zm-2.25,15c-.33,3.9-.77,4-1.54,3.41-1-.71-3-.44-6.49.61.11-2.37.05-5.11-.06-7.75a14.06,14.06,0,0,0,5.33-.83c1.37-.44.88-1.65-.5-1.76a6.71,6.71,0,0,0-2.69.5c-.66.22-1.21.44-2.25.71-.17-2.86-.39-5.44-.6-6.65a53.22,53.22,0,0,0,5.28-1c2.86-.66,3.63-.16,3.68,1.43A83.1,83.1,0,0,1,191,56.13Z"/><path class="cls-1" d="M236.41,38.69c1.43,1,2.47.22,2.25-1.43-.33-2.58-1.37-3.85-5.5-5-1.32-.38-1.71-.11-1,1A19.71,19.71,0,0,0,236.41,38.69Z"/><path class="cls-1" d="M233.27,48.76c.33-2.2-1.54-4.73-5-5.33-1.81-.28-2,0-1.15,1.48a31.18,31.18,0,0,0,3.68,4.78C232.17,50.85,233.11,50.46,233.27,48.76Z"/><path class="cls-1" d="M272.32,70.48c-7.09-1.76-11.22-3.9-17.65-10.56,5.55-.38,12-.38,14.19,0,2.69.44,3.24-.55,1.65-1.81-1.92-1.54-3.85-1.65-7.86-.88-2.15.33-5.11.71-8.25,1.1.11-.77.22-1.81.33-2.8,1.92-.28,3.63-.66,6.54-1.27,1.7-.27,1.65-1.15.22-1.59-1.1-.27-1.54-.38-3.9.11-.93.22-1.87.44-2.69.6.11-1,.16-1.92.22-2.75,2.8-.44,5.77-.88,7.2-1,1.76-.11,1.81-.71,1.38-1.1-.55-.55-.5-.94.16-1.49A13,13,0,0,1,266,45.51c.93-.39.93-1.43-1.15-2.47s-3.08-.88-4.23-.33a35.72,35.72,0,0,1-4.95,1.48c.17-.93-.05-1.43-1.37-2.64.71-.11,1.32-.22,2-.38,1.59-.33,2.42-.5,2.86-.55,1.21-.11,1.32-1,.71-1.37-.44-.28-.44-.71.33-3.35,3-.28,5.5-.44,7-.44,2.69.06,2.75-1,1.32-1.87-1.59-.77-3-.88-7.53.05a17.82,17.82,0,0,1,1.32-2.91c.5-.83.22-1.43-2.58-2.8-2.36-1-3.19.05-2.14,1.26.66.77.88,2.2.5,5-2.25.44-4.73.88-7,1.26a17.38,17.38,0,0,1,.05-2c.17-1.37.11-1.59-.77-2.14a7.44,7.44,0,0,0-3-1.26c-1.26-.22-1.43.88-.44,1.59s1.54,2.09,2,4.12a53.52,53.52,0,0,1-6,.83q-2.31.17-.17,1.16c1.43.66,2.91.6,6.38-.22a36.11,36.11,0,0,0,.66,4.84c.17.5.49.5,1.32-.33.27-.05.55-.05.82-.11a7.82,7.82,0,0,1,.71,2.86c-2.31.38-4.67.71-6.71.93-3.41-1-3.79-.38-2.69.83a12.63,12.63,0,0,1,1.76,3.9,3.44,3.44,0,0,0,1.48,2.36c.22.17.66.05.88-1a34.06,34.06,0,0,0,5.28-.6c0,.88-.17,1.76-.22,2.69-2.47.5-4.29.77-5.88.93-1,.11-1,.83-.33,1,1,.28,2.42.44,6,0-.11.94-.27,1.87-.44,2.8a115.23,115.23,0,0,1-12.7,1.1c-1,0-1.15.49-.27,1a6.58,6.58,0,0,0,5.44.71c1.43-.28,4.84-.88,7.2-1.21-1.37,4.56-5.88,8.36-12,10.72-1.27.44-1.1,1.21.27,1.1a17.15,17.15,0,0,0,14-10.72c2.42,3.3,5.17,6.71,7.2,9.24,1.38,1.65,2.09,1.87,11.82,1.27C274.35,71.8,274.35,70.92,272.32,70.48Zm-17-24.75c1.54-.28,2.64-.5,3.41-.61,2.58-.44,2.91-.05,2.47,1.38s-.6,1.49-2.47,1.92c-.82.17-2.09.44-3.57.71C255.22,47.66,255.27,46.5,255.33,45.73Zm-2.69,3.9c-1.92.38-3.9.66-5.39.83a28.34,28.34,0,0,0-.6-3.25c2.14-.38,4.18-.71,6-1A23.49,23.49,0,0,1,252.63,49.64Zm-1.32-9c-.06-1.26-.11-2.42-.22-3.46,2.15-.38,4.51-.71,6.71-1-.44,2.86-.6,3.08-1.43,3.24C255.71,39.57,253.07,40.23,251.31,40.67Z"/><path class="cls-1" d="M236.68,52c-2,3.46-4,6.6-5.28,8.52-2.15,3.19-2.48,3.46-3.57,3.52-.94.05-1.15.33.71,4s2.91,3.58,3.41.83c.33-2.2,1-4.4,5.88-16.28C238.72,50.41,237.84,50,236.68,52Z"/><path class="cls-1" d="M300.54,32.37c1.38,1,2.86-.17,2.86-1.92,0-2.47-2.36-4-5.72-3.9-2.2.05-2.2.44-1.32,1.65A25,25,0,0,0,300.54,32.37Z"/><path class="cls-1" d="M285.14,44.36c1-.77,2.31-3.08,3-6.16a38.38,38.38,0,0,0,7.2-1c4.95-.93,10.45-1.7,14.63-2.09,1.92-.17,2.25.16,2,1.15a17.89,17.89,0,0,1-1.37,3.35c-.5,1,0,1.38,1,.83a15.26,15.26,0,0,1,6.82-2.31c1.21-.11,1.43-.88.22-2.14a19.93,19.93,0,0,0-4.4-3.35c-1.1-.61-1.59-.72-3.24-.17-1.32.44-3.68.88-16.66,3.08a45,45,0,0,1-6.38.88c-1.16-3.3-2.25-3.08-2.48-1.48a15.17,15.17,0,0,1-2.58,5.83,3.32,3.32,0,0,0-.55,2.86C282.66,44.85,283.71,45.51,285.14,44.36Z"/><path class="cls-1" d="M320.55,52.28c-2.31-1.37-4-1.54-8.47-.77-1.32.22-5.44.71-9.68,1.32a13.91,13.91,0,0,0-1.48-2.53c2.64-2.7,4.29-4,6.43-5,1.54-.71,1.87-1.65-1.37-3.63a4.3,4.3,0,0,0-4.12-.55A31,31,0,0,1,291,43.53c-1.76-.05-2.2.94-.17,2.15,1.54.88,2.2.93,3.63.11a60.48,60.48,0,0,1,7-2.47c1.59-.38,1.92-.22,1.32,1.32a45.43,45.43,0,0,1-2.58,4.84c-.88-.71-3.08-1.26-3.3-.83s.11.77,1.1,1.49a6.31,6.31,0,0,1,2,3c-8.41,1-18.53,2.2-20.29,2.2-2.14,0-2.2.44-.6,1.65,1.87,1.43,2.25,1.48,4.95.83a147.86,147.86,0,0,1,16.5-2.8,30.87,30.87,0,0,1,.22,11c-.71,4.23-1.92,4.34-6.93,3.41-1.54-.33-1.87.33-.66,1.1a25.23,25.23,0,0,1,5.44,4.95c.55.77,1.21.93,2.25.05,2.36-2,3.68-6.38,3.57-11.66a34.57,34.57,0,0,0-1.15-9c7.42-.33,11.16-.28,12.7.05C322.81,56.18,323.52,54.15,320.55,52.28Z"/></svg>