<svg id="Layer_1" data-name="Layer 1" xmlns="http://www.w3.org/2000/svg" viewBox="0 0 400 100"><defs><style>.cls-1{fill:#047272;}</style></defs><title>13-realist</title><polygon class="cls-1" points="100.63 58.47 100.53 58.47 91.42 28.22 81.52 28.22 81.52 64.92 87.58 64.92 87.58 35.62 87.72 35.62 97.18 64.92 103.88 64.92 113.08 35.67 113.23 35.67 113.23 64.92 119.28 64.92 119.28 28.22 109.78 28.22 100.63 58.47"/><path class="cls-1" d="M145.67,48.52c1.1-7-1.35-9.85-6.15-9.85a7.86,7.86,0,0,0-7.7,4.85h-.1l-.35-4.15h-5.6V64.92h6.35V50.67c0-3.85,1.5-7.25,4.85-7.25,2.3,0,3.1,1.35,2.65,5.4Z"/><rect class="cls-1" x="144.83" y="58.47" width="6.15" height="6.45"/><path class="cls-1" d="M182.38,32.82c3.8,0,7.15,1.65,7.2,8.8l6.35-.45c.15-8.75-4.75-13.55-13.35-13.55-10,0-16.7,6.15-16.7,19.4,0,12.45,5.4,18.5,15.45,18.5,8.05,0,13.65-4.15,14.3-12.75l-6.2-.45c-.35,5.25-3.1,7.9-7.85,7.9-5.9,0-8.9-4-8.9-13.35C172.68,36.32,176.93,32.82,182.38,32.82Z"/><path class="cls-1" d="M223,61.07c-1.25,0-1.5-.6-1.5-2.15V50c0-6.9-2.45-11.3-11.05-11.3-7.4,0-10.5,3.05-10.5,7.75a11.14,11.14,0,0,0,.25,2.5l5.65-.5a9.29,9.29,0,0,1-.3-2.25c0-1.9.9-3.3,4.5-3.3,3,0,5.35,1.65,5.35,6.45V50c-8.65.3-16.5,1.05-16.5,8.35,0,3.85,2.3,7.2,8.4,7.2,4.2,0,7.3-1.7,8.7-4.1.25,2.2,1.65,3.85,5,3.85a12.91,12.91,0,0,0,3.15-.4l-.2-3.9A7,7,0,0,1,223,61.07Zm-7.6-5.45a5.7,5.7,0,0,1-6,5.8c-3,0-4.2-1.35-4.2-3.45,0-2.8,1.9-4.15,10.2-4.2Z"/><path class="cls-1" d="M233.56,45.87c0-2.05,1.65-3,4.35-3,3.2,0,4.65,1.5,5.05,4.3l5.45-1.1c-.7-4.75-4-7.45-10.2-7.45s-10.8,2.9-10.8,8.05c0,10.8,15.1,5,15.1,11.25,0,2-1.45,3.25-5.05,3.25s-5-1.9-5.5-4.7l-5.55,1c.8,5.55,4.55,8,11.15,8,6.3,0,11.2-2.9,11.2-8.45C248.76,46.42,233.56,52,233.56,45.87Z"/><rect class="cls-1" x="253.46" y="28.22" width="6.3" height="36.7"/><path class="cls-1" d="M277.83,38.67c-7.85,0-13.45,4.75-13.45,13.5,0,8.25,4.05,13.35,13,13.35,8.45,0,13.35-4.75,13.35-13.85C290.68,43.32,286,38.67,277.83,38.67ZM277.53,61c-4.9,0-6.7-3.25-6.7-8.85,0-5.15,2.2-8.9,7-8.9,4.55,0,6.4,3.5,6.4,8.7S282.18,61,277.53,61Z"/><path class="cls-1" d="M310.23,38.67c-5.15,0-7.75,2.55-8.85,4.75h-.1l-.3-4.05h-5.7V64.92h6.35V50.07c0-3.45,2-6.65,6.25-6.65,3.7,0,5.2,1.85,5.2,6.7v14.8h6.3V49.67C319.38,42,316.13,38.67,310.23,38.67Z"/></svg>