<svg id="Layer_1" data-name="Layer 1" xmlns="http://www.w3.org/2000/svg" viewBox="0 0 400 100"><defs><style>.cls-1{fill:#047272;}</style></defs><title>14-japan</title><path class="cls-1" d="M91.16,65.28h4V62.56h16v2.08h4.16V32.13H91.16Zm4-29.47h16v9.61h-16Zm0,13h16V59h-16Z"/><path class="cls-1" d="M150.7,48.46a76.3,76.3,0,0,1-6.25-8.33H159V36.61H142.69V28.93h-4v7.69h-16v3.52h14.41a59.81,59.81,0,0,1-5.45,7.37,77.32,77.32,0,0,1-5.29,5.77,50.85,50.85,0,0,1-4.8,3.84,15.75,15.75,0,0,1,2.4,3.2,65.59,65.59,0,0,0,8-7.37,98.73,98.73,0,0,0,6.73-9V54.87H131v3.68h7.69v8h4v-8h7.69V54.87h-7.69V44.3q.16.16,1.28,1.68l1.92,2.64q1.12,1.44,3,3.68l1,1c.37.38.75.72,1.12,1a7.08,7.08,0,0,1,1,1.12,62.73,62.73,0,0,0,5.13,4.64,22.75,22.75,0,0,1,1.28-2.08,11.13,11.13,0,0,1,1.6-1.6A49.17,49.17,0,0,1,150.7,48.46Z"/><path class="cls-1" d="M164.34,65.76h3.52V63.52h5v1.6h3.84V52.31H164.34Zm3.52-10.41h5v5.29h-5Z"/><rect class="cls-1" x="164.83" y="30.85" width="11.53" height="3.04"/><rect class="cls-1" x="164.83" y="46.7" width="11.53" height="2.72"/><rect class="cls-1" x="162.58" y="35.97" width="15.86" height="2.88"/><rect class="cls-1" x="164.83" y="41.26" width="11.53" height="2.88"/><path class="cls-1" d="M196.22,38.05h-8.65l.8-4.32h10.09v-3H178.6v3h6.09l-1,4.32h-4.16v3h3.68l-.8,4.64h-4.8v3.36H199.9V45.74h-3.68Zm-3.68,7.69h-6.41l.8-4.64h5.61Z"/><path class="cls-1" d="M179.72,66.4h3.52V64.8h10.57v1.44h3.84V51.83H179.72Zm3.52-11.21h10.57v6.25H183.24Z"/><path class="cls-1" d="M230.88,40.94l-2.4,1.76Q231.84,47,232,47.34l2.4-1.44a6.52,6.52,0,0,0-1-1.6Q232.8,43.5,230.88,40.94Z"/><path class="cls-1" d="M235.2,38.21l-2.4,1.6,3.68,5,2.4-1.76q-.48-.8-1.68-2.48A12.21,12.21,0,0,0,235.2,38.21Z"/><path class="cls-1" d="M217.91,51A11.68,11.68,0,0,1,219,45.74a19.79,19.79,0,0,1,3.2-4.32,38.08,38.08,0,0,1,5.29-4l9.61-.8L237,32.77q-14.26,1.76-14.89,1.76-10.25,1.12-19.86,1.6l.32,4Q211,39,211.34,39l9.77-1a24.22,24.22,0,0,0-5.29,6.57,14.91,14.91,0,0,0-1.6,7,9.82,9.82,0,0,0,2.08,6.41,18.19,18.19,0,0,0,5.93,4.64,36.33,36.33,0,0,0,9,1.92l.16-4.16q-7-.16-10.25-2.88A7.76,7.76,0,0,1,217.91,51Z"/><rect class="cls-1" x="241.82" y="30.53" width="11.85" height="3.2"/><path class="cls-1" d="M241.18,65.92h3.68V63.68H250v1h3.68V52H241.18Zm3.68-10.73H250v5.29h-5.12Z"/><rect class="cls-1" x="241.82" y="46.38" width="11.69" height="3.04"/><path class="cls-1" d="M267.45,34.37q2.56-.48,7.37-1.6l-1.92-3.2a59.16,59.16,0,0,1-17.78,2.72,3.76,3.76,0,0,1,.72,1l.4.8c.1.21.24.46.4.72a1.68,1.68,0,0,1,.24.88q3.36-.16,6.73-.64v5.61H254.8V44h8.81v5.61h-7V66.24h3.68V64H271v2.08h3.68V49.59h-7.21V44h9V40.62h-9ZM271,52.95v7.53H260.24V52.95Z"/><rect class="cls-1" x="239.58" y="35.81" width="16.18" height="3.2"/><rect class="cls-1" x="241.82" y="41.26" width="11.69" height="2.88"/><path class="cls-1" d="M301.13,52.31a.92.92,0,0,1-.64.32,17,17,0,0,1-4-1.6,14.14,14.14,0,0,1-.8,3.2,15.32,15.32,0,0,0,6.73,2.08,2.49,2.49,0,0,0,2.56-1.6q.8-1.6.8-10.41l8.49-.32V40.3q-5.77.64-8.33.64V31.49h-4.16l.16,9.77-11.69,1,.32-8h-4.48q.16,4.65.16,8.17-3.52.32-7.69.32l.16,3.68,7.53-.64V56q-.32,3.69,1,5.13a5.17,5.17,0,0,0,3.52,2.4q2.88.8,10.57.8-1.28,0,8-.32V60.32q-5.93.48-9.77.48a30.43,30.43,0,0,1-7.69-.64c-1-.21-1.5-.53-1.6-1a18.5,18.5,0,0,1-.32-4.48q0-4,.16-9.29l11.85-1q-.32,6.57-.32,6.73A1.24,1.24,0,0,1,301.13,52.31Z"/></svg>