<?xml version="1.0" encoding="utf-8"?>
<!-- Generator: Adobe Illustrator 21.0.0, SVG Export Plug-In . SVG Version: 6.00 Build 0)  -->
<svg version="1.1" id="Layer_1" xmlns="http://www.w3.org/2000/svg" xmlns:xlink="http://www.w3.org/1999/xlink" x="0px" y="0px"
	 viewBox="0 0 560 560" style="enable-background:new 0 0 560 560;" xml:space="preserve">
<style type="text/css">
	.st0{fill:#FCDFEB;}
	.st1{fill:none;}
	.st2{fill:#FFFFFF;}
	.st3{fill:#FFCE00;}
</style>
<path class="st0" d="M78.2,522.4h26v6.5h-9.1v23.8h-7.9v-23.8h-9V522.4z"/>
<path class="st0" d="M224.8,522.4L213.8,543v9.7h-7.9v-9.5l-11.2-20.9h7.9l7.2,13l7-13H224.8z"/>
<path class="st0" d="M340.3,525.2c2.1,1.9,3.2,4.5,3.2,7.9c0,3.6-1.1,6.4-3.2,8.3c-2.1,2-5.1,3-9,3h-5.4v8.4H318v-30.3h13.3
	C335.2,522.4,338.2,523.3,340.3,525.2z M334.7,536.8c0.9-0.8,1.3-2,1.3-3.5c0-1.5-0.4-2.6-1.3-3.4c-0.9-0.8-2.1-1.2-3.7-1.2h-5v9.3
	h5C332.6,538,333.8,537.6,334.7,536.8z"/>
<path class="st0" d="M427.9,522.4h23.9v6.3h-16v5.7h14.5v6.3l-14.5,0v5.7h16.4v6.3h-24.4V522.4z"/>
<g>
	<g>
		<rect x="401.3" y="357" class="st1" width="23.5" height="34.7"/>
		<rect x="383.3" y="72.8" class="st1" width="0" height="19.8"/>
		<path class="st1" d="M228.6,253.1c5.2,0,10-1.4,14.3-4.1c4.4-2.7,7.8-6.5,10.3-11.2c2.5-4.7,3.8-10,3.8-15.8
			c0-5.7-1.3-10.9-3.8-15.7c-2.5-4.7-5.9-8.5-10.3-11.2c-4.3-2.7-9.1-4-14.3-4c-0.1,0-0.2,0-0.3,0v62.1
			C228.4,253.1,228.5,253.1,228.6,253.1z"/>
		<path class="st1" d="M296.7,59.3c3-2.8,4.6-6.8,4.6-12.1c0-5.1-1.5-9-4.6-11.8c-3.1-2.7-7.4-4.1-13-4.1h-17.4v32.2h17.4
			C289.3,63.5,293.6,62.1,296.7,59.3z"/>
		<rect x="383.3" y="31.3" class="st1" width="0" height="19.6"/>
		<path class="st1" d="M203.6,206.2c-2.6,4.8-3.9,10-3.9,15.7c0,5.8,1.3,11.1,4,15.8c2.6,4.8,6.2,8.5,10.6,11.2
			c4.3,2.7,9,4.1,14.1,4.1V191c-5.1,0.1-9.8,1.4-14.2,4C209.7,197.7,206.2,201.5,203.6,206.2z"/>
		<rect x="36.2" y="32" class="st2" width="27.5" height="82.5"/>
		<polygon class="st3" points="95.1,32 95.1,9.4 5,9.4 5,32 36.2,32 63.6,32 		"/>
		<polygon class="st2" points="176.4,81.7 176.4,80.9 214.4,9.4 186.9,9.4 162.6,54.5 162.3,54 162.3,81.7 		"/>
		<polygon class="st3" points="149,81.7 149,114.5 176.4,114.5 176.4,81.7 162.3,81.7 		"/>
		<polygon class="st0" points="162.3,81.7 162.3,54 137.7,9.4 110.3,9.4 149,81.7 		"/>
		<path class="st2" d="M283.7,31.3c5.6,0,9.9,1.4,13,4.1c3,2.8,4.6,6.7,4.6,11.8c0,5.3-1.5,9.4-4.6,12.1c-3.1,2.8-7.4,4.2-13,4.2
			h-17.4v21.9H285c13.4,0,23.8-3.4,31.2-10.3c7.4-6.8,11.1-16.5,11.1-28.9c0-11.7-3.7-20.8-11.1-27.2c-7.4-6.4-17.8-9.7-31.2-9.7
			h-18.8v21.9H283.7z"/>
		<polygon class="st0" points="266.3,85.4 266.3,63.5 266.3,31.3 266.3,9.4 238.8,9.4 238.8,114.5 266.3,114.5 		"/>
		<polygon class="st0" points="433.4,72.7 433.4,50.9 383.3,50.9 383.3,72.8 		"/>
		<rect x="383.3" y="92.6" class="st2" width="57" height="21.9"/>
		<rect x="383.3" y="9.4" class="st2" width="55.5" height="21.9"/>
		<polygon class="st3" points="383.3,92.6 383.3,92.6 383.3,72.8 383.3,72.8 383.3,50.9 383.3,50.9 383.3,31.3 383.3,31.3 
			383.3,9.4 355.8,9.4 355.8,114.5 383.3,114.5 		"/>
		<path class="st3" d="M257.4,174.8c-8.7-4.7-18.3-7-29-7V191c0.1,0,0.2,0,0.3,0c5.2,0,10,1.3,14.3,4c4.4,2.7,7.8,6.4,10.3,11.2
			c2.5,4.8,3.8,10,3.8,15.7c0,5.8-1.3,11.1-3.8,15.8c-2.5,4.8-5.9,8.5-10.3,11.2c-4.3,2.8-9.1,4.1-14.3,4.1c-0.1,0-0.2,0-0.3,0v23.4
			c10.7,0,20.4-2.4,29-7.2c8.6-4.8,15.5-11.3,20.4-19.6c5-8.3,7.4-17.6,7.4-27.9c0-10.2-2.5-19.4-7.4-27.6
			C272.8,185.9,266,179.5,257.4,174.8z"/>
		<path class="st2" d="M214.2,249c-4.4-2.7-7.9-6.5-10.6-11.2c-2.7-4.7-4-10-4-15.8c0-5.7,1.3-10.9,3.9-15.7
			c2.6-4.7,6.1-8.5,10.6-11.2c4.4-2.6,9.1-4,14.2-4v-23.3c-10.7,0-20.4,2.4-29,7c-8.7,4.7-15.5,11.2-20.4,19.4
			c-5,8.2-7.4,17.4-7.4,27.6c0,10.3,2.5,19.6,7.4,28c5,8.4,11.7,14.9,20.4,19.7c8.6,4.8,18.3,7.1,29,7.1v-23.4
			C223.2,253,218.5,251.7,214.2,249z"/>
		<rect x="341.3" y="214.7" class="st2" width="47.1" height="21.9"/>
		<polygon class="st2" points="392.3,191.3 392.4,169.4 341.3,169.4 341.3,191.3 		"/>
		<polygon class="st0" points="341.3,191.3 341.3,169.4 313.8,169.4 313.8,274.5 341.3,274.5 341.3,236.6 341.3,214.7 		"/>
		<rect x="74.5" y="374.8" class="st0" width="43.2" height="21"/>
		<rect x="74.5" y="336" class="st2" width="46.3" height="21"/>
		<path class="st2" d="M127.3,411.7c-15.9,2.2-35.5,2.5-45.7,2.5h14.5H81.6h-7.1v21h2.6c15.4,0,37.7-0.3,52.9-2.7l2.4-0.4l-2.6-20.8
			L127.3,411.7z"/>
		<polygon class="st3" points="50.6,336 50.6,357 50.6,395.9 50.6,414.2 50.6,435.3 74.5,435.3 74.5,414.2 74.5,395.9 74.5,374.8 
			74.5,357 74.5,336 		"/>
		<rect x="159.2" y="375" class="st2" width="19.2" height="21.5"/>
		<polygon class="st0" points="159.2,325.2 135.2,325.2 135.2,469.6 159.2,469.6 159.2,396.5 159.2,375 		"/>
		<rect x="293.4" y="325.2" class="st0" width="24" height="144.5"/>
		<path class="st2" d="M225.2,391.7v-12.1c0-11.6,1.8-23.4,15.3-23.4v-21.6c-24.5,0-38.5,15.6-38.5,42.8V394
			c0,27.2,14,42.8,38.5,42.8v-21.6C227,415.1,225.2,403.3,225.2,391.7z"/>
		<path class="st3" d="M240.6,334.5C240.6,334.5,240.6,334.5,240.6,334.5l0,21.6c0,0,0,0,0,0c13.5,0,15.3,11.9,15.3,23.4v12.1
			c0,11.6-1.8,23.4-15.3,23.4c0,0,0,0,0,0v21.6c0,0,0,0,0,0c24.5,0,38.5-15.6,38.5-42.8v-16.6C279.1,350.1,265,334.5,240.6,334.5z"
			/>
		<polygon class="st3" points="401,431.2 346.5,431.2 346.5,452.1 479.3,452.1 479.3,431.2 424.9,431.2 		"/>
		<rect x="377.4" y="357" class="st2" width="23.9" height="34.7"/>
		<polygon class="st3" points="424.8,357 448.7,357 465.1,357 465.1,336.3 360.5,336.3 360.5,357 377.4,357 401.3,357 		"/>
		<rect x="424.8" y="357" class="st2" width="23.9" height="34.7"/>
		<g>
			<path class="st2" d="M526.6,32.9c6.3,2.1,12.3,4.8,17.9,8.1l5.7-12l4.7-9.9c-5.4-3.4-11.5-6.2-18.5-8.3l-9.9,22.1
				C526.5,32.9,526.5,32.9,526.6,32.9z"/>
			<path class="st2" d="M493.7,89.2c-7.3-3-13.5-6.8-18.8-11.5L468.8,90l-4.5,9.1c6.3,5.3,13.8,9.5,22.4,12.5
				c1.3,0.4,2.5,0.8,3.8,1.2l9.6-21.4C498,90.8,495.9,90.1,493.7,89.2z"/>
			<path class="st3" d="M508.5,46.7c-2.5-0.9-4.6-2.2-6.3-3.8c-1.7-1.5-2.5-3.5-2.5-5.8c0-2.4,1-4.2,2.9-5.5c2-1.2,4.6-1.9,8-1.9
				c4.3,0,9.5,1,15.8,3.1l9.9-22.1c-0.3-0.1-0.6-0.2-1-0.3c-7.4-2.1-14.9-3.2-22.5-3.2c-8.4,0-15.8,1.3-22.1,4
				c-6.4,2.7-11.2,6.4-14.7,11.3c-3.5,4.9-5.2,10.6-5.2,17.1c0,6.9,1.7,12.4,5,16.6c3.3,4.2,7.4,7.3,12.1,9.3
				c4.7,2.1,10.7,4.1,17.9,6.1c1,0.3,1.9,0.5,2.8,0.8l10.1-22.4C514.3,48.7,510.9,47.6,508.5,46.7z"/>
			<path class="st0" d="M549.9,66.3c-3.4-4.4-7.5-7.6-12.2-9.7c-4.8-2.1-10.8-4.2-18.1-6.3c-0.3-0.1-0.6-0.2-0.9-0.3l-10.1,22.4
				c3.5,1,6.3,1.8,8.4,2.6c2.6,1,4.8,2.2,6.6,3.8c1.7,1.6,2.6,3.6,2.6,6c0,2.9-1.2,5.1-3.5,6.6c-2.4,1.5-5.6,2.2-9.7,2.2
				c-3.9,0-8.2-0.7-12.9-2.2l-9.6,21.4c7.4,2.2,14.8,3.4,22.2,3.4c7.9,0,15.1-1.3,21.5-3.8s11.5-6.2,15.2-11.2
				c3.7-5,5.6-10.9,5.6-17.9C555,76.3,553.3,70.7,549.9,66.3z"/>
		</g>
	</g>
	<g>
		<polygon class="st0" points="424.9,412.5 466.3,412.5 466.3,391.8 448.7,391.8 424.8,391.8 401.3,391.8 377.4,391.8 359.6,391.8 
			359.6,412.5 401,412.5 401,412.5 424.9,412.5 		"/>
		<rect x="401" y="412.5" class="st2" width="23.9" height="18.7"/>
	</g>
</g>
</svg>
