<svg id="Layer_1" data-name="Layer 1" xmlns="http://www.w3.org/2000/svg" viewBox="0 0 125 125"><defs><style>.cls-1{fill:#45c0c9;}.cls-2{fill:#047272;}</style></defs><title>01-kr-pillars</title><path class="cls-1" d="M67.21,61c-1.91.1-4,.18-6.08.25v5.1c2.06-.19,4-.33,5.87-.43l6.14-.34v-5.2C71.08,60.7,69.09,60.91,67.21,61Z"/><path class="cls-2" d="M81.55,27l-8.62-1.75c-3-.62-6.3-1.17-9.67-1.65l-.31,0-1.42,3.55.43.11c4.26,1.11,7.23,2.35,8.82,3.68a6.34,6.34,0,0,1,2.33,5.16V82.81q0,1.86.05,4.24l.1,4.9q.05,2.53.15,4.91t.21,4.13l0,.44,4.94-.84,0-.27c.62-3.5,1.14-7.52,1.55-11.95s.62-8.87.62-13.19V36.07a34.2,34.2,0,0,1,.31-4.39c.2-1.57.45-3,.72-4.2l.09-.39Z"/><path class="cls-2" d="M61.13,40.51a35.4,35.4,0,0,1,.31-4.44,30.19,30.19,0,0,1,.81-4.23l.11-.39-.4-.1c-2.76-.69-5.47-1.28-8.07-1.76s-5.66-.94-9-1.34l-.29,0-1.54,3.54.45.12c4,1,6.72,2.22,8.14,3.51a6.6,6.6,0,0,1,2.09,5.12V83.12q0,1.76.05,4l.1,4.44c0,1.44.09,2.77.16,3.93s.14,2.07.21,2.7l0,.4L59,98l.06-.28c.48-2.41,1-5.56,1.4-9.37a106.26,106.26,0,0,0,.67-12.27V40.51Z"/></svg>