<svg id="Layer_1" data-name="Layer 1" xmlns="http://www.w3.org/2000/svg" viewBox="0 0 125 125"><defs><style>.cls-1{fill:#45c0c9;}.cls-2{fill:#047272;}</style></defs><title>02-kr-beak</title><path class="cls-1" d="M62.87,51.09c-.85.06-1.94.1-3.28.13l-4.9.1-5.16.1c-1.72,0-3.19.05-4.44.05-2,.07-4.2,0-6.41-.1a41.57,41.57,0,0,1-5.36-.62l-.75-.15,3.12,7.07.31-.05c1.57-.27,3.42-.53,5.5-.77s4.35-.45,6.74-.62,4.94-.31,7.47-.41,4.83-.18,7.17-.25V90.47q0,3,.05,6.2t.15,6.25q.1,3,.21,5.68t.21,4.39l0,.42,5-.6,0-.3c.27-1.72.54-3.86.78-6.37s.47-5.16.67-7.85.36-5.44.47-8.11.15-5.11.15-7.24V28.86H62.87Z"/><path class="cls-2" d="M71.39,16c-2.65-.54-5.69-1.14-9.29-1.81s-7-1.19-10.45-1.6l-.29,0L49.81,16.1l.46.11a32.07,32.07,0,0,1,9.63,3.6,5.94,5.94,0,0,1,3,5.24v3.81h7.81V25.07a34.36,34.36,0,0,1,.31-4.4c.2-1.57.44-3,.72-4.21l.09-.39Z"/></svg>