<svg id="Layer_1" data-name="Layer 1" xmlns="http://www.w3.org/2000/svg" viewBox="0 0 125 125"><defs><style>.cls-1{fill:#45c0c9;}.cls-2{fill:#047272;}</style></defs><title>03-kr-hor-stem</title><path class="cls-1" d="M44.95,70.4a2.19,2.19,0,0,0,.17.36A2.18,2.18,0,0,1,44.95,70.4Z"/><path class="cls-1" d="M44.88,70.22a5.6,5.6,0,0,1-.2-1.6V57.89c0-1.29.05-2.69.15-4.15s.22-2.62.36-3.42l.07-.4-.41-.05-3.62-.46-4.13-.52Q35,48.62,33,48.42T29.48,48l-.3,0-1.44,3.28.45.12c2,.55,3.66,1,4.81,1.48a6.83,6.83,0,0,1,2.54,1.55,4.3,4.3,0,0,1,1.08,2.27,23.41,23.41,0,0,1,.25,3.8v9.1h7.87A4.1,4.1,0,0,0,44.88,70.22Z"/><path class="cls-1" d="M45.54,71.23a1.33,1.33,0,0,1-.33-.33A1.33,1.33,0,0,0,45.54,71.23Z"/><path class="cls-2" d="M94.07,68.75c-3.31.48-7,.93-11,1.34s-8.15.76-12.26,1-8.12.5-11.86.67-7,.22-9.57.15a8.5,8.5,0,0,1-3.82-.71,1.33,1.33,0,0,1-.33-.33l-.08-.14a2.19,2.19,0,0,1-.17-.36c0-.06,0-.12-.07-.18a4.1,4.1,0,0,1-.14-.65H36.87v2.36a5.3,5.3,0,0,0,1.4,3.73A4.79,4.79,0,0,0,42,77l.71,0c3.13-.21,6.72-.4,10.67-.57S61.57,76.09,66,76c8.86-.21,18.45-.22,27,.05h.34l1.29-7.38Z"/></svg>