<svg id="Layer_1" data-name="Layer 1" xmlns="http://www.w3.org/2000/svg" viewBox="0 0 125 125"><defs><style>.cls-1{fill:#45c0c9;}.cls-2{fill:#047272;}</style></defs><title>05-kr-side-stroke</title><path class="cls-1" d="M62.94,24.19a34.19,34.19,0,0,1,.31-4.39c.2-1.57.45-3,.72-4.2l.09-.39-.4-.08C61,14.59,57.89,14,54.36,13.32s-7-1.19-10.45-1.6l-.3,0-1.42,3.55.44.11c4.34,1,7.56,2.26,9.57,3.6a6,6,0,0,1,2.92,5.24V89.5q0,3,.05,6.2c0,2.12.1,4.22.21,6.26s.21,3.92.31,5.68.23,3.25.36,4.41l0,.39,5-.6.05-.29c.28-1.6.52-3.66.73-6.12s.38-5.09.52-7.86.26-5.51.36-8.26.15-5.21.15-7.34V24.19Z"/><path class="cls-2" d="M83.63,56c-3.71.62-7.46,1.12-11.17,1.49-3.55.36-6.75.61-9.52.75v5.15q1.92,0,4.26-.05,2.57-.05,5.31-.05h5.42c1.75,0,3.37,0,4.83.1l.36,0,1.05-7.5Z"/></svg>