<svg id="Layer_1" data-name="Layer 1" xmlns="http://www.w3.org/2000/svg" viewBox="0 0 1500 400"><defs><style>.cls-1,.cls-2,.cls-32{fill:none;stroke-miterlimit:10;stroke-width:1.51px;}.cls-1,.cls-2{stroke:#00e2d5;}.cls-2{stroke-dasharray:10.52 7.51;}.cls-3{fill:#45c0c9;}.cls-11,.cls-19,.cls-20,.cls-4{font-size:20px;}.cls-10,.cls-11,.cls-19,.cls-20,.cls-4,.cls-7{fill:#047272;}.cls-11,.cls-19,.cls-20,.cls-4,.cls-7{font-family:WorkSans-Regular, Work Sans;}.cls-4{letter-spacing:0.13em;}.cls-11,.cls-5{letter-spacing:0.15em;}.cls-6{letter-spacing:0.13em;}.cls-7{font-size:18.11px;letter-spacing:0.14em;}.cls-8{letter-spacing:0.14em;}.cls-9{letter-spacing:0.15em;}.cls-12{letter-spacing:0.14em;}.cls-13{letter-spacing:0.13em;}.cls-14{letter-spacing:0.14em;}.cls-15{letter-spacing:0.12em;}.cls-16,.cls-20{letter-spacing:0.12em;}.cls-17{letter-spacing:0.13em;}.cls-18{letter-spacing:0.12em;}.cls-19,.cls-28{letter-spacing:0.14em;}.cls-21{letter-spacing:0.13em;}.cls-22{font-size:15.09px;letter-spacing:0.14em;}.cls-23{letter-spacing:0.15em;}.cls-24{letter-spacing:0.11em;}.cls-25{letter-spacing:0.15em;}.cls-26{letter-spacing:0.12em;}.cls-27{letter-spacing:0.06em;}.cls-29{letter-spacing:0.13em;}.cls-30{letter-spacing:0.14em;}.cls-31{letter-spacing:0.13em;}.cls-32{stroke:#047272;}</style></defs><title>kr-anatomy</title><line class="cls-1" x1="247.85" y1="126.03" x2="253.13" y2="126.03"/><line class="cls-2" x1="260.64" y1="126.03" x2="1410.76" y2="126.03"/><line class="cls-1" x1="1414.51" y1="126.03" x2="1419.8" y2="126.03"/><line class="cls-1" x1="247.85" y1="181.66" x2="253.13" y2="181.66"/><line class="cls-2" x1="260.64" y1="181.66" x2="1410.76" y2="181.66"/><line class="cls-1" x1="1414.51" y1="181.66" x2="1419.8" y2="181.66"/><line class="cls-1" x1="247.85" y1="192.17" x2="253.13" y2="192.17"/><line class="cls-2" x1="260.64" y1="192.17" x2="1410.76" y2="192.17"/><line class="cls-1" x1="1414.51" y1="192.17" x2="1419.8" y2="192.17"/><line class="cls-1" x1="247.85" y1="272.36" x2="253.13" y2="272.36"/><line class="cls-2" x1="260.64" y1="272.36" x2="1410.76" y2="272.36"/><line class="cls-1" x1="1414.51" y1="272.36" x2="1419.8" y2="272.36"/><line class="cls-1" x1="247.85" y1="241.81" x2="253.13" y2="241.81"/><line class="cls-2" x1="260.64" y1="241.81" x2="1410.76" y2="241.81"/><line class="cls-1" x1="1414.51" y1="241.81" x2="1419.8" y2="241.81"/><path class="cls-3" d="M386.53,254.48c-5.74.58-11.64,1.08-17.52,1.47s-11.6.71-16.94,1-10,.32-13.66.22c-2.73-.1-4.57-.44-5.46-1s-1.22-1.78-1.22-3.73V237.06c0-1.84.07-3.84.22-5.93s.32-3.74.51-4.88l.1-.58-.58-.08-5.17-.66-5.9-.74q-3-.37-5.83-.66t-5.07-.59l-.42-.06-2.06,4.68.64.17c2.92.78,5.23,1.49,6.87,2.12a9.76,9.76,0,0,1,3.62,2.22,6.15,6.15,0,0,1,1.55,3.24,33.44,33.44,0,0,1,.36,5.43v16.36a7.57,7.57,0,0,0,2,5.32,6.84,6.84,0,0,0,5.26,1.91q.49,0,1,0c4.47-.3,9.59-.57,15.24-.81s11.77-.44,18.12-.59c12.66-.29,26.36-.32,38.52.07l.49,0,1.84-10.54-.77.11C397.55,253.25,392.25,253.9,386.53,254.48Z"/><path class="cls-3" d="M356,205.47v5.64q0,2.51.07,5.76l.15,6.34c0,2.06.12,4,.22,5.62s.2,3,.3,3.86l.06.57,6.72-.86.08-.4c.69-3.44,1.36-7.94,2-13.38a151.8,151.8,0,0,0,1-17.53V187.16c2.94-.27,5.75-.48,8.38-.61l8.76-.48v24.61q0,2.66.07,6.06l.15,7q.07,3.62.22,7t.3,5.91l0,.63,7.06-1.21.07-.39c.88-5,1.63-10.75,2.22-17.07s.89-12.67.89-18.85V143.9a48.86,48.86,0,0,1,.44-6.27c.29-2.24.64-4.26,1-6l.13-.56-.56-.12-12.31-2.51c-4.35-.88-9-1.67-13.81-2.36l-.44-.06-2,5.07.62.16c6.08,1.59,10.32,3.36,12.6,5.26a9.05,9.05,0,0,1,3.33,7.38v34.74c-2.93.44-5.77.74-8.46.88s-5.65.26-8.69.35V150.24a50.57,50.57,0,0,1,.44-6.34,43.14,43.14,0,0,1,1.16-6l.16-.56-.56-.14c-3.94-1-7.82-1.83-11.53-2.51s-8.08-1.34-12.86-1.92l-.42-.05-2.2,5.06.64.17c5.68,1.49,9.59,3.17,11.63,5a9.43,9.43,0,0,1,3,7.32v49.64c-3.36.57-6.72,1.12-10,1.61s-6.73,1-10.21,1.46l1.72-25.82c.19-1.85.49-3.94.88-6.23a41,41,0,0,1,1.45-6l.19-.58-.6-.14a67.57,67.57,0,0,0-10.33-1.64q-5.38-.44-9.79-.88l-.43,0-1.71,4.55.63.14a31.33,31.33,0,0,1,5.21,1.59,8.49,8.49,0,0,1,3,2.07,6.09,6.09,0,0,1,1.42,2.83,16.22,16.22,0,0,1,.21,4.13l-1.45,27.23-7.48.83c-2.47.27-5,.51-7.53.69l-2.17-26c-.19-1.94-.34-4.19-.44-6.67a20.59,20.59,0,0,1,.57-6.24l.17-.62-.64-.09c-3.43-.49-6.67-.84-9.62-1s-5.95-.3-8.88-.3h-.47l-.94,4.91.62.06a15.61,15.61,0,0,1,5,1.13,8,8,0,0,1,2.82,2.06,6.52,6.52,0,0,1,1.35,3c.24,1.26.46,2.68.66,4.22l2.31,26a14.78,14.78,0,0,1-1.49.06,85.69,85.69,0,0,1-10,0,100.69,100.69,0,0,1-10-1l-1.16-.18,6.24,11,.4-.07c1.53-.29,3.32-.53,5.33-.73l6-.59q2.94-.29,5.45-.52l4.13-.37c7.85-.78,15.94-1.88,24.07-3.25C338.32,209,346.92,207.37,356,205.47Z"/><path class="cls-3" d="M284.82,160.53q1.91-.29,4.55-.59t5.44-.51q2.79-.22,5.44-.37c1.77-.1,3.25-.2,4.42-.29q3.24-.14,8.19-.43c3.3-.19,6.82-.36,10.46-.5s7.51-.24,11.34-.29,7.56,0,11,.07H346l2.37-9.69-.83.13c-9.77,1.47-18.8,2.51-26.86,3.09s-14.46.88-19,.88c-1.47,0-3.1,0-4.83-.15s-3.6-.22-5.52-.37-3.8-.32-5.51-.51-3.35-.44-4.82-.73l-1-.21,4.42,10.53Z"/><path class="cls-3" d="M510.71,128.38c-5-.93-10-1.7-14.92-2.29l-.42-.05-2.21,5.07.66.16c6.19,1.49,10.82,3.22,13.75,5.14a8.49,8.49,0,0,1,4.24,7.49v37.21c-1.21.08-2.78.14-4.68.18l-7,.15-7.37.15c-2.45.05-4.56.08-6.35.08-2.92.1-6,.05-9.16-.15a59.39,59.39,0,0,1-7.66-.88l-1.07-.21,4.45,10.1.44-.08c2.24-.39,4.88-.76,7.85-1.1s6.22-.64,9.63-.88,7.06-.44,10.67-.59,6.9-.26,10.25-.35v49.83q0,4.28.07,8.85t.22,8.93q.15,4.35.29,8.11t.3,6.28l0,.6,7.21-.86.07-.42c.39-2.46.77-5.52,1.11-9.1s.67-7.38,1-11.21.52-7.77.66-11.59.22-7.3.22-10.34V143.93a49.09,49.09,0,0,1,.44-6.28c.29-2.24.64-4.27,1-6l.12-.56L524,131C520.2,130.19,515.85,129.34,510.71,128.38Z"/><path class="cls-3" d="M469.82,213.73c-9.18,1.61-17.84,2.72-25.73,3.31a6,6,0,0,1-3.78-.86c-.91-.62-1.37-1.83-1.37-3.59V162.85c5.76-.47,12.5-.85,20-1.14,7.74-.29,16.38-.24,25.68.15l.48,0,2-10.13-.82.14c-5,.88-10.44,1.62-16.25,2.21s-11.85,1-17.88,1.25-12.14.24-18.08,0a165.41,165.41,0,0,1-17-1.54l-.43-.06-2.06,4.67.62.18a48.88,48.88,0,0,1,6.63,2.33,12.32,12.32,0,0,1,3.8,2.53,6.71,6.71,0,0,1,1.7,3.27,24,24,0,0,1,.43,4.89v43.63c0,4.83,1,8.06,3,9.86,1.48,1.33,3.71,2,6.64,2a24.67,24.67,0,0,0,3.25-.23,259.48,259.48,0,0,0,29-5.76,279.58,279.58,0,0,0,27.69-8.71l.37-.14V206.8L497,207A208.52,208.52,0,0,1,469.82,213.73Z"/><path class="cls-3" d="M623.75,150.5c1.28-.2,2.65-.37,4.1-.51s2.86-.24,4.24-.29l3.76-.15q1.68-.07,2.7-.07c2.65,0,5.93-.07,9.75-.22s7.43-.17,10.87-.07h.46l2.08-8.49-.83.12c-4.58.68-9.21,1.2-13.74,1.54s-8,.51-10.5.51a58.17,58.17,0,0,1-9.12-.73c-3.06-.48-5.79-1-8.13-1.61l-1.19-.3,5.16,10.31Z"/><path class="cls-3" d="M663.68,187.4a32.12,32.12,0,0,0-10-5.7,37.41,37.41,0,0,0-12.8-2.1,39.92,39.92,0,0,0-12.34,1.87,31.35,31.35,0,0,0-10.06,5.33,25.81,25.81,0,0,0-6.78,8.29,23.15,23.15,0,0,0-2.5,10.73,21,21,0,0,0,2.5,10,27.14,27.14,0,0,0,6.77,8.2,33.86,33.86,0,0,0,10,5.62,36,36,0,0,0,12.35,2.1,37.06,37.06,0,0,0,12.42-2,32.87,32.87,0,0,0,10-5.55,26.2,26.2,0,0,0,6.7-8.21,21.88,21.88,0,0,0,2.42-10.14,23.19,23.19,0,0,0-2.27-10A25.39,25.39,0,0,0,663.68,187.4ZM641.2,224.55a19.93,19.93,0,0,1-8-1.58,20.37,20.37,0,0,1-6.38-4.3,19.81,19.81,0,0,1-4.23-6.23,18.59,18.59,0,0,1-1.5-7.37,19.88,19.88,0,0,1,1.5-7.74,18,18,0,0,1,4.22-6.15,19.63,19.63,0,0,1,6.38-4,21.78,21.78,0,0,1,8-1.43,19.08,19.08,0,0,1,8,1.64,20.53,20.53,0,0,1,6.17,4.3,19.41,19.41,0,0,1,5.44,13.39,19.24,19.24,0,0,1-11.89,18A19.88,19.88,0,0,1,641.2,224.55Z"/><path class="cls-3" d="M719.34,191.46c-5.07.51-9.64.87-13.6,1.07V143.9a48.86,48.86,0,0,1,.44-6.27c.29-2.24.64-4.26,1-6l.13-.56-.56-.12c-3.77-.77-8.24-1.64-13.28-2.58s-10-1.7-14.92-2.29l-.43-.05-2,5.08.64.15c6.19,1.49,10.79,3.22,13.67,5.14a8.52,8.52,0,0,1,4.17,7.49v93.31q0,4.28.07,8.85c0,3,.15,6,.29,8.94s.3,5.6.44,8.11.32,4.64.52,6.3l.07.56,7.17-.85.07-.42c.4-2.28.74-5.22,1-8.75s.54-7.27.74-11.22.37-7.87.52-11.8.22-7.45.22-10.49V199.89q2.74,0,6.08-.07,3.68-.07,7.58-.07h7.74c2.5,0,4.82,0,6.9.15l.52,0,1.5-10.71-.76.13C730,190.21,724.64,190.93,719.34,191.46Z"/><path class="cls-3" d="M672.47,160.88c-3.74.39-7.72.74-11.85,1s-8.35.54-12.52.74-8.21.34-12.15.44l-10.76.29c-3.22.09-6,.14-8.31.14-2.84,0-6.15-.15-9.83-.43s-7-.68-9.82-1.17l-1.11-.19,5.27,10.37.41-.07c1.15-.19,2.63-.39,4.39-.59s3.57-.37,5.44-.51,3.68-.27,5.44-.37,3.25-.2,4.42-.29q3.09-.14,7.8-.29l10.24-.29,11.42-.29,11.5-.29c3.74-.09,7.26-.14,10.45-.14h8.73l1.7-9.7-.81.16C679.58,160,676.2,160.49,672.47,160.88Z"/><path class="cls-3" d="M856.31,185.13c-5,.51-9.44.87-13.31,1.07V143.9a48.86,48.86,0,0,1,.44-6.27c.29-2.24.64-4.26,1-6l.13-.56L844,131c-3.77-.77-8.24-1.64-13.28-2.58s-10-1.7-14.92-2.29l-.42-.05-2.21,5.07.66.16c6.19,1.49,10.82,3.22,13.75,5.14a8.49,8.49,0,0,1,4.24,7.49v55.76c-4.29,1.52-9.28,3.08-14.84,4.65-5.71,1.61-11.58,3.1-17.44,4.41S788,211.15,782.51,212s-10.26,1.47-14.24,1.76a6,6,0,0,1-3.78-.86c-.91-.62-1.37-1.83-1.37-3.59v-42a48.86,48.86,0,0,1,.44-6.27c.29-2.24.64-4.26,1-6l.13-.58-.58-.1c-3.82-.68-7.75-1.28-11.67-1.77s-8.45-.84-13.46-1l-.41,0-1.85,5,.66.12a77,77,0,0,1,7.61,1.75,14.75,14.75,0,0,1,4.47,2.05,5.65,5.65,0,0,1,2.09,2.75,13.16,13.16,0,0,1,.56,4.1v45.11c0,4.66,1,8,2.9,9.77s5.25,2.46,9.83,1.84c4.81-.69,10.3-1.73,16.33-3.1s12.18-2.93,18.3-4.65,12.12-3.54,17.94-5.46c5.44-1.8,10.29-3.6,14.44-5.35v31.72q0,4.28.07,8.85t.22,8.93c.1,2.85.22,5.59.37,8.12s.32,4.64.52,6.3l.07.56,7.17-.85.07-.42c.39-2.27.77-5.21,1.11-8.74s.61-7.3.81-11.23.37-7.87.52-11.8.22-7.45.22-10.49v-32.9q2.73,0,6-.07,3.6-.07,7.43-.07H864c2.4,0,4.67,0,6.75.15l.51,0,1.67-10.71-.77.13C866.83,183.88,861.51,184.59,856.31,185.13Z"/><path class="cls-3" d="M936.91,189a244.38,244.38,0,0,0,28-8.72,215.83,215.83,0,0,0,26.9-12.3c3.52,1.17,7.43,2.43,11.64,3.76,4.46,1.41,8.9,2.84,13.18,4.27s8.69,2.92,12.82,4.35,7.71,2.68,10.76,3.76l.37.13,7.83-9.49-1-.14c-8.51-1.17-17.22-2.71-25.9-4.56A184.22,184.22,0,0,1,999,163.82a142.27,142.27,0,0,0,16.79-11.67,117.87,117.87,0,0,0,14.88-14.37l.34-.4-4.12-4.12-.29.05c-4.18.78-9.07,1.42-14.54,1.91s-11,.88-16.71,1.18-11.13.47-16.34.52-9.7.07-13.33.07q-2.5,0-5.29-.07c-1.83,0-3.68-.15-5.5-.29s-3.6-.32-5.21-.51-3.13-.39-4.4-.59l-1.23-.19,6.61,10.51.38-.07c1.64-.29,3.49-.56,5.5-.81s4-.46,5.89-.66,3.73-.34,5.43-.44,3.12-.15,4.17-.15c2.58,0,5.57-.1,8.88-.3s6.8-.37,10.38-.52l10.69-.44c3-.12,5.76-.2,8.32-.22a153.61,153.61,0,0,1-33.61,24.65,215.49,215.49,0,0,1-42.86,17.72l-.84.25,3.6,4.17Z"/><path class="cls-3" d="M1041.76,200.68c-6.06.49-12.57.88-19.36,1.18l-9.43.37c-3.91.15-8.17.27-12.67.37s-9.41.22-14.38.37-9.84.25-14.44.29-8.94.07-12.82.07-7.07,0-9.48-.15c-4.59-.19-9-.42-13.11-.66s-8.46-.61-12.94-1.1l-.9-.1,4.14,11.6.45-.06c3.59-.48,7.35-.9,11.18-1.25s7.6-.61,11.34-.81l6.55-.37c2.75-.14,5.92-.27,9.42-.37s7.25-.22,11.28-.37q5.76-.21,11.65-.35V247.6c0,2.61.05,5.22.15,7.76s.22,5,.37,7.38.32,4.47.52,6.22l.07.59,7.46-1.19.07-.39c.4-2.08.74-4.48,1-7.12s.56-5.43.81-8.34.42-5.84.52-8.73.15-5.73.15-8.35V209.29c4.94-.27,9.64-.44,14-.49s8.13-.07,11-.07L1043,209c5.72.1,10.59.25,14.5.44l.51,0,1.67-10.84-.76.11C1053.64,199.54,1047.87,200.19,1041.76,200.68Z"/><path class="cls-3" d="M1159.92,126.09l-.44-.06-2,5.07.62.16c6.08,1.59,10.32,3.36,12.6,5.26a9.05,9.05,0,0,1,3.33,7.38v93.31c0,2.86.05,5.79.15,8.72s.2,5.85.29,8.7.22,5.53.37,8.12.32,4.81.52,6.66l.06.57,7-.86.07-.42c.4-2.47.74-5.54,1-9.11s.54-7.32.74-11.22.37-7.74.52-11.58.22-7.3.22-10.34V143.9a48.86,48.86,0,0,1,.44-6.27c.29-2.24.64-4.26,1-6l.13-.56-12.8-2.62C1169.5,127.58,1164.83,126.78,1159.92,126.09Z"/><path class="cls-3" d="M1119.48,200.55c-4.93-5-9.87-10.22-14.67-15.59a162.19,162.19,0,0,0,7.63-15,126.82,126.82,0,0,0,6.07-16.88l.14-.5-.49-.18a104.61,104.61,0,0,0-11-3.41c-3.64-.9-7.48-1.89-11.41-2.95l-.37-.1-3.14,4.25,6,2.87a18.32,18.32,0,0,1,3.25,2c1,.68,1.55,1.38,1.59,2.07a11.57,11.57,0,0,1-.5,3.37,111.59,111.59,0,0,1-14.3,33.59c-6.57,10.32-15.63,20.39-26.94,29.94l-.5.42,3.77,3.39.37-.27a156.06,156.06,0,0,0,20.64-17.61,135.41,135.41,0,0,0,15.78-19.48c4.72,5.86,9.12,11.38,13.07,16.42,4.1,5.22,8.46,10.94,13,17l.38.51,9.05-8.56-.52-.4A174.14,174.14,0,0,1,1119.48,200.55Z"/><path class="cls-3" d="M1147,134.65c-3.81-.69-8.16-1.34-12.93-1.92l-.43-.05-2,5.07.62.16c5.68,1.49,9.57,3.17,11.55,5a9.55,9.55,0,0,1,2.91,7.32v29.09c-1.82.09-3.89.15-6.15.19q-3.77.08-7.31.22a70.38,70.38,0,0,1-7.82-.15,28.92,28.92,0,0,1-6.28-1l-1.24-.39,4.87,10.27.43-.09a102.71,102.71,0,0,1,11.58-1.69c3.71-.32,7.72-.59,11.91-.78v46q0,4.28.07,8.78t.22,8.78q.15,4.28.29,8c.1,2.51.25,4.72.45,6.6l.06.58,6.74-.86.07-.42c.39-2.46.77-5.52,1.11-9.1s.64-7.35.89-11.22.45-7.8.59-11.59.22-7.3.22-10.34v-70.9a50.57,50.57,0,0,1,.44-6.34c.29-2.29.64-4.33,1-6.07l.12-.54-.53-.14C1154.67,136.18,1150.81,135.33,1147,134.65Z"/><path class="cls-3" d="M1335.22,234.29c-5.34.78-11.13,1.47-17.22,2.06s-12.54,1-19.26,1.32h-.56l1.86-21.34c.19-1.84.44-3.79.73-5.8s.64-3.9,1-5.63l.13-.59-.6-.09c-3.14-.49-6.26-.86-9.25-1.11-2-.16-4-.29-5.9-.39a33.36,33.36,0,0,0,13.73-9.81,27,27,0,0,0,6.17-17.61,26.77,26.77,0,0,0-2.49-11.37,30.14,30.14,0,0,0-6.83-9.39,35.46,35.46,0,0,0-10.34-6.59,42.17,42.17,0,0,0-12.38-3.08,11.47,11.47,0,0,1,.88-2.71c.5-1,.95-2.07,1.34-3.05l.24-.61-.64-.15c-2.54-.59-5-1.06-7.42-1.41s-4.78-.76-7.19-1.25l-.39-.08-2.35,3.92.7.21a13.69,13.69,0,0,1,5.15,2.37,4.29,4.29,0,0,1,1.3,2.44,42.61,42.61,0,0,0-13.2,2.74,38.11,38.11,0,0,0-11.07,6.51,28.84,28.84,0,0,0-7.37,9.62,27.57,27.57,0,0,0-2.63,11.89,27.2,27.2,0,0,0,2.86,12.42,30.72,30.72,0,0,0,7.81,9.76,36.68,36.68,0,0,0,11.75,6.44,45.47,45.47,0,0,0,14.7,2.31,42,42,0,0,0,9.83-1.06l-.9,2.3.73.08a40.64,40.64,0,0,1,6.1,1.09,8,8,0,0,1,3.3,1.64,4.7,4.7,0,0,1,1.38,2.44,14.65,14.65,0,0,1,.21,4l-1.58,21.46c-4.27.19-9,.33-14.08.42s-10.26.24-15.36.42l-.72-19.93a33.34,33.34,0,0,1,.22-5.8,43.38,43.38,0,0,1,1.09-5.67l.17-.62-.64-.08c-3.84-.49-7.59-.89-11.16-1.18a94.48,94.48,0,0,0-10.45-.3h-.37l-1.89,4.71.73.09a28.18,28.18,0,0,1,5.85,1.22,7.71,7.71,0,0,1,3.23,2,6.76,6.76,0,0,1,1.5,2.72,18.44,18.44,0,0,1,.57,3.41l.86,19.6h-10.32c-3.34,0-6.16,0-8.38-.15-4.5-.19-8.88-.42-13-.66s-8.53-.61-13-1.1l-.91-.1,4.31,11.6.45-.06c3.61-.49,7.34-.86,11.09-1.1s7.54-.46,11.27-.66l8.33-.44c3.61-.2,7.64-.37,12-.52l14-.44q7.37-.22,14.38-.5c4.6-.18,9-.31,13.11-.37s7.49-.09,10.23-.09q10,.15,18.65.22c5.73.05,10.61.17,14.5.37l.51,0,1.66-11ZM1269,198.76a27.34,27.34,0,0,1-10-1.8,24.84,24.84,0,0,1-8-5,23.47,23.47,0,0,1-5.32-26.32,23.78,23.78,0,0,1,5.33-7.61,25.18,25.18,0,0,1,8-5.1,27.44,27.44,0,0,1,19.92,0,23.81,23.81,0,0,1,13.18,12.71,23,23,0,0,1,1.94,9.4,23.79,23.79,0,0,1-1.87,9.4,22.09,22.09,0,0,1-5.25,7.52,24.87,24.87,0,0,1-8,5A27.35,27.35,0,0,1,1269,198.76Z"/><text class="cls-4" transform="translate(73.52 134.19)">T<tspan class="cls-5" x="14.64" y="0">O</tspan><tspan class="cls-6" x="32.6" y="0">P</tspan><tspan class="cls-5" x="47.34" y="0" xml:space="preserve"> LINE</tspan></text><text class="cls-7" transform="translate(73.52 277.87)">B<tspan class="cls-8" x="14.36" y="0">A</tspan><tspan class="cls-9" x="28.89" y="0">SELINE</tspan></text><path class="cls-10" d="M383.66,178.64V143.9a9.05,9.05,0,0,0-3.33-7.38c-2.28-1.9-6.52-3.67-12.6-5.26l-.62-.16,2-5.07.44.06c4.82.69,9.47,1.48,13.81,2.36L395.69,131l.56.12-.13.56c-.39,1.74-.73,3.75-1,6a48.86,48.86,0,0,0-.44,6.27v55.87c0,6.18-.3,12.52-.89,18.85s-1.33,12.07-2.22,17.07l-.07.39-7.06,1.21,0-.63q-.15-2.51-.3-5.91t-.22-7l-.15-7q-.08-3.4-.07-6.06v-32Z"/><path class="cls-10" d="M366.52,187.16v13.93a151.8,151.8,0,0,1-1,17.53c-.64,5.45-1.31,9.95-2,13.38l-.08.4-6.72.86-.06-.57c-.1-.9-.2-2.2-.3-3.86s-.17-3.56-.22-5.62l-.15-6.34q-.08-3.25-.07-5.76V150.24a9.43,9.43,0,0,0-3-7.32c-2-1.85-5.95-3.53-11.63-5l-.64-.17,2.2-5.06.42.05c4.77.58,9.1,1.23,12.86,1.92s7.6,1.53,11.53,2.51l.56.14-.16.56a43.14,43.14,0,0,0-1.16,6,50.57,50.57,0,0,0-.44,6.34v36.92Z"/><path class="cls-10" d="M402.28,252.57c-4.73.69-10,1.33-15.75,1.91S374.89,255.56,369,256s-11.6.71-16.94,1-10,.32-13.66.22c-2.73-.1-4.57-.44-5.46-1a3.18,3.18,0,0,1-1.14-2.38H320.57v3.37a7.57,7.57,0,0,0,2,5.32,6.84,6.84,0,0,0,5.26,1.91q.49,0,1,0c4.47-.3,9.59-.57,15.24-.81s11.77-.44,18.12-.59c12.66-.29,26.36-.32,38.52.07l.49,0,1.84-10.54Z"/><path class="cls-10" d="M507.57,136.41a8.49,8.49,0,0,1,4.24,7.49v5.44H523v-5.4a49.09,49.09,0,0,1,.44-6.28c.29-2.24.64-4.27,1-6l.12-.56L524,131c-3.79-.78-8.13-1.62-13.28-2.58s-10-1.7-14.92-2.29l-.42-.05-2.21,5.07.66.16C500,132.76,504.64,134.49,507.57,136.41Z"/><path class="cls-10" d="M623.75,150.5c1.28-.2,2.65-.37,4.1-.51s2.86-.24,4.24-.29l3.76-.15q1.68-.07,2.7-.07c2.65,0,5.93-.07,9.75-.22s7.43-.17,10.87-.07h.46l2.08-8.49-.83.12c-4.58.68-9.21,1.2-13.74,1.54s-8,.51-10.5.51a58.17,58.17,0,0,1-9.12-.73c-3.06-.48-5.79-1-8.13-1.61l-1.19-.3,5.16,10.31Z"/><path class="cls-10" d="M735.3,189.33c-5.29.88-10.66,1.6-16,2.13-5.07.51-9.64.87-13.6,1.07v7.35q2.74,0,6.08-.07,3.68-.07,7.58-.07h7.74c2.5,0,4.82,0,6.9.15l.52,0,1.5-10.71Z"/><path class="cls-10" d="M831.85,199.66c-4.29,1.52-9.28,3.08-14.84,4.65-3.19.9-6.43,1.75-9.68,2.56V214c3.41-1,6.79-2.08,10.09-3.17,5.44-1.8,10.29-3.6,14.44-5.35Z"/><path class="cls-10" d="M988.25,212.9V247.6c0,2.61.05,5.22.15,7.76s.22,5,.37,7.38.32,4.47.52,6.22l.07.59,7.46-1.19.07-.39c.4-2.08.74-4.48,1-7.12s.56-5.43.81-8.34.42-5.84.52-8.73.15-5.73.15-8.35V212.86Z"/><path class="cls-10" d="M1041.76,200.68c-6.06.49-12.57.88-19.36,1.18l-9.43.37c-3.91.15-8.17.27-12.67.37s-9.41.22-14.38.37-9.84.25-14.44.29-8.94.07-12.82.07-7.07,0-9.48-.15c-4.59-.19-9-.42-13.11-.66s-8.46-.61-12.94-1.1l-.9-.1,4.14,11.6.45-.06c3.59-.48,7.35-.9,11.18-1.25s7.6-.61,11.34-.81l6.55-.37c2.75-.14,5.92-.27,9.42-.37s7.25-.22,11.28-.37q5.76-.21,11.65-.35l11.16,0c4.94-.27,9.64-.44,14-.49s8.13-.07,11-.07L1043,209c5.72.1,10.59.25,14.5.44l.51,0,1.67-10.84-.76.11C1053.64,199.54,1047.87,200.19,1041.76,200.68Z"/><path class="cls-10" d="M1268.73,198.75A27.28,27.28,0,0,1,1259,197a24.84,24.84,0,0,1-8-5,23,23,0,0,1-5.32-7.53,22.55,22.55,0,0,1-1.81-6.89H1231.5a26.69,26.69,0,0,0,2.77,10.14,30.72,30.72,0,0,0,7.81,9.76,36.68,36.68,0,0,0,11.75,6.44,45.47,45.47,0,0,0,14.7,2.31h.21Z"/><path class="cls-10" d="M1274.05,144.87a21.59,21.59,0,0,1,.88-2.71c.5-1,.95-2.07,1.34-3.05l.24-.61-.64-.15c-2.54-.59-5-1.06-7.42-1.41s-4.78-.76-7.19-1.25l-.39-.08-2.35,3.92.7.21a13.69,13.69,0,0,1,5.15,2.37,7.91,7.91,0,0,1,1.3,2.44Z"/><text class="cls-11" transform="translate(320.44 82.17)">PILLARS</text><text class="cls-11" transform="translate(482.8 82.17)">BEA<tspan class="cls-12" x="48.02" y="0">K</tspan></text><text class="cls-11" transform="translate(594.58 82.17)">VE<tspan class="cls-13" x="31.72" y="0">R</tspan><tspan x="47.62" y="0">TE</tspan><tspan class="cls-14" x="78.46" y="0">X</tspan></text><text class="cls-11" transform="translate(1040.63 82.17)">VE<tspan class="cls-13" x="31.72" y="0">R</tspan><tspan x="47.62" y="0">TICA</tspan><tspan class="cls-15" x="104.54" y="0">L</tspan><tspan x="118.96" y="0"> </tspan><tspan class="cls-16"><tspan x="52.82" y="20">S</tspan><tspan class="cls-5" x="68.04" y="20">TEM</tspan></tspan></text><text class="cls-4" transform="translate(1303.59 82.17)">T<tspan class="cls-5" x="14.64" y="0">OPKN</tspan><tspan class="cls-17" x="81.6" y="0">O</tspan><tspan class="cls-18" x="99.12" y="0">T</tspan></text><text class="cls-19" transform="translate(1174.67 82.17)">R<tspan class="cls-5" x="16.18" y="0">OUND </tspan><tspan class="cls-16"><tspan x="10.25" y="20">S</tspan><tspan class="cls-5" x="25.47" y="20">TEM</tspan></tspan></text><text class="cls-20" transform="translate(722.3 82.17)">S<tspan class="cls-5" x="15.22" y="0">TEM</tspan><tspan class="cls-21" x="66.14" y="0"> </tspan><tspan class="cls-5" x="75.48" y="0">JOIN</tspan><tspan class="cls-18" x="134.36" y="0">T</tspan><tspan class="cls-5" x="148.9" y="0"> </tspan><tspan class="cls-22"><tspan x="21.65" y="18.11">(</tspan><tspan class="cls-23" x="28.99" y="18.11">UP</tspan><tspan class="cls-24" x="53.59" y="18.11">W</tspan><tspan class="cls-25" x="69.76" y="18.11">ARD</tspan><tspan class="cls-26" x="107.43" y="18.11">S</tspan><tspan class="cls-25" x="118.96" y="18.11">)</tspan></tspan></text><text class="cls-11" transform="translate(247.46 329.59)">HORI<tspan class="cls-12" x="60.86" y="0">Z</tspan><tspan x="76.2" y="0">ON</tspan><tspan class="cls-27" x="111.84" y="0">T</tspan><tspan x="125.12" y="0">A</tspan><tspan class="cls-15" x="141.32" y="0">L</tspan><tspan x="155.74" y="0"> </tspan><tspan class="cls-16" x="165.56" y="0">S</tspan><tspan x="180.78" y="0">TEM</tspan></text><text class="cls-11" transform="translate(640.37 329.59)">SIDE <tspan class="cls-16" x="67.74" y="0">S</tspan><tspan x="82.96" y="0">T</tspan><tspan class="cls-28" x="98.04" y="0">R</tspan><tspan x="114.22" y="0">OKE</tspan></text><text class="cls-11" transform="translate(902.8 329.59)">SHO<tspan class="cls-13" x="51.46" y="0">R</tspan><tspan class="cls-15" x="67.36" y="0">T</tspan><tspan x="81.9" y="0" xml:space="preserve"> CO</tspan><tspan class="cls-29" x="126.4" y="0">L</tspan><tspan x="141.04" y="0">UMN</tspan></text><text class="cls-11" transform="translate(1125.11 329.59)">B<tspan class="cls-30" x="16.06" y="0">O</tspan><tspan class="cls-31" x="33.86" y="0">W</tspan></text><line class="cls-32" x1="355.33" y1="94.67" x2="355.33" y2="108.38"/><polygon class="cls-10" points="347.93 102.38 349.25 101.14 355.33 107.68 361.41 101.14 362.74 102.38 355.33 110.34 347.93 102.38"/><line class="cls-32" x1="384.19" y1="94.67" x2="384.19" y2="108.38"/><polygon class="cls-10" points="376.78 102.38 378.11 101.14 384.19 107.68 390.27 101.14 391.6 102.38 384.19 110.34 376.78 102.38"/><line class="cls-32" x1="513.24" y1="94.67" x2="513.24" y2="108.38"/><polygon class="cls-10" points="505.84 102.38 507.16 101.14 513.24 107.68 519.32 101.14 520.65 102.38 513.24 110.34 505.84 102.38"/><line class="cls-32" x1="639.72" y1="94.67" x2="639.72" y2="130.71"/><polygon class="cls-10" points="632.31 124.71 633.64 123.47 639.72 130.01 645.8 123.47 647.13 124.71 639.72 132.67 632.31 124.71"/><line class="cls-32" x1="1148.03" y1="113.67" x2="1148.03" y2="126.79"/><polygon class="cls-10" points="1140.62 120.79 1141.95 119.56 1148.03 126.1 1154.11 119.56 1155.43 120.79 1148.03 128.76 1140.62 120.79"/><line class="cls-32" x1="1306.73" y1="94.67" x2="1270.12" y2="131.28"/><polygon class="cls-10" points="1269.13 121.8 1270.94 121.87 1270.61 130.79 1279.54 130.47 1279.6 132.28 1268.73 132.67 1269.13 121.8"/><polyline class="cls-32" points="1216.49 113.67 1216.49 176.57 1223.2 183.29"/><polygon class="cls-10" points="1213.72 184.28 1213.79 182.47 1222.71 182.8 1222.39 173.87 1224.2 173.81 1224.59 184.68 1213.72 184.28"/><polyline class="cls-32" points="795.25 111.23 795.25 168.83 811.87 185.44"/><polygon class="cls-10" points="802.38 186.44 802.45 184.63 811.37 184.96 811.05 176.03 812.86 175.96 813.25 186.84 802.38 186.44"/><line class="cls-32" x1="361.81" y1="300.42" x2="361.81" y2="284.53"/><polygon class="cls-10" points="369.22 290.53 367.89 291.76 361.81 285.22 355.73 291.76 354.41 290.53 361.81 282.56 369.22 290.53"/><line class="cls-32" x1="720.9" y1="300.42" x2="720.9" y2="219.1"/><polygon class="cls-10" points="728.31 225.1 726.98 226.34 720.9 219.79 714.82 226.34 713.5 225.1 720.9 217.13 728.31 225.1"/><line class="cls-32" x1="1123.48" y1="304.51" x2="1028.65" y2="218.45"/><polygon class="cls-10" points="1038.08 217 1038.1 218.81 1029.17 218.92 1029.93 227.82 1028.12 227.97 1027.2 217.13 1038.08 217"/><line class="cls-32" x1="993.83" y1="300.42" x2="993.83" y2="287.02"/><polygon class="cls-10" points="1001.23 293.02 999.91 294.26 993.83 287.72 987.75 294.26 986.42 293.02 993.83 285.06 1001.23 293.02"/><line class="cls-32" x1="196.27" y1="272.36" x2="231.28" y2="272.36"/><polygon class="cls-10" points="225.28 279.76 224.05 278.44 230.59 272.36 224.05 266.28 225.28 264.95 233.25 272.36 225.28 279.76"/><line class="cls-32" x1="185.2" y1="126.04" x2="231.28" y2="126.04"/><polygon class="cls-10" points="225.28 133.45 224.05 132.12 230.59 126.04 224.05 119.96 225.28 118.64 233.25 126.04 225.28 133.45"/><path class="cls-10" d="M1147,134.65c-3.81-.69-8.16-1.34-12.93-1.92l-.43-.05-2,5.07.62.16c5.68,1.49,9.57,3.17,11.55,5a9.55,9.55,0,0,1,2.91,7.32V231.9q0,4.28.07,8.78t.22,8.78q.15,4.28.29,8c.1,2.51.25,4.72.45,6.6l.06.58,6.74-.86.07-.42c.39-2.46.77-5.52,1.11-9.1s.64-7.35.89-11.22.45-7.8.59-11.59.22-7.3.22-10.34v-70.9a50.57,50.57,0,0,1,.44-6.34c.29-2.29.64-4.33,1-6.07l.12-.54-.53-.14C1154.67,136.18,1150.81,135.33,1147,134.65Z"/></svg>