<svg id="svg" version="1.1" width="2000" height="2000" xmlns="http://www.w3.org/2000/svg" xmlns:xlink="http://www.w3.org/1999/xlink" style="display: block;"><g id="svgg"><path id="path0" d="M62.143 60.193 C 60.422 60.371,60.388 60.412,60.172 62.561 C 59.881 65.465,60.045 178.376,60.341 179.039 C 60.733 179.915,59.654 179.900,120.300 179.900 C 183.989 179.900,179.456 179.995,179.739 178.659 C 179.949 177.667,179.949 62.333,179.739 61.341 C 179.623 60.793,179.428 60.515,179.039 60.341 C 178.439 60.073,64.705 59.929,62.143 60.193 M222.143 60.193 C 220.422 60.371,220.388 60.412,220.172 62.561 C 219.881 65.465,220.045 178.376,220.341 179.039 C 220.733 179.915,219.654 179.900,280.300 179.900 C 343.989 179.900,339.456 179.995,339.739 178.659 C 339.949 177.667,339.949 62.333,339.739 61.341 C 339.623 60.793,339.428 60.515,339.039 60.341 C 338.439 60.073,224.705 59.929,222.143 60.193 M62.143 220.193 C 60.422 220.371,60.388 220.412,60.172 222.561 C 59.881 225.465,60.045 338.376,60.341 339.039 C 60.733 339.915,59.654 339.900,120.300 339.900 C 183.989 339.900,179.456 339.995,179.739 338.659 C 179.949 337.667,179.949 222.333,179.739 221.341 C 179.623 220.793,179.428 220.515,179.039 220.341 C 178.439 220.073,64.705 219.929,62.143 220.193 M222.143 220.193 C 220.422 220.371,220.388 220.412,220.172 222.561 C 219.881 225.465,220.045 338.376,220.341 339.039 C 220.733 339.915,219.654 339.900,280.300 339.900 C 343.989 339.900,339.456 339.995,339.739 338.659 C 339.949 337.667,339.949 222.333,339.739 221.341 C 339.623 220.793,339.428 220.515,339.039 220.341 C 338.439 220.073,224.705 219.929,222.143 220.193 " stroke="none" fill="#ffffff" fill-rule="evenodd"></path><path id="path1" d="M62.143 60.193 C 60.422 60.371,60.388 60.412,60.172 62.561 C 59.881 65.465,60.045 178.376,60.341 179.039 C 60.733 179.915,59.654 179.900,120.300 179.900 C 183.989 179.900,179.456 179.995,179.739 178.659 C 179.949 177.667,179.949 62.333,179.739 61.341 C 179.623 60.793,179.428 60.515,179.039 60.341 C 178.439 60.073,64.705 59.929,62.143 60.193 M222.143 60.193 C 220.422 60.371,220.388 60.412,220.172 62.561 C 219.881 65.465,220.045 178.376,220.341 179.039 C 220.733 179.915,219.654 179.900,280.300 179.900 C 343.989 179.900,339.456 179.995,339.739 178.659 C 339.949 177.667,339.949 62.333,339.739 61.341 C 339.623 60.793,339.428 60.515,339.039 60.341 C 338.439 60.073,224.705 59.929,222.143 60.193 M62.143 220.193 C 60.422 220.371,60.388 220.412,60.172 222.561 C 59.881 225.465,60.045 338.376,60.341 339.039 C 60.733 339.915,59.654 339.900,120.300 339.900 C 183.989 339.900,179.456 339.995,179.739 338.659 C 179.949 337.667,179.949 222.333,179.739 221.341 C 179.623 220.793,179.428 220.515,179.039 220.341 C 178.439 220.073,64.705 219.929,62.143 220.193 M222.143 220.193 C 220.422 220.371,220.388 220.412,220.172 222.561 C 219.881 225.465,220.045 338.376,220.341 339.039 C 220.733 339.915,219.654 339.900,280.300 339.900 C 343.989 339.900,339.456 339.995,339.739 338.659 C 339.949 337.667,339.949 222.333,339.739 221.341 C 339.623 220.793,339.428 220.515,339.039 220.341 C 338.439 220.073,224.705 219.929,222.143 220.193 " stroke="none" fill="#ffffff" fill-rule="evenodd"></path><path id="path2" d="M62.143 60.193 C 60.422 60.371,60.388 60.412,60.172 62.561 C 59.881 65.465,60.045 178.376,60.341 179.039 C 60.733 179.915,59.654 179.900,120.300 179.900 C 183.989 179.900,179.456 179.995,179.739 178.659 C 179.949 177.667,179.949 62.333,179.739 61.341 C 179.623 60.793,179.428 60.515,179.039 60.341 C 178.439 60.073,64.705 59.929,62.143 60.193 M222.143 60.193 C 220.422 60.371,220.388 60.412,220.172 62.561 C 219.881 65.465,220.045 178.376,220.341 179.039 C 220.733 179.915,219.654 179.900,280.300 179.900 C 343.989 179.900,339.456 179.995,339.739 178.659 C 339.949 177.667,339.949 62.333,339.739 61.341 C 339.623 60.793,339.428 60.515,339.039 60.341 C 338.439 60.073,224.705 59.929,222.143 60.193 M62.143 220.193 C 60.422 220.371,60.388 220.412,60.172 222.561 C 59.881 225.465,60.045 338.376,60.341 339.039 C 60.733 339.915,59.654 339.900,120.300 339.900 C 183.989 339.900,179.456 339.995,179.739 338.659 C 179.949 337.667,179.949 222.333,179.739 221.341 C 179.623 220.793,179.428 220.515,179.039 220.341 C 178.439 220.073,64.705 219.929,62.143 220.193 M222.143 220.193 C 220.422 220.371,220.388 220.412,220.172 222.561 C 219.881 225.465,220.045 338.376,220.341 339.039 C 220.733 339.915,219.654 339.900,280.300 339.900 C 343.989 339.900,339.456 339.995,339.739 338.659 C 339.949 337.667,339.949 222.333,339.739 221.341 C 339.623 220.793,339.428 220.515,339.039 220.341 C 338.439 220.073,224.705 219.929,222.143 220.193 " stroke="none" fill="#ffffff" fill-rule="evenodd"></path><path id="path3" d="M62.143 60.193 C 60.422 60.371,60.388 60.412,60.172 62.561 C 59.881 65.465,60.045 178.376,60.341 179.039 C 60.733 179.915,59.654 179.900,120.300 179.900 C 183.989 179.900,179.456 179.995,179.739 178.659 C 179.949 177.667,179.949 62.333,179.739 61.341 C 179.623 60.793,179.428 60.515,179.039 60.341 C 178.439 60.073,64.705 59.929,62.143 60.193 M222.143 60.193 C 220.422 60.371,220.388 60.412,220.172 62.561 C 219.881 65.465,220.045 178.376,220.341 179.039 C 220.733 179.915,219.654 179.900,280.300 179.900 C 343.989 179.900,339.456 179.995,339.739 178.659 C 339.949 177.667,339.949 62.333,339.739 61.341 C 339.623 60.793,339.428 60.515,339.039 60.341 C 338.439 60.073,224.705 59.929,222.143 60.193 M62.143 220.193 C 60.422 220.371,60.388 220.412,60.172 222.561 C 59.881 225.465,60.045 338.376,60.341 339.039 C 60.733 339.915,59.654 339.900,120.300 339.900 C 183.989 339.900,179.456 339.995,179.739 338.659 C 179.949 337.667,179.949 222.333,179.739 221.341 C 179.623 220.793,179.428 220.515,179.039 220.341 C 178.439 220.073,64.705 219.929,62.143 220.193 M222.143 220.193 C 220.422 220.371,220.388 220.412,220.172 222.561 C 219.881 225.465,220.045 338.376,220.341 339.039 C 220.733 339.915,219.654 339.900,280.300 339.900 C 343.989 339.900,339.456 339.995,339.739 338.659 C 339.949 337.667,339.949 222.333,339.739 221.341 C 339.623 220.793,339.428 220.515,339.039 220.341 C 338.439 220.073,224.705 219.929,222.143 220.193 " stroke="none" fill="#ffffff" fill-rule="evenodd"></path><path id="path4" d="M62.143 60.193 C 60.422 60.371,60.388 60.412,60.172 62.561 C 59.881 65.465,60.045 178.376,60.341 179.039 C 60.733 179.915,59.654 179.900,120.300 179.900 C 183.989 179.900,179.456 179.995,179.739 178.659 C 179.949 177.667,179.949 62.333,179.739 61.341 C 179.623 60.793,179.428 60.515,179.039 60.341 C 178.439 60.073,64.705 59.929,62.143 60.193 M222.143 60.193 C 220.422 60.371,220.388 60.412,220.172 62.561 C 219.881 65.465,220.045 178.376,220.341 179.039 C 220.733 179.915,219.654 179.900,280.300 179.900 C 343.989 179.900,339.456 179.995,339.739 178.659 C 339.949 177.667,339.949 62.333,339.739 61.341 C 339.623 60.793,339.428 60.515,339.039 60.341 C 338.439 60.073,224.705 59.929,222.143 60.193 M62.143 220.193 C 60.422 220.371,60.388 220.412,60.172 222.561 C 59.881 225.465,60.045 338.376,60.341 339.039 C 60.733 339.915,59.654 339.900,120.300 339.900 C 183.989 339.900,179.456 339.995,179.739 338.659 C 179.949 337.667,179.949 222.333,179.739 221.341 C 179.623 220.793,179.428 220.515,179.039 220.341 C 178.439 220.073,64.705 219.929,62.143 220.193 M222.143 220.193 C 220.422 220.371,220.388 220.412,220.172 222.561 C 219.881 225.465,220.045 338.376,220.341 339.039 C 220.733 339.915,219.654 339.900,280.300 339.900 C 343.989 339.900,339.456 339.995,339.739 338.659 C 339.949 337.667,339.949 222.333,339.739 221.341 C 339.623 220.793,339.428 220.515,339.039 220.341 C 338.439 220.073,224.705 219.929,222.143 220.193 " stroke="none" fill="#ffffff" fill-rule="evenodd"></path></g></svg>