<?xml version="1.0" encoding="utf-8"?>
<!-- Generator: Adobe Illustrator 21.0.0, SVG Export Plug-In . SVG Version: 6.00 Build 0)  -->
<svg version="1.1" id="Layer_1" xmlns="http://www.w3.org/2000/svg" xmlns:xlink="http://www.w3.org/1999/xlink" x="0px" y="0px"
	 viewBox="0 0 40 60" style="enable-background:new 0 0 40 60;" xml:space="preserve">
<style type="text/css">
	.st0{fill:#047272;}
	.st1{fill:none;stroke:#047272;stroke-width:1.5;stroke-linecap:round;stroke-linejoin:round;stroke-miterlimit:10;}
</style>
<g>
	<path class="st0" d="M16.5,19.1C16.5,19.1,16.5,19.1,16.5,19.1c0.5,0,0.9,0.2,1.3,0.4c0.6,0.4,0.9,1,0.9,1.8l0,9.1
		c0,0.3,0.1,0.5,0.3,0.6c0.1,0.1,0.3,0.1,0.5,0.1c0,0,0,0,0,0c0.4,0,0.8-0.4,0.8-0.8l0-2.2c0.6,0.2,1.3,0.5,2,0.8
		c0.1,0,0.2,0.1,0.3,0.2c0.4,0.3,0.6,0.7,0.6,1.1l0,1.8c0,0.3,0.1,0.5,0.3,0.6c0.1,0.1,0.3,0.1,0.5,0.1c0,0,0,0,0,0
		c0.4,0,0.8-0.4,0.8-0.8l0-2.1c0.6,0.3,1.3,0.5,1.9,0.8c0.1,0,0.2,0.1,0.3,0.1c0.4,0.3,0.6,0.7,0.6,1.1l0,1.6c0,0.3,0.1,0.5,0.3,0.6
		c0.1,0.1,0.3,0.1,0.5,0.1c0,0,0,0,0,0c0.4,0,0.8-0.4,0.8-0.8l0-1.7c0.2,0.1,0.4,0.2,0.6,0.3c0.2,0.1,0.5,0.3,0.7,0.4
		c1.3,1,1.5,2.4,1.5,4.3c0,5-2.3,6.8-2.3,11.8c-4.5,0-9,0-13.7,0c-2.3-7.2-5.7-11.4-6.7-12.8c-1-1.4-1.2-2.8-0.2-3.7
		c0.4-0.3,0.8-0.5,1.3-0.5c0.7,0,1.3,0.3,1.8,0.7c0.1,0,0.1,0.1,0.2,0.1c1.3,1.1,2.2,2.3,2.2,2.3l0-13.4
		C14.3,20.1,15.3,19.1,16.5,19.1 M16.5,17.6C16.5,17.6,16.5,17.6,16.5,17.6L16.5,17.6c-2,0-3.7,1.6-3.7,3.7l0,9.8
		c-0.8-0.6-1.8-0.9-2.7-0.9c-0.8,0-1.6,0.3-2.2,0.8c-1.6,1.3-1.6,3.5-0.1,5.7C7.9,36.8,8,37,8.2,37.1c1.2,1.7,4.2,5.6,6.2,11.9
		c0.2,0.6,0.8,1,1.4,1l10.2,0l3.5,0c0,0,0,0,0,0c0.8,0,1.5-0.7,1.5-1.5c0-2.3,0.5-3.8,1.1-5.4c0.6-1.8,1.2-3.6,1.2-6.4
		c0-1.9-0.2-4.1-2.2-5.5c-0.3-0.2-0.6-0.4-0.9-0.5c-0.2-0.1-0.4-0.2-0.6-0.3c-0.2-0.1-0.4-0.1-0.6-0.1c-0.2,0-0.4,0-0.6,0.1
		c-0.2-0.3-0.4-0.6-0.7-0.8c-0.2-0.1-0.3-0.2-0.5-0.3c-0.6-0.3-1.3-0.6-2-0.8c-0.2-0.1-0.4-0.1-0.6-0.1c-0.2,0-0.4,0-0.6,0.1
		c-0.2-0.3-0.4-0.5-0.7-0.7c-0.2-0.1-0.4-0.2-0.6-0.3c-0.8-0.3-1.4-0.6-2-0.8c-0.2-0.1-0.4-0.1-0.5-0.1c0,0-0.1,0-0.1,0l0-5.3
		c0-1.2-0.6-2.3-1.5-3C18,17.9,17.3,17.6,16.5,17.6L16.5,17.6z"/>
</g>
<g>
	<line class="st1" x1="16.5" y1="13.7" x2="16.5" y2="10.3"/>
</g>
<line class="st1" x1="21.5" y1="16.4" x2="24.6" y2="13.7"/>
<line class="st1" x1="11.5" y1="16.4" x2="8.4" y2="13.7"/>
</svg>
