<?xml version="1.0" encoding="utf-8"?>
<!-- Generator: Adobe Illustrator 21.0.0, SVG Export Plug-In . SVG Version: 6.00 Build 0)  -->
<svg version="1.1" id="Layer_1" xmlns="http://www.w3.org/2000/svg" xmlns:xlink="http://www.w3.org/1999/xlink" x="0px" y="0px"
	 viewBox="0 0 600 250" style="enable-background:new 0 0 600 250;" xml:space="preserve">
<style type="text/css">
	.st0{enable-background:new    ;}
	.st1{fill:#FFAD00;}
</style>
<title>emdash</title>
<g class="st0">
	<path class="st1" d="M204.2,52.4h38.7v6.8h-38.7V52.4z"/>
	<path class="st1" d="M254.9,52.4h38.7v6.8h-38.7V52.4z"/>
	<path class="st1" d="M305.6,52.4h38.7v6.8h-38.7V52.4z"/>
	<path class="st1" d="M356.3,52.4H395v6.8h-38.7V52.4z"/>
</g>
<g class="st0">
	<path class="st1" d="M204.2,124.4h38.7v6.8h-38.7V124.4z"/>
	<path class="st1" d="M254.9,124.4h38.7v6.8h-38.7V124.4z"/>
	<path class="st1" d="M305.6,124.4h38.7v6.8h-38.7V124.4z"/>
	<path class="st1" d="M356.3,124.4H395v6.8h-38.7V124.4z"/>
</g>
<g class="st0">
	<path class="st1" d="M204.2,196.4h38.7v6.8h-38.7V196.4z"/>
	<path class="st1" d="M254.9,196.4h38.7v6.8h-38.7V196.4z"/>
	<path class="st1" d="M305.6,196.4h38.7v6.8h-38.7V196.4z"/>
	<path class="st1" d="M356.3,196.4H395v6.8h-38.7V196.4z"/>
</g>
</svg>
