<?xml version="1.0" encoding="utf-8"?>
<!-- Generator: Adobe Illustrator 21.0.0, SVG Export Plug-In . SVG Version: 6.00 Build 0)  -->
<svg version="1.1" id="Layer_1" xmlns="http://www.w3.org/2000/svg" xmlns:xlink="http://www.w3.org/1999/xlink" x="0px" y="0px"
	 viewBox="0 0 600 200" style="enable-background:new 0 0 600 200;" xml:space="preserve">
<style type="text/css">
	.st0{enable-background:new    ;}
	.st1{fill:#047272;}
</style>
<title>en-italic</title>
<g class="st0">
	<path class="st1" d="M102.2,102.1c-1,3.5-1.8,8.8-2,12.6c0,11.5,7.4,16.2,18.1,16.2c10.4,0,18.3-6.9,18.3-17.8
		c0-4.8-1.8-8.3-5-11.3c-3.6-3.8-10.8-9.9-15.8-14.4c-5.7-4.9-9.2-10.5-9.2-18.5c0-8.7,3.8-15.8,9.9-20.7c4.6-3.6,10.6-5.7,18.2-5.7
		c8.8,0,15.3,3.4,18.1,7.3l4.6-6.7l2.9,1.8c-3.8,8.3-7.1,19.3-9.1,26.5l-3.8-0.4c3.8-15.4-2.4-24.2-13.4-24.2
		c-10.5,0-15.7,7.3-15.7,16.4c-0.1,5,2,9.5,6.6,13.4c6.7,6.7,12,11.1,15.7,14.3c5.3,4.3,8.7,9.2,8.7,16.5c0,7.1-2.4,13.4-7,18.3
		c-6.3,6.9-15.3,9.8-25.6,9.8c-9.7,0-19.3-3.5-26-8.4C93,121.5,96.3,110,98,103L102.2,102.1z"/>
</g>
<g class="st0">
	<path class="st1" d="M172.1,40.7c9.2-0.1,18.9-1.1,24.1-2.4c-2.8,7.3-7.3,20.7-13.9,43.1c-6.3,21.6-10.5,35.4-11.9,42.6
		c-0.7,2.8-0.3,4.2,1.3,4.2c3.6,0,10.1-6,13.7-13.4l2.7,2.9c-5.9,11.6-14.7,17.5-22.7,17.5c-8.5,0-7.8-8-5.5-16.5
		c3.2-10.8,6.6-21,11.1-36.4c6.3-21.4,8.4-29.3,9.8-35.1c0.6-2,0-2.5-1.7-2.5l-8.4-0.1L172.1,40.7z"/>
</g>
<g class="st0">
	<path class="st1" d="M260.5,117.7c-3.6,7.4-11.1,17.4-21.6,17.4c-7.7,0-7.8-7.3-5.9-14.1c0.3-1.3,0.8-3.2,1.3-4.6h-0.3
		C228.2,125,218,135,205.8,135c-8.1,0-11.5-6.2-11.5-14.4c0-15.4,9.7-35.3,23.2-44.2c5.6-3.6,10.6-5,15.8-5c6,0,10.4,2.4,11.9,6.4
		l1.5-4.8h11.3c-4.9,14.3-12.2,38.6-14.7,50.1c-0.6,2.7-0.4,5.2,1.5,5.2c3.8,0,9.2-6.3,12.7-13.4L260.5,117.7z M212.1,128.2
		c6.4,0,13.7-5.7,20.7-17.5c3.5-5.9,9.5-20.4,9.5-25.9c0-6.3-3.6-8.8-7.7-8.8c-4.6,0-9,1.8-13.7,7.4c-8.1,9.7-14.1,25.1-14.1,36.7
		C206.8,124.1,208.3,128.2,212.1,128.2z"/>
</g>
<g class="st0">
	<path class="st1" d="M333.2,117.8c-5.7,11.3-14.7,17.4-22.8,17.4c-8.3,0-8.1-7.7-4.6-17.1c3.6-10.2,8.4-22.8,11.6-31.9
		c1.5-4.2,1-8.3-3.4-8.3c-12.3,0-25.3,21.6-30.7,36.1c-2,5.3-4.1,10.5-6.7,19.3c-4.3,0.1-8.7,0.7-12.2,1.1
		c6.4-17.4,14.3-43.7,16.2-53.6c0.3-1.8,0-2.4-1.3-2.5l-8.7,0.1l1.4-3.8c7.3-0.6,15.3-1.5,22.4-3.4c-2.2,7.6-4.6,16.7-6.9,24.1
		c7.8-11.8,18.5-24.1,32.5-24.1c3.1,0,5.5,0.8,7,2.2c3.9,3.5,2.5,11.3,0.6,16.5c-3.6,10.2-8.8,23.5-12,33.9
		c-0.8,2.5-0.4,4.2,1.1,4.2c3.9,0,10.1-6.2,13.7-13.3L333.2,117.8z"/>
</g>
<g class="st0">
	<path class="st1" d="M374.6,118.5c-5.5,10.9-15.8,16.5-23.9,16.5c-10.9,0-10.4-7.3-8.1-15c3.9-12.9,9.7-31.6,12.5-41.3l-9.8-1
		l1.8-4.1h9.5c2.2-6.6,3.9-12.6,5.2-16.9c4.8-0.7,9.9-1.7,13.4-3.1c-1.3,2.9-4.5,12.5-6.9,20h15.3l-2.1,4.1l-14.7,1
		c-2.7,8-10.9,35.3-13.3,45.4c-0.7,3.1-0.4,5.2,2.7,5.2c6.3,0,13.4-8.4,16.4-15.4L374.6,118.5z"/>
</g>
<g class="st0">
	<path class="st1" d="M431.8,118.5c-6.7,10.4-18.3,16.5-30.1,16.5c-11.6,0-18.1-7.1-18.1-19.5c0-13.6,6.6-28.8,18.3-37.9
		c5.6-4.2,11.9-6.3,18.3-6.3c11.8,0,15.7,7,15.7,14.3c0,6.6-5,10.2-9.9,12.5c-7.3,3.4-20.6,6.3-28.7,7.3c-0.6,2.7-1,6.6-1,9.8
		c0,8,2.9,14,10.8,14c9.7,0,17.4-6.3,22.1-17.6h2.1L431.8,118.5z M398.2,100.9c6.3-0.7,15.1-2.9,19.2-4.9c5.3-2.5,8-6.9,8-12.3
		c0-5.2-2.4-8.1-6.6-8.1C413,75.5,403.9,81,398.2,100.9z"/>
	<path class="st1" d="M509.9,117.8c-5,10.1-12.7,17.5-22,17.5c-7.4,0-7.4-8-5.3-15.4c0.4-1.4,0.7-2.7,1.1-4.1
		c-6,9.1-15.8,19.2-28.8,19.2c-8.8,0-13-6.6-13-15.8c0-14.8,8.4-32.3,21.6-41.7c4.9-3.6,10.8-6.2,17.9-6.2c6.2,0,10.8,1.8,13,5.6
		c5.5-17.4,7.7-25.8,8.5-29.7c0.4-2,0.1-2.5-1.5-2.5c-2-0.1-5.2-0.3-9-0.3l1.4-3.8c7.7-0.1,19.7-1.3,24.4-2.4
		c-3.4,8.4-10.9,31.9-18.6,59.5c-3.5,12.5-5.5,20-6.6,25.2c-0.6,2.5-0.8,5.3,1.1,5.3c3.8,0,9.9-6.7,13-13.4L509.9,117.8z
		 M460.7,128.3c6.2,0,12.9-5.5,19.6-15.8c4.5-6.7,10.8-21.1,10.8-28c0-4.3-2.4-8.8-8.3-8.8c-4.9,0-9.2,2-13.9,6.9
		c-7.8,8.3-14.4,23.4-14.4,36.7C454.6,124.4,456.5,128.3,460.7,128.3z"/>
</g>
</svg>
