<?xml version="1.0" encoding="utf-8"?>
<!-- Generator: Adobe Illustrator 21.0.0, SVG Export Plug-In . SVG Version: 6.00 Build 0)  -->
<svg version="1.1" id="Layer_1" xmlns="http://www.w3.org/2000/svg" xmlns:xlink="http://www.w3.org/1999/xlink" x="0px" y="0px"
	 viewBox="0 0 600 200" style="enable-background:new 0 0 600 200;" xml:space="preserve">
<style type="text/css">
	.st0{enable-background:new    ;}
	.st1{fill:#047272;}
</style>
<title>en-script</title>
<g class="st0">
	<path class="st1" d="M220.2,39.2c0,0,3.3,4.2,7,9.3c-3.9,7.9-11.1,16.3-17.8,20.2l-1.8-0.9c4-6,7-12,8.7-18.1
		c-9.9-8.7-26.1-4.1-31,9.7c-9,25,31,37.5,22.8,65.4c-8.5,28.9-48.6,27.3-52.6-3.6c0,0,2.1-0.9,3.8-0.8c3.6,22.3,34.5,18.9,39.9-1.4
		c7.3-27.4-32.2-40.3-22.8-65.1c6.8-17.7,30.9-20.7,40.6-6.6c0.6-2.4,0.9-4.8,1.2-7.2L220.2,39.2z"/>
	<path class="st1" d="M263.5,91.7c-2.8,5.8-8.1,12-13,14.9l-1.2-0.8l4-10.5c-18.9,5.7-28,26.8-21.3,45.7
		c14.1-3.3,25.5-15.4,34.2-26.4c0,0,1.7,0.8,1.8,0.9c-7.3,11.2-19.5,24.4-34.2,29.8c-25.6-18.5-10.3-48.7,14.1-60.1l5.8,8.7l3.1-8.2
		l1.5-0.7C258.4,84.9,260.8,88.1,263.5,91.7z"/>
	<path class="st1" d="M287.2,92.6c0,0-3.6,6.6-7.9,18.1l0.5,0.2c4.8-7.7,15.7-22.3,18.9-24.6c2.1-1.5,4.4-1.6,6.5,0s3.6,3.6,4.6,5.5
		c4,7.2-6,16.6-15,19c-0.8-0.6-1.2-1.7-1.2-1.7c7.2-4.3,9.5-12,8.4-19.8c-11.8,8.7-21,22.6-28.9,40c-1.7,5-3.3,10-5,15.9l-8.7-7.4
		l19.3-52.8L287.2,92.6z"/>
	<path class="st1" d="M322.5,121.1c-2.1,6.5-3.9,13.8-3.9,20.2c12.6-6.5,21.9-15.8,30.3-26.7l2.1,1c-7.8,11.1-19.2,23.1-30.6,29.5
		c-9.5-3.2-12-13.5-9.9-24.1c3.2-10.5,13.5-35.7,13.5-35.7l9,7.3C333,92.7,324.4,114.8,322.5,121.1z M348.6,54.9l1.2,0.9
		c-0.2,8.4-4.6,17.4-10.5,22l-2.1,0.3l-9.1-6.4l0.9-1C338.4,68.7,345.3,63.6,348.6,54.9z"/>
	<path class="st1" d="M370.5,84.5c-1.1,1.6-14.8,34.6-18.8,43.9l1.1,1c7.9-16.3,22.6-35.4,33.1-43.5c1.6-1.2,3.9-1.4,6.1,0
		c2,1.2,3.8,2.8,5,4c2.2,2.2,3.8,5.5,1.6,10l-9.4,21.6c-2.4,5.5-4.5,13.6-3.8,19.3c12.4-6.3,22.2-15.6,30.7-26.4l1.8,0.9
		c-7.8,11.2-18,22-30.1,29.8c-9.3-4.2-15.6-13.7-11.1-23.5c2.5-6.6,9.7-21.7,13.2-29.8c0.6-1.2,0.1-2.4-0.8-2.4
		c-10.2,0-38.2,48-40.9,55.5l-11.2,31l-8.5-7.2l32.8-91.3L370.5,84.5z"/>
</g>
<g class="st0">
	<path class="st1" d="M427.3,87.8c4.3-11.8,8.2-22,8.2-22l7.6,6.9c-1.5,3.9-3.6,9.9-6,16.5c5.7,0.3,11.4,0,16.8-1.4l1.3,1.2
		c-5.4,2.4-12.3,3.6-19.5,4c-4.3,12.4-8.7,25.5-9.9,29.1c-2.1,6.2-3.2,13.2-2.5,19c12.6-6.3,22.3-15.8,30.9-26.5l1.8,0.9
		c-7.8,11.2-18,21.9-30.1,29.8c-9.9-3.8-14-15.2-11.1-23.2c1.5-4.5,6-16.8,10.5-28.8l-5-0.3l-3.5-5.2l1.2-2.1
		C421.3,86.6,424.3,87.3,427.3,87.8z"/>
</g>
</svg>
