<?xml version="1.0" encoding="utf-8"?>
<!-- Generator: Adobe Illustrator 21.0.0, SVG Export Plug-In . SVG Version: 6.00 Build 0)  -->
<svg version="1.1" id="Layer_1" xmlns="http://www.w3.org/2000/svg" xmlns:xlink="http://www.w3.org/1999/xlink" x="0px" y="0px"
	 viewBox="0 0 600 250" style="enable-background:new 0 0 600 250;" xml:space="preserve">
<style type="text/css">
	.st0{enable-background:new    ;}
	.st1{fill:#FFAD00;}
</style>
<title>hyphen</title>
<g class="st0">
	<path class="st1" d="M188,52.4h15.9v6.8H188V52.4z"/>
	<path class="st1" d="M222.5,52.4h15.9v6.8h-15.9V52.4z"/>
	<path class="st1" d="M257,52.4h15.9v6.8H257V52.4z"/>
	<path class="st1" d="M291.5,52.4h15.9v6.8h-15.9V52.4z"/>
	<path class="st1" d="M326,52.4h15.9v6.8H326V52.4z"/>
	<path class="st1" d="M360.5,52.4h15.9v6.8h-15.9V52.4z"/>
	<path class="st1" d="M395,52.4h15.9v6.8H395V52.4z"/>
</g>
<g class="st0">
	<path class="st1" d="M188,124.4h15.9v6.8H188V124.4z"/>
	<path class="st1" d="M222.5,124.4h15.9v6.8h-15.9V124.4z"/>
	<path class="st1" d="M257,124.4h15.9v6.8H257V124.4z"/>
	<path class="st1" d="M291.5,124.4h15.9v6.8h-15.9V124.4z"/>
	<path class="st1" d="M326,124.4h15.9v6.8H326V124.4z"/>
	<path class="st1" d="M360.5,124.4h15.9v6.8h-15.9V124.4z"/>
	<path class="st1" d="M395,124.4h15.9v6.8H395V124.4z"/>
</g>
<g class="st0">
	<path class="st1" d="M188,196.4h15.9v6.8H188V196.4z"/>
	<path class="st1" d="M222.5,196.4h15.9v6.8h-15.9V196.4z"/>
	<path class="st1" d="M257,196.4h15.9v6.8H257V196.4z"/>
	<path class="st1" d="M291.5,196.4h15.9v6.8h-15.9V196.4z"/>
	<path class="st1" d="M326,196.4h15.9v6.8H326V196.4z"/>
	<path class="st1" d="M360.5,196.4h15.9v6.8h-15.9V196.4z"/>
	<path class="st1" d="M395,196.4h15.9v6.8H395V196.4z"/>
</g>
</svg>
