<?xml version="1.0" encoding="utf-8"?>
<!-- Generator: Adobe Illustrator 21.0.0, SVG Export Plug-In . SVG Version: 6.00 Build 0)  -->
<svg version="1.1" id="Layer_1" xmlns="http://www.w3.org/2000/svg" xmlns:xlink="http://www.w3.org/1999/xlink" x="0px" y="0px"
	 viewBox="0 0 600 200" style="enable-background:new 0 0 600 200;" xml:space="preserve">
<style type="text/css">
	.st0{enable-background:new    ;}
	.st1{fill:#047272;}
</style>
<title>kr-italic</title>
<g class="st0">
	<path class="st1" d="M144.5,108.7c-4.7-0.1-9.8-0.1-15.4,0.1c-5.6,0.2-11,0.4-16.5,0.6c-0.4,0.9-0.8,1.7-1.2,2.4
		c-0.3,0.7-0.7,1.4-1,1.9l-4.8,0.8c0.3-1.5,0.6-3.2,1.1-5.1c0.5-1.9,1-3.9,1.7-6L119,71.3c0.8-2.5,0.8-4.4,0-5.6
		c-0.8-1.2-2.9-2.2-6.3-3l2-2.8c2.4,0.2,5,0.5,7.5,0.8c2.6,0.3,5.2,0.8,8,1.5c-0.8,1.3-1.6,2.8-2.3,4.3c-0.7,1.5-1.3,3-1.8,4.4
		l-2.5,7.6c4.9-0.1,9.8-0.2,14.7-0.4c4.9-0.2,10.3-0.6,16.2-1.2l3.4-10.5c0.4-1.3,0.6-2.3,0.6-3.2c0-0.9-0.3-1.7-0.9-2.3
		c-0.6-0.6-1.4-1.2-2.6-1.7c-1.1-0.5-2.6-1-4.5-1.4l2.1-2.9c3,0.4,5.8,0.7,8.5,1.1c2.7,0.4,5.3,0.9,8,1.4c-0.7,1.3-1.5,2.8-2.2,4.3
		c-0.7,1.5-1.3,3-1.8,4.4l-10.1,30.9c-0.9,2.7-2,5.5-3.3,8.4c-1.4,2.9-2.5,5.2-3.5,7l-4.9,0.7c0-0.6,0.2-1.3,0.4-2.1
		C144.2,110.3,144.4,109.5,144.5,108.7z M146.5,101.9l6.5-19.8c-4.8-0.2-9.8-0.3-14.8-0.1c-5.1,0.2-10.3,0.4-15.8,0.8l-5.1,15.7
		c-0.4,1.1-0.8,2.2-1.2,3.3c-0.4,1.1-0.9,2.3-1.5,3.5c5-0.1,10.2-0.2,15.5-0.5c5.4-0.3,10.6-0.6,15.8-0.9L146.5,101.9z M182.6,41.1
		c3.6,0.4,7.2,1,10.7,1.7c3.5,0.7,6.7,1.4,9.4,1.9c-0.7,1.3-1.5,2.9-2.3,4.6c-0.8,1.7-1.5,3.3-2,4.8l-20.3,62.3
		c-0.8,2.3-1.7,4.9-2.7,7.9c-1.1,3-2.2,5.9-3.3,8.9c-1.1,3-2.2,5.8-3.3,8.5s-2.1,4.9-2.9,6.6l-4.9,0.6c0.3-1.3,0.6-2.8,1.2-4.7
		c0.5-1.9,1.1-3.9,1.7-6.1c0.6-2.2,1.3-4.4,2-6.7c0.7-2.3,1.4-4.5,2.1-6.7l23-70.5c0.8-2.5,0.3-4.5-1.4-6c-1.8-1.5-4.9-2.8-9.2-3.9
		L182.6,41.1z"/>
</g>
<g class="st0">
	<path class="st1" d="M288.1,129.5c-2.9-0.1-6.5-0.2-10.9-0.3c-4.3,0-9-0.1-14-0.2c-2.1,0-4.7,0-7.8,0.1c-3.1,0-6.4,0.1-10,0.2
		c-3.6,0.1-7.2,0.2-11,0.3c-3.7,0.1-7.3,0.2-10.7,0.3c-3.4,0.1-6.4,0.2-9.2,0.4c-2.8,0.1-4.9,0.3-6.4,0.3c-2.9,0.1-5.8,0.3-8.7,0.5
		c-2.9,0.2-5.8,0.5-8.7,0.8l-0.4-7.7c3.3,0.4,6.5,0.7,9.6,0.8c3.1,0.2,6.3,0.4,9.7,0.5c1.8,0.1,4.2,0.1,7,0.1c2.8,0,5.9,0,9.3-0.1
		c3.4,0,6.8-0.1,10.4-0.2c3.6-0.1,7.1-0.2,10.4-0.3c3.4-0.1,6.5-0.2,9.3-0.3s5.2-0.2,7-0.3c5.2-0.2,10.2-0.6,14.9-1
		c4.7-0.4,9.3-1,13.5-1.6L288.1,129.5z M259.2,70c2.1,1.9,4.7,3.8,7.6,5.9c3,2.1,6,4.1,9.3,6.1c3.2,2,6.4,3.8,9.7,5.5
		c3.2,1.7,6.1,3.1,8.8,4.2l-8.7,6.5c-4.6-4.5-9.5-8.7-15-12.9c-5.4-4.1-10.5-8.2-15.3-12.2c-7.8,6.8-16,12.7-24.6,17.8
		c-8.6,5.1-17,9.2-25.2,12.3l-1.4-2.6c5.5-2.3,10.9-5,16.1-8c5.2-3,10.2-6.3,14.9-9.8c4.7-3.5,9.1-7.1,13.2-11
		c4.1-3.8,7.7-7.7,11-11.5c0.7-0.9,1.2-1.6,1.4-2.1c0.2-0.5,0-1.1-0.7-1.8c-0.5-0.4-1.1-0.9-1.9-1.4c-0.7-0.5-1.9-1.3-3.4-2.2
		l2.8-2.7c2.8,0.8,5.4,1.7,7.9,2.5c2.5,0.9,5,1.8,7.6,2.9C268.9,60.5,264.2,65.3,259.2,70z"/>
</g>
<g class="st0">
	<path class="st1" d="M406.8,98.5c-2.9-0.1-6.5-0.3-10.9-0.3c-4.3-0.1-9-0.2-14-0.2c-2.1,0-4.8,0-8,0.1c-3.3,0-6.8,0.1-10.7,0.2
		c-3.8,0.1-7.8,0.2-11.8,0.3s-7.9,0.2-11.6,0.4c-3.7,0.1-7,0.3-9.9,0.4c-2.9,0.1-5.2,0.2-6.7,0.3c-2.9,0.1-5.9,0.4-8.8,0.6
		c-2.9,0.3-5.8,0.6-8.7,0.9l-0.3-7.9c3.4,0.4,6.6,0.7,9.6,0.8c3.1,0.2,6.3,0.4,9.7,0.5c1.8,0.1,4.3,0.1,7.3,0.1s6.4,0,10-0.1
		c3.6,0,7.4-0.1,11.3-0.2c3.9-0.1,7.7-0.2,11.3-0.3c3.6-0.1,7-0.2,10-0.3c3-0.1,5.5-0.2,7.4-0.3c5.2-0.2,10.2-0.5,14.9-0.9
		c4.7-0.4,9.2-0.9,13.4-1.4L406.8,98.5z M370.5,137.1c0.8-0.1,1.6-0.1,2.4-0.2c0.8-0.1,1.5-0.2,2.1-0.2l-3.5,6.3
		c-3-0.2-6.4-0.4-10.4-0.5c-3.9-0.1-8-0.2-12.3-0.2c-4.3,0-8.5,0-12.6,0.1c-4.1,0.1-7.9,0.2-11.2,0.3c-0.7,1.7-1.4,3.2-2.2,4.6
		l-4.6,0.8c0.1-1.4,0.4-3.1,0.8-5c0.4-1.9,0.9-3.9,1.4-5.8l3.5-15.1c0.3-1.4,0.5-2.6,0.6-3.5c0.1-0.9,0-1.6-0.3-2.2
		c-0.3-0.6-0.9-1-1.7-1.5c-0.8-0.4-2-0.8-3.4-1.3l2.1-2.8c9.3,1.1,19.2,1.5,29.8,1.3c10.5-0.3,21-0.8,31.5-1.6c-1,2.1-2,4.3-3.1,6.6
		c-1.1,2.3-2.2,4.6-3.2,6.9c-1.1,2.3-2.1,4.6-3.1,6.8C372.2,133.2,371.3,135.2,370.5,137.1z M371.9,116.2c-2.4-0.1-5.3-0.1-8.7-0.2
		c-3.5,0-7.1,0-10.8,0.1c-3.7,0.1-7.3,0.2-10.7,0.3c-3.4,0.1-6.2,0.2-8.3,0.4l-5.5,18.3l-1.1,3.5c2.8,0,5.8,0,9-0.1
		c3.2,0,6.5-0.1,9.8-0.2c3.3-0.1,6.5-0.2,9.7-0.3c3.2-0.1,6.2-0.3,9.1-0.5L371.9,116.2z M335.8,47.3c2.9,0.5,6.4,0.9,10.3,1.2
		c3.9,0.3,8,0.4,12.3,0.5c4.3,0.1,8.7,0.1,13.2-0.1c4.5-0.1,8.8-0.3,13-0.5c4.2-0.2,8-0.5,11.5-0.8c3.5-0.3,6.5-0.7,8.8-1.1
		l-3.6,6.9c-4.6-0.3-9.2-0.5-13.8-0.6c-4.7-0.1-9.2-0.1-13.7,0c-4.5,0.1-8.8,0.2-12.9,0.3c-4.1,0.1-7.8,0.3-11.3,0.6l-6.1,18.8
		c-0.5,1.6-0.5,2.6,0.1,3.2c0.6,0.6,1.9,0.9,4,0.9c2.9,0.1,6.3,0,10.4-0.1c4.1-0.1,8.3-0.4,12.8-0.6c4.5-0.3,9-0.6,13.5-1
		c4.5-0.4,8.6-0.8,12.3-1.3l-3.6,7c-4.6-0.2-9.3-0.4-14.2-0.4c-4.9,0-9.6,0-14.3,0.1c-4.7,0.1-9.2,0.2-13.5,0.4
		c-4.3,0.2-8.1,0.4-11.6,0.6c-2.1,0.1-3.5-0.4-4.2-1.7c-0.7-1.3-0.7-2.9,0-4.8l4.7-14.5c0.5-1.6,0.9-3,1-4c0.1-1-0.1-1.9-0.5-2.7
		c-0.5-0.7-1.2-1.4-2.3-1.9c-1.1-0.5-2.6-1.1-4.5-1.7L335.8,47.3z"/>
</g>
<g class="st0">
	<path class="st1" d="M442,94.1c1,1.8,2.2,3.5,3.6,5.3c1.3,1.7,2.7,3.4,4,5c1.4,1.6,2.8,3.1,4.2,4.5c1.4,1.4,2.8,2.5,4.1,3.5
		l-7.6,5.5c-2-3.6-3.9-7-5.7-10.4c-1.8-3.4-3.7-6.8-5.7-10.4c-5.8,4.9-11.7,9.3-17.9,13.3c-6.2,4-12.5,7.4-19,10.4l-1.5-2.1
		c5.3-2.7,10.4-5.7,15.3-9.1c4.9-3.4,9.5-7,13.8-10.8c4.3-3.8,8.3-7.8,12-11.9s7-8.2,10-12.3c-2.2,0.1-4.5,0.1-6.9,0.2
		c-2.4,0.1-4.8,0.2-7,0.3c-0.8,0.1-1.9,0.2-3.1,0.3c-1.2,0.1-2.5,0.3-3.9,0.4c-1.4,0.2-2.7,0.4-4.1,0.6c-1.4,0.2-2.7,0.4-4,0.6
		l-1.9-7.1c2,0.4,4.1,0.7,6.5,0.8c2.3,0.2,4.8,0.3,7.2,0.3c2.7,0,5.3,0,7.6-0.1c2.3-0.1,4.5-0.2,6.6-0.4c2.1-0.2,4.2-0.4,6.3-0.8
		c2.1-0.3,4.3-0.8,6.6-1.3l1.8,2.4C456.9,79.4,449.9,87.2,442,94.1z M461,59.3c-2.6-0.1-5-0.1-7.3,0.1c-2.3,0.1-4.3,0.2-6.1,0.2
		c-1,0-2.6,0.1-4.6,0.2c-2,0.1-3.9,0.3-5.8,0.6l-1.2-6.6c1.7,0.4,3.5,0.7,5.4,1.1c2,0.4,4,0.6,6.1,0.6c1.8,0,4.1-0.1,6.9-0.2
		c2.8-0.1,6-0.5,9.7-1L461,59.3z M471,93.8c-2.7,0.1-5.7,0.4-8.8,0.7c-3.2,0.3-6,0.8-8.6,1.4l-1.1-6.6c1.2,0.3,2.7,0.5,4.6,0.7
		c1.9,0.2,3.8,0.2,5.6,0.1c4.1-0.2,7.3-0.3,9.6-0.3l10.1-30.8c0.8-2.4,0.7-4.4-0.4-5.8c-1.1-1.4-3.6-2.7-7.6-3.9l2.2-3.1
		c3.6,0.4,6.7,0.9,9.3,1.4c2.6,0.5,5.3,1.2,8,1.9c-0.7,1.3-1.5,2.9-2.3,4.6c-0.8,1.8-1.4,3.4-1.9,4.9l-17.5,53.6
		c-0.8,2.3-1.7,4.9-2.7,7.8c-1.1,2.9-2.2,5.8-3.3,8.7c-1.1,2.9-2.3,5.8-3.4,8.5c-1.1,2.7-2.2,5-3.1,6.8L455,145
		c0.3-1.4,0.7-3.1,1.3-5c0.5-1.9,1.1-3.9,1.8-6.1c0.6-2.2,1.3-4.4,2-6.6c0.7-2.3,1.4-4.5,2.1-6.6L471,93.8z M496.9,41.1
		c3.5,0.5,6.8,1.1,9.9,1.8c3,0.7,5.9,1.3,8.6,1.9c-0.7,1.3-1.5,2.9-2.3,4.6c-0.8,1.7-1.4,3.3-1.9,4.8l-20.3,62.3
		c-0.8,2.3-1.7,4.9-2.7,7.8c-1.1,2.9-2.1,5.8-3.2,8.7c-1.1,2.9-2.2,5.8-3.3,8.5c-1.1,2.7-2.1,5-3,6.8l-4.7,0.6
		c0.3-1.4,0.7-3.1,1.3-5c0.6-1.9,1.1-4,1.7-6.1c0.6-2.2,1.2-4.3,1.9-6.6c0.7-2.2,1.4-4.4,2.1-6.6l23-70.5c0.8-2.4,0.5-4.4-0.8-5.9
		c-1.3-1.5-4.1-2.8-8.4-4.1L496.9,41.1z"/>
</g>
</svg>
