<?xml version="1.0" encoding="utf-8"?>
<!-- Generator: Adobe Illustrator 21.0.0, SVG Export Plug-In . SVG Version: 6.00 Build 0)  -->
<svg version="1.1" id="Layer_1" xmlns="http://www.w3.org/2000/svg" xmlns:xlink="http://www.w3.org/1999/xlink" x="0px" y="0px"
	 viewBox="0 0 600 250" style="enable-background:new 0 0 600 250;" xml:space="preserve">
<style type="text/css">
	.st0{enable-background:new    ;}
	.st1{fill:#FFAD00;}
</style>
<title>tilde</title>
<g class="st0">
	<path class="st1" d="M224.7,57.6c-1.1,1.7-2.8,2.6-5.2,2.6c-1.1,0-2-0.2-2.9-0.5c-0.8-0.3-1.7-0.8-2.7-1.4c-1.2-0.7-2-1.1-2.6-1.1
		c-1.2,0-1.9,0.9-1.9,2.7h-7.2c0-3.5,0.6-6.1,1.7-7.9c1.1-1.7,2.9-2.6,5.2-2.6c1,0,2,0.2,2.8,0.5c0.8,0.3,1.7,0.8,2.7,1.4
		c0.1,0.1,0.4,0.2,0.8,0.5c0.4,0.2,0.7,0.4,1,0.5c0.3,0.1,0.6,0.1,0.8,0.1c1.2,0,1.9-0.9,1.9-2.7h7.1
		C226.3,53.2,225.8,55.9,224.7,57.6z"/>
	<path class="st1" d="M267.3,57.6c-1.1,1.7-2.8,2.6-5.2,2.6c-1.1,0-2-0.2-2.9-0.5c-0.8-0.3-1.7-0.8-2.7-1.4c-1.2-0.7-2-1.1-2.6-1.1
		c-1.2,0-1.9,0.9-1.9,2.7h-7.2c0-3.5,0.6-6.1,1.7-7.9c1.1-1.7,2.9-2.6,5.2-2.6c1,0,2,0.2,2.8,0.5c0.8,0.3,1.7,0.8,2.7,1.4
		c0.1,0.1,0.4,0.2,0.8,0.5c0.4,0.2,0.7,0.4,1,0.5c0.3,0.1,0.6,0.1,0.8,0.1c1.2,0,1.9-0.9,1.9-2.7h7.1
		C269,53.2,268.4,55.9,267.3,57.6z"/>
	<path class="st1" d="M310,57.6c-1.1,1.7-2.8,2.6-5.2,2.6c-1.1,0-2-0.2-2.9-0.5c-0.8-0.3-1.7-0.8-2.7-1.4c-1.2-0.7-2-1.1-2.6-1.1
		c-1.2,0-1.9,0.9-1.9,2.7h-7.2c0-3.5,0.6-6.1,1.7-7.9c1.1-1.7,2.9-2.6,5.2-2.6c1,0,2,0.2,2.8,0.5c0.8,0.3,1.7,0.8,2.7,1.4
		c0.1,0.1,0.4,0.2,0.8,0.5c0.4,0.2,0.7,0.4,1,0.5c0.3,0.1,0.6,0.1,0.8,0.1c1.2,0,1.9-0.9,1.9-2.7h7.1
		C311.7,53.2,311.1,55.9,310,57.6z"/>
	<path class="st1" d="M352.6,57.6c-1.1,1.7-2.8,2.6-5.2,2.6c-1.1,0-2-0.2-2.9-0.5c-0.8-0.3-1.7-0.8-2.7-1.4c-1.2-0.7-2-1.1-2.6-1.1
		c-1.2,0-1.9,0.9-1.9,2.7h-7.2c0-3.5,0.6-6.1,1.7-7.9c1.1-1.7,2.9-2.6,5.2-2.6c1,0,2,0.2,2.8,0.5c0.8,0.3,1.7,0.8,2.7,1.4
		c0.1,0.1,0.4,0.2,0.8,0.5c0.4,0.2,0.7,0.4,1,0.5c0.3,0.1,0.6,0.1,0.8,0.1c1.2,0,1.9-0.9,1.9-2.7h7.1
		C354.3,53.2,353.8,55.9,352.6,57.6z"/>
	<path class="st1" d="M395.3,57.6c-1.1,1.7-2.8,2.6-5.2,2.6c-1.1,0-2-0.2-2.9-0.5c-0.8-0.3-1.7-0.8-2.7-1.4c-1.2-0.7-2-1.1-2.6-1.1
		c-1.2,0-1.9,0.9-1.9,2.7h-7.2c0-3.5,0.6-6.1,1.7-7.9c1.1-1.7,2.9-2.6,5.2-2.6c1,0,2,0.2,2.8,0.5c0.8,0.3,1.7,0.8,2.7,1.4
		c0.1,0.1,0.4,0.2,0.8,0.5c0.4,0.2,0.7,0.4,1,0.5c0.3,0.1,0.6,0.1,0.8,0.1c1.2,0,1.9-0.9,1.9-2.7h7.1
		C397,53.2,396.4,55.9,395.3,57.6z"/>
</g>
<g class="st0">
	<path class="st1" d="M224.7,129.6c-1.1,1.7-2.8,2.6-5.2,2.6c-1.1,0-2-0.2-2.9-0.5c-0.8-0.3-1.7-0.8-2.7-1.4c-1.2-0.7-2-1.1-2.6-1.1
		c-1.2,0-1.9,0.9-1.9,2.7h-7.2c0-3.5,0.6-6.2,1.7-7.9c1.1-1.7,2.9-2.6,5.2-2.6c1,0,2,0.2,2.8,0.5c0.8,0.3,1.7,0.8,2.7,1.4
		c0.1,0.1,0.4,0.2,0.8,0.5c0.4,0.2,0.7,0.4,1,0.5c0.3,0.1,0.6,0.1,0.8,0.1c1.2,0,1.9-0.9,1.9-2.7h7.1
		C226.3,125.2,225.8,127.9,224.7,129.6z"/>
	<path class="st1" d="M267.3,129.6c-1.1,1.7-2.8,2.6-5.2,2.6c-1.1,0-2-0.2-2.9-0.5c-0.8-0.3-1.7-0.8-2.7-1.4c-1.2-0.7-2-1.1-2.6-1.1
		c-1.2,0-1.9,0.9-1.9,2.7h-7.2c0-3.5,0.6-6.2,1.7-7.9c1.1-1.7,2.9-2.6,5.2-2.6c1,0,2,0.2,2.8,0.5c0.8,0.3,1.7,0.8,2.7,1.4
		c0.1,0.1,0.4,0.2,0.8,0.5c0.4,0.2,0.7,0.4,1,0.5c0.3,0.1,0.6,0.1,0.8,0.1c1.2,0,1.9-0.9,1.9-2.7h7.1
		C269,125.2,268.4,127.9,267.3,129.6z"/>
	<path class="st1" d="M310,129.6c-1.1,1.7-2.8,2.6-5.2,2.6c-1.1,0-2-0.2-2.9-0.5c-0.8-0.3-1.7-0.8-2.7-1.4c-1.2-0.7-2-1.1-2.6-1.1
		c-1.2,0-1.9,0.9-1.9,2.7h-7.2c0-3.5,0.6-6.2,1.7-7.9c1.1-1.7,2.9-2.6,5.2-2.6c1,0,2,0.2,2.8,0.5c0.8,0.3,1.7,0.8,2.7,1.4
		c0.1,0.1,0.4,0.2,0.8,0.5c0.4,0.2,0.7,0.4,1,0.5c0.3,0.1,0.6,0.1,0.8,0.1c1.2,0,1.9-0.9,1.9-2.7h7.1
		C311.7,125.2,311.1,127.9,310,129.6z"/>
	<path class="st1" d="M352.6,129.6c-1.1,1.7-2.8,2.6-5.2,2.6c-1.1,0-2-0.2-2.9-0.5c-0.8-0.3-1.7-0.8-2.7-1.4c-1.2-0.7-2-1.1-2.6-1.1
		c-1.2,0-1.9,0.9-1.9,2.7h-7.2c0-3.5,0.6-6.2,1.7-7.9c1.1-1.7,2.9-2.6,5.2-2.6c1,0,2,0.2,2.8,0.5c0.8,0.3,1.7,0.8,2.7,1.4
		c0.1,0.1,0.4,0.2,0.8,0.5c0.4,0.2,0.7,0.4,1,0.5c0.3,0.1,0.6,0.1,0.8,0.1c1.2,0,1.9-0.9,1.9-2.7h7.1
		C354.3,125.2,353.8,127.9,352.6,129.6z"/>
	<path class="st1" d="M395.3,129.6c-1.1,1.7-2.8,2.6-5.2,2.6c-1.1,0-2-0.2-2.9-0.5c-0.8-0.3-1.7-0.8-2.7-1.4c-1.2-0.7-2-1.1-2.6-1.1
		c-1.2,0-1.9,0.9-1.9,2.7h-7.2c0-3.5,0.6-6.2,1.7-7.9c1.1-1.7,2.9-2.6,5.2-2.6c1,0,2,0.2,2.8,0.5c0.8,0.3,1.7,0.8,2.7,1.4
		c0.1,0.1,0.4,0.2,0.8,0.5c0.4,0.2,0.7,0.4,1,0.5c0.3,0.1,0.6,0.1,0.8,0.1c1.2,0,1.9-0.9,1.9-2.7h7.1
		C397,125.2,396.4,127.9,395.3,129.6z"/>
</g>
<g class="st0">
	<path class="st1" d="M224.7,201.6c-1.1,1.7-2.8,2.6-5.2,2.6c-1.1,0-2-0.2-2.9-0.5c-0.8-0.3-1.7-0.8-2.7-1.4c-1.2-0.7-2-1.1-2.6-1.1
		c-1.2,0-1.9,0.9-1.9,2.7h-7.2c0-3.5,0.6-6.2,1.7-7.9c1.1-1.7,2.9-2.6,5.2-2.6c1,0,2,0.2,2.8,0.5c0.8,0.3,1.7,0.8,2.7,1.4
		c0.1,0.1,0.4,0.2,0.8,0.5s0.7,0.4,1,0.5c0.3,0.1,0.6,0.2,0.8,0.2c1.2,0,1.9-0.9,1.9-2.7h7.1C226.3,197.2,225.8,199.9,224.7,201.6z"
		/>
	<path class="st1" d="M267.3,201.6c-1.1,1.7-2.8,2.6-5.2,2.6c-1.1,0-2-0.2-2.9-0.5c-0.8-0.3-1.7-0.8-2.7-1.4c-1.2-0.7-2-1.1-2.6-1.1
		c-1.2,0-1.9,0.9-1.9,2.7h-7.2c0-3.5,0.6-6.2,1.7-7.9c1.1-1.7,2.9-2.6,5.2-2.6c1,0,2,0.2,2.8,0.5c0.8,0.3,1.7,0.8,2.7,1.4
		c0.1,0.1,0.4,0.2,0.8,0.5s0.7,0.4,1,0.5c0.3,0.1,0.6,0.2,0.8,0.2c1.2,0,1.9-0.9,1.9-2.7h7.1C269,197.2,268.4,199.9,267.3,201.6z"/>
	<path class="st1" d="M310,201.6c-1.1,1.7-2.8,2.6-5.2,2.6c-1.1,0-2-0.2-2.9-0.5c-0.8-0.3-1.7-0.8-2.7-1.4c-1.2-0.7-2-1.1-2.6-1.1
		c-1.2,0-1.9,0.9-1.9,2.7h-7.2c0-3.5,0.6-6.2,1.7-7.9c1.1-1.7,2.9-2.6,5.2-2.6c1,0,2,0.2,2.8,0.5c0.8,0.3,1.7,0.8,2.7,1.4
		c0.1,0.1,0.4,0.2,0.8,0.5s0.7,0.4,1,0.5c0.3,0.1,0.6,0.2,0.8,0.2c1.2,0,1.9-0.9,1.9-2.7h7.1C311.7,197.2,311.1,199.9,310,201.6z"/>
	<path class="st1" d="M352.6,201.6c-1.1,1.7-2.8,2.6-5.2,2.6c-1.1,0-2-0.2-2.9-0.5c-0.8-0.3-1.7-0.8-2.7-1.4c-1.2-0.7-2-1.1-2.6-1.1
		c-1.2,0-1.9,0.9-1.9,2.7h-7.2c0-3.5,0.6-6.2,1.7-7.9c1.1-1.7,2.9-2.6,5.2-2.6c1,0,2,0.2,2.8,0.5c0.8,0.3,1.7,0.8,2.7,1.4
		c0.1,0.1,0.4,0.2,0.8,0.5s0.7,0.4,1,0.5c0.3,0.1,0.6,0.2,0.8,0.2c1.2,0,1.9-0.9,1.9-2.7h7.1C354.3,197.2,353.8,199.9,352.6,201.6z"
		/>
	<path class="st1" d="M395.3,201.6c-1.1,1.7-2.8,2.6-5.2,2.6c-1.1,0-2-0.2-2.9-0.5c-0.8-0.3-1.7-0.8-2.7-1.4c-1.2-0.7-2-1.1-2.6-1.1
		c-1.2,0-1.9,0.9-1.9,2.7h-7.2c0-3.5,0.6-6.2,1.7-7.9c1.1-1.7,2.9-2.6,5.2-2.6c1,0,2,0.2,2.8,0.5c0.8,0.3,1.7,0.8,2.7,1.4
		c0.1,0.1,0.4,0.2,0.8,0.5s0.7,0.4,1,0.5c0.3,0.1,0.6,0.2,0.8,0.2c1.2,0,1.9-0.9,1.9-2.7h7.1C397,197.2,396.4,199.9,395.3,201.6z"/>
</g>
</svg>
