<svg id="Layer_1" data-name="Layer 1" xmlns="http://www.w3.org/2000/svg" viewBox="0 0 600 125"><defs><style>.cls-1{fill:#0a6024;}</style></defs><title>06-03-kr-joseon</title><rect class="cls-1" x="160.25" y="39.05" width="55.28" height="8.88" rx="0.95" ry="0.95"/><rect class="cls-1" x="157.92" y="83.12" width="59.93" height="8.88" rx="0.95" ry="0.95"/><rect class="cls-1" x="232.01" y="83.12" width="54.19" height="8.88" rx="0.95" ry="0.95"/><rect class="cls-1" x="367.74" y="40.33" width="37.57" height="8.88" rx="0.95" ry="0.95"/><rect class="cls-1" x="373.3" y="78.68" width="32.01" height="8.88" rx="0.95" ry="0.95"/><rect class="cls-1" x="277.33" y="35.12" width="8.88" height="36.2" rx="0.95" ry="0.95"/><rect class="cls-1" x="347.11" y="35.12" width="8.88" height="56.88" rx="0.95" ry="0.95"/><rect class="cls-1" x="373.3" y="42.99" width="8.88" height="41.14" rx="0.95" ry="0.95"/><rect class="cls-1" x="407.95" y="36.27" width="8.88" height="54.57" rx="0.95" ry="0.95"/><rect class="cls-1" x="433.02" y="36.27" width="8.88" height="54.57" rx="0.95" ry="0.95"/><rect class="cls-1" x="232.01" y="74.95" width="8.88" height="16.99" rx="0.95" ry="0.95"/><path class="cls-1" d="M194.16,46.31l-5.6-5.6a1,1,0,0,0-1.34,0l-5.6,5.6L158.74,69.17a1,1,0,0,0,0,1.34l4.93,4.93a1,1,0,0,0,1.34,0l22.87-22.87,22.87,22.87a1,1,0,0,0,1.34,0L217,70.52a1,1,0,0,0,0-1.34Z"/><path class="cls-1" d="M248.9,32.4a1,1,0,0,0-1.55,0L228.79,64a1,1,0,0,0,.22,1.33l5.68,4.05a1,1,0,0,0,1.33-.22l13.34-21.5c.38-.53-2.83-.53-2.45,0l13.34,21.5a1,1,0,0,0,1.33.22l5.68-4.05a1,1,0,0,0,.22-1.33Z"/><path class="cls-1" d="M323.61,49.45l-4.15-8a1,1,0,0,0-1.69,0l-4.15,8-18,34.84a1,1,0,0,0,.41,1.28l6.2,3.21a1,1,0,0,0,1.28-.41l15.14-29.26,15.14,29.26a1,1,0,0,0,1.28.41l6.2-3.21a1,1,0,0,0,.41-1.28Z"/><circle class="cls-1" cx="187.89" cy="74.95" r="6.03"/><circle class="cls-1" cx="270.89" cy="50.95" r="6.03"/><circle class="cls-1" cx="424.85" cy="63.56" r="6.03"/></svg>