<svg id="Layer_1" data-name="Layer 1" xmlns="http://www.w3.org/2000/svg" viewBox="0 0 700 250"><defs><style>.cls-1{fill:#fcdfeb;}</style></defs><title>01-en-old-style</title><path class="cls-1" d="M345.41,133.93c3,5.7,4.2,18,4.2,27.3,0,11.1-.9,39.6-.9,47.4,0,5.7,2.7,11.4,11.1,11.4a19.07,19.07,0,0,0,8.7-2.7c1.8-.9,3,0,1.8,2.7-4.2,8.4-13.5,12.9-23.1,12.9-8.4,0-15-6.6-17.7-13.5a1,1,0,0,0-1.5-.3c-9,8.4-18,13.5-29.4,13.5-12,0-24-10.2-24-25.8,0-9.6,8.1-15.6,10.8-17.1,7.2-3.9,34.5-12,40.8-14.4a5.68,5.68,0,0,0,3.9-4.5c.6-3.6.6-9.6.6-13.8,0-12.3-2.1-20.7-7.2-24.6-3.9-3-9-4.8-12.6-4.8-4.5,0-7.5.9-12,3.6a12,12,0,0,0-4.5,7.2,30.88,30.88,0,0,0-.3,5.7,3.71,3.71,0,0,1-1.2,2.4c-3,2.1-12,6.3-14.1,6.6-1.5.3-3-1.5-3-2.7,0-2.1,2.1-4.8,5.7-9,6.9-8.1,16.8-14.4,22.8-17.4q10.35-5.4,18-5.4C332.51,118.63,341.81,124.63,345.41,133.93Zm-20.1,82.5a12.42,12.42,0,0,0,3.3-7.2c.9-5.1,1.5-17.1,1.5-28.5,0-.3-.6-1.8-1.2-1.5-3.9.6-21.3,6.9-27.6,10.2-3.6,1.8-7.5,6.3-7.5,15,0,9.9,8.7,16.8,18,16.8A20.57,20.57,0,0,0,325.31,216.43Z"/><path class="cls-1" d="M412.31,156.73c0,37.8.3,51.9.6,57.6.3,8.1,2.1,10.2,10.5,11.7,1.8.3,3.9,1.2,3.9,2.1,0,1.2-2.1,2.1-6,2.1-4.8,0-15.6-.6-20.7-.6-7.8,0-15.3.6-20.1.6-3.6,0-5.1-.3-5.1-1.8s1.5-1.8,5.4-2.7c7.5-1.5,9.3-4.2,10.5-17.4.6-11.1,1.8-61.8,2.1-97.8,0-24.3.3-48.9,0-62.1,0-6.6-.6-8.1-8.4-12.9-2.1-1.2-3-1.8-3-2.7s1.8-1.8,4.5-2.4a154.94,154.94,0,0,0,22.5-6.9,12.64,12.64,0,0,1,3.6-.9c.6,0,.9,1.8.9,3.3,0,2.1-1.2,54-1.2,99Z"/></svg>