<svg id="Layer_1" data-name="Layer 1" xmlns="http://www.w3.org/2000/svg" viewBox="0 0 700 250"><defs><style>.cls-1{fill:none;}.cls-2{fill:#fcdfeb;}.cls-3{fill:#4daf37;}.cls-4{fill:#fcd76b;}</style></defs><title>01-en-old-style-hover</title><path class="cls-1" d="M328.91,179.23c-3.9.6-21.3,6.9-27.6,10.2-3.6,1.8-7.5,6.3-7.5,15,0,9.9,8.7,16.8,18,16.8a20.57,20.57,0,0,0,13.5-4.8,12.43,12.43,0,0,0,3.3-7.2c.9-5.1,1.5-17.1,1.5-28.5C330.11,180.43,329.51,178.93,328.91,179.23Z"/><path class="cls-2" d="M311,127.63c3.59,0,8.62,1.82,12.48,4.79,5.1,3.9,7.2,12.3,7.2,24.6,0,4.2,0,10.2-.6,13.8a5.68,5.68,0,0,1-3.9,4.5c-6.3,2.4-33.6,10.5-40.8,14.4-2.7,1.5-10.8,7.5-10.8,17.1,0,15.6,12,25.8,24,25.8,11.4,0,20.4-5.1,29.4-13.5a1,1,0,0,1,1.5.3c2.7,6.9,9.3,13.5,17.7,13.5,9.6,0,18.9-4.5,23.1-12.9,1.2-2.7,0-3.6-1.8-2.7a19.08,19.08,0,0,1-8.7,2.7c-8.4,0-11.1-5.7-11.1-11.4,0-7.8.9-36.3.9-47.4,0-9.3-1.2-21.6-4.2-27.3-3.6-9.3-12.9-15.3-23.1-15.3q-6.76,0-15.63,4.22A30.19,30.19,0,0,1,311,127.63Zm17.58,81.59a12.43,12.43,0,0,1-3.3,7.2,20.57,20.57,0,0,1-13.5,4.8c-9.3,0-18-6.9-18-16.8,0-8.7,3.9-13.2,7.5-15,6.3-3.3,23.7-9.6,27.6-10.2.6-.3,1.2,1.2,1.2,1.5C330.11,192.13,329.51,204.13,328.61,209.23Z"/><path class="cls-2" d="M393.54,65.68c0,12.89-.13,28.93-.13,44.85-.3,36-1.5,86.7-2.1,97.8-1.2,13.2-3,15.9-10.5,17.4-3.9.9-5.4,1.2-5.4,2.7s1.5,1.8,5.1,1.8c4.8,0,12.3-.6,20.1-.6,5.1,0,15.9.6,20.7.6,3.9,0,6-.9,6-2.1,0-.9-2.1-1.8-3.9-2.1-8.4-1.5-10.2-3.6-10.5-11.7-.3-5.7-.6-19.8-.6-57.6v-31.8c0-21,.26-43.43.54-61.66a30.08,30.08,0,0,1-19.31,2.41Z"/><path class="cls-3" d="M286.76,175.29A30,30,0,0,0,311,127.63h-.12c-4.5,0-7.5.9-12,3.6a12,12,0,0,0-4.5,7.2,30.88,30.88,0,0,0-.3,5.7,3.71,3.71,0,0,1-1.2,2.4c-3,2.1-12,6.3-14.1,6.6-1.5.3-3-1.5-3-2.7,0-2.1,2.1-4.8,5.7-9,6.9-8.1,16.8-14.4,22.8-17.4.8-.42,1.59-.81,2.37-1.18a30,30,0,1,0-19.93,52.44Z"/><path class="cls-4" d="M281.51,141.43c-3.6,4.2-5.7,6.9-5.7,9,0,1.2,1.5,3,3,2.7,2.1-.3,11.1-4.5,14.1-6.6a3.71,3.71,0,0,0,1.2-2.4,30.88,30.88,0,0,1,.3-5.7,12,12,0,0,1,4.5-7.2c4.5-2.7,7.5-3.6,12-3.6H311a30.19,30.19,0,0,0-4.34-4.79c-.78.37-1.57.76-2.37,1.18C298.31,127,288.41,133.33,281.51,141.43Z"/><path class="cls-3" d="M393.54,65.68c0-6.79,0-12.7-.13-17.25,0-6.6-.6-8.1-8.4-12.9-2.1-1.2-3-1.8-3-2.7s1.8-1.8,4.5-2.4a155,155,0,0,0,22.5-6.9,12.62,12.62,0,0,1,3.6-.9c.6,0,.9,1.8.9,3.3,0,1.12-.34,16.45-.66,37.34a30,30,0,1,0-19.31,2.41Z"/><path class="cls-4" d="M412.61,22.63a12.62,12.62,0,0,0-3.6.9,155,155,0,0,1-22.5,6.9c-2.7.6-4.5,1.5-4.5,2.4s.9,1.5,3,2.7c7.8,4.8,8.4,6.3,8.4,12.9.1,4.55.14,10.46.13,17.25a30.08,30.08,0,0,0,19.31-2.41c.32-20.89.66-36.22.66-37.34C413.51,24.43,413.21,22.63,412.61,22.63Z"/></svg>