<?xml version="1.0" encoding="utf-8"?>
<!-- Generator: Adobe Illustrator 21.0.0, SVG Export Plug-In . SVG Version: 6.00 Build 0)  -->
<svg version="1.1" id="Layer_1" xmlns="http://www.w3.org/2000/svg" xmlns:xlink="http://www.w3.org/1999/xlink" x="0px" y="0px"
	 viewBox="0 0 700 250" style="enable-background:new 0 0 700 250;" xml:space="preserve">
<style type="text/css">
	.st0{fill:#FCDFEB;}
</style>
<title>01-kr-old-style</title>
<g>
	<path class="st0" d="M317.1,81l1.9-2.8c2.4-2.7,3.3-4.7,3-6.3c-0.7-2.1-3.4-4.6-8.4-7.4l-0.1-0.1c-4-1.6-6.5-1.9-8.1-0.9
		c-0.6,0.4-0.9,1-1,1.7c-0.1,1.3,0.6,2.8,2.3,4.8c1.2,2.3,1.4,4.2,0.6,5.9c-0.7,1.7-2.2,2.9-4.5,3.7l-1.2,0.2
		c-14.8,2-26.2,7.6-33.9,16.7c-7,8.1-10.1,17.5-9.3,28c0.9,10.4,5.4,19.3,13.4,26.4c8.7,7.7,20.1,11.6,33.7,11.6
		c13.5,0,24.9-3.8,33.7-11.4c8-6.7,12.8-15.3,14.1-25.5c1.5-10.3-1-19.6-7.3-27.8C339.5,89.3,329.7,83.7,317.1,81z M330.6,142.3
		L330.6,142.3c-5.9,6.4-14.2,9.6-24.4,9.6c-10.3,0-18.5-3.2-24.4-9.6c-5.4-5.7-8.1-12.6-8.1-20.8c0-8.1,2.7-15.1,8.1-20.8
		c5.9-6.2,14.1-9.4,24.4-9.4c10.3,0,18.5,3.1,24.4,9.4c5.4,5.7,8.1,12.7,8.1,20.8C338.7,129.6,335.9,136.6,330.6,142.3z"/>
	<path class="st0" d="M451.6,129.5c-1.6-1.4-3.9-2.2-6.8-2.4c-6.5-0.4-11.1-0.3-14.3,0.5c-2,0.5-3.9,1.3-5.7,2.5
		c-1.1,0.8-2.1,1.4-3.1,1.8c-1.3,0.7-3.1,1.2-5.3,1.6l-5.3,0.2l-2.2,0.1l0-87.4l0.2-3.6c0.3-2.3,0.1-3.9-0.6-5
		c-0.9-1.4-2.9-2.6-6.3-3.6c-4.7-1.6-8.8-2.9-12.3-3.9c-4.8-1.2-9-1.8-12.5-2c-6.2-0.2-9.2,0.6-9.7,2.3c-0.2,0.6-0.3,1.2,0,1.7
		c0.6,1.3,2.5,2.6,6.1,3.9c6.6,3,11.5,5.5,14.5,7.4c2.9,1.9,4.4,3.8,4.7,5.5v176.1c0,5.7,0.7,8.9,2.2,10.2c0.5,0.4,1.1,0.7,1.8,0.7
		c0.1,0,0.2,0,0.3,0c2.3,0,4.4-2.4,6.4-7.5c1.5-3.6,2.6-8.1,3.5-13.1c0.6-3.7,1-8.4,1.3-13.9l0.2-59.5l38.2-0.8
		c2.1-0.2,3.9-1,5.1-2.4c1.3-1.3,2-2.9,2-4.6C454.1,132.5,453.3,130.9,451.6,129.5z"/>
</g>
</svg>
