<svg id="Layer_1" data-name="Layer 1" xmlns="http://www.w3.org/2000/svg" viewBox="0 0 700 250"><defs><style>.cls-1{fill:#fcdfeb;}</style></defs><title>01-kr-old-style</title><path class="cls-1" d="M451.84,128.91a10.84,10.84,0,0,0-6.81-2.38c-6.46-.44-11.13-.29-14.26.45a17.36,17.36,0,0,0-5.75,2.54,15.35,15.35,0,0,1-3.07,1.84A20.52,20.52,0,0,1,416.7,133l-5.32.21-2.16.14V45.94l.21-3.57c.32-2.28.13-3.91-.57-5-.86-1.36-2.93-2.56-6.33-3.64-4.72-1.57-8.85-2.88-12.33-3.89a66,66,0,0,0-12.46-2c-6.24-.16-9.17.56-9.75,2.31A2.12,2.12,0,0,0,368,32c.56,1.33,2.52,2.58,6.1,3.89a107.45,107.45,0,0,1,14.45,7.43c2.85,1.95,4.44,3.79,4.72,5.48v176.1c0,5.66.7,8.91,2.2,10.22a2.64,2.64,0,0,0,1.77.68l.32,0c2.34,0,4.39-2.44,6.45-7.52a66,66,0,0,0,3.5-13.14c.57-3.75,1-8.42,1.3-13.93l.21-59.53,38.18-.84a7.41,7.41,0,0,0,5.14-2.44,6.33,6.33,0,0,0,2-4.57A6.08,6.08,0,0,0,451.84,128.91Z"/><path class="cls-1" d="M317.31,80.43l1.9-2.78c2.4-2.73,3.35-4.71,3-6.28-.66-2.13-3.41-4.57-8.41-7.45l-.13-.06c-4-1.59-6.53-1.91-8.06-.95a2.41,2.41,0,0,0-1,1.69c-.15,1.26.57,2.8,2.25,4.84,1.23,2.26,1.42,4.18.56,5.92a6.88,6.88,0,0,1-4.48,3.72l-1.18.2c-14.79,2-26.21,7.64-33.92,16.66a36.6,36.6,0,0,0-9.27,28A38.85,38.85,0,0,0,272,150.4c8.74,7.72,20.09,11.64,33.75,11.64,13.5,0,24.85-3.84,33.73-11.4a38.87,38.87,0,0,0,14.1-25.55,35.86,35.86,0,0,0-7.29-27.82C339.68,88.71,329.94,83,317.31,80.43Zm13.48,61.24c-5.93,6.35-14.15,9.57-24.41,9.57S287.91,148,282,141.66a29.17,29.17,0,0,1-8.1-20.79,29.18,29.18,0,0,1,8.1-20.79c5.93-6.21,14.15-9.36,24.41-9.36s18.48,3.15,24.41,9.36a29.18,29.18,0,0,1,8.1,20.8,29.17,29.17,0,0,1-8.1,20.79Z"/></svg>