<svg id="Layer_1" data-name="Layer 1" xmlns="http://www.w3.org/2000/svg" viewBox="0 0 700 250"><defs><style>.cls-1{fill:#fcdfeb;stroke:#fcdfeb;stroke-miterlimit:10;stroke-width:2px;}</style></defs><title>01-kr-old-style</title><path class="cls-1" d="M309.39,69.16a56,56,0,0,0-8.16-7.73q-6.23-4.3-3.22-5.8,3-1.29,11.17,1.5,16.32,7.31,19.55,11.39,2.58,2.79-.21,8.16-1.93,3.87-4.94,9.67-1.93,3.66-6.23,11.6l-4.08,7.52a54.4,54.4,0,0,0,9.88,12.25q4.51,4.51,13.75,12.25l6,4.08a24.15,24.15,0,0,1,6.23,4.94A55.49,55.49,0,0,1,356,150.15a30.33,30.33,0,0,1,2.79,9.45,9.1,9.1,0,0,1-.86,5.8,4.14,4.14,0,0,1-3.65,1.93,6.2,6.2,0,0,1-4.08-2.58l-16.33-21.48-24.49-32a240.53,240.53,0,0,1-27.5,33.09,234.78,234.78,0,0,1-30.08,26q-5.8,3.87-6.87,2.79-1.29-1.07,3.65-5.37a245.33,245.33,0,0,0,34.16-38.67q20.41-27.93,29-53.93l.21-1.5A11.16,11.16,0,0,0,309.39,69.16ZM389.53,44a103.91,103.91,0,0,0-14.61-8.81q-6-2.36-5.59-4.3.21-1.93,7.52-1.93a82.74,82.74,0,0,1,13.32,2.79q4.29,1.08,11.17,3.44,5.37,2.15,6.66,4.51.86,1.51.43,4.94l-.21,3.22v86.8l3.44-.21,5.16-.21a27.62,27.62,0,0,0,4.51-1.5,18.8,18.8,0,0,0,2.79-1.5,15,15,0,0,1,5.59-2.15q4.29-.86,13.32-.21,4.29.22,6.45,1.93a4.55,4.55,0,0,1,2.15,3.87,4.65,4.65,0,0,1-1.5,3.87,6.88,6.88,0,0,1-4.51,1.93l-37.38.86L408,188.5a226.59,226.59,0,0,1-1.5,25.29,111.66,111.66,0,0,1-2.58,14.36q-3.22,7.07-6,7.72-3.22.43-3.44-10.1V51.11Q394.26,47.89,389.53,44Z"/></svg>