<svg id="Layer_1" data-name="Layer 1" xmlns="http://www.w3.org/2000/svg" viewBox="0 0 700 250"><defs><style>.cls-1{fill:#fcdfeb;}</style></defs><title>02-en-transitional</title><path class="cls-1" d="M375.49,207.33h5.42q-1.32,25-24.61,25-10,0-15.75-5.27T333,211.43a153,153,0,0,1-26.73,15.67q-12.08,5.27-21.61,5.27a32.5,32.5,0,0,1-20.95-7,22.64,22.64,0,0,1-8.79-18.6q0-15.09,14.72-26.37t40.65-22L333,149.17v-5.86q0-12.45-1.61-18t-8.35-10q-6.74-4.39-17.72-4.39-22,0-24.46,14.65-2.34,14.94-12.3,14.94-8.94,0-8.94-8.5t11.87-17.94q11.87-9.59,36.91-9.59,18.6,0,28.86,5.86t13.55,13.33q3.3,7.47,3.29,22.85V195q0,17,1.76,21.83t7.62,4.83Q373.14,221.68,375.49,207.33ZM333,156.06l-16,6.45q-37.79,15.38-37.79,38.67,0,9.23,4.83,14.87a15.8,15.8,0,0,0,12.6,5.64q6.88,0,16-4.54A116.88,116.88,0,0,0,333,203.52Z"/><path class="cls-1" d="M430,27.88V188.14q0,19.19.51,24.17a10.17,10.17,0,0,0,4.17,7.62q3.66,2.64,13,2.64h3.52v6.74H387.06v-6.74h4.1q8.79,0,12.53-2.42a9.68,9.68,0,0,0,4.47-6.81q.73-4.39.73-25.2V69.49q0-18.9-3.37-23.8t-16.41-4.91V34a127.82,127.82,0,0,0,21-2.05q12.08-2,16.63-4.1Z"/></svg>