<svg id="Layer_1" data-name="Layer 1" xmlns="http://www.w3.org/2000/svg" viewBox="0 0 700 250"><defs><style>.cls-1{fill:#fcdfeb;}</style></defs><title>02-kr-transitional</title><path class="cls-1" d="M357.93,131.41a38.73,38.73,0,0,0,3.92-17.29,39.3,39.3,0,0,0-3.08-15.49,40.75,40.75,0,0,0-8.7-12.84,48.1,48.1,0,0,0-13.5-9.35,59,59,0,0,0-17.26-5l-.53-.07.11-.53c.43-2,.94-4,1.51-5.84.5-1.61,1-3,1.5-4.23-1.56-.38-3.35-.76-5.31-1.14l-6.66-1.29L303.39,57c-2-.39-3.66-.79-5-1.19l-3.16,5.57c3.37,1.13,5.61,2.31,6.82,3.59a7.72,7.72,0,0,1,2,5.5V71l-.46,0a58.14,58.14,0,0,0-18.32,4.47A48,48,0,0,0,271,84.84a42.73,42.73,0,0,0-9.34,13.27,39.78,39.78,0,0,0,.53,33.3,43.42,43.42,0,0,0,10.73,13.81,49.94,49.94,0,0,0,16.27,9.15,62.34,62.34,0,0,0,20.57,3.3,63.32,63.32,0,0,0,20.68-3.3,52.37,52.37,0,0,0,16.6-9.15A42.24,42.24,0,0,0,357.93,131.41Zm-18.64-5a31.65,31.65,0,0,1-6.77,10.26,30.8,30.8,0,0,1-10,6.66,32,32,0,0,1-12.33,2.4A31,31,0,0,1,288,136.72a30.26,30.26,0,0,1-6.66-10.27,36.26,36.26,0,0,1,0-25.94A32.74,32.74,0,0,1,288,90a32.35,32.35,0,0,1,9.93-7.09,29,29,0,0,1,12.24-2.62,29.72,29.72,0,0,1,12.34,2.62,32,32,0,0,1,10,7.09,34.34,34.34,0,0,1,6.76,10.46,34.81,34.81,0,0,1,0,26Z"/><path class="cls-1" d="M434.17,109.25c-7.85.86-15,1.51-21.29,1.94l-.53,0v-60c0-.74.07-1.91.22-3.48s.32-3.34.54-5.27.51-3.88.87-5.73c.31-1.62.6-3,.85-4.22-2.67-.43-5.79-1-9.27-1.64l-11.92-2.26c-4.2-.79-8.39-1.52-12.44-2.15s-7.76-1.14-11.21-1.56l-3.05,7.06c9.17,2.26,15.86,4.8,19.89,7.56,4.21,2.88,6.34,6.67,6.34,11.26V185.67c0,4.3,0,8.74.11,13.21s.21,9.13.43,13.52.43,8.48.64,12.35c.2,3.65.43,6.5.69,8.71L409,231.63c.41-3.09.83-7.18,1.23-12.16s.78-10.68,1.07-16.53.54-11.73.75-17.4.32-10.93.32-15.34V122.43h32.19c3.13,0,6,.06,8.48.19l2-16.27C448.79,107.45,441.78,108.42,434.17,109.25Z"/></svg>