<svg id="Layer_1" data-name="Layer 1" xmlns="http://www.w3.org/2000/svg" viewBox="0 0 700 250"><defs><style>.cls-1{fill:#fcdfeb;}</style></defs><title>03-en-modern</title><path class="cls-1" d="M315.61,133.45c0-15.31,0-32.08-18-32.08-9.72,0-20.17,8.26-20.17,20.17,0,5.59,3.4,11.91,8.51,14.09-.73,13.85-10.69,20.41-21.63,20.41-11.66,0-22.84-7-22.84-22.84,0-29.65,40.58-33.53,62.94-33.53,27.7,0,56.38,9,56.38,37.18v62.94c0,12.39,4.62,25.51,21.87,11.18l1,1.21c-11.18,9.48-25,18.47-42.52,18.47-15.07,0-24.06-11.66-25.27-27.94-5.59,17-25.76,27.94-45,27.94-22.84,0-37.42-10.94-37.42-31.83,0-38.39,54.67-29.89,82.13-52.49Zm0,14.82c-15.79,12.88-30.13,13.12-30.13,43,0,10.69,1.7,23.81,14.09,23.81s16-14.09,16-20.41Z"/><path class="cls-1" d="M449.51,227.25h21.14V229H383.41v-1.7h21.14V44.76l-24.3,3.16-.24-1.7L449.51,37Z"/></svg>