<svg id="Layer_1" data-name="Layer 1" xmlns="http://www.w3.org/2000/svg" viewBox="0 0 700 250"><defs><style>.cls-1{fill:none;}.cls-2{fill:#fcdfeb;}.cls-3{fill:#4daf37;}.cls-4{fill:#fcd76b;}</style></defs><title>03-kr-modern-hover</title><path class="cls-1" d="M286.86,73.81a44.17,44.17,0,0,0-.3,5.08v58.83c0,16.54,9.07,29.94,20.26,29.94s20.26-13.41,20.26-29.94V78.89a44.21,44.21,0,0,0-.28-4.93,30,30,0,0,1-40-.15Z"/><path class="cls-2" d="M380.91,103.5a30,30,0,0,1,28.24-30V19.94s-28.91,1.48-28.91,47.64V236h28.91V133.45A30,30,0,0,1,380.91,103.5Z"/><path class="cls-2" d="M441.89,103.43h-1s0,0,0,.07c0,.38,0,.76,0,1.14h1Z"/><path class="cls-2" d="M336.66,55.51A29.94,29.94,0,0,1,326.81,74a44.21,44.21,0,0,1,.28,4.93v58.83c0,16.54-9.07,29.94-20.26,29.94s-20.26-13.41-20.26-29.94V78.89a44.17,44.17,0,0,1,.3-5.08,29.94,29.94,0,0,1-9.69-18.44,48.47,48.47,0,0,0-19.52,38.84v28.18c0,26.9,22,48.7,49.17,48.7S356,149.29,356,122.39V94.22A48.46,48.46,0,0,0,336.66,55.51Z"/><path class="cls-3" d="M306.83,48.95c-10,0-18.33,10.75-20,24.86a30,30,0,0,0,40,.15C325.22,59.77,316.88,48.95,306.83,48.95Z"/><path class="cls-3" d="M336.66,55.51a30,30,0,1,0-59.49-.13,49.53,49.53,0,0,1,59.49.13Z"/><path class="cls-4" d="M286.86,73.81c1.63-14.12,9.95-24.86,20-24.86s18.39,10.82,20,25a29.94,29.94,0,0,0,9.84-18.45,49.53,49.53,0,0,0-59.49-.13A29.94,29.94,0,0,0,286.86,73.81Z"/><path class="cls-3" d="M440.93,103.43a30,30,0,0,0-30-29.94c-.59,0-1.18,0-1.77.06v29.89Z"/><path class="cls-3" d="M409.16,133.45c.58,0,1.17.06,1.77.06a30,30,0,0,0,30-28.87H409.16Z"/><path class="cls-4" d="M440.93,103.43H409.16V73.54a30,30,0,0,0,0,59.91V104.63H440.9c0-.38,0-.76,0-1.14C440.93,103.47,440.93,103.45,440.93,103.43Z"/></svg>