<svg id="Layer_1" data-name="Layer 1" xmlns="http://www.w3.org/2000/svg" viewBox="0 0 700 250"><defs><style>.cls-1{fill:none;}.cls-2{fill:#fcdfeb;}.cls-3{fill:#4daf37;}.cls-4{fill:#fcd76b;}</style></defs><title>04-en-slab-hover</title><path class="cls-1" d="M320.24,166.49h-5.52q-19.9,0-31.8,8.24T271,195.54q0,10.62,7.39,17.15t20.32,6.53q15.87,0,28-7.32T344.14,193v-2.84A30,30,0,0,1,320.24,166.49Z"/><path class="cls-2" d="M349.68,190.66a30.15,30.15,0,0,1-5.54-.52V193q-5.37,11.6-17.46,18.92t-28,7.32q-12.94,0-20.32-6.53T271,195.54q0-12.57,11.9-20.81t31.8-8.24h5.52a29.92,29.92,0,0,1-.08-11.23H315q-27,0-42.72,10.74t-15.75,29.05q0,17.09,10.62,27.1t30,10a55.25,55.25,0,0,0,27.47-6.84,58.29,58.29,0,0,0,19.53-17.21,79.36,79.36,0,0,0,.61,9.89q.61,4.88,2.08,11.6h26V218.86L359.64,218a60,60,0,0,1-.79-7.26q-.18-3.72-.18-7.75v-13.7A30,30,0,0,1,349.68,190.66Z"/><path class="cls-2" d="M358.34,131.92q-1.73-16.32-13-25.73-13.31-11.11-35.16-11.11a83,83,0,0,0-26.39,4.15,30.15,30.15,0,0,1,9.77,10.14,66.91,66.91,0,0,1,16-1.84q16.36,0,25.45,8.06a26.35,26.35,0,0,1,8.55,15.67,30.15,30.15,0,0,1,14.74.66Z"/><path class="cls-2" d="M390.65,218.86V229.6H445V218.86l-19.9-1.59V73.81a29.83,29.83,0,0,1-14.53,4.8V217.27Z"/><path class="cls-3" d="M274.32,118.64l-1.22,17.7H261l.12-25.39A75.94,75.94,0,0,1,283,99.47l.77-.25a30,30,0,1,0,9.77,10.14c-1.39.34-2.75.72-4.07,1.16A45.4,45.4,0,0,0,274.32,118.64Z"/><path class="cls-4" d="M283.82,99.22l-.77.25a75.94,75.94,0,0,0-21.91,11.47L261,136.34H273.1l1.22-17.7a45.4,45.4,0,0,1,15.2-8.12c1.32-.44,2.69-.81,4.07-1.16A30.15,30.15,0,0,0,283.82,99.22Z"/><path class="cls-3" d="M358.67,189.29a30,30,0,0,0-.33-57.37,58.08,58.08,0,0,1,.33,6.13Z"/><path class="cls-3" d="M320.24,166.49a30,30,0,0,0,23.9,23.65V166.49Z"/><path class="cls-3" d="M344.14,137.8a37.89,37.89,0,0,0-.54-6.54,30,30,0,0,0-23.44,24h24Z"/><path class="cls-4" d="M320.24,166.49h23.9v23.65a30,30,0,0,0,14.53-.85V138a58.08,58.08,0,0,0-.33-6.13,30.15,30.15,0,0,0-14.74-.66,37.89,37.89,0,0,1,.54,6.54v17.46h-24a29.92,29.92,0,0,0,.08,11.23Z"/><path class="cls-3" d="M390.65,50V39.17h34.42V73.81a30,30,0,1,0-16.37,4.86c.62,0,1.24,0,1.85-.06v-27Z"/><path class="cls-4" d="M425.07,39.17H390.65V50l19.9,1.59v27a29.83,29.83,0,0,0,14.53-4.8Z"/></svg>