<svg id="Layer_1" data-name="Layer 1" xmlns="http://www.w3.org/2000/svg" viewBox="0 0 700 250"><defs><style>.cls-1{fill:none;}.cls-2{fill:#fcdfeb;}.cls-3{fill:#4daf37;}.cls-4{fill:#fcd76b;}</style></defs><title>04-kr-slab-hover</title><path class="cls-1" d="M311.92,99.64A30,30,0,0,1,286.58,85.7c-5.25,6.64-7.92,15-7.92,24.83,0,11.12,3.2,20,9.79,27a30,30,0,0,0,23.37,10.52,31.51,31.51,0,0,0,23.83-10.51c6.59-7.06,9.79-15.9,9.79-27,0-9.94-2.72-18.33-8.06-25A30,30,0,0,1,311.92,99.64Z"/><path class="cls-2" d="M341.82,72.18a29.82,29.82,0,0,1-4.44,13.35c5.35,6.67,8.06,15.06,8.06,25,0,11.12-3.2,20-9.79,27a31.51,31.51,0,0,1-23.83,10.51,30,30,0,0,1-23.37-10.52c-6.58-7.06-9.79-15.89-9.79-27,0-9.85,2.67-18.19,7.92-24.83A29.82,29.82,0,0,1,282,72.31q-1.76,1.47-3.45,3.16c-9.19,9.42-13.65,20.89-13.65,35.07s4.59,25.78,13.65,34.84c9.12,9.34,20,13.88,33.23,13.88s24.34-4.54,33.69-13.88c9.06-9.06,13.65-20.78,13.65-34.84s-4.47-25.65-13.66-35.07Q343.7,73.7,341.82,72.18Z"/><path class="cls-2" d="M433.26,104.59H403.78V65.71a29.83,29.83,0,0,1-13.49,3.9V234.92h3c7,0,10.54-6.8,10.54-20.2V115.55h29.48c4.68,0,6.86-1.74,6.86-5.48S437.81,104.59,433.26,104.59Z"/><path class="cls-3" d="M311.82,73a29.94,29.94,0,0,0-23.37,10.51c-.66.71-1.28,1.44-1.87,2.19a30,30,0,0,0,50.79-.18c-.55-.69-1.12-1.36-1.73-2A31.52,31.52,0,0,0,311.82,73Z"/><path class="cls-3" d="M341.82,72.18c.07-.84.12-1.69.12-2.54a30,30,0,1,0-60,0c0,.9,0,1.79.13,2.68,8.43-7.05,18.22-10.5,29.78-10.5S333.24,65.22,341.82,72.18Z"/><path class="cls-4" d="M288.45,83.51A29.94,29.94,0,0,1,311.82,73a31.52,31.52,0,0,1,23.83,10.51c.61.65,1.18,1.33,1.73,2a29.82,29.82,0,0,0,4.44-13.35c-8.58-7-18.44-10.37-30-10.37S290.47,65.26,282,72.31a29.82,29.82,0,0,0,4.54,13.39C287.18,85,287.79,84.22,288.45,83.51Z"/><path class="cls-3" d="M387.34,37.23a23.59,23.59,0,0,0-7.76-3.77,31.21,31.21,0,0,1-6.32-2.25l-.1,0a1.94,1.94,0,0,1-1.5-2.06c0-.84,0-3.41,5.94-3.41H396c5.23,0,7.78,2.92,7.78,8.93V65.71a30,30,0,1,0-14.85,3.94c.46,0,.91,0,1.36,0V46.82C390.29,42.35,389.34,39.23,387.34,37.23Z"/><path class="cls-4" d="M403.78,34.63c0-6-2.54-8.93-7.78-8.93H377.6c-5.94,0-5.94,2.57-5.94,3.41a1.94,1.94,0,0,0,1.5,2.06l.1,0a31.21,31.21,0,0,0,6.32,2.25,23.59,23.59,0,0,1,7.76,3.77c2,2,3,5.12,3,9.59V69.61a29.83,29.83,0,0,0,13.49-3.9Z"/></svg>