<svg id="Layer_1" data-name="Layer 1" xmlns="http://www.w3.org/2000/svg" viewBox="0 0 700 250"><defs><style>.cls-1{fill:none;}.cls-2{fill:#fcdfeb;}.cls-3{fill:#4daf37;}.cls-4{fill:#fcd76b;}</style></defs><title>05-en-humanist-hover</title><path class="cls-1" d="M362.75,205.76a30.13,30.13,0,0,1-.55,5.72c13.68-2.12,24.2-12.76,32.59-22.47V164.7c-22.37,3.7-37.63,8.56-46.26,15.55A30,30,0,0,1,362.75,205.76Z"/><path class="cls-2" d="M292.83,193.7c0-43.66-64.75-39.26-64.75-66.22,0-9.08,7.32-15.53,23.15-15.53,16.41,0,32.23,7.62,32.23,7.62l6.15-19.34S275.25,92.91,253,92.91c-33.7,0-48.05,16.41-48.05,36.33,0,42.19,64.75,38.09,64.75,66.22,0,10.25-8.2,17.29-24.61,17.29-21.1,0-37.8-12.89-37.8-12.89l-5,20.22s15.53,11.72,42.19,11.72C274.37,231.79,292.83,217.14,292.83,193.7Z"/><path class="cls-2" d="M424.67,230.33l7.62-18.46s-14.65-.29-14.65-17.58V134.81c0-29.59-9.38-41.9-38.09-41.9-32.82,0-54.79,16.11-54.79,16.11l7,18.46s19.34-14.65,41.31-14.65,21.68,14.65,21.68,30.18v5c-35.42,4.56-60.28,14.39-71.82,29.39a30,30,0,0,1,25.56,2.86c8.63-7,23.89-11.85,46.26-15.55V189c-8.4,9.71-18.91,20.35-32.59,22.47A30,30,0,0,1,348,231.59c1.49.13,3,.2,4.58.2,26.66,0,41-18.75,43.66-22.85C399.18,219.78,406.21,228.28,424.67,230.33Z"/><path class="cls-2" d="M464.81,64.18v164.1h22.86V64.57a30,30,0,0,1-22.86-.39Z"/><path class="cls-3" d="M506.73,36.63a30,30,0,1,0-41.91,27.55v-41l22.86-4.1V64.57A30,30,0,0,0,506.73,36.63Z"/><path class="cls-4" d="M464.81,23.18v41a30,30,0,0,0,22.86.39V19.08Z"/><path class="cls-3" d="M315.68,198.68a34.09,34.09,0,0,1,7.29-21.3,30,30,0,1,0,25,54.2C328.11,229.84,315.68,216.68,315.68,198.68Z"/><path class="cls-3" d="M340,197.22c0,10.25,7.62,14.65,17.29,14.65a32,32,0,0,0,4.91-.38,30,30,0,0,0-13.67-31.24C342.81,184.88,340,190.44,340,197.22Z"/><path class="cls-4" d="M362.2,211.48a32,32,0,0,1-4.91.38c-9.67,0-17.29-4.39-17.29-14.65,0-6.78,2.81-12.34,8.53-17A30,30,0,0,0,323,177.38a34.09,34.09,0,0,0-7.29,21.3c0,18,12.43,31.16,32.33,32.9A30,30,0,0,0,362.2,211.48Z"/></svg>