<svg id="Layer_1" data-name="Layer 1" xmlns="http://www.w3.org/2000/svg" viewBox="0 0 700 250"><defs><style>.cls-1{fill:#fcdfeb;}</style></defs><title>05-en-humanist</title><path class="cls-1" d="M207.27,199.86s16.7,12.89,37.8,12.89c16.41,0,24.61-7,24.61-17.29,0-28.13-64.75-24-64.75-66.22,0-19.92,14.36-36.33,48.05-36.33,22.27,0,36.62,7.32,36.62,7.32l-6.15,19.34S267.63,112,251.22,112c-15.82,0-23.15,6.45-23.15,15.53,0,27,64.75,22.56,64.75,66.22,0,23.44-18.46,38.09-48.34,38.09-26.66,0-42.19-11.72-42.19-11.72Z"/><path class="cls-1" d="M394.79,148v-5c0-15.53.29-30.18-21.68-30.18s-41.31,14.65-41.31,14.65l-7-18.46s22-16.11,54.79-16.11c28.71,0,38.09,12.31,38.09,41.9v59.48c0,17.29,14.65,17.58,14.65,17.58l-7.62,18.46c-18.46-2.05-25.49-10.55-28.42-21.39-2.64,4.1-17,22.85-43.66,22.85-22.56,0-36.92-13.77-36.92-33.11C315.68,171.43,344.69,154.44,394.79,148Zm0,41V164.7C357.58,170.85,340,180.22,340,197.22c0,10.25,7.62,14.65,17.29,14.65C373.4,211.87,385.41,199.86,394.79,189Z"/><path class="cls-1" d="M464.81,23.18l22.86-4.1v209.2H464.81Z"/></svg>