<svg id="Layer_1" data-name="Layer 1" xmlns="http://www.w3.org/2000/svg" viewBox="0 0 700 250"><defs><style>.cls-1{fill:#fcdfeb;}.cls-2{fill:#4daf37;}.cls-3{fill:#fcd76b;}</style></defs><title>05-kr-humanist-hover</title><path class="cls-1" d="M289,120.77a157.37,157.37,0,0,1-9,16.2,144.47,144.47,0,0,1-24.68,29.12,4.78,4.78,0,0,0-1.55,2.61,2.41,2.41,0,0,0,.94,2L265,180.39c1.84,1.84,3.54,1.87,5.74.14a108,108,0,0,0,11.81-11.38,184,184,0,0,0,11.67-14.4,179.19,179.19,0,0,0,10.69-16.47c1.14-2,2.22-4,3.28-6A30,30,0,0,1,289,120.77Z"/><path class="cls-1" d="M325.8,75.52c.67-4.7,1.21-9.5,1.59-14.39.58-7.66.88-16,.88-24.86a1.89,1.89,0,0,0-.5-1.32c-.43-.48-.74-.48-.86-.48l-19.63-.66c-.07,0-.43,0-1,.55a1.67,1.67,0,0,0-.55,1.25c.14,6.45.07,12.67-.22,18.45S304.7,65.56,304,70.92c-.15,1.08-.32,2.16-.48,3.23a30,30,0,0,1,22.31,1.37Z"/><path class="cls-1" d="M370.22,156.72a124.74,124.74,0,0,1-14.41-14A143.54,143.54,0,0,1,342.36,125c-1.37-2.13-2.68-4.32-3.94-6.52a30.08,30.08,0,0,1-16.5,12.81q1,1.77,2.09,3.56c3.06,5,6.4,9.94,9.93,14.62a142.9,142.9,0,0,0,11.21,13.17,113.91,113.91,0,0,0,11.07,10.21,4.47,4.47,0,0,0,3,1,2.59,2.59,0,0,0,1.92-1.14l.06-.08,9.24-11.22C372.28,158.83,371.43,157.63,370.22,156.72Z"/><path class="cls-1" d="M449.95,103.79a1.89,1.89,0,0,0-1.17-.45H417.36V65.52a30,30,0,0,1-22.3.23V227.46c0,1.08.28,1.36,1.36,1.36H416c1.08,0,1.36-.28,1.36-1.36v-106h31.42a1.66,1.66,0,0,0,1.09-.5h0a1.32,1.32,0,0,0,.48-1.08v-15.4C450.36,104.35,450.36,104.12,449.95,103.79Z"/><path class="cls-2" d="M301,86.9c1-4.18,1.84-8.46,2.51-12.75A30,30,0,0,0,289,120.77a160.7,160.7,0,0,0,7.4-18C298.19,97.47,299.72,92.14,301,86.9Z"/><path class="cls-2" d="M324.49,83.6l.06.29a105.2,105.2,0,0,0,6.92,21,150.65,150.65,0,0,0,6.95,13.59A30,30,0,0,0,325.8,75.52c-.38,2.63-.78,5.24-1.25,7.79Z"/><path class="cls-2" d="M315.28,117.09l-1.42,3.31c-1.72,4-3.62,8-5.67,11.88a30.12,30.12,0,0,0,13.72-1,95.38,95.38,0,0,1-5.29-10.85Z"/><path class="cls-3" d="M338.42,118.46a150.65,150.65,0,0,1-6.95-13.59,105.2,105.2,0,0,1-6.92-21l-.06-.29.05-.29c.47-2.55.87-5.15,1.25-7.79a30,30,0,0,0-22.31-1.37c-.68,4.29-1.51,8.57-2.51,12.75-1.26,5.24-2.78,10.57-4.55,15.86a160.7,160.7,0,0,1-7.4,18,30,30,0,0,0,19.18,11.5c2-3.9,3.95-7.87,5.67-11.88l1.42-3.31,1.35,3.33a95.38,95.38,0,0,0,5.29,10.85A30.08,30.08,0,0,0,338.42,118.46Z"/><path class="cls-2" d="M396.42,23H416c1.08,0,1.36.28,1.36,1.36V65.52a30,30,0,1,0-22.3.23V24.4C395.06,23.32,395.34,23,396.42,23Z"/><path class="cls-3" d="M417.36,65.52V24.4c0-1.08-.28-1.36-1.36-1.36H396.42c-1.08,0-1.36.28-1.36,1.36V65.75a30,30,0,0,0,22.3-.23Z"/></svg>