<svg id="Layer_1" data-name="Layer 1" xmlns="http://www.w3.org/2000/svg" viewBox="0 0 700 250"><defs><style>.cls-1{fill:#fcdfeb;}</style></defs><title>06-kr-geometric</title><polygon class="cls-1" points="414.8 102.3 414.8 26.84 397.18 26.84 397.18 229.92 414.8 229.92 414.8 118.16 448.24 118.16 448.24 102.3 414.8 102.3"/><path class="cls-1" d="M314.14,41.14c-31.62,0-50.5,22.09-50.5,59.08V120.9c0,37.13,18.88,59.3,50.5,59.3s50.5-22.17,50.5-59.3V100.44C364.64,63.31,345.76,41.14,314.14,41.14Zm0,122.76c-22.11,0-33.32-15.36-33.32-45.64V103.08c0-30.14,11.21-45.42,33.32-45.42s33.32,15.28,33.32,45.42v15.18C347.46,148.54,336.25,163.9,314.14,163.9Z"/></svg>