<svg id="Layer_1" data-name="Layer 1" xmlns="http://www.w3.org/2000/svg" viewBox="0 0 700 250"><defs><style>.cls-1{fill:none;}.cls-2{fill:#fcdfeb;}.cls-3{fill:#4daf37;}.cls-4{fill:#fcd76b;}</style></defs><title>06-kr-geometric-hover</title><path class="cls-1" d="M315.92,82.79A30,30,0,0,1,290,68q-9.2,11.36-9.23,35.11v15.18c0,30.28,11.21,45.64,33.32,45.64s33.32-15.36,33.32-45.64V103.08q0-21.19-7.35-32.54A30,30,0,0,1,315.92,82.79Z"/><path class="cls-2" d="M345.9,51.59c0,.4,0,.79,0,1.19a29.87,29.87,0,0,1-5.82,17.76q7.34,11.33,7.35,32.54v15.18c0,30.28-11.21,45.64-33.32,45.64s-33.32-15.36-33.32-45.64V103.08q0-23.73,9.23-35.11a29.86,29.86,0,0,1-4.13-15.19,30.24,30.24,0,0,1,.28-4c-14.46,9.43-22.55,27.25-22.55,51.47V120.9c0,37.13,18.88,59.3,50.5,59.3s50.5-22.17,50.5-59.3V100.44C364.64,78.36,358,61.57,345.9,51.59Z"/><path class="cls-2" d="M397.18,138.07v91.85H414.8V140.51a30.2,30.2,0,0,1-4.88.4A29.88,29.88,0,0,1,397.18,138.07Z"/><path class="cls-2" d="M414.8,81.29V26.84H397.18V83.73a29.88,29.88,0,0,1,12.74-2.84A30.2,30.2,0,0,1,414.8,81.29Z"/><path class="cls-2" d="M448.24,102.3h-9.57a30.06,30.06,0,0,1,.37,15.86h9.2Z"/><path class="cls-3" d="M314.14,57.66C303.64,57.66,295.6,61.12,290,68a30,30,0,0,0,50.06,2.57Q331.79,57.69,314.14,57.66Z"/><path class="cls-3" d="M345.9,51.59a30,30,0,0,0-59.71-2.84c7.63-5,17-7.61,28-7.61C327,41.14,337.68,44.78,345.9,51.59Z"/><path class="cls-4" d="M290,68c5.55-6.85,13.59-10.31,24.09-10.31q17.62,0,26,12.88a29.87,29.87,0,0,0,5.82-17.76c0-.4,0-.8,0-1.19-8.22-6.8-18.94-10.45-31.76-10.45-10.92,0-20.32,2.64-28,7.61a30.24,30.24,0,0,0-.28,4A29.86,29.86,0,0,0,290,68Z"/><path class="cls-3" d="M414.8,140.51A30,30,0,0,0,439,118.16H414.8Z"/><path class="cls-3" d="M379.92,110.9a30,30,0,0,0,17.27,27.17V83.73A30,30,0,0,0,379.92,110.9Z"/><path class="cls-3" d="M438.68,102.3a30,30,0,0,0-23.87-21v21Z"/><path class="cls-4" d="M438.68,102.3H414.8v-21a30.2,30.2,0,0,0-4.88-.4,29.88,29.88,0,0,0-12.74,2.84v54.34a29.88,29.88,0,0,0,12.74,2.84,30.2,30.2,0,0,0,4.88-.4V118.16H439a30.06,30.06,0,0,0-.37-15.86Z"/></svg>