<svg id="Layer_1" data-name="Layer 1" xmlns="http://www.w3.org/2000/svg" viewBox="0 0 700 250"><defs><style>.cls-1{fill:#fcdfeb;}</style></defs><title>07-en-grotesque</title><path class="cls-1" d="M257.23,131.87c1.2-17.1,4.5-27.3,11.7-35.4C278.23,86,295.63,80,316,80c36,0,56.4,17.1,56.4,47.1v68.1c0,11.4,1.5,13.8,7.8,13.8a18.14,18.14,0,0,0,7.2-1.5v21.3a79.11,79.11,0,0,1-18,2.1c-13.2,0-19.2-5.7-21.6-19.5-14.7,14.7-30.6,21.3-50.1,21.3-28.2,0-47.4-17.4-47.4-42.9,0-23.4,14.4-37.8,43.8-43.8l32.1-6.3c17.4-3.3,21-6,21-15,0-14.1-12.3-22.8-31.8-22.8-14.1,0-25.2,4.5-29.1,12.3-2.1,3.9-2.7,7.2-3.3,17.7Zm90.6,22.5a116.2,116.2,0,0,1-17.1,5.4l-28.2,6.6c-16.8,3.9-24.3,10.8-24.3,22.2,0,13.2,10.8,22.2,27,22.2,23.4,0,42.6-17.1,42.6-37.8Z"/><path class="cls-1" d="M441.73,228.77h-27.6V28.67h27.6Z"/></svg>