<svg id="Layer_1" data-name="Layer 1" xmlns="http://www.w3.org/2000/svg" viewBox="0 0 700 250"><defs><style>.cls-1{fill:#fcdfeb;}</style></defs><title>07-kr-grotesque</title><path class="cls-1" d="M368.84,109.53c0-22.05-5-39.64-14.93-52.27s-23.19-19-39.57-19S284.43,44.59,274.55,57s-14.93,30.15-14.93,52.49c0,21.91,5,39.48,15,52.22s23.28,19.14,39.73,19.14,29.69-6.4,39.57-19S368.84,131.58,368.84,109.53Zm-33.93,36c-5.55,9.1-12.47,13.72-20.57,13.72s-15.2-4.58-20.68-13.61-8.18-21-8.18-35.87c0-15.35,2.72-27.56,8.08-36.3S306,60.15,314.34,60.15s15.46,4.51,20.84,13.4,8,21,8,36.19C343.2,124.45,340.41,136.48,334.9,145.51Z"/><polygon class="cls-1" points="420.29 25.06 394.54 25.06 394.54 231.28 420.29 231.28 420.29 126.33 452.73 126.33 452.73 104.66 420.29 104.66 420.29 25.06"/></svg>