<svg id="Layer_1" data-name="Layer 1" xmlns="http://www.w3.org/2000/svg" viewBox="0 0 700 250"><defs><style>.cls-1{fill:none;}.cls-2{fill:#fcdfeb;}.cls-3{fill:#4daf37;}.cls-4{fill:#fcd76b;}</style></defs><title>07-kr-grotesque-hover</title><path class="cls-1" d="M294.11,72.58c-.19.29-.38.57-.56.87-5.36,8.74-8.08,21-8.08,36.3,0,14.85,2.75,26.92,8.18,35.87s12.43,13.61,20.68,13.61,15-4.62,20.57-13.72,8.29-21.06,8.29-35.76c0-15.2-2.7-27.38-8-36.19-.29-.48-.59-1-.9-1.41a30,30,0,0,1-40.17.43Z"/><path class="cls-2" d="M343.84,47.42c.08.88.12,1.76.12,2.65a29.92,29.92,0,0,1-9.68,22.07c.3.46.6.92.9,1.41,5.32,8.81,8,21,8,36.19,0,14.71-2.79,26.74-8.29,35.76s-12.47,13.72-20.57,13.72-15.2-4.58-20.68-13.61-8.18-21-8.18-35.87c0-15.35,2.72-27.56,8.08-36.3.18-.3.37-.58.56-.87a29.93,29.93,0,0,1-10.17-22.5c0-.78,0-1.54.1-2.3A51.25,51.25,0,0,0,274.55,57c-9.91,12.49-14.93,30.15-14.93,52.49,0,21.91,5,39.48,15,52.22s23.28,19.14,39.73,19.14,29.69-6.4,39.57-19,14.93-30.27,14.93-52.33-5-39.64-14.93-52.27A51.56,51.56,0,0,0,343.84,47.42Z"/><path class="cls-2" d="M420.29,86.53V25.06H394.54V90a30,30,0,0,1,25.75-3.43Z"/><path class="cls-2" d="M452.73,104.66H439.14a30.06,30.06,0,0,1-.34,21.67h13.94Z"/><path class="cls-2" d="M394.54,140.16v91.12h25.75V143.59a30,30,0,0,1-25.75-3.43Z"/><path class="cls-3" d="M381,115.06a30,30,0,0,0,13.57,25.1V90A30,30,0,0,0,381,115.06Z"/><path class="cls-3" d="M420.29,143.59a30.08,30.08,0,0,0,18.5-17.26h-18.5Z"/><path class="cls-3" d="M439.14,104.66a30.08,30.08,0,0,0-18.85-18.13v18.13Z"/><path class="cls-4" d="M439.14,104.66H420.29V86.53A30,30,0,0,0,394.54,90v50.2a30,30,0,0,0,25.75,3.43V126.33h18.5a30.06,30.06,0,0,0,.34-21.67Z"/><path class="cls-3" d="M314.34,60.15c-8.1,0-14.9,4.19-20.22,12.42a30,30,0,0,0,40.17-.43C329,64.19,322.33,60.15,314.34,60.15Z"/><path class="cls-3" d="M343.84,47.42a30,30,0,0,0-59.8.35c8.43-6.3,18.57-9.5,30.3-9.5C325.68,38.27,335.56,41.34,343.84,47.42Z"/><path class="cls-4" d="M294.11,72.58c5.33-8.24,12.12-12.42,20.22-12.42s14.69,4,19.94,12A29.92,29.92,0,0,0,344,50.07c0-.9,0-1.78-.12-2.65-8.28-6.07-18.16-9.15-29.5-9.15-11.72,0-21.86,3.2-30.3,9.5-.06.76-.1,1.53-.1,2.3A29.93,29.93,0,0,0,294.11,72.58Z"/></svg>