<svg id="Layer_1" data-name="Layer 1" xmlns="http://www.w3.org/2000/svg" viewBox="0 0 600 125"><defs><style>.cls-1{fill:#0a6024;}</style></defs><title>05-03-kr-bellbottoms</title><path class="cls-1" d="M177,33.84a3.56,3.56,0,0,1,2.26.62,4.26,4.26,0,0,1,1.17,1.4,4.89,4.89,0,0,1,.39,2v33.7a86.28,86.28,0,0,0,12.4-.78,39.55,39.55,0,0,0,17.71-7,78.42,78.42,0,0,0,8-6.59l.55.78a31.86,31.86,0,0,1-8.42,8.74,43.31,43.31,0,0,1-5.23,3.2,42.23,42.23,0,0,1-6.71,2.77,56.54,56.54,0,0,1-8.31,2,62.71,62.71,0,0,1-10,.74h-9.67a3.15,3.15,0,0,1-1.79-.43,2.75,2.75,0,0,1-.94-1.05,4.87,4.87,0,0,1-.39-1.56v-37h-3a.78.78,0,1,1,0-1.56ZM227.06,52.4a5.46,5.46,0,0,1,5.46,5.46H220V86.64a5,5,0,0,1-1.91,4.06A13.56,13.56,0,0,1,214,93a30.85,30.85,0,0,1-6.08,1.4V30.25l-4.29-.47a.76.76,0,0,1-.7-.78q0-.7.78-.7h.08L220,29.86V55.29h2.18a5.42,5.42,0,0,1,4.84-2.89Z"/><path class="cls-1" d="M241.8,35.55l-3.82,2-3.82-2V34h26.36l7.64-2.81L275,34v1.56ZM277.37,63H241.8L238,65l-3.82-2V61.45H261.3l8-3.67,8,3.67Zm15.44,30v1.48H249.37a4.65,4.65,0,0,1-2.85-.74A4.11,4.11,0,0,1,245.16,92a6.63,6.63,0,0,1-.55-2.42V80.87h-2.34a.78.78,0,1,1,0-1.56h37.6V70.73H255.38l-6.55,3-6.55-3V69.25h36.66l6.55-3,6.55,3V80.79H257.48V91.48a1.73,1.73,0,0,0,.16.78,1.23,1.23,0,0,0,1.25.7h16.38L284,88.83ZM253.5,54.27a2.27,2.27,0,0,1-2,1.75,9,9,0,0,1-3.74.08,9.44,9.44,0,0,1-3.74-1.52,4,4,0,0,1-1.87-3,14.14,14.14,0,0,1-.23-2.69q-.08-2.22-.16-4.72-.08-2.89-.16-6.47a7.26,7.26,0,0,1,4.13,1.64,18.75,18.75,0,0,1,4.1,4.13,22.62,22.62,0,0,1,2.92,5.38A10.76,10.76,0,0,1,253.5,54.27Zm8.58,8-1.64.08q-1.56.08-3.39.12t-3.28,0q-1.44,0-1.29-.2a18.19,18.19,0,0,0,2.77-5.23,71.12,71.12,0,0,0,2.38-7.53q1-3.94,1.64-7.25a30.25,30.25,0,0,0,.62-4.41,63.21,63.21,0,0,1,7.88.55q1.4.23,2.57.55a5.72,5.72,0,0,1,1.87.82A1.86,1.86,0,0,1,273,41a2.11,2.11,0,0,1-.66,1.6,11,11,0,0,0-1.29,2q-.9,1.64-2,3.82t-2.34,4.64q-1.25,2.46-2.26,4.49t-1.68,3.39A7,7,0,0,1,262.08,62.31Zm36.82-16a5.46,5.46,0,0,1,5.46,5.46H291.88V59A5,5,0,0,1,290,63.09a13.53,13.53,0,0,1-4.17,2.34,30.92,30.92,0,0,1-6.08,1.4V30.17l-4.29-.47a.62.62,0,0,1-.51-.23.73.73,0,0,1-.2-.47.69.69,0,0,1,.78-.78h.08l16.3,1.56V49.2h2.18a5.42,5.42,0,0,1,4.84-2.89Z"/><path class="cls-1" d="M343.58,32.67v40.1a5,5,0,0,1-1.91,4,13.56,13.56,0,0,1-4.17,2.34,30.89,30.89,0,0,1-6.08,1.4V76.82H318.07A11.18,11.18,0,0,1,315,78.73a22.64,22.64,0,0,1-3.31,1.13,30.94,30.94,0,0,1-3.82.7V33.06l-4.29-.47a.63.63,0,0,1-.51-.23.74.74,0,0,1-.2-.47.69.69,0,0,1,.78-.78h.08L320,32.67V48.58h11.39V33.06l-4.29-.47a.63.63,0,0,1-.51-.23.73.73,0,0,1-.19-.47.69.69,0,0,1,.78-.78h.08ZM331.41,74.32V51.08H320V72.83a4.67,4.67,0,0,1-.23,1.49ZM370,52.4a5.46,5.46,0,0,1,5.46,5.46H363V86.64a5,5,0,0,1-1.91,4.06A13.56,13.56,0,0,1,356.92,93a30.85,30.85,0,0,1-6.08,1.4V30.25l-4.29-.47a.76.76,0,0,1-.7-.78q0-.7.78-.7h.08L363,29.86V55.29h2.18A5.42,5.42,0,0,1,370,52.4Z"/><path class="cls-1" d="M416,36.18h-.08v1.56H401.54q-.16,4-.74,8.19a61.23,61.23,0,0,1-1.6,7.88q.78.7,2.34,1.87t3.35,2.77q1.79,1.6,3.71,3.43a42.13,42.13,0,0,1,3.47,3.74,20.69,20.69,0,0,1,2.5,3.78,7.27,7.27,0,0,1,.86,3.59,6.1,6.1,0,0,1-1.52,4.25,5.28,5.28,0,0,1-3.08,1.48,7,7,0,0,1-3.35-.43,4.32,4.32,0,0,1-2.18-1.48,23.26,23.26,0,0,1-1.44-2.89q-1-2.18-2.14-4.87t-2.38-5.42q-1.21-2.73-2.07-4.52l-1.33,2.57a24.32,24.32,0,0,1-4.68,5.66A45.8,45.8,0,0,1,385,72.1,67.69,67.69,0,0,1,378,76q-3.59,1.72-6.86,3l-.94-1.56a32.62,32.62,0,0,0,7.53-6.24,37.08,37.08,0,0,0,8.11-15,65.53,65.53,0,0,0,1.56-7.41,61.58,61.58,0,0,0,.62-6.36q.12-2.89.2-4.68h-6.32l-3.82,2-3.82-2V36.18H403l6.94-3Zm17.86,50.47a5,5,0,0,1-1.91,4.06A13.53,13.53,0,0,1,427.75,93a30.85,30.85,0,0,1-6.08,1.4V30.25l-4.29-.47a.76.76,0,0,1-.7-.78q0-.31.58-.51a3.24,3.24,0,0,1,1-.19h.08l15.52,1.56Z"/></svg>