<svg id="Layer_1" data-name="Layer 1" xmlns="http://www.w3.org/2000/svg" viewBox="0 0 600 125"><defs><style>.cls-1{fill:#0a6024;}.cls-2{fill:none;stroke:#0a6024;stroke-miterlimit:10;stroke-width:9px;}</style></defs><title>06-01-kr-historical</title><rect class="cls-1" x="277.33" y="35.12" width="8.88" height="56.2" rx="0.95" ry="0.95"/><rect class="cls-1" x="354.33" y="35.12" width="8.88" height="32.2" rx="0.95" ry="0.95"/><rect class="cls-1" x="417.33" y="35.12" width="8.88" height="32.2" rx="0.95" ry="0.95"/><rect class="cls-1" x="306.25" y="34.05" width="35.28" height="8.88" rx="0.95" ry="0.95"/><path class="cls-1" d="M248.9,32.4a1,1,0,0,0-1.55,0L228.79,64a1,1,0,0,0,.22,1.33l5.68,4.05a1,1,0,0,0,1.33-.22l13.34-21.5c.38-.53-2.83-.53-2.45,0l13.34,21.5a1,1,0,0,0,1.33.22l5.68-4.05a1,1,0,0,0,.22-1.33Z"/><circle class="cls-1" cx="293.85" cy="58.56" r="6.03"/><circle class="cls-1" cx="345.85" cy="49.56" r="6.03"/><rect class="cls-1" x="217.33" y="35.12" width="8.88" height="32.2" rx="0.95" ry="0.95"/><circle class="cls-1" cx="208.85" cy="58.72" r="6.03"/><circle class="cls-1" cx="208.85" cy="43.72" r="6.03"/><path class="cls-1" d="M327.1,41.11,311.26,68.19a.85.85,0,0,1-1.16.31l-6.28-3.63a.85.85,0,0,1-.31-1.17l15.84-27.08a.85.85,0,0,1,1.16-.31l6.28,3.63A.85.85,0,0,1,327.1,41.11Z"/><rect class="cls-1" x="327.37" y="33.75" width="8.95" height="35.29" rx="0.85" ry="0.85" transform="matrix(0.87, -0.5, 0.5, 0.87, 18.76, 172.81)"/><rect class="cls-1" x="373.01" y="83.12" width="54.19" height="8.88" rx="0.95" ry="0.95"/><rect class="cls-1" x="373.01" y="74.95" width="8.88" height="16.99" rx="0.95" ry="0.95"/><rect class="cls-1" x="309.01" y="74.95" width="54.19" height="8.88" rx="0.95" ry="0.95"/><rect class="cls-1" x="354.33" y="75.01" width="8.88" height="16.99" rx="0.95" ry="0.95"/><rect class="cls-1" x="169.01" y="74.95" width="54.19" height="8.88" rx="0.95" ry="0.95"/><rect class="cls-1" x="214.33" y="75.01" width="8.88" height="16.99" rx="0.95" ry="0.95"/><circle class="cls-2" cx="388.5" cy="48.5" r="11"/><circle class="cls-2" cx="182.5" cy="48.5" r="11"/></svg>