<svg id="Layer_1" data-name="Layer 1" xmlns="http://www.w3.org/2000/svg" viewBox="0 0 600 125"><defs><style>.cls-1{fill:#0a6024;}</style></defs><title>05-01-kr-seventies</title><path class="cls-1" d="M210.71,39H199.09q-.39,1.17-.94,3T197,45.66q-.58,1.75-1,3.08a9.84,9.84,0,0,1-.51,1.4,16.07,16.07,0,0,0,3.47,2,44.71,44.71,0,0,1,4.56,2.34,17.82,17.82,0,0,1,3.9,3,5.22,5.22,0,0,1,1.56,3.9A5.28,5.28,0,0,1,207.71,65a3.84,3.84,0,0,1-2.57,1.09,6.26,6.26,0,0,1-2.81-.58,4.6,4.6,0,0,1-1.91-1.4,16.89,16.89,0,0,0-1.48-1.64q-1-1-2.18-2.3t-2.38-2.81a21.73,21.73,0,0,1-2.07-3.08l-3,4a16.33,16.33,0,0,1-3.9,3.28,26.16,26.16,0,0,1-4.64,2.15,43.61,43.61,0,0,1-5.46,1.52l-6.28,1.33-.94-1.4a46.81,46.81,0,0,0,7.49-4.84,32.85,32.85,0,0,0,4.88-4.8,20.07,20.07,0,0,0,2.89-4.68,21.52,21.52,0,0,0,1.36-4.37,27.64,27.64,0,0,0,.47-4q.08-1.91.16-3.47h-7.1l-3.82,1.79L170.62,39v-1.4h15.76l1.25,0q1.32,0,3.2,0t3.86,0q2,0,3.24,0l6.86-2.65,5.93,2.65Zm18.72,54v1.48H186a4.64,4.64,0,0,1-2.85-.74A4.11,4.11,0,0,1,181.78,92a6.63,6.63,0,0,1-.55-2.42V80.87h-2.34a.78.78,0,1,1,0-1.56h37.6V70.73H192l-6.55,3-6.55-3V69.25h36.66l6.55-3,6.55,3V80.79H194.1V91.48a1.72,1.72,0,0,0,.16.78,1.23,1.23,0,0,0,1.25.7h16.38l8.74-4.13ZM196.91,30a2,2,0,0,1,.39,2.57,5.32,5.32,0,0,1-2.46,2,9.5,9.5,0,0,1-3.71.78,4.64,4.64,0,0,1-3.28-1.05l-1.25-1.05q-.78-.66-1.72-1.52T183,29.86a17.55,17.55,0,0,1-1.72-2.18,17.63,17.63,0,0,1,5.46-1.4,16.12,16.12,0,0,1,5.07.55A10.6,10.6,0,0,1,196.91,30Zm20,.23-4.29-.47A.76.76,0,0,1,212,29q0-.7.78-.7h.08l16.3,1.56v28.7a5,5,0,0,1-1.91,4.06A13.54,13.54,0,0,1,223,65a30.86,30.86,0,0,1-6.08,1.4Z"/><path class="cls-1" d="M258.43,32.2a5.85,5.85,0,0,1,3.71,1,5.34,5.34,0,0,1,1.68,2.14,6.58,6.58,0,0,1,.39,3,19.76,19.76,0,0,1-.35,2.15,11.8,11.8,0,0,1-.47,1.52l-.58,1.48a17.12,17.12,0,0,0-.62,2l2.22,1.79q1.44,1.17,3.08,2.73t3.35,3.35A36.09,36.09,0,0,1,273.92,57a20.62,20.62,0,0,1,2.18,3.71,7.46,7.46,0,0,1,.74,3.39,5.69,5.69,0,0,1-1.29,3.82A3.76,3.76,0,0,1,273,69.06a6,6,0,0,1-2.81-.62,4.51,4.51,0,0,1-1.91-1.52,18.78,18.78,0,0,1-1.44-2.65q-1-2-2.15-4.56t-2.38-5.07q-1.21-2.53-2.07-4.17l-1.33,2.42a23.07,23.07,0,0,1-4.68,5.23,45.94,45.94,0,0,1-6.28,4.41,70.77,70.77,0,0,1-7,3.59q-3.59,1.6-6.86,2.85l-.94-1.4A35,35,0,0,0,240.69,62a33.57,33.57,0,0,0,5.07-6.28,30.29,30.29,0,0,0,3-6.47,44.83,44.83,0,0,0,1.56-6.16A44,44,0,0,0,251,37.7q.12-2.46.2-4.09H247q-.78,0-.78-.7t.78-.7Zm37.13,36.35V89.17a5,5,0,0,1-1.91,4,13.56,13.56,0,0,1-4.17,2.33,31,31,0,0,1-6.08,1.4V93.2H256.8a11.21,11.21,0,0,1-3.08,1.91,22.88,22.88,0,0,1-3.31,1.13,30.91,30.91,0,0,1-3.82.7v-28l-4.29-.47a.63.63,0,0,1-.51-.23.73.73,0,0,1-.2-.47.69.69,0,0,1,.78-.78h.08l16.3,1.56v7.33h24.65V68.94l-4.29-.47a.63.63,0,0,1-.51-.23.73.73,0,0,1-.2-.47.69.69,0,0,1,.78-.78h.08ZM283.39,90.7V78.38H258.75V89.21a4.74,4.74,0,0,1-.23,1.49Zm11.47-30.89a5,5,0,0,1-1.91,4.06,13.52,13.52,0,0,1-4.17,2.34,30.86,30.86,0,0,1-6.08,1.4V30.17l-4.29-.47a.63.63,0,0,1-.51-.23.73.73,0,0,1-.2-.47.69.69,0,0,1,.78-.78h.08l16.3,1.56Z"/><path class="cls-1" d="M313,35.55a3.56,3.56,0,0,1,2.26.62,4.27,4.27,0,0,1,1.17,1.4,4.87,4.87,0,0,1,.39,2V67.07q4.76,0,7.84.08t5.23,0q2.14,0,3.63-.2a15.77,15.77,0,0,0,3-.62A34.88,34.88,0,0,0,340,65.08q1.91-.82,4.88-2.22l.78,1.17a19.46,19.46,0,0,1-6.08,3.43,50.59,50.59,0,0,1-8.85,2.38,75.65,75.65,0,0,1-13.85,1.05h-9.67a3.15,3.15,0,0,1-1.79-.43,2.75,2.75,0,0,1-.94-1.05,4.87,4.87,0,0,1-.39-1.56V37.11h-3a.78.78,0,1,1,0-1.56Zm5.62,57.88a4,4,0,0,1-2.57-.7,4.34,4.34,0,0,1-1.25-1.56,6.44,6.44,0,0,1-.55-2.34V75.18h-3.9a.78.78,0,1,1,0-1.56h9.52a5.56,5.56,0,0,1,2.81.58,8,8,0,0,1,2.3,1.72,9,9,0,0,1,1.56,2.3,5.67,5.67,0,0,1,.58,2.42v9.83a1.73,1.73,0,0,0,.16.78,1.23,1.23,0,0,0,1.25.7h21.61l6.55-3,6.55,3v1.48Zm37.83-50.08H344a5.43,5.43,0,0,1-2,2.16,5.46,5.46,0,0,1-8.31-4.66h22.78Zm0,14.82H344a5.44,5.44,0,0,1-2,2.16,5.46,5.46,0,0,1-8.31-4.66h22.78Zm-4.68-27.92-4.29-.47a.76.76,0,0,1-.7-.78q0-.7.78-.7h.08l16.3,1.56v42A5,5,0,0,1,362,75.88a13.53,13.53,0,0,1-4.17,2.34,30.92,30.92,0,0,1-6.08,1.4Z"/><path class="cls-1" d="M387.46,37v37q4.68,0,8.31-.27a42.55,42.55,0,0,0,6.59-1,32.14,32.14,0,0,0,5.54-1.83A34.49,34.49,0,0,0,413,68.08a10.74,10.74,0,0,1,1.09-.43,11.25,11.25,0,0,1,1.6-.43,4.31,4.31,0,0,1,1.36-.08q.54.08.39.51A4.31,4.31,0,0,1,416.13,69a39.14,39.14,0,0,1-3.71,2.46q-2.26,1.33-4.76,2.5a36.79,36.79,0,0,1-5.5,2,45.2,45.2,0,0,1-6.63,1.33,63.35,63.35,0,0,1-8.07.47h-9.67a3.14,3.14,0,0,1-1.79-.43,2.75,2.75,0,0,1-.94-1.05,4.87,4.87,0,0,1-.39-1.56V37h-3a.78.78,0,1,1,0-1.56h18.88l6.55-3,6.55,3V37Zm45,20.9h-14V83.52a5.22,5.22,0,0,1-1.64,4,12.54,12.54,0,0,1-3.67,2.38,24.6,24.6,0,0,1-5.3,1.4V32.67l-4.29-.47a.76.76,0,0,1-.7-.78q0-.7.78-.7h.08l14.74,1.56V55.37h13.88Zm2.34,30.34a5.22,5.22,0,0,1-1.64,4,12.56,12.56,0,0,1-3.67,2.38,24.64,24.64,0,0,1-5.3,1.4V30.25l-4.29-.47a.76.76,0,0,1-.7-.78q0-.7.78-.7h.08l14.74,1.56Z"/></svg>