<?xml version="1.0" encoding="utf-8"?>
<!-- Generator: Adobe Illustrator 21.0.0, SVG Export Plug-In . SVG Version: 6.00 Build 0)  -->
<svg version="1.1" id="Layer_1" xmlns="http://www.w3.org/2000/svg" xmlns:xlink="http://www.w3.org/1999/xlink" x="0px" y="0px"
	 viewBox="0 0 600 125" style="enable-background:new 0 0 600 125;" xml:space="preserve">
<style type="text/css">
	.st0{fill:#0A6024;}
</style>
<title>06-01-kr-historical</title>
<g>
	<path class="st0" d="M285.3,35.1h-7c-0.5,0-1,0.4-1,1v54.3c0,0.5,0.4,1,1,1h7c0.5,0,1-0.4,1-1V36.1
		C286.2,35.5,285.8,35.1,285.3,35.1z"/>
	<path class="st0" d="M362.3,35.1h-7c-0.5,0-1,0.4-1,1v30.3c0,0.5,0.4,1,1,1h7c0.5,0,1-0.4,1-1V36.1
		C363.2,35.5,362.8,35.1,362.3,35.1z"/>
	<path class="st0" d="M418.3,67.3h7c0.5,0,1-0.4,1-1V36.1c0-0.5-0.4-1-1-1h-7c-0.5,0-1,0.4-1,1v30.3
		C417.3,66.9,417.8,67.3,418.3,67.3z"/>
	<path class="st0" d="M254.9,32.4c-0.3-0.4-1-0.5-1.4-0.1c-0.1,0-0.1,0.1-0.1,0.1L234.8,64c-0.3,0.4-0.2,1,0.2,1.3l5.7,4
		c0.4,0.3,1,0.2,1.3-0.2l12.1-19.5l12.1,19.5c0.3,0.4,0.9,0.5,1.3,0.2l5.7-4c0.4-0.3,0.5-0.9,0.2-1.3L254.9,32.4z"/>
	<circle class="st0" cx="293.9" cy="58.6" r="6"/>
	<circle class="st0" cx="345.9" cy="49.6" r="6"/>
	<path class="st0" d="M225.3,35.1h-7c-0.5,0-1,0.4-1,1v30.3c0,0.5,0.4,1,1,1h7c0.5,0,1-0.4,1-1V36.1
		C226.2,35.5,225.8,35.1,225.3,35.1z"/>
	<circle class="st0" cx="208.9" cy="58.7" r="6"/>
	<circle class="st0" cx="208.9" cy="43.7" r="6"/>
	<path class="st0" d="M311.3,68.2l13.2-22.6l13.2,22.9c0.2,0.4,0.8,0.5,1.2,0.3l6.3-3.6c0.4-0.2,0.5-0.8,0.3-1.2l-12.1-21h7.2
		c0.5,0,1-0.4,1-1v-7c0-0.5-0.4-1-1-1h-33.4c-0.5,0-1,0.4-1,1v7c0,0.5,0.4,1,1,1h8.5l-12.1,20.8c0,0,0,0,0,0
		c-0.2,0.4-0.1,0.9,0.3,1.2l6.3,3.6C310.5,68.7,311,68.6,311.3,68.2z"/>
	<path class="st0" d="M426.2,83.1h-44.4v-7.2c0-0.5-0.4-0.9-1-0.9h-7c-0.5,0-1,0.4-1,0.9v8.2V91V91c0,0.5,0.4,1,1,1h52.3
		c0.5,0,1-0.4,1-1v-7C427.2,83.5,426.8,83.1,426.2,83.1z"/>
	<path class="st0" d="M363.2,75.9c0-0.5-0.4-0.9-1-0.9H310c-0.5,0-1,0.4-1,0.9v7c0,0.5,0.4,1,1,1h44.4V91c0,0.5,0.4,1,1,1h7
		c0.5,0,1-0.4,1-1L363.2,75.9C363.2,75.9,363.2,75.9,363.2,75.9L363.2,75.9z"/>
	<path class="st0" d="M223.2,75.9c0-0.5-0.4-0.9-1-0.9H170c-0.5,0-1,0.4-1,0.9v7c0,0.5,0.4,1,1,1h44.4V91c0,0.5,0.4,1,1,1h7
		c0.5,0,1-0.4,1-1L223.2,75.9C223.2,75.9,223.2,75.9,223.2,75.9L223.2,75.9z"/>
	<path class="st0" d="M388.5,64c8.5,0,15.5-7,15.5-15.5S397,33,388.5,33S373,40,373,48.5S380,64,388.5,64z M388.5,42
		c3.6,0,6.5,2.9,6.5,6.5s-2.9,6.5-6.5,6.5s-6.5-2.9-6.5-6.5S384.9,42,388.5,42z"/>
	<path class="st0" d="M182.5,64c8.5,0,15.5-7,15.5-15.5S191,33,182.5,33S167,40,167,48.5S174,64,182.5,64z M182.5,42
		c3.6,0,6.5,2.9,6.5,6.5s-2.9,6.5-6.5,6.5s-6.5-2.9-6.5-6.5S178.9,42,182.5,42z"/>
</g>
</svg>
