<svg id="Layer_1" data-name="Layer 1" xmlns="http://www.w3.org/2000/svg" viewBox="0 0 700 250"><defs><style>.cls-1{fill:#fcdfeb;}</style></defs><title>03-kr-modern</title><path class="cls-1" d="M380.25,236V67.58c0-46.16,28.91-47.64,28.91-47.64V236Z"/><rect class="cls-1" x="394.7" y="103.43" width="47.19" height="1.2"/><path class="cls-1" d="M327.09,137.72c0,16.54-9.07,29.94-20.26,29.94s-20.26-13.41-20.26-29.94V78.89c0-16.54,9.07-29.94,20.26-29.94s20.26,13.41,20.26,29.94ZM306.83,45.51h0c-27.16,0-49.17,21.81-49.17,48.7v28.18c0,26.9,22,48.7,49.17,48.7S356,149.29,356,122.39V94.22c0-26.9-22-48.7-49.17-48.7"/></svg>