<svg id="Layer_1" data-name="Layer 1" xmlns="http://www.w3.org/2000/svg" viewBox="0 0 700 250"><defs><style>.cls-1{fill:none;}.cls-2{fill:#fcdfeb;}.cls-3{fill:#4daf37;}.cls-4{fill:#fcd76b;}</style></defs><title>03-en-modern-hover</title><path class="cls-1" d="M291,167.79c-3.41,5.11-5.47,12.18-5.47,23.5,0,10.69,1.7,23.81,14.09,23.81s16-14.09,16-20.41V182.4A30,30,0,0,1,291,167.79Z"/><path class="cls-2" d="M270.9,230.65c19.2,0,39.37-10.94,45-27.94,1.22,16.28,10.21,27.94,25.27,27.94,17.49,0,31.35-9,42.52-18.47l-1-1.21c-17.25,14.34-21.87,1.21-21.87-11.18V136.85c0-28.19-28.67-37.18-56.37-37.18-22.36,0-62.94,3.89-62.94,33.53,0,15.79,11.18,22.84,22.84,22.84,10.93,0,20.9-6.56,21.63-20.41-5.1-2.19-8.51-8.5-8.51-14.09,0-11.91,10.45-20.17,20.17-20.17,13.67,0,16.95,9.69,17.73,21.06.45,0,.91,0,1.37,0a30,30,0,1,1,0,60l-1.12,0v12.29c0,6.32-3.64,20.41-16,20.41S285.48,202,285.48,191.29c0-11.32,2.06-18.39,5.47-23.5a29.83,29.83,0,0,1-3.32-8c-26,8.06-54.16,11.48-54.16,39C233.48,219.72,248.06,230.65,270.9,230.65Z"/><path class="cls-2" d="M470.65,227.25H449.51V37l-26.64,3.54a30,30,0,0,1-18.32,35V227.25H383.41V229h87.24Z"/><path class="cls-3" d="M315.61,133.45c0-3.67,0-7.42-.25-11a30,30,0,0,0-27.72,37.36c10.27-3.18,20.21-7.08,28-13.47Z"/><path class="cls-3" d="M291,167.79a30,30,0,0,0,24.66,14.61V148.28C305.8,156.28,296.56,159.4,291,167.79Z"/><path class="cls-4" d="M315.61,148.28V182.4l1.12,0a30,30,0,1,0,0-60c-.46,0-.91,0-1.37,0,.25,3.59.25,7.34.25,11v12.88c-7.77,6.39-17.71,10.29-28,13.47a29.83,29.83,0,0,0,3.32,8C296.56,159.4,305.8,156.28,315.61,148.28Z"/><path class="cls-3" d="M380.25,47.92l-.24-1.7,42.86-5.69a30,30,0,1,0-18.32,35V44.76Z"/><path class="cls-4" d="M423.7,47.53a30.06,30.06,0,0,0-.83-7L380,46.22l.24,1.7,24.3-3.16V75.5A30,30,0,0,0,423.7,47.53Z"/></svg>