<svg id="Layer_1" data-name="Layer 1" xmlns="http://www.w3.org/2000/svg" viewBox="0 0 700 250"><defs><style>.cls-1{fill:#fcdfeb;}</style></defs><title>04-kr-slab</title><path class="cls-1" d="M345.5,75.46a46.1,46.1,0,0,0-33.68-13.65c-13.17,0-24,4.47-33.23,13.65-9.19,9.42-13.65,20.89-13.65,35.07s4.59,25.78,13.65,34.84c9.12,9.34,20,13.88,33.23,13.88s24.34-4.54,33.69-13.88c9.06-9.06,13.65-20.78,13.65-34.84S354.69,84.88,345.5,75.46Zm-9.86,62.09a31.51,31.51,0,0,1-23.83,10.51,30,30,0,0,1-23.37-10.52c-6.58-7.06-9.79-15.89-9.79-27,0-11,3.3-20.06,9.79-27A29.94,29.94,0,0,1,311.82,73a31.52,31.52,0,0,1,23.83,10.51c6.5,7,9.79,16.05,9.79,27C345.44,121.65,342.24,130.49,335.65,137.55Z"/><path class="cls-1" d="M433.26,104.59H403.78v-70c0-6-2.54-8.93-7.78-8.93H377.6c-5.94,0-5.94,2.57-5.94,3.41a1.94,1.94,0,0,0,1.5,2.06l.1,0a31.21,31.21,0,0,0,6.32,2.25,23.59,23.59,0,0,1,7.76,3.77c2,2,3,5.12,3,9.59v188.1h3c7,0,10.54-6.8,10.54-20.2V115.55h29.48c4.68,0,6.86-1.74,6.86-5.48S437.81,104.59,433.26,104.59Z"/></svg>