<svg id="Layer_1" data-name="Layer 1" xmlns="http://www.w3.org/2000/svg" viewBox="0 0 700 250"><defs><style>.cls-1{fill:#fcdfeb;}</style></defs><title>05-kr-humanist</title><path class="cls-1" d="M370.22,156.72a124.74,124.74,0,0,1-14.41-14A143.54,143.54,0,0,1,342.36,125a151.11,151.11,0,0,1-10.89-20.11,105.2,105.2,0,0,1-6.92-21l-.06-.29.05-.29a212.84,212.84,0,0,0,2.84-22.17c.58-7.66.88-16,.88-24.86a1.89,1.89,0,0,0-.5-1.32c-.43-.48-.74-.48-.86-.48l-19.63-.66c-.07,0-.43,0-1,.55a1.67,1.67,0,0,0-.55,1.25c.14,6.45.07,12.67-.22,18.45S304.7,65.56,304,70.92s-1.75,10.75-3,16-2.78,10.57-4.55,15.86A159.18,159.18,0,0,1,280,137a144.47,144.47,0,0,1-24.68,29.12,4.78,4.78,0,0,0-1.55,2.61,2.41,2.41,0,0,0,.94,2L265,180.39c1.84,1.84,3.54,1.87,5.74.14a108,108,0,0,0,11.81-11.38,184,184,0,0,0,11.67-14.4,179.19,179.19,0,0,0,10.69-16.47,171.65,171.65,0,0,0,8.94-17.88l1.42-3.31,1.35,3.33A101.15,101.15,0,0,0,324,134.83c3.06,5,6.4,9.94,9.93,14.62a142.9,142.9,0,0,0,11.21,13.17,113.91,113.91,0,0,0,11.07,10.21,4.47,4.47,0,0,0,3,1,2.59,2.59,0,0,0,1.92-1.14l.06-.08,9.24-11.22C372.28,158.83,371.43,157.63,370.22,156.72Z"/><path class="cls-1" d="M449.95,103.79a1.89,1.89,0,0,0-1.17-.45H417.36V24.4c0-1.08-.28-1.36-1.36-1.36H396.42c-1.08,0-1.36.28-1.36,1.36V227.46c0,1.08.28,1.36,1.36,1.36H416c1.08,0,1.36-.28,1.36-1.36v-106h31.42a1.66,1.66,0,0,0,1.09-.5h0a1.32,1.32,0,0,0,.48-1.08v-15.4C450.36,104.35,450.36,104.12,449.95,103.79Z"/></svg>