<svg id="Layer_1" data-name="Layer 1" xmlns="http://www.w3.org/2000/svg" viewBox="0 0 700 250"><defs><style>.cls-1{fill:#fcdfeb;}</style></defs><title>06-en-geometric</title><path class="cls-1" d="M355.28,113.18h20.16v116.2H355.28V213.14c-6.72,8.68-19.32,19.6-39.76,19.6-29.4,0-56.56-20.72-56.56-61.6,0-40,26.88-60.76,56.56-60.76,22.4,0,34.44,12.32,39.76,19.32Zm-75.6,58c0,24.92,14,43.68,38.08,43.68,24.64,0,38.64-20.44,38.64-43.4,0-30-20.72-43.12-38.64-43.12C297.88,128.3,279.68,142.86,279.68,171.14Z"/><path class="cls-1" d="M433.68,25.26V229.38H413.52V25.26Z"/></svg>