<svg id="Layer_1" data-name="Layer 1" xmlns="http://www.w3.org/2000/svg" viewBox="0 0 700 250"><defs><style>.cls-1{fill:none;}.cls-2{fill:#fcdfeb;}.cls-3{fill:#4daf37;}.cls-4{fill:#fcd76b;}</style></defs><title>07-en-grotesque-hover</title><path class="cls-1" d="M329.26,160.12l-26.72,6.25c-16.8,3.9-24.3,10.8-24.3,22.2,0,13.2,10.8,22.2,27,22.2,22.68,0,41.42-16.06,42.55-35.9A30.07,30.07,0,0,1,329.26,160.12Z"/><path class="cls-2" d="M372.11,120.8C369.41,94.7,349.44,80,316,80c-20.4,0-37.8,6-47.1,16.5-7.2,8.1-10.5,18.3-11.7,35.4H283c.6-10.5,1.2-13.8,3.3-17.7,3.9-7.8,15-12.3,29.1-12.3,15.94,0,27.07,5.82,30.6,15.65a30,30,0,0,1,26.07,3.28Z"/><path class="cls-2" d="M372.44,195.17V170.84a30,30,0,0,1-24.65,4c-1.13,19.84-19.87,35.9-42.55,35.9-16.2,0-27-9-27-22.2,0-11.4,7.5-18.3,24.3-22.2l26.72-6.25a30,30,0,0,1-2.9-20.47l-.12,0-32.1,6.3c-29.4,6-43.8,20.4-43.8,43.8,0,25.5,19.2,42.9,47.4,42.9,19.5,0,35.4-6.6,50.1-21.3,2.4,13.8,8.4,19.5,21.6,19.5a79.11,79.11,0,0,0,18-2.1v-21.3a18.14,18.14,0,0,1-7.2,1.5C373.94,209,372.44,206.57,372.44,195.17Z"/><path class="cls-2" d="M414.13,172.84v55.93h27.6V172.61a30,30,0,0,1-27.6.23Z"/><path class="cls-2" d="M441.73,119.55V28.67h-27.6v90.65a30,30,0,0,1,27.6.23Z"/><path class="cls-3" d="M347.84,154.37a116.2,116.2,0,0,1-17.1,5.4l-1.48.35a30.07,30.07,0,0,0,18.52,14.75q.05-.94.05-1.9Z"/><path class="cls-3" d="M347.23,124.67a21,21,0,0,0-1.2-7.15,30.05,30.05,0,0,0-19.68,22.13C343.65,136.36,347.23,133.65,347.23,124.67Z"/><path class="cls-3" d="M372.44,170.84a30,30,0,0,0-.33-50,60.75,60.75,0,0,1,.33,6.27Z"/><path class="cls-4" d="M329.26,160.12l1.48-.35a116.2,116.2,0,0,0,17.1-5.4V173q0,1-.05,1.9a30,30,0,0,0,24.65-4V127.07a60.75,60.75,0,0,0-.33-6.27A30,30,0,0,0,346,117.52a21,21,0,0,1,1.2,7.15c0,9-3.58,11.69-20.88,15a30,30,0,0,0,2.9,20.47Z"/><path class="cls-3" d="M397.69,146.08a30,30,0,0,0,16.44,26.76V119.32A30,30,0,0,0,397.69,146.08Z"/><path class="cls-3" d="M441.73,119.55v53.06a30,30,0,0,0,0-53.06Z"/><path class="cls-4" d="M427.7,116.07a29.87,29.87,0,0,0-13.57,3.25v53.52a30,30,0,0,0,27.6-.23V119.55A29.87,29.87,0,0,0,427.7,116.07Z"/></svg>