<?xml version="1.0" encoding="utf-8"?>
<!-- Generator: Adobe Illustrator 21.0.0, SVG Export Plug-In . SVG Version: 6.00 Build 0)  -->
<svg version="1.1" id="Layer_1" xmlns="http://www.w3.org/2000/svg" xmlns:xlink="http://www.w3.org/1999/xlink" x="0px" y="0px"
	 viewBox="0 0 1920 1692" style="enable-background:new 0 0 1920 1692;" xml:space="preserve">
<style type="text/css">
	.st0{fill:#88CED3;}
</style>
<path class="st0" d="M1246.3,328.1v-79h685.5v-21h-149.4v-229h-18h-169.7h-18v229h-194.1V43h-290.6v185.1H969.3h-19.1H827.7V43
	H537.1v185.1H342.9v-229h-18H155.2h-18v229H-12.2v21h685.5v79h0.3v188.3h-85.9L364.7,377.5c-3.9-30.5-14.1-55.1-30.4-73.7
	c-21.5-24.5-52.1-36.8-91.7-36.8c-38.5,0-68.3,12.3-89.3,36.8c-21,24.5-31.5,59.4-31.5,104.5v103.3H-11.7v6.9v15.2v6.4h131.7v100.8
	c0,45.2,10.8,80,32.3,104.5c21.5,24.5,52.1,36.8,91.7,36.8c38.5,0,68.3-12.3,89.3-36.8c3.9-4.5,7.4-9.4,10.6-14.7v109.4v10.5v109.4
	c-3.2-5.2-6.7-10.1-10.6-14.7c-21-24.5-50.8-36.8-89.3-36.8c-39.6,0-70.1,12.3-91.7,36.8c-21.5,24.5-32.3,59.4-32.3,104.5v100.8
	H-11.7v6.4v15.2v6.9h133.5v103.3c0,45.2,10.5,80,31.5,104.5c21,24.5,50.8,36.8,89.3,36.8c39.6,0,70.1-12.3,91.7-36.8
	c16.4-18.6,26.5-43.2,30.4-73.7l222.9-138.9h85.9v188.3h-0.3v79H-12.2v21h149.4v229h18h169.7h18v-229h194.1v185.1h290.6v-185.1
	h122.5h19.1h122.5v185.1h290.6v-185.1h194.1v229h18h169.7h18v-229h149.4v-21h-685.5v-79h-0.3v-188.3h85.9l222.9,138.9
	c3.9,30.5,14.1,55.1,30.4,73.7c21.5,24.5,52.1,36.8,91.7,36.8c38.5,0,68.3-12.3,89.3-36.8c21-24.5,31.5-59.4,31.5-104.5v-103.3
	h133.5v-6.9v-15.2v-6.4h-131.7v-100.8c0-45.2-10.8-80-32.3-104.5c-21.5-24.5-52.1-36.8-91.7-36.8c-38.5,0-68.3,12.3-89.3,36.8
	c-3.9,4.5-7.4,9.4-10.6,14.7V850.6v-10.5V730.7c3.2,5.2,6.7,10.1,10.6,14.7c21,24.5,50.8,36.8,89.3,36.8c39.6,0,70.1-12.3,91.7-36.8
	c21.5-24.5,32.3-59.4,32.3-104.5V540.1h131.7v-6.4v-15.2v-6.9h-133.5V408.3c0-45.2-10.5-80-31.5-104.5c-21-24.5-50.8-36.8-89.3-36.8
	c-39.6,0-70.1,12.3-91.7,36.8c-16.4,18.6-26.5,43.2-30.4,73.7L1332,516.4H1246V328.1H1246.3z M1594.7,19.6h169.7v130.2h-169.7V19.6z
	 M1594.7,170.3h169.7v57.9h-169.7V170.3z M1363,64v164.1h-117.5V64H1363z M1111.3,64h114.6v164.1h-114.6V64z M1066.6,549.5v-11
	h160.9v144.9h-168.9v156.8v10.5v156.8h168.9v144.9h-160.9v-11c0-71.7-31.6-122.4-96.1-127.4V850.6v-10.5V676.8
	C1035,671.8,1066.6,621.2,1066.6,549.5z M1404.2,840.1v10.5v134.7h-155.5V850.6v-10.5V705.4h155.5V840.1z M1226.7,850.6v134.7
	h-146.5V850.6v-10.5V705.4h146.5v134.7V850.6z M853,1141.3v11H692.1v-144.9H861V850.6v-10.5V683.3H692.1V538.5H853v11
	c0,71.9,31.8,122.6,96.5,127.4v163.3v10.5v163.3C884.7,1018.7,853,1069.4,853,1141.3z M515.4,850.6v-10.5V705.4h155.5v134.7v10.5
	v134.7H515.4V850.6z M692.9,840.1V705.4h146.5v134.7v10.5v134.7H692.9V850.6V840.1z M949.5,657.2c-51-5-75.6-48.1-75.6-113.6v-30.7
	c0-65.5,24.5-108.6,75.6-113.6V657.2z M873.9,1147.2c0-65.5,24.5-108.6,75.6-113.6v258c-51-5-75.6-48.1-75.6-113.6V1147.2z
	 M970.5,1033.6c50.8,5.2,75.1,48.3,75.1,113.6v30.7c0,65.3-24.4,108.4-75.1,113.6V1033.6z M1045.6,543.6
	c0,65.3-24.4,108.4-75.1,113.6V399.3c50.8,5.2,75.1,48.3,75.1,113.6V543.6z M808.2,64v164.1H693.6V64H808.2z M155.2,19.6h169.7
	v130.2H155.2V19.6z M155.2,170.3h169.7v57.9H155.2V170.3z M556.6,228.2V64h117.5v164.1H556.6z M692.1,328.1h0.7v-79h256.7v130.5
	C884.7,384.4,853,435.1,853,507v10.5H722.1v-1.1h-30V328.1z M345,408.9v102.7H175.3l169.6-110C345,404,345,406.4,345,408.9z
	 M343.2,537.9v102.4c0,4.6-0.1,9-0.4,13.3L162.3,537.9H343.2z M365.8,537.9h179.4L365.8,654.3V537.9z M544.1,516.4h-55.1v-0.9H366.5
	V408.3c0-2,0-3.9-0.1-5.8L544.1,516.4z M169,319.6c17.2-21,41.8-31.5,74.1-31.5c32.6,0,57.7,10.5,75.4,31.5
	c12.8,15.2,20.9,35,24.5,59.4L143.3,504.6v-95.7C143.3,370.4,151.9,340.6,169,319.6z M317.4,729.6c-17.2,21-41.8,31.5-74.1,31.5
	c-32.6,0-57.7-10.5-75.4-31.5c-17.7-21-26.5-50.8-26.5-89.3v-88.3l198.8,123.9C336.5,697.7,328.9,715.6,317.4,729.6z M343.2,1050.4
	v102.4H162.3l180.5-115.7C343,1041.4,343.2,1045.9,343.2,1050.4z M345,1179.1v102.7c0,2.5,0,4.9-0.1,7.3l-169.6-110H345z
	 M365.8,1152.8v-116.4l179.4,116.4H365.8z M168,961.1c17.7-21,42.8-31.5,75.4-31.5c32.2,0,56.9,10.5,74.1,31.5
	c11.4,14,19,31.9,22.8,53.7l-198.8,123.9v-88.3C141.5,1011.9,150.3,982.2,168,961.1z M318.5,1371.2c-17.7,21-42.8,31.5-75.4,31.5
	c-32.2,0-56.9-10.5-74.1-31.5c-17.2-21-25.7-50.8-25.7-89.3v-95.7L343,1311.8C339.4,1336.2,331.3,1356,318.5,1371.2z M366.5,1282.4
	v-107.2h122.4v-0.9h55.1l-177.6,113.9C366.5,1286.3,366.5,1284.4,366.5,1282.4z M588.7,1152.8l-222.8-140.2v-162v-10.5v-162
	L588.7,538h84.9v145.4H493.8v156.8v10.5v156.8h179.7v145.4H588.7z M692.1,1174.3h30v-1.1H853v10.5c0,71.9,31.8,122.6,96.5,127.4
	v130.5H692.8v-79h-0.7V1174.3z M324.9,1671.1H155.2v-130.2h169.7V1671.1z M324.9,1520.5H155.2v-57.9h169.7V1520.5z M556.6,1626.7
	v-164.1h117.5v164.1H556.6z M808.2,1626.7H693.6v-164.1h114.6V1626.7z M1111.3,1626.7v-164.1h114.6v164.1H1111.3z M1764.4,1671.1
	h-169.7v-130.2h169.7V1671.1z M1764.4,1520.5h-169.7v-57.9h169.7V1520.5z M1363,1462.6v164.1h-117.5v-164.1H1363z M1227.5,1362.6
	h-0.7v79H970.5v-130.5c64.5-5,96.1-55.6,96.1-127.4v-10.5h130.9v1.1h30V1362.6z M1574.5,1281.9v-102.7h169.7l-169.6,110
	C1574.6,1286.8,1574.5,1284.4,1574.5,1281.9z M1576.4,1152.8v-102.4c0-4.6,0.1-9,0.4-13.3l180.5,115.7H1576.4z M1553.7,1152.8
	h-179.4l179.4-116.4V1152.8z M1375.5,1174.4h55.1v0.9H1553v107.2c0,2,0,3.9,0.1,5.8L1375.5,1174.4z M1750.5,1371.2
	c-17.2,21-41.8,31.5-74.1,31.5c-32.6,0-57.7-10.5-75.4-31.5c-12.8-15.2-20.9-35-24.5-59.4l199.7-125.6v95.7
	C1776.2,1320.4,1767.7,1350.2,1750.5,1371.2z M1602.1,961.1c17.2-21,41.8-31.5,74.1-31.5c32.6,0,57.7,10.5,75.4,31.5
	c17.7,21,26.5,50.8,26.5,89.3v88.3l-198.8-123.9C1583.1,993.1,1590.7,975.1,1602.1,961.1z M1576.4,640.3V537.9h180.8l-180.5,115.7
	C1576.5,649.3,1576.4,644.9,1576.4,640.3z M1574.5,511.6V408.9c0-2.5,0-4.9,0.1-7.3l169.6,110H1574.5z M1553.7,537.9v116.4
	l-179.4-116.4H1553.7z M1751.6,729.6c-17.7,21-42.8,31.5-75.4,31.5c-32.2,0-56.9-10.5-74.1-31.5c-11.4-14-19-31.9-22.8-53.7
	l198.8-123.9v88.3C1778.1,678.8,1769.2,708.6,1751.6,729.6z M1601.1,319.6c17.7-21,42.8-31.5,75.4-31.5c32.2,0,56.9,10.5,74.1,31.5
	c17.2,21,25.7,50.8,25.7,89.3v95.7L1576.6,379C1580.1,354.6,1588.3,334.8,1601.1,319.6z M1553,408.3v107.2h-122.4v0.9h-55.1
	l177.6-113.9C1553,404.4,1553,406.4,1553,408.3z M1330.9,538l222.8,140.2v162v10.5v162l-222.8,140.2H1246v-145.4h179.7V850.6v-10.5
	V683.3H1246V538H1330.9z M1227.5,516.4h-30v1.1h-130.9V507c0-71.7-31.6-122.4-96.1-127.4V249.1h256.3v79h0.7V516.4z"/>
</svg>
