<?xml version="1.0" encoding="utf-8"?>
<!-- Generator: Adobe Illustrator 21.0.0, SVG Export Plug-In . SVG Version: 6.00 Build 0)  -->
<svg version="1.1" id="Layer_1" xmlns="http://www.w3.org/2000/svg" xmlns:xlink="http://www.w3.org/1999/xlink" x="0px" y="0px"
	 viewBox="0 0 720 270" style="enable-background:new 0 0 720 270;" xml:space="preserve">
<style type="text/css">
	.st0{fill:#88CED3;}
</style>
<path class="st0" d="M233-206.3V-221h127v-3.9h-27.7v-42.4H329h-31.4h-3.3v42.4h-36v-34.3h-53.8v34.3h-22.7h-3.5h-22.7v-34.3h-53.8
	v34.3h-36v-42.4h-3.3H30.8h-3.3v42.4H-0.2v3.9h127v14.6h0.1v34.9h-15.9l-41.3-25.7c-0.7-5.7-2.6-10.2-5.6-13.7
	c-4-4.5-9.7-6.8-17-6.8c-7.1,0-12.7,2.3-16.5,6.8s-5.8,11-5.8,19.4v19.1H-0.1v1.3v2.8v1.2h24.4v18.7c0,8.4,2,14.8,6,19.4
	s9.7,6.8,17,6.8c7.1,0,12.7-2.3,16.5-6.8c0.7-0.8,1.4-1.7,2-2.7v20.3v1.9v20.3c-0.6-1-1.2-1.9-2-2.7c-3.9-4.5-9.4-6.8-16.5-6.8
	c-7.3,0-13,2.3-17,6.8c-4,4.5-6,11-6,19.4v18.7H-0.1v1.2v2.8v1.3h24.7v19.1c0,8.4,1.9,14.8,5.8,19.4S39.9-3.3,47-3.3
	c7.3,0,13-2.3,17-6.8c3-3.4,4.9-8,5.6-13.7l41.3-25.7h15.9v34.9h-0.1V0h-127v3.9h27.7v42.4h3.3h31.4h3.3V3.9h36v34.3h53.8V3.9h22.7
	h3.5h22.7v34.3h53.8V3.9h36v42.4h3.3h31.4h3.3V3.9h27.7V0h-127v-14.6h-0.1v-34.9h15.9l41.3,25.7c0.7,5.7,2.6,10.2,5.6,13.7
	c4,4.5,9.7,6.8,17,6.8c7.1,0,12.7-2.3,16.5-6.8s5.8-11,5.8-19.4v-19.1h24.7v-1.3v-2.8v-1.2h-24.4v-18.7c0-8.4-2-14.8-6-19.4
	c-4-4.5-9.7-6.8-17-6.8c-7.1,0-12.7,2.3-16.5,6.8c-0.7,0.8-1.4,1.7-2,2.7v-20.3v-1.9v-20.3c0.6,1,1.2,1.9,2,2.7
	c3.9,4.5,9.4,6.8,16.5,6.8c7.3,0,13-2.3,17-6.8c4-4.5,6-11,6-19.4v-18.7h24.4v-1.2v-2.8v-1.3h-24.7v-19.1c0-8.4-1.9-14.8-5.8-19.4
	s-9.4-6.8-16.5-6.8c-7.3,0-13,2.3-17,6.8c-3,3.4-4.9,8-5.6,13.7l-41.2,25.7h-15.9L233-206.3L233-206.3z M297.5-263.5H329v24.1h-31.4
	V-263.5z M297.5-235.6H329v10.7h-31.4V-235.6z M254.6-255.3v30.4h-21.8v-30.4H254.6z M208-255.3h21.2v30.4H208V-255.3z M199.7-165.3
	v-2h29.8v26.8h-31.3v29.1v1.9v29.1h31.3v26.8h-29.8v-2c0-13.3-5.9-22.7-17.8-23.6v-30.3v-1.9v-30.3
	C193.8-142.7,199.7-152,199.7-165.3z M262.2-111.5v1.9v25h-28.8v-25v-1.9v-25h28.8V-111.5z M229.4-109.5v25h-27.1v-25v-1.9v-25h27.1
	v25V-109.5z M160.1-55.7v2h-29.8v-26.8h31.3v-29.1v-1.9v-29.1h-31.3v-26.8h29.8v2c0,13.3,5.9,22.7,17.9,23.6v30.3v1.9v30.3
	C166-78.4,160.1-69,160.1-55.7z M97.6-109.5v-1.9v-25h28.8v25v1.9v25H97.6V-109.5z M130.4-111.5v-25h27.1v25v1.9v25h-27.1v-25
	V-111.5z M178-145.4c-9.4-0.9-14-8.9-14-21v-5.7c0-12.1,4.5-20.1,14-21V-145.4z M164-54.6c0-12.1,4.5-20.1,14-21v47.8
	c-9.4-0.9-14-8.9-14-21V-54.6z M181.9-75.6c9.4,1,13.9,8.9,13.9,21v5.7c0,12.1-4.5,20.1-13.9,21V-75.6z M195.8-166.4
	c0,12.1-4.5,20.1-13.9,21v-47.8c9.4,1,13.9,8.9,13.9,21V-166.4z M151.8-255.3v30.4h-21.2v-30.4H151.8z M30.8-263.5h31.4v24.1H30.8
	V-263.5z M30.8-235.6h31.4v10.7H30.8V-235.6z M105.2-224.8v-30.4H127v30.4L105.2-224.8L105.2-224.8z M130.3-206.3h0.1V-221H178v24.2
	c-12,0.9-17.9,10.3-17.9,23.6v1.9h-24.3v-0.2h-5.6V-206.3z M66-191.4v19H34.5L66-192.7C66-192.3,66-191.8,66-191.4z M65.6-167.5v19
	c0,0.9,0,1.7-0.1,2.5l-33.4-21.4H65.6z M69.8-167.5h33.2l-33.2,21.6V-167.5z M102.9-171.4H92.7v-0.2H70v-19.9c0-0.4,0-0.7,0-1.1
	L102.9-171.4z M33.4-207.9c3.2-3.9,7.7-5.8,13.7-5.8c6,0,10.7,1.9,14,5.8c2.4,2.8,3.9,6.5,4.5,11l-37,23.3v-17.7
	C28.6-198.5,30.2-204,33.4-207.9z M60.9-131.9c-3.2,3.9-7.7,5.8-13.7,5.8c-6,0-10.7-1.9-14-5.8c-3.3-3.9-4.9-9.4-4.9-16.5v-16.4
	l36.8,23C64.4-137.9,63-134.5,60.9-131.9z M65.6-72.5v19H32.1L65.6-75C65.6-74.2,65.6-73.3,65.6-72.5z M66-48.7v19
	c0,0.5,0,0.9,0,1.4L34.5-48.7H66z M69.8-53.5v-21.6l33.2,21.6H69.8z M33.2-89c3.3-3.9,7.9-5.8,14-5.8c6,0,10.5,1.9,13.7,5.8
	c2.1,2.6,3.5,5.9,4.2,10l-36.8,23v-16.4C28.3-79.6,29.9-85.1,33.2-89z M61.1-13.1c-3.3,3.9-7.9,5.8-14,5.8c-6,0-10.5-1.9-13.7-5.8
	c-3.2-3.9-4.8-9.4-4.8-16.5v-17.7l37,23.3C64.9-19.5,63.4-15.9,61.1-13.1z M70-29.5v-19.9h22.7v-0.2h10.2L69.9-28.4
	C70-28.8,70-29.1,70-29.5z M111.1-53.5l-41.3-26v-30v-1.9v-30l41.3-26h15.7v26.9H93.5v29.1v1.9v29.1h33.3v26.9L111.1-53.5
	L111.1-53.5z M130.3-49.5h5.6v-0.2h24.3v1.9c0,13.3,5.9,22.7,17.9,23.6V0h-47.6v-14.6h-0.1V-49.5z M62.3,42.5H30.8V18.4h31.4V42.5z
	 M62.3,14.6H30.8V3.9h31.4V14.6z M105.2,34.3V3.9H127v30.4H105.2z M151.8,34.3h-21.2V3.9h21.2V34.3L151.8,34.3z M208,34.3V3.9h21.2
	v30.4H208z M329,42.5h-31.4V18.4H329V42.5z M329,14.6h-31.4V3.9H329V14.6z M254.6,3.9v30.4h-21.8V3.9H254.6z M229.5-14.7h-0.1V0
	h-47.5v-24.2c12-0.9,17.8-10.3,17.8-23.6v-1.9h24.3v0.2h5.6V-14.7z M293.8-29.6v-19h31.4l-31.4,20.4
	C293.8-28.7,293.8-29.1,293.8-29.6z M294.1-53.5v-19c0-0.9,0-1.7,0.1-2.5l33.4,21.4L294.1-53.5L294.1-53.5z M289.9-53.5h-33.2
	l33.2-21.6V-53.5z M256.9-49.5h10.2v0.2h22.7v19.9c0,0.4,0,0.7,0,1.1L256.9-49.5z M326.4-13.1c-3.2,3.9-7.7,5.8-13.7,5.8
	c-6,0-10.7-1.9-14-5.8c-2.4-2.8-3.9-6.5-4.5-11l37-23.3v17.7C331.2-22.5,329.6-16.9,326.4-13.1z M298.9-89c3.2-3.9,7.7-5.8,13.7-5.8
	c6,0,10.7,1.9,14,5.8c3.3,3.9,4.9,9.4,4.9,16.5v16.4l-36.8-23C295.4-83.1,296.8-86.5,298.9-89z M294.1-148.5v-19h33.5L294.2-146
	C294.2-146.8,294.1-147.6,294.1-148.5z M293.8-172.3v-19c0-0.5,0-0.9,0-1.4l31.4,20.4H293.8z M289.9-167.5v21.6l-33.2-21.6H289.9z
	 M326.6-131.9c-3.3,3.9-7.9,5.8-14,5.8c-6,0-10.5-1.9-13.7-5.8c-2.1-2.6-3.5-5.9-4.2-10l36.8-23v16.4
	C331.5-141.4,329.9-135.8,326.6-131.9z M298.7-207.9c3.3-3.9,7.9-5.8,14-5.8c6,0,10.5,1.9,13.7,5.8c3.2,3.9,4.8,9.4,4.8,16.5v17.7
	l-37-23.3C294.8-201.4,296.4-205.1,298.7-207.9z M289.8-191.5v19.9h-22.7v0.2h-10.2l32.9-21.1C289.8-192.2,289.8-191.8,289.8-191.5z
	 M248.7-167.4l41.3,26v30v1.9v30l-41.3,26h-15.7v-26.9h33.3v-29.1v-1.9v-29.1h-33.3v-26.9H248.7z M229.5-171.4h-5.6v0.2h-24.3v-1.9
	c0-13.3-5.9-22.7-17.8-23.6V-221h47.5v14.6h0.1V-171.4z"/>
<path class="st0" d="M233,63.4V48.8h127v-3.9h-27.7V2.5H329h-31.4h-3.3v42.4h-36V10.6h-53.8v34.3h-22.7h-3.5h-22.7V10.6h-53.8v34.3
	h-36V2.5h-3.3H30.8h-3.3v42.4H-0.2v3.9h127v14.6h0.1v34.9h-15.9L69.6,72.6C68.9,66.9,67,62.4,64,58.9c-4-4.5-9.7-6.8-17-6.8
	c-7.1,0-12.7,2.3-16.5,6.8s-5.8,11-5.8,19.4v19.1H-0.1v1.3v2.8v1.2h24.4v18.7c0,8.4,2,14.8,6,19.4s9.7,6.8,17,6.8
	c7.1,0,12.7-2.3,16.5-6.8c0.7-0.8,1.4-1.7,2-2.7v20.3v1.9v20.3c-0.6-1-1.2-1.9-2-2.7c-3.9-4.5-9.4-6.8-16.5-6.8
	c-7.3,0-13,2.3-17,6.8c-4,4.5-6,11-6,19.4v18.7H-0.1v1.2v2.8v1.3h24.7v19.1c0,8.4,1.9,14.8,5.8,19.4c3.9,4.5,9.4,6.8,16.5,6.8
	c7.3,0,13-2.3,17-6.8c3-3.4,4.9-8,5.6-13.7l41.3-25.7h15.9v34.9h-0.1v14.6h-127v3.9h27.7v42.4h3.3h31.4h3.3v-42.4h36v34.3h53.8
	v-34.3h22.7h3.5h22.7v34.3h53.8v-34.3h36v42.4h3.3h31.4h3.3v-42.4h27.7v-3.9h-127v-14.6h-0.1v-34.9h15.9l41.3,25.7
	c0.7,5.7,2.6,10.2,5.6,13.7c4,4.5,9.7,6.8,17,6.8c7.1,0,12.7-2.3,16.5-6.8c3.9-4.5,5.8-11,5.8-19.4v-19.1h24.7v-1.3V217v-1.2h-24.4
	v-18.7c0-8.4-2-14.8-6-19.4s-9.7-6.8-17-6.8c-7.1,0-12.7,2.3-16.5,6.8c-0.7,0.8-1.4,1.7-2,2.7v-20.3v-1.9V138c0.6,1,1.2,1.9,2,2.7
	c3.9,4.5,9.4,6.8,16.5,6.8c7.3,0,13-2.3,17-6.8c4-4.5,6-11,6-19.4v-18.7h24.4v-1.2v-2.8v-1.3h-24.7V78.3c0-8.4-1.9-14.8-5.8-19.4
	s-9.4-6.8-16.5-6.8c-7.3,0-13,2.3-17,6.8c-3,3.4-4.9,8-5.6,13.7l-41.2,25.7h-15.9L233,63.4L233,63.4z M297.5,6.3H329v24.1h-31.4V6.3
	z M297.5,34.2H329v10.7h-31.4V34.2z M254.6,14.5v30.4h-21.8V14.5H254.6z M208,14.5h21.2v30.4H208V14.5z M199.7,104.4v-2h29.8v26.8
	h-31.3v29.1v1.9v29.1h31.3v26.8h-29.8v-2c0-13.3-5.9-22.7-17.8-23.6v-30.3v-1.9V128C193.8,127.1,199.7,117.7,199.7,104.4z
	 M262.2,158.3v1.9v25h-28.8v-25v-1.9v-25h28.8V158.3z M229.4,160.2v25h-27.1v-25v-1.9v-25h27.1v25V160.2z M160.1,214.1v2h-29.8
	v-26.8h31.3v-29.1v-1.9v-29.1h-31.3v-26.8h29.8v2c0,13.3,5.9,22.7,17.9,23.6v30.3v1.9v30.3C166,191.4,160.1,200.8,160.1,214.1z
	 M97.6,160.2v-1.9v-25h28.8v25v1.9v25H97.6V160.2z M130.4,158.3v-25h27.1v25v1.9v25h-27.1v-25V158.3z M178,124.4
	c-9.4-0.9-14-8.9-14-21v-5.7c0-12.1,4.5-20.1,14-21V124.4z M164,215.2c0-12.1,4.5-20.1,14-21v47.8c-9.4-0.9-14-8.9-14-21V215.2z
	 M181.9,194.1c9.4,1,13.9,8.9,13.9,21v5.7c0,12.1-4.5,20.1-13.9,21V194.1z M195.8,103.3c0,12.1-4.5,20.1-13.9,21V76.6
	c9.4,1,13.9,8.9,13.9,21V103.3z M151.8,14.5v30.4h-21.2V14.5H151.8z M30.8,6.3h31.4v24.1H30.8V6.3z M30.8,34.2h31.4v10.7H30.8V34.2z
	 M105.2,44.9V14.5H127v30.4L105.2,44.9L105.2,44.9z M130.3,63.4h0.1V48.8H178V73c-12,0.9-17.9,10.3-17.9,23.6v1.9h-24.3v-0.2h-5.6
	V63.4z M66,78.4v19H34.5L66,77C66,77.5,66,77.9,66,78.4z M65.6,102.3v19c0,0.9,0,1.7-0.1,2.5l-33.4-21.4H65.6z M69.8,102.3h33.2
	l-33.2,21.6V102.3z M102.9,98.3H92.7v-0.2H70V78.3c0-0.4,0-0.7,0-1.1L102.9,98.3z M33.4,61.8C36.6,58,41.1,56,47.1,56
	c6,0,10.7,1.9,14,5.8c2.4,2.8,3.9,6.5,4.5,11l-37,23.3V78.4C28.6,71.3,30.2,65.7,33.4,61.8z M60.9,137.8c-3.2,3.9-7.7,5.8-13.7,5.8
	c-6,0-10.7-1.9-14-5.8c-3.3-3.9-4.9-9.4-4.9-16.5v-16.4l36.8,23C64.4,131.9,63,135.2,60.9,137.8z M65.6,197.3v19H32.1l33.4-21.4
	C65.6,195.6,65.6,196.4,65.6,197.3z M66,221.1v19c0,0.5,0,0.9,0,1.4l-31.4-20.4H66z M69.8,216.2v-21.6l33.2,21.6H69.8z M33.2,180.7
	c3.3-3.9,7.9-5.8,14-5.8c6,0,10.5,1.9,13.7,5.8c2.1,2.6,3.5,5.9,4.2,10l-36.8,23v-16.4C28.3,190.1,29.9,184.6,33.2,180.7z
	 M61.1,256.7c-3.3,3.9-7.9,5.8-14,5.8c-6,0-10.5-1.9-13.7-5.8c-3.2-3.9-4.8-9.4-4.8-16.5v-17.7l37,23.3
	C64.9,250.2,63.4,253.9,61.1,256.7z M70,240.2v-19.9h22.7v-0.2h10.2l-32.9,21.1C70,241,70,240.6,70,240.2z M111.1,216.2l-41.3-26
	v-30v-1.9v-30l41.3-26h15.7v26.9H93.5v29.1v1.9v29.1h33.3v26.9L111.1,216.2L111.1,216.2z M130.3,220.2h5.6V220h24.3v1.9
	c0,13.3,5.9,22.7,17.9,23.6v24.2h-47.6v-14.6h-0.1V220.2z M62.3,312.3H30.8v-24.1h31.4V312.3z M62.3,284.4H30.8v-10.7h31.4V284.4z
	 M105.2,304v-30.4H127V304H105.2z M151.8,304h-21.2v-30.4h21.2V304L151.8,304z M208,304v-30.4h21.2V304H208z M329,312.3h-31.4v-24.1
	H329V312.3z M329,284.4h-31.4v-10.7H329V284.4z M254.6,273.6V304h-21.8v-30.4H254.6z M229.5,255.1h-0.1v14.6h-47.5v-24.2
	c12-0.9,17.8-10.3,17.8-23.6V220h24.3v0.2h5.6V255.1z M293.8,240.2v-19h31.4l-31.4,20.4C293.8,241.1,293.8,240.6,293.8,240.2z
	 M294.1,216.2v-19c0-0.9,0-1.7,0.1-2.5l33.4,21.4L294.1,216.2L294.1,216.2z M289.9,216.2h-33.2l33.2-21.6V216.2z M256.9,220.2h10.2
	v0.2h22.7v19.9c0,0.4,0,0.7,0,1.1L256.9,220.2z M326.4,256.7c-3.2,3.9-7.7,5.8-13.7,5.8c-6,0-10.7-1.9-14-5.8
	c-2.4-2.8-3.9-6.5-4.5-11l37-23.3v17.7C331.2,247.3,329.6,252.8,326.4,256.7z M298.9,180.7c3.2-3.9,7.7-5.8,13.7-5.8
	c6,0,10.7,1.9,14,5.8c3.3,3.9,4.9,9.4,4.9,16.5v16.4l-36.8-23C295.4,186.6,296.8,183.3,298.9,180.7z M294.1,121.3v-19h33.5
	l-33.4,21.4C294.2,122.9,294.1,122.1,294.1,121.3z M293.8,97.4v-19c0-0.5,0-0.9,0-1.4l31.4,20.4H293.8z M289.9,102.3v21.6
	l-33.2-21.6H289.9z M326.6,137.8c-3.3,3.9-7.9,5.8-14,5.8c-6,0-10.5-1.9-13.7-5.8c-2.1-2.6-3.5-5.9-4.2-10l36.8-23v16.4
	C331.5,128.4,329.9,133.9,326.6,137.8z M298.7,61.8c3.3-3.9,7.9-5.8,14-5.8c6,0,10.5,1.9,13.7,5.8c3.2,3.9,4.8,9.4,4.8,16.5v17.7
	l-37-23.3C294.8,68.3,296.4,64.7,298.7,61.8z M289.8,78.3v19.9h-22.7v0.2h-10.2l32.9-21.1C289.8,77.6,289.8,77.9,289.8,78.3z
	 M248.7,102.3l41.3,26v30v1.9v30l-41.3,26h-15.7v-26.9h33.3v-29.1v-1.9v-29.1h-33.3v-26.9H248.7z M229.5,98.3h-5.6v0.2h-24.3v-1.9
	c0-13.3-5.9-22.7-17.8-23.6V48.8h47.5v14.6h0.1V98.3z"/>
<path class="st0" d="M593.2-206.3V-221h127v-3.9h-27.7v-42.4h-3.3h-31.4h-3.3v42.4h-36v-34.3h-53.8v34.3h-22.7h-3.5h-22.7v-34.3
	h-53.8v34.3h-36v-42.4h-3.3H391h-3.3v42.4H360v3.9h127v14.6h0.1v34.9h-15.9l-41.3-25.7c-0.7-5.7-2.6-10.2-5.6-13.7
	c-4-4.5-9.7-6.8-17-6.8c-7.1,0-12.7,2.3-16.5,6.8c-3.9,4.5-5.8,11-5.8,19.4v19.1h-24.7v1.3v2.8v1.2h24.4v18.7c0,8.4,2,14.8,6,19.4
	s9.7,6.8,17,6.8c7.1,0,12.7-2.3,16.5-6.8c0.7-0.8,1.4-1.7,2-2.7v20.3v1.9v20.3c-0.6-1-1.2-1.9-2-2.7c-3.9-4.5-9.4-6.8-16.5-6.8
	c-7.3,0-13,2.3-17,6.8c-4,4.5-6,11-6,19.4v18.7h-24.4v1.2v2.8v1.3h24.7v19.1c0,8.4,1.9,14.8,5.8,19.4s9.4,6.8,16.5,6.8
	c7.3,0,13-2.3,17-6.8c3-3.4,4.9-8,5.6-13.7l41.3-25.7h15.9v34.9H487V0H360v3.9h27.7v42.4h3.3h31.4h3.3V3.9h36v34.3h53.8V3.9h22.7
	h3.5h22.7v34.3h53.8V3.9h36v42.4h3.3h31.4h3.3V3.9h27.7V0h-127v-14.6h-0.1v-34.9H609l41.3,25.7c0.7,5.7,2.6,10.2,5.6,13.7
	c4,4.5,9.7,6.8,17,6.8c7.1,0,12.7-2.3,16.5-6.8c3.9-4.5,5.8-11,5.8-19.4v-19.1H720v-1.3v-2.8v-1.2h-24.4v-18.7c0-8.4-2-14.8-6-19.4
	c-4-4.5-9.7-6.8-17-6.8c-7.1,0-12.7,2.3-16.5,6.8c-0.7,0.8-1.4,1.7-2,2.7v-20.3v-1.9v-20.3c0.6,1,1.2,1.9,2,2.7
	c3.9,4.5,9.4,6.8,16.5,6.8c7.3,0,13-2.3,17-6.8c4-4.5,6-11,6-19.4v-18.7H720v-1.2v-2.8v-1.3h-24.7v-19.1c0-8.4-1.9-14.8-5.8-19.4
	c-3.9-4.5-9.4-6.8-16.5-6.8c-7.3,0-13,2.3-17,6.8c-3,3.4-4.9,8-5.6,13.7l-41.2,25.7h-15.9L593.2-206.3L593.2-206.3z M657.7-263.5
	h31.4v24.1h-31.4V-263.5z M657.7-235.6h31.4v10.7h-31.4V-235.6z M614.8-255.3v30.4H593v-30.4H614.8z M568.2-255.3h21.2v30.4h-21.2
	V-255.3z M559.9-165.3v-2h29.8v26.8h-31.3v29.1v1.9v29.1h31.3v26.8h-29.8v-2c0-13.3-5.9-22.7-17.8-23.6v-30.3v-1.9v-30.3
	C554-142.7,559.9-152,559.9-165.3z M622.4-111.5v1.9v25h-28.8v-25v-1.9v-25h28.8V-111.5z M589.6-109.5v25h-27.1v-25v-1.9v-25h27.1
	v25V-109.5z M520.3-55.7v2h-29.8v-26.8h31.3v-29.1v-1.9v-29.1h-31.3v-26.8h29.8v2c0,13.3,5.9,22.7,17.9,23.6v30.3v1.9v30.3
	C526.2-78.4,520.3-69,520.3-55.7z M457.8-109.5v-1.9v-25h28.8v25v1.9v25h-28.8V-109.5z M490.6-111.5v-25h27.1v25v1.9v25h-27.1v-25
	V-111.5z M538.2-145.4c-9.4-0.9-14-8.9-14-21v-5.7c0-12.1,4.5-20.1,14-21V-145.4z M524.2-54.6c0-12.1,4.5-20.1,14-21v47.8
	c-9.4-0.9-14-8.9-14-21V-54.6z M542.1-75.6c9.4,1,13.9,8.9,13.9,21v5.7c0,12.1-4.5,20.1-13.9,21V-75.6z M556-166.4
	c0,12.1-4.5,20.1-13.9,21v-47.8c9.4,1,13.9,8.9,13.9,21V-166.4z M512-255.3v30.4h-21.2v-30.4H512z M391-263.5h31.4v24.1H391V-263.5z
	 M391-235.6h31.4v10.7H391V-235.6z M465.4-224.8v-30.4h21.8v30.4L465.4-224.8L465.4-224.8z M490.5-206.3h0.1V-221h47.6v24.2
	c-12,0.9-17.9,10.3-17.9,23.6v1.9h-24.3v-0.2h-5.6V-206.3z M426.2-191.4v19h-31.4l31.4-20.4C426.2-192.3,426.2-191.8,426.2-191.4z
	 M425.9-167.5v19c0,0.9,0,1.7-0.1,2.5l-33.4-21.4H425.9z M430-167.5h33.2L430-145.9V-167.5z M463.1-171.4h-10.2v-0.2h-22.7v-19.9
	c0-0.4,0-0.7,0-1.1L463.1-171.4z M393.6-207.9c3.2-3.9,7.7-5.8,13.7-5.8c6,0,10.7,1.9,14,5.8c2.4,2.8,3.9,6.5,4.5,11l-37,23.3v-17.7
	C388.8-198.5,390.4-204,393.6-207.9z M421.1-131.9c-3.2,3.9-7.7,5.8-13.7,5.8c-6,0-10.7-1.9-14-5.8c-3.3-3.9-4.9-9.4-4.9-16.5v-16.4
	l36.8,23C424.6-137.9,423.2-134.5,421.1-131.9z M425.9-72.5v19h-33.5L425.8-75C425.8-74.2,425.9-73.3,425.9-72.5z M426.2-48.7v19
	c0,0.5,0,0.9,0,1.4l-31.4-20.4H426.2z M430-53.5v-21.6l33.2,21.6H430z M393.4-89c3.3-3.9,7.9-5.8,14-5.8c6,0,10.5,1.9,13.7,5.8
	c2.1,2.6,3.5,5.9,4.2,10l-36.8,23v-16.4C388.5-79.6,390.1-85.1,393.4-89z M421.3-13.1c-3.3,3.9-7.9,5.8-14,5.8
	c-6,0-10.5-1.9-13.7-5.8c-3.2-3.9-4.8-9.4-4.8-16.5v-17.7l37,23.3C425.1-19.5,423.6-15.9,421.3-13.1z M430.2-29.5v-19.9h22.7v-0.2
	h10.2l-32.9,21.1C430.2-28.8,430.2-29.1,430.2-29.5z M471.3-53.5l-41.3-26v-30v-1.9v-30l41.3-26h15.7v26.9h-33.3v29.1v1.9v29.1h33.3
	v26.9L471.3-53.5L471.3-53.5z M490.5-49.5h5.6v-0.2h24.3v1.9c0,13.3,5.9,22.7,17.9,23.6V0h-47.6v-14.6h-0.1V-49.5z M422.5,42.5H391
	V18.4h31.4V42.5z M422.5,14.6H391V3.9h31.4V14.6z M465.4,34.3V3.9h21.8v30.4H465.4z M512,34.3h-21.2V3.9H512V34.3L512,34.3z
	 M568.2,34.3V3.9h21.2v30.4H568.2z M689.2,42.5h-31.4V18.4h31.4V42.5z M689.2,14.6h-31.4V3.9h31.4V14.6z M614.8,3.9v30.4H593V3.9
	H614.8z M589.7-14.7h-0.1V0h-47.5v-24.2c12-0.9,17.8-10.3,17.8-23.6v-1.9h24.3v0.2h5.6V-14.7z M654-29.6v-19h31.4L654-28.3
	C654-28.7,654-29.1,654-29.6z M654.4-53.5v-19c0-0.9,0-1.7,0.1-2.5l33.4,21.4L654.4-53.5L654.4-53.5z M650.2-53.5h-33.2l33.2-21.6
	V-53.5z M617.1-49.5h10.2v0.2H650v19.9c0,0.4,0,0.7,0,1.1L617.1-49.5z M686.6-13.1c-3.2,3.9-7.7,5.8-13.7,5.8c-6,0-10.7-1.9-14-5.8
	c-2.4-2.8-3.9-6.5-4.5-11l37-23.3v17.7C691.4-22.5,689.8-16.9,686.6-13.1z M659.1-89c3.2-3.9,7.7-5.8,13.7-5.8c6,0,10.7,1.9,14,5.8
	c3.3,3.9,4.9,9.4,4.9,16.5v16.4l-36.8-23C655.6-83.1,657-86.5,659.1-89z M654.4-148.5v-19h33.5L654.4-146
	C654.4-146.8,654.4-147.6,654.4-148.5z M654-172.3v-19c0-0.5,0-0.9,0-1.4l31.4,20.4H654z M650.2-167.5v21.6l-33.2-21.6H650.2z
	 M686.8-131.9c-3.3,3.9-7.9,5.8-14,5.8c-6,0-10.5-1.9-13.7-5.8c-2.1-2.6-3.5-5.9-4.2-10l36.8-23v16.4
	C691.7-141.4,690.1-135.8,686.8-131.9z M658.9-207.9c3.3-3.9,7.9-5.8,14-5.8c6,0,10.5,1.9,13.7,5.8c3.2,3.9,4.8,9.4,4.8,16.5v17.7
	l-37-23.3C655-201.4,656.6-205.1,658.9-207.9z M650-191.5v19.9h-22.7v0.2h-10.2l32.9-21.1C650-192.2,650-191.8,650-191.5z
	 M608.9-167.4l41.3,26v30v1.9v30l-41.3,26h-15.7v-26.9h33.3v-29.1v-1.9v-29.1h-33.3v-26.9H608.9z M589.7-171.4h-5.6v0.2h-24.3v-1.9
	c0-13.3-5.9-22.7-17.8-23.6V-221h47.5v14.6h0.1V-171.4z"/>
<path class="st0" d="M593.2,63.4V48.8h127v-3.9h-27.7V2.5h-3.3h-31.4h-3.3v42.4h-36V10.6h-53.8v34.3h-22.7h-3.5h-22.7V10.6h-53.8
	v34.3h-36V2.5h-3.3H391h-3.3v42.4H360v3.9h127v14.6h0.1v34.9h-15.9l-41.3-25.7c-0.7-5.7-2.6-10.2-5.6-13.7c-4-4.5-9.7-6.8-17-6.8
	c-7.1,0-12.7,2.3-16.5,6.8c-3.9,4.5-5.8,11-5.8,19.4v19.1h-24.7v1.3v2.8v1.2h24.4v18.7c0,8.4,2,14.8,6,19.4s9.7,6.8,17,6.8
	c7.1,0,12.7-2.3,16.5-6.8c0.7-0.8,1.4-1.7,2-2.7v20.3v1.9v20.3c-0.6-1-1.2-1.9-2-2.7c-3.9-4.5-9.4-6.8-16.5-6.8
	c-7.3,0-13,2.3-17,6.8c-4,4.5-6,11-6,19.4v18.7h-24.4v1.2v2.8v1.3h24.7v19.1c0,8.4,1.9,14.8,5.8,19.4c3.9,4.5,9.4,6.8,16.5,6.8
	c7.3,0,13-2.3,17-6.8c3-3.4,4.9-8,5.6-13.7l41.3-25.7h15.9v34.9H487v14.6H360v3.9h27.7v42.4h3.3h31.4h3.3v-42.4h36v34.3h53.8v-34.3
	h22.7h3.5h22.7v34.3h53.8v-34.3h36v42.4h3.3h31.4h3.3v-42.4h27.7v-3.9h-127v-14.6h-0.1v-34.9H609l41.3,25.7
	c0.7,5.7,2.6,10.2,5.6,13.7c4,4.5,9.7,6.8,17,6.8c7.1,0,12.7-2.3,16.5-6.8c3.9-4.5,5.8-11,5.8-19.4v-19.1H720v-1.3V217v-1.2h-24.4
	v-18.7c0-8.4-2-14.8-6-19.4c-4-4.5-9.7-6.8-17-6.8c-7.1,0-12.7,2.3-16.5,6.8c-0.7,0.8-1.4,1.7-2,2.7v-20.3v-1.9V138
	c0.6,1,1.2,1.9,2,2.7c3.9,4.5,9.4,6.8,16.5,6.8c7.3,0,13-2.3,17-6.8c4-4.5,6-11,6-19.4v-18.7H720v-1.2v-2.8v-1.3h-24.7V78.3
	c0-8.4-1.9-14.8-5.8-19.4c-3.9-4.5-9.4-6.8-16.5-6.8c-7.3,0-13,2.3-17,6.8c-3,3.4-4.9,8-5.6,13.7l-41.2,25.7h-15.9L593.2,63.4
	L593.2,63.4z M657.7,6.3h31.4v24.1h-31.4V6.3z M657.7,34.2h31.4v10.7h-31.4V34.2z M614.8,14.5v30.4H593V14.5H614.8z M568.2,14.5
	h21.2v30.4h-21.2V14.5z M559.9,104.4v-2h29.8v26.8h-31.3v29.1v1.9v29.1h31.3v26.8h-29.8v-2c0-13.3-5.9-22.7-17.8-23.6v-30.3v-1.9
	V128C554,127.1,559.9,117.7,559.9,104.4z M622.4,158.3v1.9v25h-28.8v-25v-1.9v-25h28.8V158.3z M589.6,160.2v25h-27.1v-25v-1.9v-25
	h27.1v25V160.2z M520.3,214.1v2h-29.8v-26.8h31.3v-29.1v-1.9v-29.1h-31.3v-26.8h29.8v2c0,13.3,5.9,22.7,17.9,23.6v30.3v1.9v30.3
	C526.2,191.4,520.3,200.8,520.3,214.1z M457.8,160.2v-1.9v-25h28.8v25v1.9v25h-28.8V160.2z M490.6,158.3v-25h27.1v25v1.9v25h-27.1
	v-25V158.3z M538.2,124.4c-9.4-0.9-14-8.9-14-21v-5.7c0-12.1,4.5-20.1,14-21V124.4z M524.2,215.2c0-12.1,4.5-20.1,14-21v47.8
	c-9.4-0.9-14-8.9-14-21V215.2z M542.1,194.1c9.4,1,13.9,8.9,13.9,21v5.7c0,12.1-4.5,20.1-13.9,21V194.1z M556,103.3
	c0,12.1-4.5,20.1-13.9,21V76.6c9.4,1,13.9,8.9,13.9,21V103.3z M512,14.5v30.4h-21.2V14.5H512z M391,6.3h31.4v24.1H391V6.3z
	 M391,34.2h31.4v10.7H391V34.2z M465.4,44.9V14.5h21.8v30.4L465.4,44.9L465.4,44.9z M490.5,63.4h0.1V48.8h47.6V73
	c-12,0.9-17.9,10.3-17.9,23.6v1.9h-24.3v-0.2h-5.6V63.4z M426.2,78.4v19h-31.4L426.2,77C426.2,77.5,426.2,77.9,426.2,78.4z
	 M425.9,102.3v19c0,0.9,0,1.7-0.1,2.5l-33.4-21.4H425.9z M430,102.3h33.2L430,123.9V102.3z M463.1,98.3h-10.2v-0.2h-22.7V78.3
	c0-0.4,0-0.7,0-1.1L463.1,98.3z M393.6,61.8c3.2-3.9,7.7-5.8,13.7-5.8c6,0,10.7,1.9,14,5.8c2.4,2.8,3.9,6.5,4.5,11l-37,23.3V78.4
	C388.8,71.3,390.4,65.7,393.6,61.8z M421.1,137.8c-3.2,3.9-7.7,5.8-13.7,5.8c-6,0-10.7-1.9-14-5.8c-3.3-3.9-4.9-9.4-4.9-16.5v-16.4
	l36.8,23C424.6,131.9,423.2,135.2,421.1,137.8z M425.9,197.3v19h-33.5l33.4-21.4C425.8,195.6,425.9,196.4,425.9,197.3z M426.2,221.1
	v19c0,0.5,0,0.9,0,1.4l-31.4-20.4H426.2z M430,216.2v-21.6l33.2,21.6H430z M393.4,180.7c3.3-3.9,7.9-5.8,14-5.8
	c6,0,10.5,1.9,13.7,5.8c2.1,2.6,3.5,5.9,4.2,10l-36.8,23v-16.4C388.5,190.1,390.1,184.6,393.4,180.7z M421.3,256.7
	c-3.3,3.9-7.9,5.8-14,5.8c-6,0-10.5-1.9-13.7-5.8c-3.2-3.9-4.8-9.4-4.8-16.5v-17.7l37,23.3C425.1,250.2,423.6,253.9,421.3,256.7z
	 M430.2,240.2v-19.9h22.7v-0.2h10.2l-32.9,21.1C430.2,241,430.2,240.6,430.2,240.2z M471.3,216.2l-41.3-26v-30v-1.9v-30l41.3-26
	h15.7v26.9h-33.3v29.1v1.9v29.1h33.3v26.9L471.3,216.2L471.3,216.2z M490.5,220.2h5.6V220h24.3v1.9c0,13.3,5.9,22.7,17.9,23.6v24.2
	h-47.6v-14.6h-0.1V220.2z M422.5,312.3H391v-24.1h31.4V312.3z M422.5,284.4H391v-10.7h31.4V284.4z M465.4,304v-30.4h21.8V304H465.4z
	 M512,304h-21.2v-30.4H512V304L512,304z M568.2,304v-30.4h21.2V304H568.2z M689.2,312.3h-31.4v-24.1h31.4V312.3z M689.2,284.4h-31.4
	v-10.7h31.4V284.4z M614.8,273.6V304H593v-30.4H614.8z M589.7,255.1h-0.1v14.6h-47.5v-24.2c12-0.9,17.8-10.3,17.8-23.6V220h24.3v0.2
	h5.6V255.1z M654,240.2v-19h31.4L654,241.5C654,241.1,654,240.6,654,240.2z M654.4,216.2v-19c0-0.9,0-1.7,0.1-2.5l33.4,21.4
	L654.4,216.2L654.4,216.2z M650.2,216.2h-33.2l33.2-21.6V216.2z M617.1,220.2h10.2v0.2H650v19.9c0,0.4,0,0.7,0,1.1L617.1,220.2z
	 M686.6,256.7c-3.2,3.9-7.7,5.8-13.7,5.8c-6,0-10.7-1.9-14-5.8c-2.4-2.8-3.9-6.5-4.5-11l37-23.3v17.7
	C691.4,247.3,689.8,252.8,686.6,256.7z M659.1,180.7c3.2-3.9,7.7-5.8,13.7-5.8c6,0,10.7,1.9,14,5.8c3.3,3.9,4.9,9.4,4.9,16.5v16.4
	l-36.8-23C655.6,186.6,657,183.3,659.1,180.7z M654.4,121.3v-19h33.5l-33.4,21.4C654.4,122.9,654.4,122.1,654.4,121.3z M654,97.4
	v-19c0-0.5,0-0.9,0-1.4l31.4,20.4H654z M650.2,102.3v21.6l-33.2-21.6H650.2z M686.8,137.8c-3.3,3.9-7.9,5.8-14,5.8
	c-6,0-10.5-1.9-13.7-5.8c-2.1-2.6-3.5-5.9-4.2-10l36.8-23v16.4C691.7,128.4,690.1,133.9,686.8,137.8z M658.9,61.8
	c3.3-3.9,7.9-5.8,14-5.8c6,0,10.5,1.9,13.7,5.8c3.2,3.9,4.8,9.4,4.8,16.5v17.7l-37-23.3C655,68.3,656.6,64.7,658.9,61.8z M650,78.3
	v19.9h-22.7v0.2h-10.2L650,77.2C650,77.6,650,77.9,650,78.3z M608.9,102.3l41.3,26v30v1.9v30l-41.3,26h-15.7v-26.9h33.3v-29.1v-1.9
	v-29.1h-33.3v-26.9H608.9z M589.7,98.3h-5.6v0.2h-24.3v-1.9c0-13.3-5.9-22.7-17.8-23.6V48.8h47.5v14.6h0.1V98.3z"/>
</svg>
