<?xml version="1.0" encoding="utf-8"?>
<!-- Generator: Adobe Illustrator 21.0.0, SVG Export Plug-In . SVG Version: 6.00 Build 0)  -->
<svg version="1.1" id="Layer_1" xmlns="http://www.w3.org/2000/svg" xmlns:xlink="http://www.w3.org/1999/xlink" x="0px" y="0px"
	 viewBox="0 0 159.4 13" style="enable-background:new 0 0 159.4 13;" xml:space="preserve">
<style type="text/css">
	.st0{fill:none;}
	.st1{fill:#FFCE00;}
	.st2{fill:#FCDFEB;}
	.st3{fill:#FFFFFF;}
</style>
<g>
	<g>
		<rect x="152.6" y="7.6" class="st0" width="0" height="2.4"/>
		<rect x="152.6" y="2.6" class="st0" width="0" height="2.3"/>
		<rect x="111.2" y="2.7" class="st1" width="3.3" height="9.9"/>
		<polygon class="st2" points="118.2,2.7 118.2,0 107.4,0 107.4,2.7 111.2,2.7 114.4,2.7 		"/>
		<polygon class="st1" points="127.9,8.6 127.9,8.5 132.5,0 129.2,0 126.3,5.4 126.2,5.3 126.2,8.6 		"/>
		<polygon class="st2" points="124.6,8.6 124.6,12.6 127.9,12.6 127.9,8.6 126.2,8.6 		"/>
		<polygon class="st3" points="126.2,8.6 126.2,5.3 123.3,0 120,0 124.6,8.6 		"/>
		<polygon class="st3" points="138.7,9.1 138.7,6.5 138.7,2.6 138.7,0 135.4,0 135.4,12.6 138.7,12.6 		"/>
		<polygon class="st1" points="158.6,7.6 158.6,5 152.6,5 152.6,7.6 		"/>
		<rect x="152.6" y="9.9" class="st3" width="6.8" height="2.6"/>
		<rect x="152.6" class="st3" width="6.6" height="2.6"/>
		<polygon class="st2" points="152.6,9.9 152.6,9.9 152.6,7.6 152.6,7.6 152.6,5 152.6,5 152.6,2.6 152.6,2.6 152.6,0 149.3,0 
			149.3,12.6 152.6,12.6 		"/>
	</g>
	<g>
		<polygon class="st3" points="99.7,2.8 99.8,0.2 93.7,0.2 93.7,2.8 		"/>
		<g>
			<path class="st1" d="M83.6,0.8c-1-0.6-2.2-0.8-3.5-0.8v2.8c0,0,0,0,0,0c0.6,0,1.2,0.2,1.7,0.5c0.5,0.3,0.9,0.8,1.2,1.3
				c0.3,0.6,0.4,1.2,0.4,1.9c0,0.7-0.1,1.3-0.4,1.9c-0.3,0.6-0.7,1-1.2,1.3c-0.5,0.3-1.1,0.5-1.7,0.5c0,0,0,0,0,0V13
				c1.3,0,2.4-0.3,3.5-0.9c1-0.6,1.8-1.4,2.4-2.3c0.6-1,0.9-2.1,0.9-3.3c0-1.2-0.3-2.3-0.9-3.3C85.5,2.2,84.7,1.4,83.6,0.8z"/>
			<path class="st3" d="M78.5,9.7c-0.5-0.3-0.9-0.8-1.3-1.3c-0.3-0.6-0.5-1.2-0.5-1.9c0-0.7,0.2-1.3,0.5-1.9c0.3-0.6,0.7-1,1.3-1.3
				c0.5-0.3,1.1-0.5,1.7-0.5V0c-1.3,0-2.4,0.3-3.5,0.8c-1,0.6-1.8,1.3-2.4,2.3c-0.6,1-0.9,2.1-0.9,3.3c0,1.2,0.3,2.3,0.9,3.3
				c0.6,1,1.4,1.8,2.4,2.3c1,0.6,2.2,0.9,3.5,0.9v-2.8C79.6,10.2,79,10,78.5,9.7z"/>
			<rect x="93.7" y="5.6" class="st3" width="5.6" height="2.6"/>
			<polygon class="st2" points="93.7,2.8 93.7,0.2 90.4,0.2 90.4,12.8 93.7,12.8 93.7,8.2 93.7,5.6 			"/>
		</g>
	</g>
	<g>
		<rect x="45.2" y="7.8" class="st0" width="0" height="2.4"/>
		<rect x="45.2" y="2.9" class="st0" width="0" height="2.3"/>
		<rect x="3.7" y="3" class="st3" width="3.3" height="9.9"/>
		<polygon class="st1" points="10.8,3 10.8,0.3 0,0.3 0,3 3.7,3 7,3 		"/>
		<polygon class="st3" points="20.5,8.9 20.5,8.8 25,0.3 21.7,0.3 18.8,5.6 18.8,5.6 18.8,8.9 		"/>
		<polygon class="st1" points="17.2,8.9 17.2,12.8 20.5,12.8 20.5,8.9 18.8,8.9 		"/>
		<polygon class="st2" points="18.8,8.9 18.8,5.6 15.9,0.3 12.6,0.3 17.2,8.9 		"/>
		<polygon class="st2" points="31.2,9.3 31.2,6.7 31.2,2.9 31.2,0.3 27.9,0.3 27.9,12.8 31.2,12.8 		"/>
		<polygon class="st2" points="51.2,7.8 51.2,5.2 45.2,5.2 45.2,7.8 		"/>
		<rect x="45.2" y="10.2" class="st3" width="6.8" height="2.6"/>
		<rect x="45.2" y="0.3" class="st3" width="6.6" height="2.6"/>
		<polygon class="st1" points="45.2,10.2 45.2,10.2 45.2,7.8 45.2,7.8 45.2,5.2 45.2,5.2 45.2,2.9 45.2,2.9 45.2,0.3 41.9,0.3 
			41.9,12.8 45.2,12.8 		"/>
		<g>
			<path class="st3" d="M62.3,3.1c0.8,0.3,1.5,0.6,2.1,1l0.7-1.4l0.6-1.2c-0.6-0.4-1.4-0.7-2.2-1L62.3,3.1
				C62.3,3.1,62.3,3.1,62.3,3.1z"/>
			<path class="st3" d="M58.4,9.8c-0.9-0.4-1.6-0.8-2.2-1.4l-0.7,1.5L54.9,11c0.8,0.6,1.6,1.1,2.7,1.5c0.2,0.1,0.3,0.1,0.5,0.1
				l1.1-2.6C58.9,10,58.6,9.9,58.4,9.8z"/>
			<path class="st1" d="M60.1,4.7c-0.3-0.1-0.5-0.3-0.8-0.4c-0.2-0.2-0.3-0.4-0.3-0.7c0-0.3,0.1-0.5,0.3-0.7c0.2-0.1,0.6-0.2,1-0.2
				c0.5,0,1.1,0.1,1.9,0.4l1.2-2.6c0,0-0.1,0-0.1,0C62.5,0.1,61.6,0,60.7,0c-1,0-1.9,0.2-2.6,0.5c-0.8,0.3-1.3,0.8-1.8,1.4
				c-0.4,0.6-0.6,1.3-0.6,2c0,0.8,0.2,1.5,0.6,2c0.4,0.5,0.9,0.9,1.4,1.1c0.6,0.2,1.3,0.5,2.1,0.7c0.1,0,0.2,0.1,0.3,0.1l1.2-2.7
				C60.8,4.9,60.4,4.8,60.1,4.7z"/>
			<path class="st2" d="M65.1,7.1c-0.4-0.5-0.9-0.9-1.5-1.2c-0.6-0.3-1.3-0.5-2.2-0.8c0,0-0.1,0-0.1,0l-1.2,2.7
				c0.4,0.1,0.7,0.2,1,0.3c0.3,0.1,0.6,0.3,0.8,0.5c0.2,0.2,0.3,0.4,0.3,0.7c0,0.3-0.1,0.6-0.4,0.8c-0.3,0.2-0.7,0.3-1.2,0.3
				c-0.5,0-1-0.1-1.5-0.3L58,12.6c0.9,0.3,1.8,0.4,2.7,0.4c0.9,0,1.8-0.1,2.6-0.4c0.8-0.3,1.4-0.7,1.8-1.3c0.4-0.6,0.7-1.3,0.7-2.1
				C65.7,8.2,65.5,7.6,65.1,7.1z"/>
		</g>
	</g>
	<path class="st1" d="M140.7,2.6c0.7,0,1.2,0.2,1.5,0.5c0.4,0.3,0.5,0.8,0.5,1.4c0,0.6-0.2,1.1-0.5,1.5c-0.4,0.3-0.9,0.5-1.5,0.5
		h-2.1v2.6h2.2c1.6,0,2.8-0.4,3.7-1.2c0.9-0.8,1.3-2,1.3-3.4c0-1.4-0.4-2.5-1.3-3.3c-0.9-0.8-2.1-1.2-3.7-1.2h-2.2v2.6H140.7z"/>
	<path class="st3" d="M33.3,2.9c0.7,0,1.2,0.2,1.5,0.5c0.4,0.3,0.5,0.8,0.5,1.4c0,0.6-0.2,1.1-0.5,1.5c-0.4,0.3-0.9,0.5-1.5,0.5
		h-2.1v2.6h2.2c1.6,0,2.8-0.4,3.7-1.2c0.9-0.8,1.3-2,1.3-3.4c0-1.4-0.4-2.5-1.3-3.3c-0.9-0.8-2.1-1.2-3.7-1.2h-2.2v2.6H33.3z"/>
</g>
</svg>
