<svg id="Layer_1" data-name="Layer 1" xmlns="http://www.w3.org/2000/svg" viewBox="0 0 175 275"><defs><style>.cls-1{fill:#fff;}.cls-2{fill:#fcdfeb;}.cls-3{fill:#ffce00;}.cls-4{fill:#047272;}</style></defs><title>pal-4</title><rect class="cls-1" x="72.59" y="176.12" width="86.25" height="86.25"/><rect class="cls-2" x="16.04" y="23.91" width="86.25" height="86.25"/><rect class="cls-3" x="116.75" y="23.14" width="41.59" height="143.24"/><polygon class="cls-4" points="89.26 224 156.46 224 156.46 192.08 74.84 192.08 74.84 203.28 142.18 203.28 142.18 213.36 75.12 213.36 75.12 246.4 160.66 246.4 160.66 235.06 89.26 235.06 89.26 224"/><path class="cls-4" d="M98.89,79.15c-5.32.7-11.06,1.12-16.66,1.4v-29H93.71V40.09H26.09V51.57H37.57V82.23H22.73L24.27,94c21.84-.14,50.12-.42,75.32-4.34ZM68.23,81.39c-5.6.28-11.34.42-16.8.56V51.57h16.8Z"/><path class="cls-4" d="M156.6,93.8H136.86V159H122.44V32.48h14.42V81.9H156.6Z"/></svg>