<svg id="Layer_1" data-name="Layer 1" xmlns="http://www.w3.org/2000/svg" viewBox="0 0 125 125"><defs><style>.cls-1{fill:none;}.cls-2{fill:#45c0c9;}.cls-3{fill:#047272;}</style></defs><title>04-kr-vertex</title><path class="cls-1" d="M73.15,66.41a14.37,14.37,0,0,0-4.32-3,13.35,13.35,0,0,0-5.61-1.15,15.25,15.25,0,0,0-5.58,1,13.74,13.74,0,0,0-4.46,2.81,12.6,12.6,0,0,0-3,4.3,13.91,13.91,0,0,0-1.05,5.42,13,13,0,0,0,1.05,5.16,13.87,13.87,0,0,0,3,4.36,14.26,14.26,0,0,0,4.47,3,14.55,14.55,0,0,0,11,.05A13.56,13.56,0,0,0,77,75.78a13.59,13.59,0,0,0-3.81-9.37Z"/><path class="cls-2" d="M79,63.41a22.48,22.48,0,0,0-7-4A26.19,26.19,0,0,0,63,58a27.94,27.94,0,0,0-8.64,1.31,21.94,21.94,0,0,0-7,3.73,18.06,18.06,0,0,0-4.75,5.8,16.21,16.21,0,0,0-1.75,7.51,14.73,14.73,0,0,0,1.75,7A19,19,0,0,0,47.33,89a23.7,23.7,0,0,0,7,3.94A25.19,25.19,0,0,0,63,94.44,25.94,25.94,0,0,0,71.71,93a23,23,0,0,0,7-3.89,18.34,18.34,0,0,0,4.69-5.75,15.31,15.31,0,0,0,1.7-7.09,16.23,16.23,0,0,0-1.59-7A17.78,17.78,0,0,0,79,63.41Zm-3,17.69a13.36,13.36,0,0,1-7.27,7.27,14.55,14.55,0,0,1-11-.05,14.26,14.26,0,0,1-4.47-3,13.87,13.87,0,0,1-3-4.36,13,13,0,0,1-1.05-5.16,13.91,13.91,0,0,1,1.05-5.42,12.6,12.6,0,0,1,3-4.3,13.74,13.74,0,0,1,4.46-2.81,15.25,15.25,0,0,1,5.58-1,13.35,13.35,0,0,1,5.61,1.15,14.37,14.37,0,0,1,4.32,3A13.59,13.59,0,0,1,77,75.78,13.64,13.64,0,0,1,75.9,81.1Z"/><path class="cls-2" d="M92.13,43.82c-2.05.41-4.42.76-7,1s-5.4.51-8.29.72S71,46,68,46.09s-5.74.24-8.5.31l-7.53.2c-2.26.07-4.21.1-5.82.1-2,0-4.31-.1-6.88-.3s-4.91-.48-6.88-.82l-.78-.13,3.69,7.26.29,0c.8-.13,1.84-.27,3.07-.41s2.5-.26,3.81-.36,2.57-.19,3.81-.26,2.28-.14,3.09-.21q2.16-.1,5.46-.21L62,51l8-.2,8-.2c2.62-.07,5.08-.1,7.32-.1h6.11l1.19-6.79Z"/><path class="cls-3" d="M51,37.59c.89-.14,1.86-.26,2.87-.36s2-.17,3-.2l2.63-.1q1.18-.05,1.89-.05c1.85,0,4.15-.05,6.83-.16s5.2-.12,7.61-.05h.32l1.45-5.94-.58.09c-3.21.48-6.45.84-9.62,1.08s-5.63.36-7.35.36a40.73,40.73,0,0,1-6.39-.51c-2.14-.34-4.05-.72-5.69-1.13l-.84-.21,3.61,7.22Z"/></svg>