<svg id="Layer_1" data-name="Layer 1" xmlns="http://www.w3.org/2000/svg" viewBox="0 0 125 125"><defs><style>.cls-1{fill:#45c0c9;}.cls-2{fill:#047272;}</style></defs><title>06-kr-stem-joint</title><path class="cls-1" d="M63.94,69.17c-1.81.45-3.62.89-5.43,1.3-4.1.92-8.12,1.7-11.95,2.32s-7.18,1-10,1.23a4.18,4.18,0,0,1-2.64-.6,2.85,2.85,0,0,1-1-2.51V41.5a34.2,34.2,0,0,1,.31-4.39c.2-1.57.45-3,.72-4.2l.09-.4-.41-.07c-2.68-.48-5.43-.9-8.17-1.24s-5.91-.59-9.42-.73h-.29L14.52,34,15,34a53.89,53.89,0,0,1,5.33,1.23,10.32,10.32,0,0,1,3.13,1.43,4,4,0,0,1,1.46,1.92,9.21,9.21,0,0,1,.39,2.87V73.07c0,3.26.68,5.57,2,6.84S31,81.63,34.2,81.2C37.56,80.72,41.41,80,45.63,79S54.16,77,58.44,75.77,66.93,73.3,71,72c-2.31.76-4.67,1.5-7.06,2.22Z"/><path class="cls-1" d="M109.29,52.46c-3.71.62-7.43,1.12-11.07,1.49-3.48.36-6.61.61-9.31.75V25.09a34.2,34.2,0,0,1,.31-4.39c.2-1.57.45-3,.72-4.2l.09-.39-.4-.08c-2.64-.54-5.77-1.15-9.29-1.81s-7-1.19-10.45-1.6l-.29,0-1.54,3.55.46.11a32.07,32.07,0,0,1,9.63,3.6,5.94,5.94,0,0,1,3,5.24V90.41q0,3,.05,6.2t.15,6.25c.07,2,.15,3.91.26,5.68s.23,3.25.36,4.41l0,.39,5-.6.05-.29c.28-1.59.54-3.65.78-6.12s.43-5.11.57-7.86.26-5.51.36-8.26.15-5.21.15-7.34v-23q1.91,0,4.2-.05,2.52-.05,5.2-.05h5.26c1.68,0,3.27,0,4.73.1l.35,0,1.17-7.5Z"/><path class="cls-2" d="M70.71,67.38c-2.23.63-4.5,1.22-6.78,1.79h0v5c2.39-.72,4.75-1.46,7.06-2.22,3.81-1.26,7.21-2.52,10.11-3.75V64.12C78.1,65.18,74.6,66.28,70.71,67.38Z"/></svg>