<svg id="Layer_1" data-name="Layer 1" xmlns="http://www.w3.org/2000/svg" viewBox="0 0 125 125"><defs><style>.cls-1{fill:#45c0c9;}.cls-2{fill:#047272;}</style></defs><title>09-kr-vertical-stem</title><path class="cls-1" d="M61.65,49.26q-2.64.05-5.11.16a49.26,49.26,0,0,1-5.48-.1,20.24,20.24,0,0,1-4.4-.71l-.87-.27,3.41,7.19.3-.06a71.93,71.93,0,0,1,8.11-1.18c2.6-.23,5.4-.41,8.34-.55V49.13C64.68,49.19,63.23,49.23,61.65,49.26Z"/><path class="cls-2" d="M74.19,19.61c-2.69-.69-5.39-1.28-8-1.76s-5.71-.94-9.05-1.35l-.3,0L55.39,20l.43.11c4,1,6.7,2.22,8.09,3.51a6.68,6.68,0,0,1,2,5.13V85.93q0,3,.05,6.15t.15,6.15q.1,3,.21,5.63c.07,1.75.17,3.31.31,4.62l0,.4,4.72-.61,0-.29c.27-1.72.54-3.86.78-6.37s.45-5.15.62-7.85.31-5.46.41-8.11.15-5.11.15-7.24V28.77a35.41,35.41,0,0,1,.31-4.44c.2-1.6.45-3,.72-4.25l.08-.37Z"/></svg>