<svg id="Layer_1" data-name="Layer 1" xmlns="http://www.w3.org/2000/svg" viewBox="0 0 125 125"><defs><style>.cls-1{fill:none;}.cls-2{fill:#45c0c9;}.cls-3{fill:#047272;}</style></defs><title>10-kr-round-stem</title><path class="cls-1" d="M45.7,70.49c0,.15.09.29.13.44.16.47.33.94.53,1.4a16.07,16.07,0,0,0,3.73,5.27,17.39,17.39,0,0,0,5.6,3.47q.79.31,1.62.54c.5.14,1,.26,1.53.35L59,82a20.44,20.44,0,0,0,3.51.33h.19a19.15,19.15,0,0,0,7-1.26,17.41,17.41,0,0,0,5.6-3.47,15.46,15.46,0,0,0,3.67-5.27,16.65,16.65,0,0,0,1.31-6.58,16.1,16.1,0,0,0-1.36-6.58,16.66,16.66,0,0,0-9.23-8.9,19.21,19.21,0,0,0-13.94,0,17.63,17.63,0,0,0-5.6,3.57,16.64,16.64,0,0,0-3.73,5.33A16.1,16.1,0,0,0,45,65.75,16.81,16.81,0,0,0,45.32,69c0,.16.07.31.1.46Q45.54,70,45.7,70.49Z"/><path class="cls-2" d="M38.37,74.59c-.25-.5-.47-1-.68-1.52C37.9,73.59,38.12,74.1,38.37,74.59Z"/><path class="cls-2" d="M45.7,70.49q-.16-.52-.28-1.05Q45.54,70,45.7,70.49Z"/><path class="cls-2" d="M46.36,72.33c-.2-.46-.37-.92-.53-1.4C46,71.4,46.16,71.87,46.36,72.33Z"/><path class="cls-2" d="M86.91,57.95a21.1,21.1,0,0,0-4.78-6.57,24.82,24.82,0,0,0-7.24-4.61,29.52,29.52,0,0,0-8.67-2.16,8,8,0,0,1,.62-1.9c.35-.73.66-1.45.94-2.14l.17-.43L67.5,40c-1.78-.41-3.52-.74-5.19-1s-3.34-.53-5-.87L57,38.12l-1.64,2.74.49.15a9.58,9.58,0,0,1,3.61,1.66,3,3,0,0,1,.91,1.71,29.83,29.83,0,0,0-9.24,1.92,26.68,26.68,0,0,0-7.75,4.56,20.19,20.19,0,0,0-5.16,6.73,19.3,19.3,0,0,0-1.84,8.32,19.94,19.94,0,0,0,.68,5.2,19.63,19.63,0,0,1-.61-3.61h8.66c.05.5.13,1,.23,1.48A16.81,16.81,0,0,1,45,65.75a16.1,16.1,0,0,1,1.36-6.58,16.64,16.64,0,0,1,3.73-5.33,17.63,17.63,0,0,1,5.6-3.57,19.21,19.21,0,0,1,13.94,0,16.66,16.66,0,0,1,9.23,8.9,16.1,16.1,0,0,1,1.36,6.58,16.65,16.65,0,0,1-1.31,6.58,15.46,15.46,0,0,1-3.67,5.27,17.41,17.41,0,0,1-5.6,3.47,19.15,19.15,0,0,1-7,1.26H62.5v5.23a29.3,29.3,0,0,0,6.74-.74,48.81,48.81,0,0,0,5.48-1.71,23.35,23.35,0,0,0,9.61-6.87A18.93,18.93,0,0,0,88.65,65.9,18.74,18.74,0,0,0,86.91,57.95Z"/><path class="cls-2" d="M37.6,72.83c-.2-.52-.37-1.05-.52-1.59Q37.3,72,37.6,72.83Z"/><path class="cls-2" d="M59,82l-.14,0Z"/><path class="cls-2" d="M57.3,81.61q-.82-.23-1.62-.54Q56.48,81.38,57.3,81.61Z"/><path class="cls-3" d="M62.48,82.32A20.44,20.44,0,0,1,59,82l-.14,0c-.52-.1-1-.21-1.53-.35s-1.09-.33-1.62-.54a17.39,17.39,0,0,1-5.6-3.47,16.07,16.07,0,0,1-3.73-5.27c-.2-.46-.37-.92-.53-1.4,0-.14-.09-.29-.13-.44q-.16-.52-.28-1.05c0-.15-.07-.31-.1-.46-.09-.49-.17-1-.23-1.48H36.44A19.63,19.63,0,0,0,37,71.11l0,.13c.15.54.32,1.07.52,1.59l.1.24c.2.52.42,1,.68,1.52a21.5,21.5,0,0,0,5.47,6.83,25.67,25.67,0,0,0,8.23,4.51,31.83,31.83,0,0,0,10.29,1.62h.14V82.32Z"/></svg>