<svg id="Layer_1" data-name="Layer 1" xmlns="http://www.w3.org/2000/svg" viewBox="0 0 1500 400"><defs><style>.cls-1,.cls-2,.cls-5{fill:none;stroke-miterlimit:10;stroke-width:1.51px;}.cls-1,.cls-2{stroke:#00e2d5;}.cls-2{stroke-dasharray:10.52 7.51;}.cls-3{fill:#45c0c9;}.cls-11,.cls-15,.cls-17,.cls-4,.cls-6,.cls-9{fill:#047272;}.cls-5{stroke:#047272;}.cls-11,.cls-15,.cls-17,.cls-6,.cls-9{font-size:20px;font-family:WorkSans-Regular, Work Sans;}.cls-10,.cls-6{letter-spacing:0.15em;}.cls-7{letter-spacing:0.13em;}.cls-8{letter-spacing:0.14em;}.cls-19,.cls-9{letter-spacing:0.14em;}.cls-11,.cls-14{letter-spacing:0.12em;}.cls-12{letter-spacing:0.13em;}.cls-13{letter-spacing:0.12em;}.cls-15{letter-spacing:0.14em;}.cls-16{letter-spacing:0.14em;}.cls-17{letter-spacing:0.09em;}.cls-18{letter-spacing:0.14em;}</style></defs><title>en-anatomy</title><line class="cls-1" x1="218.85" y1="141.59" x2="224.13" y2="141.59"/><line class="cls-2" x1="231.64" y1="141.59" x2="1381.76" y2="141.59"/><line class="cls-1" x1="1385.51" y1="141.59" x2="1390.8" y2="141.59"/><line class="cls-1" x1="218.85" y1="174.42" x2="224.13" y2="174.42"/><line class="cls-2" x1="231.64" y1="174.42" x2="1381.76" y2="174.42"/><line class="cls-1" x1="1385.51" y1="174.42" x2="1390.8" y2="174.42"/><line class="cls-1" x1="218.85" y1="255.03" x2="224.13" y2="255.03"/><line class="cls-2" x1="231.64" y1="255.03" x2="1381.76" y2="255.03"/><line class="cls-1" x1="1385.51" y1="255.03" x2="1390.8" y2="255.03"/><path class="cls-3" d="M255.3,245.33a48.36,48.36,0,0,1-16.59-20,67.26,67.26,0,0,1-5.77-28.38,62.43,62.43,0,0,1,6.37-28.47,46.8,46.8,0,0,1,18.47-19.75q12.1-7.1,28.08-7.1a45.18,45.18,0,0,1,20,4.36,41,41,0,0,1,14.79,11.88q12.14,15.82,12.14,39.33a60.4,60.4,0,0,1-8.89,32.15q-14.36,23.51-45.74,23.51A39.53,39.53,0,0,1,255.3,245.33Zm-8.08-50.83a77.14,77.14,0,0,0,2.31,18.34,60.35,60.35,0,0,0,6.71,16.8,33.14,33.14,0,0,0,11.54,11.63,29.35,29.35,0,0,0,15.35,4.27A35.86,35.86,0,0,0,297.32,243q10.77-4.79,16-16.37A61.34,61.34,0,0,0,318.61,201a80.57,80.57,0,0,0-4-25.95A43.77,43.77,0,0,0,302,155.65a29.88,29.88,0,0,0-20.35-7.48q-21,0-29.67,19.07Q247.22,178,247.22,194.51Z"/><path class="cls-3" d="M341.69,250.51l.68-4.45,13.08-2.91V186l-13.25-3.33.6-4.45,22.66-2.56,1,1.2-.85,11.29h.68a40.7,40.7,0,0,1,11.54-9.49,31,31,0,0,1,15.73-4.19,17.21,17.21,0,0,1,13.76,6.24q5.3,6.24,5.3,18.55v43.94l12.05,2.39-.6,5H388.8l.68-4.45,12-2.91V201.95q0-9.23-4.06-13.72a13.24,13.24,0,0,0-10.26-4.49,25.08,25.08,0,0,0-10.81,2.18,36.14,36.14,0,0,0-9.75,7.31v49.93l12.48,2.39-.85,5Z"/><path class="cls-3" d="M485.66,241.61q-9.83,11.46-26.42,11.46-12.57,0-21.63-9.79t-9.06-28.68a47.89,47.89,0,0,1,2.91-17A35.51,35.51,0,0,1,439.15,185q10.09-10.26,22.91-10.26,9.83,0,15.6,6.5t5.77,19.49a44.78,44.78,0,0,1-1.45,11.2l-41.38.51q.34,12.74,6.28,22.06T464,243.84a34.76,34.76,0,0,0,20-6Zm-44.88-34.45,30-2q.6-1.71.6-8.16A17.36,17.36,0,0,0,467.75,186q-3.63-4.62-10.3-4.62t-11.5,6.71Q441.12,194.77,440.78,207.16Z"/><path class="cls-3" d="M568.5,183.74q-8.46,0-18.3,10.17v81l13.34,2.22-.85,5.22h-37.1l.51-5,13-2.56V186l-13.17-3.25.68-4.53,22.66-2.39,1.11,1.2-.77,11.71h.6a41.49,41.49,0,0,1,10.22-9.83,23.72,23.72,0,0,1,13.72-4.19,22.47,22.47,0,0,1,18.64,9q7,9,7,27.23t-10.56,29.75q-10.56,11.5-26.89,11.5a49.67,49.67,0,0,1-8.72-.94l-.43-8.21q5,2,14,2t14.7-7.78q5.77-7.78,5.77-21.29Q587.65,183.74,568.5,183.74Z"/><path class="cls-3" d="M608.61,236.06q0-10.6,9.66-17.74T648,209.38v-4.1q0-12.05-3.42-18.3t-12.23-6.24q-4.79,0-6.58,1.8a11.16,11.16,0,0,0-2.69,4.83,102.58,102.58,0,0,0-2.18,11.76q-9.41,0-9.4-7.18,0-4.36,4.32-8.46a31.91,31.91,0,0,1,10.6-6.54,33.4,33.4,0,0,1,12.1-2.44q10.6,0,15.47,6.37t4.87,20v30q0,6.58,1.58,9.58t7,3.85l5,.94-.77,5.13A53.76,53.76,0,0,1,659.95,252a9.62,9.62,0,0,1-7.44-3.38,11.67,11.67,0,0,1-3-8.08v-1.28h-.68q-2,4.7-8.08,9a23.77,23.77,0,0,1-14.06,4.32q-8,0-13-4.49T608.61,236.06Zm11.71-3.25a12.29,12.29,0,0,0,2.95,8.08,9.71,9.71,0,0,0,7.87,3.55,17.63,17.63,0,0,0,9.49-2.86,24.79,24.79,0,0,0,7.4-7V213.74q-14,2.39-20.86,6.8A13.83,13.83,0,0,0,620.32,232.81Z"/><path class="cls-3" d="M679.86,250.51l.68-4.45,13.08-2.91V186l-13.25-3.33.6-4.45,22.66-2.56,1,1.2-.85,11.29h.68A40.7,40.7,0,0,1,716,178.61a31,31,0,0,1,15.73-4.19,17.21,17.21,0,0,1,13.76,6.24q5.3,6.24,5.3,18.55v43.94l12.05,2.39-.6,5H727l.68-4.45,12-2.91V201.95q0-9.23-4.06-13.72a13.24,13.24,0,0,0-10.26-4.49,25.08,25.08,0,0,0-10.81,2.18,36.14,36.14,0,0,0-9.75,7.31v49.93l12.48,2.39-.85,5Z"/><path class="cls-3" d="M766.95,216.91a48,48,0,0,1,3.12-17.36A39.47,39.47,0,0,1,778.4,186q11-11.54,25-11.54a35,35,0,0,1,8.89,1.24,20.19,20.19,0,0,1,6.84,2.86h.68l-1.2-11.2V152.1l-13-3.68.77-4.53L828.42,142l1.28,1.45v88.06q0,9,3.59,11.29a16.73,16.73,0,0,0,4.87,1.71l4.53,1-.77,5.13a38.4,38.4,0,0,1-11,1.71,10.2,10.2,0,0,1-8.21-3.46,13.43,13.43,0,0,1-2.95-9v-.6h-.85q-9.49,13-24.71,13A24.29,24.29,0,0,1,774.64,243Q766.95,233.67,766.95,216.91Zm17.36-27.4q-5.56,8.25-5.56,22.87t5.47,23.08a17.33,17.33,0,0,0,15.39,8.46,22.92,22.92,0,0,0,10.81-3,25,25,0,0,0,8.51-6.93V191.94a24.48,24.48,0,0,0-8.93-7.87,23.29,23.29,0,0,0-10.81-2.82Q789.86,181.26,784.3,189.51Z"/><path class="cls-3" d="M850.36,236.06q0-10.6,9.66-17.74t29.75-8.93v-4.1q0-12.05-3.42-18.3t-12.23-6.24q-4.79,0-6.58,1.8a11.16,11.16,0,0,0-2.69,4.83,102.58,102.58,0,0,0-2.18,11.76q-9.41,0-9.4-7.18,0-4.36,4.32-8.46a31.91,31.91,0,0,1,10.6-6.54,33.4,33.4,0,0,1,12.1-2.44q10.6,0,15.47,6.37t4.87,20v30q0,6.58,1.58,9.58t7,3.85l5,.94-.77,5.13A53.76,53.76,0,0,1,901.7,252a9.62,9.62,0,0,1-7.44-3.38,11.67,11.67,0,0,1-3-8.08v-1.28h-.68q-2,4.7-8.08,9a23.77,23.77,0,0,1-14.06,4.32q-8,0-13-4.49T850.36,236.06Zm11.71-3.25a12.29,12.29,0,0,0,2.95,8.08,9.71,9.71,0,0,0,7.87,3.55,17.63,17.63,0,0,0,9.49-2.86,24.79,24.79,0,0,0,7.4-7V213.74q-14,2.39-20.86,6.8A13.83,13.83,0,0,0,862.08,232.81Z"/><path class="cls-3" d="M993.39,183.74q-8.46,0-18.3,10.17v81l13.34,2.22-.85,5.22h-37.1l.51-5,13-2.56V186l-13.17-3.25.68-4.53,22.66-2.39,1.11,1.2-.77,11.71h.6a41.49,41.49,0,0,1,10.22-9.83A23.72,23.72,0,0,1,999,174.76a22.47,22.47,0,0,1,18.64,9q7,9,7,27.23t-10.56,29.75q-10.56,11.5-26.89,11.5a49.67,49.67,0,0,1-8.72-.94l-.43-8.21q5,2,14,2t14.7-7.78q5.77-7.78,5.77-21.29Q1012.54,183.74,993.39,183.74Z"/><path class="cls-3" d="M1028.05,250.51l.85-4.7,13.17-2.74V151.68l-13.34-3.51.51-4.45,22.4-1.8,1.45,1.37v99.77l13.76,2.56-1,4.87Z"/><path class="cls-3" d="M1127.81,241.61q-9.83,11.46-26.42,11.46-12.57,0-21.63-9.79t-9.06-28.68a47.89,47.89,0,0,1,2.91-17A35.51,35.51,0,0,1,1081.3,185q10.09-10.26,22.91-10.26,9.83,0,15.6,6.5t5.77,19.49a44.78,44.78,0,0,1-1.45,11.2l-41.38.51q.34,12.74,6.28,22.06t17.14,9.32a34.76,34.76,0,0,0,20-6Zm-44.88-34.45,30-2q.6-1.71.6-8.16A17.36,17.36,0,0,0,1109.9,186q-3.63-4.62-10.3-4.62t-11.5,6.71Q1083.26,194.77,1082.92,207.16Z"/><path class="cls-3" d="M1137.48,236.06q0-10.6,9.66-17.74t29.75-8.93v-4.1q0-12.05-3.42-18.3t-12.23-6.24q-4.79,0-6.58,1.8a11.16,11.16,0,0,0-2.69,4.83,102.58,102.58,0,0,0-2.18,11.76q-9.41,0-9.4-7.18,0-4.36,4.32-8.46a31.91,31.91,0,0,1,10.6-6.54,33.4,33.4,0,0,1,12.1-2.44q10.6,0,15.47,6.37t4.87,20v30q0,6.58,1.58,9.58t7,3.85l5,.94-.77,5.13a53.76,53.76,0,0,1-11.67,1.71,9.62,9.62,0,0,1-7.44-3.38,11.67,11.67,0,0,1-3-8.08v-1.28h-.68q-2,4.7-8.08,9a23.77,23.77,0,0,1-14.06,4.32q-8,0-13-4.49T1137.48,236.06Zm11.71-3.25a12.29,12.29,0,0,0,2.95,8.08,9.71,9.71,0,0,0,7.87,3.55,17.63,17.63,0,0,0,9.49-2.86,24.79,24.79,0,0,0,7.4-7V213.74q-14,2.39-20.86,6.8A13.83,13.83,0,0,0,1149.19,232.81Z"/><path class="cls-4" d="M1176.89,213.74q-14,2.39-20.86,6.8a13.83,13.83,0,0,0-6.84,12.27,12.29,12.29,0,0,0,2.95,8.08,9.71,9.71,0,0,0,7.87,3.55,17.63,17.63,0,0,0,9.49-2.86,24.79,24.79,0,0,0,7.4-7l.77,4.7q-2,4.7-8.08,9a23.77,23.77,0,0,1-14.06,4.32q-8,0-13-4.49t-5-12.1q0-10.6,9.66-17.74t29.75-8.93Z"/><path class="cls-3" d="M1217.19,227.94q4,19.15,16.67,19.15,6.24,0,9.83-2.91t3.59-6.67a10.84,10.84,0,0,0-2-6.5,21.73,21.73,0,0,0-5.17-5q-3.21-2.26-7.05-4.57a99.71,99.71,0,0,1-15.52-10.9,17.83,17.83,0,0,1-6.28-14,22.49,22.49,0,0,1,5.94-15.26q5.94-6.75,17.74-6.75,8.38,0,14,4.27t5.64,9.83q0,10.09-9,10.86l-.68-3.33Q1241.3,180,1231.73,180a11.48,11.48,0,0,0-8.29,2.95,9.48,9.48,0,0,0-3.08,7.1,12.72,12.72,0,0,0,2.05,7.22q3.16,4.79,12.48,10.34l8,4.87q9.32,6.07,12.48,11.88a16.53,16.53,0,0,1,2.05,8,18.41,18.41,0,0,1-7.65,15.18,28.36,28.36,0,0,1-17.91,5.94q-10.26,0-17-4.57t-6.71-11.58a8.7,8.7,0,0,1,2.56-6.41A10.49,10.49,0,0,1,1217.19,227.94Z"/><path class="cls-3" d="M1323.39,241.61q-9.83,11.46-26.42,11.46-12.57,0-21.63-9.79t-9.06-28.68a47.89,47.89,0,0,1,2.91-17,35.51,35.51,0,0,1,7.69-12.61q10.09-10.26,22.91-10.26,9.83,0,15.6,6.5t5.77,19.49a44.78,44.78,0,0,1-1.45,11.2l-41.38.51q.34,12.74,6.28,22.06t17.14,9.32a34.76,34.76,0,0,0,20-6Zm-44.88-34.45,30-2q.6-1.71.6-8.16a17.36,17.36,0,0,0-3.63-11.07q-3.63-4.62-10.3-4.62t-11.5,6.71Q1278.85,194.77,1278.51,207.16Z"/><line class="cls-5" x1="282.92" y1="100.53" x2="282.92" y2="129.66"/><polygon class="cls-4" points="275.51 123.65 276.84 122.42 282.92 128.96 289 122.42 290.32 123.65 282.92 131.62 275.51 123.65"/><line class="cls-5" x1="389.46" y1="100.53" x2="389.46" y2="160.6"/><polygon class="cls-4" points="382.05 154.6 383.38 153.36 389.46 159.9 395.54 153.36 396.87 154.6 389.46 162.56 382.05 154.6"/><line class="cls-5" x1="542.93" y1="100.53" x2="542.93" y2="160.6"/><polygon class="cls-4" points="535.52 154.6 536.85 153.36 542.92 159.9 549.01 153.36 550.33 154.6 542.92 162.56 535.52 154.6"/><line class="cls-5" x1="820.84" y1="100.53" x2="820.84" y2="124.58"/><polygon class="cls-4" points="813.43 118.58 814.76 117.34 820.84 123.89 826.92 117.34 828.25 118.58 820.84 126.55 813.43 118.58"/><line class="cls-5" x1="1243.7" y1="100.53" x2="1243.7" y2="159.17"/><polygon class="cls-4" points="1236.29 153.17 1237.62 151.94 1243.69 158.48 1249.78 151.94 1251.1 153.17 1243.69 161.14 1236.29 153.17"/><polyline class="cls-5" points="1009.52 100.53 1009.52 150.32 1026.83 167.63"/><polygon class="cls-4" points="1017.35 168.62 1017.41 166.81 1026.34 167.14 1026.01 158.21 1027.82 158.15 1028.22 169.02 1017.35 168.62"/><line class="cls-5" x1="660.2" y1="315.31" x2="660.2" y2="270.33"/><polygon class="cls-4" points="667.61 276.33 666.28 277.57 660.2 271.03 654.12 277.57 652.8 276.33 660.2 268.37 667.61 276.33"/><line class="cls-5" x1="969.46" y1="315.31" x2="969.46" y2="300.96"/><polygon class="cls-4" points="976.86 306.96 975.54 308.2 969.46 301.65 963.38 308.2 962.05 306.96 969.46 299 976.86 306.96"/><line class="cls-5" x1="1157.57" y1="315.31" x2="1157.57" y2="272.28"/><polygon class="cls-4" points="1164.97 278.28 1163.65 279.52 1157.57 272.98 1151.49 279.52 1150.16 278.28 1157.57 270.32 1164.97 278.28"/><text class="cls-6" transform="translate(44.52 148.22)">CA<tspan class="cls-7" x="32.92" y="0">P</tspan><tspan x="47.66" y="0" xml:space="preserve"> LINE</tspan></text><text class="cls-6" transform="translate(225.92 88.03)">COUNTER</text><text class="cls-6" transform="translate(357.57 88.03)">A<tspan class="cls-8" x="16.2" y="0">R</tspan><tspan x="32.38" y="0">CH</tspan></text><text class="cls-6" transform="translate(508.66 88.03)">SERI<tspan class="cls-7" x="56.8" y="0">F</tspan></text><text class="cls-9" transform="translate(756.59 88.03)">A<tspan class="cls-10" x="16.04" y="0">SCENDER</tspan></text><text class="cls-11" transform="translate(977.95 88.03)">S<tspan class="cls-10" x="15.22" y="0">TEM</tspan></text><text class="cls-6" transform="translate(278 279.78)">SERI<tspan class="cls-7" x="56.8" y="0">F</tspan><tspan x="71.54" y="0" xml:space="preserve"> BR</tspan><tspan class="cls-12" x="113.72" y="0">A</tspan><tspan x="129.48" y="0">CKE</tspan><tspan class="cls-13" x="178.08" y="0">T</tspan></text><text class="cls-6" transform="translate(588.62 344.48)">OU<tspan class="cls-14" x="35.36" y="0">TS</tspan><tspan x="65.06" y="0">T</tspan><tspan class="cls-8" x="80.14" y="0">R</tspan><tspan x="96.32" y="0">OKE</tspan></text><text class="cls-6" transform="translate(44.52 179.16)">MEANLINE</text><text class="cls-15" transform="translate(44.52 262.72)">B<tspan class="cls-16" x="15.86" y="0">A</tspan><tspan class="cls-10" x="31.9" y="0">SELINE</tspan></text><text class="cls-17" transform="translate(1332.73 221.14)">X<tspan class="cls-10" x="13.88" y="0">-HEIGH</tspan><tspan class="cls-13" x="104.6" y="0">T</tspan></text><path class="cls-4" d="M247.22,194.51a77.14,77.14,0,0,0,2.31,18.34,60.35,60.35,0,0,0,6.71,16.8,33.14,33.14,0,0,0,11.54,11.63,29.35,29.35,0,0,0,15.35,4.27A35.86,35.86,0,0,0,297.32,243q10.77-4.79,16-16.37A61.34,61.34,0,0,0,318.61,201a80.57,80.57,0,0,0-4-25.95A43.77,43.77,0,0,0,302,155.65a29.88,29.88,0,0,0-20.35-7.48q-21,0-29.67,19.07Q247.22,178,247.22,194.51Z"/><path class="cls-4" d="M397.39,188.22q3.06,3.38,3.81,9.45h11.41c-.21-7.44-2-13.12-5.26-17a17.21,17.21,0,0,0-13.76-6.24,31,31,0,0,0-15.73,4.19,40.7,40.7,0,0,0-11.54,9.49l.26,5.13a36.14,36.14,0,0,1,9.75-7.31,25.08,25.08,0,0,1,10.81-2.18A13.24,13.24,0,0,1,397.39,188.22Z"/><polygon class="cls-4" points="542.93 279.75 542.93 268.37 539.09 268.37 539.09 274.87 526.1 277.44 525.86 279.75 542.93 279.75"/><polygon class="cls-4" points="539.09 188.78 549.61 188.78 550.38 177.07 549.27 175.87 526.61 178.26 525.93 182.79 539.09 186.04 539.09 188.78"/><path class="cls-4" d="M660.46,240.42a16.54,16.54,0,0,1-1.47-6.33H648v.51l1.45,4.7v1.28a11.67,11.67,0,0,0,3,8.08,9.62,9.62,0,0,0,7.44,3.38,53.76,53.76,0,0,0,11.67-1.71l.77-5.13-5-.94Q662,243.41,660.46,240.42Z"/><polygon class="cls-4" points="818.59 167.41 819.72 178.67 829.7 178.67 829.63 143.54 828.42 142.01 806.36 143.9 805.59 148.43 818.59 152.1 818.59 167.41"/><polygon class="cls-4" points="975.1 243.65 963.98 243.65 963.98 274.87 950.99 277.44 950.48 282.4 987.58 282.4 988.43 277.18 975.1 274.96 975.1 243.65"/><rect class="cls-4" x="1042.07" y="161.14" width="11.03" height="70.94"/><path class="cls-4" d="M1321.77,237.85a34.76,34.76,0,0,1-20,6c-.58,0-1.13-.05-1.68-.09V253q14.41-1,23.31-11.34Z"/><path class="cls-4" d="M1232.75,180q8.75.83,12.23,16.1l.68,3.33q9-.77,9-10.86,0-5.56-5.64-9.83t-14-4.27c-.76,0-1.5,0-2.22.08Z"/><text class="cls-6" transform="translate(1213.26 88.03)">BEA<tspan class="cls-18" x="48.02" y="0">K</tspan></text><text class="cls-6" transform="translate(896.64 344.48)">DESCENDER</text><text class="cls-6" transform="translate(1123.82 344.48)">B<tspan class="cls-19" x="16.06" y="0">O</tspan><tspan x="33.86" y="0">W</tspan><tspan class="cls-13" x="56.08" y="0">L</tspan></text><text class="cls-6" transform="translate(1272.57 344.48)">FINIA<tspan class="cls-13" x="66.92" y="0">L</tspan></text><line class="cls-5" x1="1311.74" y1="315.31" x2="1311.74" y2="272.28"/><polygon class="cls-4" points="1319.14 278.28 1317.82 279.52 1311.74 272.98 1305.66 279.52 1304.33 278.28 1311.74 270.32 1319.14 278.28"/><line class="cls-5" x1="1390.8" y1="199.47" x2="1390.8" y2="183.85"/><polygon class="cls-4" points="1398.2 189.85 1396.88 191.09 1390.8 184.55 1384.72 191.09 1383.39 189.85 1390.8 181.89 1398.2 189.85"/><line class="cls-5" x1="1390.8" y1="229.06" x2="1390.8" y2="244.68"/><polygon class="cls-4" points="1383.39 238.68 1384.71 237.44 1390.8 243.98 1396.88 237.44 1398.2 238.68 1390.8 246.64 1383.39 238.68"/><line class="cls-5" x1="159.72" y1="141.59" x2="202.28" y2="141.59"/><polygon class="cls-4" points="196.28 149 195.05 147.67 201.59 141.59 195.05 135.51 196.28 134.18 204.25 141.59 196.28 149"/><line class="cls-5" x1="172.55" y1="173.25" x2="202.28" y2="173.25"/><polygon class="cls-4" points="196.28 180.66 195.05 179.33 201.59 173.25 195.05 167.17 196.28 165.84 204.25 173.25 196.28 180.66"/><line class="cls-5" x1="172.55" y1="254.58" x2="202.28" y2="254.58"/><polygon class="cls-4" points="196.28 261.99 195.05 260.66 201.59 254.58 195.05 248.5 196.28 247.17 204.25 254.58 196.28 261.99"/><line class="cls-5" x1="481.23" y1="274.06" x2="510.96" y2="274.06"/><polygon class="cls-4" points="504.96 281.47 503.72 280.14 510.26 274.06 503.72 267.98 504.96 266.65 512.92 274.06 504.96 281.47"/></svg>