<svg id="Layer_1" data-name="Layer 1" xmlns="http://www.w3.org/2000/svg" viewBox="0 0 700 250"><defs><style>.cls-1{fill:none;}.cls-2{fill:#fcdfeb;}.cls-3{fill:#4daf37;}.cls-4{fill:#fcd76b;}</style></defs><title>01-kr-old-style-hover</title><path class="cls-1" d="M287.21,96.26a28.4,28.4,0,0,0-5.23,4.31,29.18,29.18,0,0,0-8.1,20.8,29.17,29.17,0,0,0,8.1,20.79c5.94,6.35,14.15,9.57,24.41,9.57s18.47-3.22,24.41-9.57a30.79,30.79,0,0,0,1.06-40.43,30,30,0,0,1-44.65-5.48Z"/><path class="cls-2" d="M339.61,91a30.08,30.08,0,0,1-7.76,10.79,30.79,30.79,0,0,1-1.06,40.43c-5.93,6.35-14.15,9.57-24.41,9.57s-18.48-3.22-24.41-9.57a29.17,29.17,0,0,1-8.1-20.79,29.18,29.18,0,0,1,8.1-20.8,28.4,28.4,0,0,1,5.23-4.31,29.84,29.84,0,0,1-4.66-11,44.35,44.35,0,0,0-14.72,11.15,36.6,36.6,0,0,0-9.27,28A38.85,38.85,0,0,0,272,150.9c8.74,7.72,20.09,11.64,33.75,11.64,13.5,0,24.85-3.84,33.73-11.4a38.87,38.87,0,0,0,14.1-25.55,35.86,35.86,0,0,0-7.29-27.82A40.9,40.9,0,0,0,339.61,91Z"/><path class="cls-2" d="M409.22,106.76V46.44l.21-3.57c.32-2.28.13-3.91-.57-5-.86-1.36-2.93-2.56-6.33-3.64-4.72-1.57-8.85-2.88-12.33-3.89a66,66,0,0,0-12.46-2c-6.24-.16-9.17.56-9.75,2.31a2.12,2.12,0,0,0,0,1.73c.56,1.33,2.52,2.58,6.1,3.89a107.42,107.42,0,0,1,14.46,7.44c2.85,1.95,4.44,3.79,4.72,5.48v59a29.93,29.93,0,0,1,16-1.5Z"/><path class="cls-2" d="M451.86,129.43A10.82,10.82,0,0,0,445,127a61.09,61.09,0,0,0-12.49.13,30,30,0,0,1,1,14.41l13.7-.3a7.41,7.41,0,0,0,5.14-2.44,6.33,6.33,0,0,0,2-4.57A6,6,0,0,0,451.86,129.43Z"/><path class="cls-2" d="M393.26,164.33v61c0,5.66.7,8.91,2.2,10.22a2.64,2.64,0,0,0,1.77.68l.32,0c2.34,0,4.39-2.44,6.45-7.52a65.94,65.94,0,0,0,3.5-13.14c.57-3.75,1-8.42,1.3-13.93l.13-35.76a30,30,0,0,1-15.66-1.55Z"/><path class="cls-3" d="M306.39,91.21c-7.53,0-13.95,1.7-19.18,5.05a30,30,0,0,0,44.65,5.48c-.34-.4-.69-.79-1.06-1.17C324.86,94.36,316.65,91.21,306.39,91.21Z"/><path class="cls-3" d="M302.92,79.57a6.88,6.88,0,0,0,4.48-3.72l0-.05c.84-1.69.65-3.6-.58-5.86-1.69-2-2.4-3.58-2.25-4.84a2.42,2.42,0,0,1,1-1.69c1.53-1,4.07-.65,8.06.95l.13.06c5,2.88,7.75,5.31,8.41,7.45.39,1.57-.55,3.55-3,6.28l-1.9,2.78c8.9,1.84,16.36,5.21,22.3,10a30,30,0,1,0-57.07-5.67,64.43,64.43,0,0,1,19.2-5.52Z"/><path class="cls-4" d="M306.39,91.21c10.26,0,18.48,3.15,24.41,9.36.36.38.71.77,1.06,1.17A30.08,30.08,0,0,0,339.61,91c-5.94-4.82-13.4-8.18-22.3-10l1.9-2.78c2.4-2.73,3.35-4.71,3-6.28-.66-2.13-3.41-4.57-8.41-7.45l-.13-.06c-4-1.59-6.53-1.91-8.06-.95a2.42,2.42,0,0,0-1,1.69c-.15,1.26.57,2.8,2.25,4.84,1.23,2.26,1.42,4.18.58,5.86l0,.05a6.88,6.88,0,0,1-4.48,3.72l-1.18.2a64.43,64.43,0,0,0-19.2,5.52,29.84,29.84,0,0,0,4.66,11C292.44,92.91,298.86,91.21,306.39,91.21Z"/><path class="cls-3" d="M408.92,165.89a30,30,0,0,0,24.57-24.32l-24.48.54Z"/><path class="cls-3" d="M411.38,133.69l5.32-.21a20.52,20.52,0,0,0,5.25-1.62A15.35,15.35,0,0,0,425,130a17.36,17.36,0,0,1,5.75-2.54c.54-.13,1.14-.23,1.77-.32a30,30,0,0,0-23.32-20.4v27.07Z"/><path class="cls-3" d="M373.94,136.29a30,30,0,0,0,19.32,28V108.25A30,30,0,0,0,373.94,136.29Z"/><path class="cls-4" d="M432.54,127.16c-.63.09-1.23.2-1.77.32A17.36,17.36,0,0,0,425,130a15.35,15.35,0,0,1-3.07,1.84,20.52,20.52,0,0,1-5.25,1.62l-5.32.21-2.16.14V106.76a29.93,29.93,0,0,0-16,1.5v56.08a30,30,0,0,0,15.66,1.55l.08-23.78,24.48-.54a30,30,0,0,0-1-14.41Z"/></svg>