<svg id="Layer_1" data-name="Layer 1" xmlns="http://www.w3.org/2000/svg" viewBox="0 0 700 250"><defs><style>.cls-1{fill:none;}.cls-2{fill:#fcdfeb;}.cls-3{fill:#4daf37;}.cls-4{fill:#fcd76b;}</style></defs><title>02-en-transitional-hover</title><path class="cls-1" d="M312.44,164.47q-33.2,14.88-33.2,36.71,0,9.23,4.83,14.87a15.8,15.8,0,0,0,12.6,5.64q6.88,0,16-4.54A116.88,116.88,0,0,0,333,203.52V183.31A30.07,30.07,0,0,1,312.44,164.47Z"/><path class="cls-2" d="M351.82,126.43a25.9,25.9,0,0,0-1-2.75q-3.3-7.47-13.55-13.33T308.4,104.5q-25,0-36.91,9.59T259.62,132q0,8.5,8.94,8.5,10,0,12.3-14.94,2.49-14.65,24.46-14.65,11,0,17.72,4.39t8.35,10c0,.13.07.29.11.43a30,30,0,0,1,20.32.71Z"/><path class="cls-2" d="M263.72,225.35a32.5,32.5,0,0,0,20.95,7q9.52,0,21.61-5.27A153,153,0,0,0,333,211.43q1.76,10.4,7.54,15.67t15.75,5.27q23.29,0,24.61-25h-5.42q-2.34,14.36-12,14.36-5.86,0-7.62-4.83T354.1,195V181.14A30,30,0,0,1,333,183.31v20.21a116.88,116.88,0,0,1-20.36,13.62q-9.08,4.54-16,4.54a15.8,15.8,0,0,1-12.6-5.64q-4.83-5.64-4.83-14.87,0-21.83,33.2-36.71a29.81,29.81,0,0,1-1.52-6.32l-.63.25q-25.93,10.69-40.65,22t-14.72,26.37A22.64,22.64,0,0,0,263.72,225.35Z"/><path class="cls-2" d="M426.76,27.88a30.71,30.71,0,0,1-4.1,1.43,30,30,0,0,1-13.88,33.9c.07,1.94.11,4,.11,6.27V188.14q0,20.8-.73,25.2a9.68,9.68,0,0,1-4.47,6.81q-3.74,2.42-12.53,2.42h-4.1v6.74h37.88a30,30,0,0,1,5-39.53c0-.54,0-1.07,0-1.63V27.88Z"/><path class="cls-3" d="M333,143.31c0-8-.5-13.85-1.5-17.59a30,30,0,0,0-20.58,32.42l22.08-9Z"/><path class="cls-3" d="M354.1,181.14a30,30,0,0,0-2.28-54.71q2.28,7.32,2.28,20.1Z"/><path class="cls-3" d="M317,162.5q-2.37,1-4.6,2A30.07,30.07,0,0,0,333,183.31V156.06Z"/><path class="cls-4" d="M317,162.5l16-6.45v27.26a30,30,0,0,0,21.09-2.17v-34.6q0-12.79-2.28-20.1a30,30,0,0,0-20.32-.71c1,3.74,1.5,9.59,1.5,17.59v5.86l-22.08,9a29.81,29.81,0,0,0,1.52,6.32Q314.67,163.47,317,162.5Z"/><path class="cls-3" d="M389.11,40.77V34a127.82,127.82,0,0,0,21-2.05,121.24,121.24,0,0,0,12.52-2.67,30,30,0,1,0-13.88,33.9q-.49-13.49-3.26-17.54Q402.14,40.78,389.11,40.77Z"/><path class="cls-4" d="M423.72,37.27a30,30,0,0,0-1.07-7.95A121.24,121.24,0,0,1,410.13,32a127.82,127.82,0,0,1-21,2.05v6.74q13,0,16.41,4.91,2.77,4,3.26,17.54A30,30,0,0,0,423.72,37.27Z"/><path class="cls-3" d="M434.67,219.93q3.66,2.64,13,2.64h3.52v6.74H424.94a30,30,0,1,0,5-39.53q0,17.77.51,22.54A10.17,10.17,0,0,0,434.67,219.93Z"/><path class="cls-4" d="M419.7,212.36a29.87,29.87,0,0,0,5.24,16.94h26.28v-6.74H447.7q-9.37,0-13-2.64a10.17,10.17,0,0,1-4.17-7.62q-.49-4.76-.51-22.54A29.93,29.93,0,0,0,419.7,212.36Z"/></svg>