<svg id="Layer_1" data-name="Layer 1" xmlns="http://www.w3.org/2000/svg" viewBox="0 0 700 250"><defs><style>.cls-1{fill:none;}.cls-2{fill:#fcdfeb;}.cls-3{fill:#4daf37;}.cls-4{fill:#fcd76b;}</style></defs><title>06-en-geometric-hover</title><path class="cls-1" d="M279.68,171.14c0,24.92,14,43.68,38.08,43.68,24.64,0,38.64-20.44,38.64-43.4a57.27,57.27,0,0,0-.83-9.89,30,30,0,0,1-25.88-29.72q0-.79,0-1.57a38.25,38.25,0,0,0-12-1.94C297.88,128.3,279.68,142.86,279.68,171.14Z"/><path class="cls-2" d="M355.57,161.53a57.27,57.27,0,0,1,.83,9.89c0,23-14,43.4-38.64,43.4-24.08,0-38.08-18.76-38.08-43.68,0-28.28,18.2-42.84,38.08-42.84a38.25,38.25,0,0,1,12,1.94,29.85,29.85,0,0,1,5.7-16.07,51.33,51.33,0,0,0-19.9-3.79c-29.68,0-56.56,20.72-56.56,60.76,0,40.88,27.16,61.6,56.56,61.6,20.44,0,33-10.92,39.76-19.6v16.24h20.16v-72a29.86,29.86,0,0,1-15.75,4.46A30.24,30.24,0,0,1,355.57,161.53Z"/><path class="cls-2" d="M413.52,63.77V229.38h20.16V64.57a30.07,30.07,0,0,1-20.16-.8Z"/><path class="cls-3" d="M355.57,161.53c-3-17.26-13.91-27.34-25.84-31.28q0,.78,0,1.57A30,30,0,0,0,355.57,161.53Z"/><path class="cls-3" d="M359.7,101.8a30,30,0,0,0-24.27,12.37,48.22,48.22,0,0,1,19.86,15.53V113.18h20.16v44.18A30,30,0,0,0,359.7,101.8Z"/><path class="cls-4" d="M355.28,113.18V129.7a48.22,48.22,0,0,0-19.86-15.53,29.85,29.85,0,0,0-5.7,16.07c11.93,3.95,22.82,14,25.84,31.28a30.24,30.24,0,0,0,4.13.29,29.86,29.86,0,0,0,15.75-4.46V113.18Z"/><path class="cls-3" d="M413.52,63.77V25.26h20.16V64.57a30,30,0,1,0-20.16-.8Z"/><path class="cls-4" d="M413.52,25.26V63.77a30.07,30.07,0,0,0,20.16.8V25.26Z"/></svg>