<svg id="Layer_1" data-name="Layer 1" xmlns="http://www.w3.org/2000/svg" viewBox="0 0 175 175"><defs><style>.cls-1{fill:#ffce00;}.cls-2{fill:#fcdfeb;}.cls-3{fill:#047272;}</style></defs><title>hwa-5</title><rect class="cls-1" x="116.08" y="19.16" width="41.59" height="143.24"/><rect class="cls-2" x="17.91" y="19.12" width="86.25" height="86.25"/><rect class="cls-1" x="17.91" y="118.15" width="87.02" height="41.59"/><path class="cls-3" d="M73.77,120.23c11.34-.7,22.82-1.4,33.6-2.94l1,10.5C80.49,132.55,50.53,133,27.57,133l-1.82-11.9c10.08,0,21.7,0,33.6-.42V108.33c-14.28-2.24-23.66-10.92-23.66-23.1,0-14.14,12.6-23.52,30.94-23.52s30.8,9.38,30.8,23.52c0,12.32-9.38,20.86-23.66,23.1Zm30.94-64.68H28.27V43.93H59.35V29.37H73.77V43.93h30.94ZM66.63,97.83c10.08,0,17.08-4.76,17.08-12.6s-7-12.46-17.08-12.46S49.41,77.53,49.41,85.23,56.41,97.83,66.63,97.83Zm62.44-68.74V155.65H114.51V29.09Z"/></svg>