<svg id="Layer_1" data-name="Layer 1" xmlns="http://www.w3.org/2000/svg" viewBox="0 0 175 275"><defs><style>.cls-1{fill:#fff;}.cls-2{fill:#fcdfeb;}.cls-3{fill:#ffce00;}.cls-4{opacity:0.7;}.cls-5{fill:#047272;}</style></defs><title>pal-0</title><rect class="cls-1" x="72.59" y="176.12" width="86.25" height="86.25"/><rect class="cls-2" x="16.04" y="23.91" width="86.25" height="86.25"/><rect class="cls-3" x="116.75" y="23.14" width="41.59" height="143.24"/><g class="cls-4"><path class="cls-5" d="M111.59,123.78c-25.2,3.92-53.48,4.2-75.32,4.34l-1.54-11.76H49.57V85.7H38.09V74.22h67.62V85.7H94.23v29c5.6-.28,11.34-.7,16.66-1.4ZM66.37,180.19h71.4v11.34H52.23v-33h67.06V148.42H51.95v-11.2h81.62v31.92H66.37Zm-2.94-64.12c5.46-.14,11.2-.28,16.8-.56V85.7H63.43Zm87.92-23.52v11.9H133.56v27H119.14V66.1h14.42V92.56Z"/></g></svg>