<?xml version="1.0" encoding="utf-8"?>
<!-- Generator: Adobe Illustrator 21.0.0, SVG Export Plug-In . SVG Version: 6.00 Build 0)  -->
<svg version="1.1" id="Layer_1" xmlns="http://www.w3.org/2000/svg" xmlns:xlink="http://www.w3.org/1999/xlink" x="0px" y="0px"
	 viewBox="0 0 900 300" style="enable-background:new 0 0 900 300;" xml:space="preserve">
<style type="text/css">
	.st0{fill:#047272;}
	.st1{fill:none;}
	.st2{fill:#FCDFEB;}
	.st3{font-family:'WorkSans-Regular';}
	.st4{font-size:24.6822px;}
	.st5{fill:#FFCE00;}
	.st6{fill:#FFFFFF;}
	.st7{opacity:0.7;}
</style>
<g>
	<g>
		<path class="st0" d="M42.1,125.4c11,0,22.3-0.9,34.6-3.4l0.9,5.8c-13,2.6-24.7,3.5-36.3,3.5h-6V81.6h6.9V125.4z M103.1,110.5H90.8
			v40.1h-7V74.2h7v30.5h12.3V110.5z"/>
		<path class="st0" d="M182.9,113.1v5.6h-69.2v-5.6H182.9z M129.6,143h45.9v5.7h-52.9v-22.3h7V143z M175,102.9h-51.9V77h7v20.2H175
			V102.9z"/>
		<path class="st0" d="M269.1,89.2h-45v-5.6h19v-9.3h7v9.3h19.1V89.2z M246.6,121.8c-10.8,0-18.2-5.6-18.2-14.2
			c0-8.5,7.4-14.1,18.2-14.1c10.8,0,18.3,5.6,18.3,14.1C264.9,116.2,257.4,121.8,246.6,121.8z M246.6,116.3c6.9,0,11.7-3.4,11.7-8.8
			c0-5.3-4.8-8.7-11.7-8.7c-7,0-11.6,3.4-11.6,8.7C235,112.9,239.6,116.3,246.6,116.3z M242.6,143.1h43.9v5.7h-50.9V127h7V143.1z
			 M294.4,99.4v5.9h-11.3v26.2h-7V74.3h7v25.1H294.4z"/>
		<path class="st0" d="M343.7,110.8v14h22.7v25.7h-7v-20.1H313v-5.6h23.7v-14h-31.1v-5.7h51.4c2-9.2,2-15.9,2-21.6h-44.6v-5.6H366
			v5.5c0,5.7,0,12.7-1.9,21.7h10.8v5.7H343.7z"/>
		<path class="st0" d="M405.2,117.2c-11.3,0-19.8-7.8-19.8-18.9c0-11,8.5-18.7,19.8-18.7c11.4,0,20,7.7,20,18.7
			C425.2,109.4,416.6,117.2,405.2,117.2z M405.2,111.1c7.6,0,13.2-5.3,13.2-12.9c0-7.4-5.6-12.7-13.2-12.7c-7.4,0-13,5.3-13,12.7
			C392.2,105.9,397.8,111.1,405.2,111.1z M448.6,143.1v5.7h-51.4v-24.5h7v18.8H448.6z M446.3,130h-7V74.3h7V130z"/>
		<path class="st0" d="M500,106.7c0,16.3-8.1,26.6-19.4,26.6s-19.4-10.4-19.4-26.6c0-16.3,8.1-26.6,19.4-26.6S500,90.5,500,106.7z
			 M467.9,106.7c0,12.4,5.3,20.4,12.8,20.4c7.4,0,12.7-8,12.7-20.4c0-12.3-5.3-20.3-12.7-20.3C473.2,86.4,467.9,94.4,467.9,106.7z
			 M520.9,74.2v76.5h-7V74.2H520.9z"/>
		<path class="st0" d="M608,106.7c0,16.3-7.9,26.6-19.2,26.6c-11.2,0-19.2-10.4-19.2-26.6c0-16.3,8-26.6,19.2-26.6
			C600.1,80.1,608,90.5,608,106.7z M601.3,106.7c0-12.3-5.2-20.3-12.5-20.3c-7.4,0-12.6,8-12.6,20.3c0,12.4,5.2,20.4,12.6,20.4
			C596.1,127.1,601.3,119.1,601.3,106.7z M639.8,110.5h-12.6v40h-7V74.3h7v30.4h12.6V110.5z"/>
		<path class="st0" d="M693.9,107.2c-12.8,2.6-24.2,3.5-37.5,3.5h-6.1V78h7v26.8c12.5,0,23.6-0.9,35.6-3.4L693.9,107.2z M701.4,118
			h6.9v31.5h-49.1V118h6.9v10.2h35.3V118z M701.4,133.7h-35.3v10.1h35.3V133.7z M708.3,74.3v40.2h-7V74.3H708.3z"/>
		<path class="st0" d="M731.9,124.8c11.5,0,23.3-1,36-3.6l0.8,6c-13.3,2.7-25.3,3.6-37.5,3.6h-6.3V81.6h7V124.8z M782.7,74.2v76.3
			h-7V74.2H782.7z"/>
		<path class="st0" d="M806.4,125.7c13.5,0,23.3-0.6,34.4-2.6l0.8,5.8c-11.7,2.2-21.7,2.7-36.1,2.7h-6V81.5h35.5v5.8h-28.5V125.7z
			 M867.5,110.1h-12.6v40.6h-7V74.2h7v30.1h12.6V110.1z"/>
	</g>
</g>
<rect x="37.8" y="221" class="st1" width="61" height="38.1"/>
<text transform="matrix(1 0 0 1 53.7124 239.0605)"><tspan x="0" y="0" class="st2 st3 st4">n</tspan><tspan x="15.3" y="0" class="st5 st3 st4">a</tspan></text>
<rect x="112" y="221" class="st1" width="61" height="38.1"/>
<text transform="matrix(1 0 0 1 112.2227 239.0605)"><tspan x="0" y="0" class="st2 st3 st4">n</tspan><tspan x="15.3" y="0" class="st5 st3 st4">oo</tspan><tspan x="45.3" y="0" class="st6 st3 st4">n</tspan></text>
<rect x="235.1" y="221" class="st1" width="61" height="38.1"/>
<text transform="matrix(1 0 0 1 243.3584 239.0605)"><tspan x="0" y="0" class="st2 st3 st4">h</tspan><tspan x="15.3" y="0" class="st5 st3 st4">a</tspan><tspan x="29.2" y="0" class="st6 st3 st4">n</tspan></text>
<rect x="304.4" y="221" class="st1" width="61" height="38.1"/>
<text transform="matrix(1 0 0 1 306.1245 239.0605)"><tspan x="0" y="0" class="st2 st3 st4">g</tspan><tspan x="13.6" y="0" class="st5 st3 st4">oo</tspan><tspan x="43.6" y="0" class="st6 st3 st4">k</tspan></text>
<rect x="386.5" y="221" class="st1" width="61" height="38.1"/>
<text transform="matrix(1 0 0 1 395.0005 239.0605)"><tspan x="0" y="0" class="st5 st3 st4">ee</tspan><tspan x="28.7" y="0" class="st6 st3 st4">n</tspan></text>
<rect x="465.1" y="221" class="st1" width="61" height="38.1"/>
<text transform="matrix(1 0 0 1 481.3008 239.0605)" class="st5 st3 st4">ee</text>
<rect x="569.6" y="221" class="st1" width="61" height="38.1"/>
<text transform="matrix(1 0 0 1 593.1221 239.0605)" class="st5 st3 st4">a</text>
<rect x="652" y="221" class="st1" width="61" height="38.1"/>
<text transform="matrix(1 0 0 1 652.7793 239.0605)"><tspan x="0" y="0" class="st2 st3 st4">n</tspan><tspan x="15.3" y="0" class="st5 st3 st4">ee</tspan><tspan x="44" y="0" class="st6 st3 st4">b</tspan></text>
<rect x="727.6" y="221" class="st1" width="61" height="38.1"/>
<text transform="matrix(1 0 0 1 736.1768 239.0605)"><tspan x="0" y="0" class="st2 st3 st4">n</tspan><tspan x="15.3" y="0" class="st5 st3 st4">ee</tspan></text>
<rect x="802.9" y="221" class="st1" width="61" height="38.1"/>
<text transform="matrix(1 0 0 1 818.6709 239.0605)"><tspan x="0" y="0" class="st2 st3 st4">d</tspan><tspan x="15.5" y="0" class="st5 st3 st4">a</tspan></text>
</svg>
