<?xml version="1.0" encoding="utf-8"?>
<!-- Generator: Adobe Illustrator 21.0.0, SVG Export Plug-In . SVG Version: 6.00 Build 0)  -->
<svg version="1.1" id="Layer_1" xmlns="http://www.w3.org/2000/svg" xmlns:xlink="http://www.w3.org/1999/xlink" x="0px" y="0px"
	 viewBox="0 0 900 300" style="enable-background:new 0 0 900 300;" xml:space="preserve">
<style type="text/css">
	.st0{fill:#047272;}
	.st1{fill:#FCDFEB;}
	.st2{fill:#FFCE00;}
	.st3{fill:#FFFFFF;}
	.st4{opacity:0.7;}
	.st5{fill:none;}
	.st6{font-family:'WorkSans-Regular';}
	.st7{font-size:24.6822px;}
</style>
<g>
	<rect x="378.1" y="52.4" class="st1" width="43.8" height="43.8"/>
	<rect x="429.3" y="52.1" class="st2" width="21.1" height="72.8"/>
	<rect x="406.6" y="129.7" class="st3" width="43.8" height="43.8"/>
	<rect x="672" y="129.3" class="st3" width="43.8" height="43.8"/>
	<rect x="646.2" y="52.2" class="st1" width="43.8" height="43.8"/>
	<rect x="694.7" y="51.8" class="st2" width="21.1" height="72.8"/>
	<rect x="257.1" y="129.7" class="st3" width="43.8" height="43.8"/>
	<rect x="228.3" y="52.4" class="st1" width="43.8" height="43.8"/>
	<rect x="279.5" y="52.1" class="st2" width="21.1" height="72.8"/>
	<rect x="31.6" y="71.9" class="st1" width="43.8" height="43.8"/>
	<rect x="80.1" y="71.5" class="st2" width="21.1" height="72.8"/>
	<rect x="459" y="71.9" class="st1" width="43.8" height="43.8"/>
	<rect x="507.5" y="71.5" class="st2" width="21.1" height="72.8"/>
	<rect x="720.7" y="71.9" class="st1" width="43.8" height="43.8"/>
	<rect x="769.2" y="71.5" class="st2" width="21.1" height="72.8"/>
	<rect x="795.1" y="71.9" class="st1" width="43.8" height="43.8"/>
	<rect x="843.6" y="71.5" class="st2" width="21.1" height="72.8"/>
	<rect x="569" y="71.9" class="st1" width="43.8" height="43.8"/>
	<rect x="617.5" y="71.5" class="st2" width="21.1" height="72.8"/>
	<rect x="120.2" y="52" class="st1" width="43.8" height="43.8"/>
	<rect x="120.2" y="129.7" class="st3" width="43.8" height="43.8"/>
	<rect x="120.2" y="102.3" class="st2" width="44.2" height="21.1"/>
	<rect x="312.8" y="52.2" class="st1" width="43.8" height="43.8"/>
	<rect x="312.8" y="129.7" class="st3" width="43.8" height="43.8"/>
	<rect x="312.8" y="103.1" class="st2" width="44.2" height="21.1"/>
</g>
<g class="st4">
	<g>
		<path class="st0" d="M42.1,124.9c11,0,22.3-0.9,34.6-3.4l0.9,5.8c-13,2.6-24.7,3.5-36.3,3.5h-6V81.1h6.9V124.9z M103.1,110H90.8
			V150h-7V73.7h7v30.5h12.3V110z"/>
		<path class="st0" d="M182.9,112.6v5.6h-69.2v-5.6H182.9z M129.6,142.5h45.9v5.7h-52.9v-22.3h7V142.5z M175,102.4h-51.9V76.5h7
			v20.2H175V102.4z"/>
		<path class="st0" d="M269.1,88.7h-45v-5.6h19v-9.3h7v9.3h19.1V88.7z M246.6,121.3c-10.8,0-18.2-5.6-18.2-14.2
			c0-8.5,7.4-14.1,18.2-14.1c10.8,0,18.3,5.6,18.3,14.1C264.9,115.7,257.4,121.3,246.6,121.3z M246.6,115.8c6.9,0,11.7-3.4,11.7-8.8
			c0-5.3-4.8-8.7-11.7-8.7c-7,0-11.6,3.4-11.6,8.7C235,112.4,239.6,115.8,246.6,115.8z M242.6,142.6h43.9v5.7h-50.9v-21.9h7V142.6z
			 M294.4,98.9v5.9h-11.3V131h-7V73.8h7v25.1H294.4z"/>
		<path class="st0" d="M343.7,110.3v14h22.7V150h-7v-20.1H313v-5.6h23.7v-14h-31.1v-5.7h51.4c2-9.2,2-15.9,2-21.6h-44.6v-5.6H366
			v5.5c0,5.7,0,12.7-1.9,21.7h10.8v5.7H343.7z"/>
		<path class="st0" d="M405.2,116.7c-11.3,0-19.8-7.8-19.8-18.9c0-11,8.5-18.7,19.8-18.7c11.4,0,20,7.7,20,18.7
			C425.2,108.9,416.6,116.7,405.2,116.7z M405.2,110.6c7.6,0,13.2-5.3,13.2-12.9c0-7.4-5.6-12.7-13.2-12.7c-7.4,0-13,5.3-13,12.7
			C392.2,105.4,397.8,110.6,405.2,110.6z M448.6,142.6v5.7h-51.4v-24.5h7v18.8H448.6z M446.3,129.5h-7V73.8h7V129.5z"/>
		<path class="st0" d="M500,106.2c0,16.3-8.1,26.6-19.4,26.6s-19.4-10.4-19.4-26.6c0-16.3,8.1-26.6,19.4-26.6S500,90,500,106.2z
			 M467.9,106.2c0,12.4,5.3,20.4,12.8,20.4c7.4,0,12.7-8,12.7-20.4c0-12.3-5.3-20.3-12.7-20.3C473.2,85.9,467.9,93.9,467.9,106.2z
			 M520.9,73.7v76.5h-7V73.7H520.9z"/>
		<path class="st0" d="M608,106.2c0,16.3-7.9,26.6-19.2,26.6c-11.2,0-19.2-10.4-19.2-26.6c0-16.3,8-26.6,19.2-26.6
			C600.1,79.6,608,90,608,106.2z M601.3,106.2c0-12.3-5.2-20.3-12.5-20.3c-7.4,0-12.6,8-12.6,20.3c0,12.4,5.2,20.4,12.6,20.4
			C596.1,126.6,601.3,118.6,601.3,106.2z M639.8,110h-12.6v40h-7V73.8h7v30.4h12.6V110z"/>
		<path class="st0" d="M693.9,106.7c-12.8,2.6-24.2,3.5-37.5,3.5h-6.1V77.5h7v26.8c12.5,0,23.6-0.9,35.6-3.4L693.9,106.7z
			 M701.4,117.5h6.9V149h-49.1v-31.5h6.9v10.2h35.3V117.5z M701.4,133.2h-35.3v10.1h35.3V133.2z M708.3,73.8V114h-7V73.8H708.3z"/>
		<path class="st0" d="M731.9,124.3c11.5,0,23.3-1,36-3.6l0.8,6c-13.3,2.7-25.3,3.6-37.5,3.6h-6.3V81.1h7V124.3z M782.7,73.7V150h-7
			V73.7H782.7z"/>
		<path class="st0" d="M806.4,125.2c13.5,0,23.3-0.6,34.4-2.6l0.8,5.8c-11.7,2.2-21.7,2.7-36.1,2.7h-6V81h35.5v5.8h-28.5V125.2z
			 M867.5,109.6h-12.6v40.6h-7V73.7h7v30.1h12.6V109.6z"/>
	</g>
</g>
<rect x="37.8" y="220.5" class="st5" width="61" height="38.1"/>
<text transform="matrix(1 0 0 1 53.7124 238.5605)"><tspan x="0" y="0" class="st1 st6 st7">n</tspan><tspan x="15.3" y="0" class="st2 st6 st7">a</tspan></text>
<rect x="112" y="220.5" class="st5" width="61" height="38.1"/>
<text transform="matrix(1 0 0 1 112.2227 238.5605)"><tspan x="0" y="0" class="st1 st6 st7">n</tspan><tspan x="15.3" y="0" class="st2 st6 st7">oo</tspan><tspan x="45.3" y="0" class="st3 st6 st7">n</tspan></text>
<rect x="235.1" y="220.5" class="st5" width="61" height="38.1"/>
<text transform="matrix(1 0 0 1 243.3584 238.5605)"><tspan x="0" y="0" class="st1 st6 st7">h</tspan><tspan x="15.3" y="0" class="st2 st6 st7">a</tspan><tspan x="29.2" y="0" class="st3 st6 st7">n</tspan></text>
<rect x="304.4" y="220.5" class="st5" width="61" height="38.1"/>
<text transform="matrix(1 0 0 1 306.1245 238.5605)"><tspan x="0" y="0" class="st1 st6 st7">g</tspan><tspan x="13.6" y="0" class="st2 st6 st7">oo</tspan><tspan x="43.6" y="0" class="st3 st6 st7">k</tspan></text>
<rect x="386.5" y="220.5" class="st5" width="61" height="38.1"/>
<text transform="matrix(1 0 0 1 395.0005 238.5605)"><tspan x="0" y="0" class="st2 st6 st7">ee</tspan><tspan x="28.7" y="0" class="st3 st6 st7">n</tspan></text>
<rect x="465.1" y="220.5" class="st5" width="61" height="38.1"/>
<text transform="matrix(1 0 0 1 481.3008 238.5605)" class="st2 st6 st7">ee</text>
<rect x="569.6" y="220.5" class="st5" width="61" height="38.1"/>
<text transform="matrix(1 0 0 1 593.1221 238.5605)" class="st2 st6 st7">a</text>
<rect x="652" y="220.5" class="st5" width="61" height="38.1"/>
<text transform="matrix(1 0 0 1 652.7793 238.5605)"><tspan x="0" y="0" class="st1 st6 st7">n</tspan><tspan x="15.3" y="0" class="st2 st6 st7">ee</tspan><tspan x="44" y="0" class="st3 st6 st7">b</tspan></text>
<rect x="727.6" y="220.5" class="st5" width="61" height="38.1"/>
<text transform="matrix(1 0 0 1 736.1768 238.5605)"><tspan x="0" y="0" class="st1 st6 st7">n</tspan><tspan x="15.3" y="0" class="st2 st6 st7">ee</tspan></text>
<rect x="802.9" y="220.5" class="st5" width="61" height="38.1"/>
<text transform="matrix(1 0 0 1 818.6709 238.5605)"><tspan x="0" y="0" class="st1 st6 st7">d</tspan><tspan x="15.5" y="0" class="st2 st6 st7">a</tspan></text>
</svg>
