<?xml version="1.0" encoding="utf-8"?>
<!-- Generator: Adobe Illustrator 21.0.0, SVG Export Plug-In . SVG Version: 6.00 Build 0)  -->
<svg version="1.1" id="Layer_1" xmlns="http://www.w3.org/2000/svg" xmlns:xlink="http://www.w3.org/1999/xlink" x="0px" y="0px"
	 viewBox="0 0 900 300" style="enable-background:new 0 0 900 300;" xml:space="preserve">
<style type="text/css">
	.st0{fill:#047272;}
	.st1{fill:#FCDFEB;}
	.st2{fill:#FFCE00;}
	.st3{fill:#FFFFFF;}
	.st4{opacity:0.7;}
	.st5{fill:none;}
	.st6{font-family:'WorkSans-Regular';}
	.st7{font-size:24.6822px;}
</style>
<g>
	<rect x="378.1" y="52.4" class="st1" width="43.8" height="43.8"/>
	<rect x="429.3" y="52.1" class="st2" width="21.1" height="72.8"/>
	<rect x="406.6" y="129.7" class="st3" width="43.8" height="43.8"/>
	<rect x="672" y="129.3" class="st3" width="43.8" height="43.8"/>
	<rect x="646.2" y="52.2" class="st1" width="43.8" height="43.8"/>
	<rect x="694.7" y="51.8" class="st2" width="21.1" height="72.8"/>
	<rect x="257.1" y="129.7" class="st3" width="43.8" height="43.8"/>
	<rect x="228.3" y="52.4" class="st1" width="43.8" height="43.8"/>
	<rect x="279.5" y="52.1" class="st2" width="21.1" height="72.8"/>
	<rect x="31.6" y="71.9" class="st1" width="43.8" height="43.8"/>
	<rect x="80.1" y="71.5" class="st2" width="21.1" height="72.8"/>
	<rect x="459" y="71.9" class="st1" width="43.8" height="43.8"/>
	<rect x="507.5" y="71.5" class="st2" width="21.1" height="72.8"/>
	<rect x="720.7" y="71.9" class="st1" width="43.8" height="43.8"/>
	<rect x="769.2" y="71.5" class="st2" width="21.1" height="72.8"/>
	<rect x="795.1" y="71.9" class="st1" width="43.8" height="43.8"/>
	<rect x="843.6" y="71.5" class="st2" width="21.1" height="72.8"/>
	<rect x="569" y="71.9" class="st1" width="43.8" height="43.8"/>
	<rect x="617.5" y="71.5" class="st2" width="21.1" height="72.8"/>
	<rect x="120.2" y="52" class="st1" width="43.8" height="43.8"/>
	<rect x="120.2" y="129.7" class="st3" width="43.8" height="43.8"/>
	<rect x="120.2" y="102.3" class="st2" width="44.2" height="21.1"/>
	<rect x="312.8" y="52.2" class="st1" width="43.8" height="43.8"/>
	<rect x="312.8" y="129.7" class="st3" width="43.8" height="43.8"/>
	<rect x="312.8" y="103.1" class="st2" width="44.2" height="21.1"/>
</g>
<rect x="37.8" y="220.5" class="st5" width="61" height="38.1"/>
<text transform="matrix(1 0 0 1 53.7124 238.5605)"><tspan x="0" y="0" class="st1 st6 st7">n</tspan><tspan x="15.3" y="0" class="st2 st6 st7">a</tspan></text>
<rect x="112" y="220.5" class="st5" width="61" height="38.1"/>
<text transform="matrix(1 0 0 1 112.2227 238.5605)"><tspan x="0" y="0" class="st1 st6 st7">n</tspan><tspan x="15.3" y="0" class="st2 st6 st7">oo</tspan><tspan x="45.3" y="0" class="st3 st6 st7">n</tspan></text>
<rect x="235.1" y="220.5" class="st5" width="61" height="38.1"/>
<text transform="matrix(1 0 0 1 243.3584 238.5605)"><tspan x="0" y="0" class="st1 st6 st7">h</tspan><tspan x="15.3" y="0" class="st2 st6 st7">a</tspan><tspan x="29.2" y="0" class="st3 st6 st7">n</tspan></text>
<rect x="304.4" y="220.5" class="st5" width="61" height="38.1"/>
<text transform="matrix(1 0 0 1 306.1245 238.5605)"><tspan x="0" y="0" class="st1 st6 st7">g</tspan><tspan x="13.6" y="0" class="st2 st6 st7">oo</tspan><tspan x="43.6" y="0" class="st3 st6 st7">k</tspan></text>
<rect x="386.5" y="220.5" class="st5" width="61" height="38.1"/>
<text transform="matrix(1 0 0 1 395.0005 238.5605)"><tspan x="0" y="0" class="st2 st6 st7">ee</tspan><tspan x="28.7" y="0" class="st3 st6 st7">n</tspan></text>
<rect x="465.1" y="220.5" class="st5" width="61" height="38.1"/>
<text transform="matrix(1 0 0 1 481.3008 238.5605)" class="st2 st6 st7">ee</text>
<rect x="569.6" y="220.5" class="st5" width="61" height="38.1"/>
<text transform="matrix(1 0 0 1 593.1221 238.5605)" class="st2 st6 st7">a</text>
<rect x="652" y="220.5" class="st5" width="61" height="38.1"/>
<text transform="matrix(1 0 0 1 652.7793 238.5605)"><tspan x="0" y="0" class="st1 st6 st7">n</tspan><tspan x="15.3" y="0" class="st2 st6 st7">ee</tspan><tspan x="44" y="0" class="st3 st6 st7">b</tspan></text>
<rect x="727.6" y="220.5" class="st5" width="61" height="38.1"/>
<text transform="matrix(1 0 0 1 736.1768 238.5605)"><tspan x="0" y="0" class="st1 st6 st7">n</tspan><tspan x="15.3" y="0" class="st2 st6 st7">ee</tspan></text>
<rect x="802.9" y="220.5" class="st5" width="61" height="38.1"/>
<text transform="matrix(1 0 0 1 818.6709 238.5605)"><tspan x="0" y="0" class="st1 st6 st7">d</tspan><tspan x="15.5" y="0" class="st2 st6 st7">a</tspan></text>
</svg>
