<?xml version="1.0" encoding="utf-8"?>
<!-- Generator: Adobe Illustrator 21.0.0, SVG Export Plug-In . SVG Version: 6.00 Build 0)  -->
<svg version="1.1" id="Layer_1" xmlns="http://www.w3.org/2000/svg" xmlns:xlink="http://www.w3.org/1999/xlink" x="0px" y="0px"
	 viewBox="0 0 900 70" style="enable-background:new 0 0 900 70;" xml:space="preserve">
<style type="text/css">
	.st0{enable-background:new    ;}
	.st1{fill:#FCDFEB;}
	.st2{fill:#FFCE00;}
	.st3{fill:#FFFFFF;}
</style>
<g class="st0">
	<path class="st1" d="M65.5,27.2c0.9,0.8,1.4,2,1.4,3.5v7.9h-2v-7.2c0-1.3-0.3-2.2-0.8-2.8s-1.3-0.9-2.2-0.9c-0.7,0-1.3,0.1-1.9,0.4
		c-0.6,0.3-1,0.8-1.4,1.4C58.2,30.2,58,31,58,32v6.6h-2V26.2h1.7l0.1,1.9c0.4-0.7,1-1.3,1.7-1.6c0.7-0.4,1.5-0.5,2.4-0.5
		C63.4,26,64.6,26.4,65.5,27.2z"/>
</g>
<g class="st0">
	<path class="st2" d="M82.4,37l-0.1,1.6c-0.5,0.2-1,0.2-1.5,0.2c-0.6,0-1.1-0.1-1.5-0.4c-0.4-0.3-0.6-0.7-0.7-1.4
		c-0.4,0.6-0.9,1-1.7,1.3c-0.7,0.3-1.5,0.5-2.3,0.5c-1.2,0-2.2-0.3-3-0.9c-0.8-0.6-1.2-1.4-1.2-2.5c0-0.9,0.4-1.7,1.2-2.4
		c0.8-0.7,2-1.2,3.6-1.4l3.3-0.5v-0.7c0-0.8-0.3-1.5-0.8-2c-0.5-0.5-1.2-0.7-2.1-0.7c-0.8,0-1.5,0.2-2.1,0.6c-0.6,0.4-1.1,1-1.4,1.8
		L70.6,29c0.3-0.9,0.9-1.7,1.8-2.2s1.9-0.8,3.1-0.8c1.5,0,2.6,0.4,3.5,1.1c0.9,0.7,1.3,1.8,1.3,3.1v6.1c0,0.3,0.1,0.5,0.2,0.7
		c0.1,0.1,0.4,0.2,0.7,0.2S82.1,37.1,82.4,37z M77.4,36.3c0.7-0.5,1.1-1.1,1.1-1.9v-1.7l-2.8,0.5c-1.1,0.2-1.9,0.5-2.5,0.9
		s-0.8,0.8-0.8,1.4c0,0.5,0.2,0.9,0.6,1.2c0.4,0.3,0.9,0.4,1.7,0.4C75.8,37.1,76.6,36.8,77.4,36.3z"/>
</g>
<g class="st0">
	<path class="st1" d="M124,27.2c0.9,0.8,1.4,2,1.4,3.5v7.9h-2v-7.2c0-1.3-0.3-2.2-0.8-2.8s-1.3-0.9-2.2-0.9c-0.7,0-1.3,0.1-1.9,0.4
		c-0.6,0.3-1,0.8-1.4,1.4c-0.4,0.7-0.6,1.5-0.6,2.5v6.6h-2V26.2h1.7l0.1,1.9c0.4-0.7,1-1.3,1.7-1.6c0.7-0.4,1.5-0.5,2.4-0.5
		C121.9,26,123.1,26.4,124,27.2z"/>
</g>
<g class="st0">
	<path class="st2" d="M139.4,27.7c1.1,1.1,1.6,2.7,1.6,4.7c0,2-0.5,3.6-1.6,4.7c-1.1,1.1-2.5,1.7-4.4,1.7c-1.9,0-3.3-0.6-4.4-1.7
		c-1.1-1.1-1.6-2.7-1.6-4.7c0-2,0.5-3.6,1.6-4.7c1.1-1.1,2.5-1.7,4.4-1.7C136.9,26,138.3,26.5,139.4,27.7z M132.1,28.9
		c-0.7,0.8-1.1,2-1.1,3.5c0,1.5,0.4,2.6,1.1,3.5c0.7,0.8,1.7,1.3,2.9,1.3c1.2,0,2.2-0.4,2.9-1.3c0.7-0.8,1.1-2,1.1-3.5
		c0-1.5-0.4-2.6-1.1-3.5c-0.7-0.8-1.7-1.3-2.9-1.3C133.8,27.7,132.8,28.1,132.1,28.9z"/>
	<path class="st2" d="M154.4,27.7c1.1,1.1,1.6,2.7,1.6,4.7c0,2-0.5,3.6-1.6,4.7c-1.1,1.1-2.5,1.7-4.4,1.7s-3.3-0.6-4.4-1.7
		c-1.1-1.1-1.6-2.7-1.6-4.7c0-2,0.5-3.6,1.6-4.7s2.5-1.7,4.4-1.7S153.4,26.5,154.4,27.7z M147.1,28.9c-0.7,0.8-1.1,2-1.1,3.5
		c0,1.5,0.4,2.6,1.1,3.5c0.7,0.8,1.7,1.3,2.9,1.3c1.3,0,2.2-0.4,2.9-1.3c0.7-0.8,1.1-2,1.1-3.5c0-1.5-0.4-2.6-1.1-3.5
		c-0.7-0.8-1.7-1.3-2.9-1.3C148.8,27.7,147.8,28.1,147.1,28.9z"/>
</g>
<g class="st0">
	<path class="st3" d="M169.3,27.2c0.9,0.8,1.4,2,1.4,3.5v7.9h-2v-7.2c0-1.3-0.3-2.2-0.8-2.8c-0.6-0.6-1.3-0.9-2.2-0.9
		c-0.7,0-1.3,0.1-1.9,0.4c-0.6,0.3-1,0.8-1.4,1.4c-0.4,0.7-0.6,1.5-0.6,2.5v6.6h-2V26.2h1.7l0.1,1.9c0.4-0.7,1-1.3,1.7-1.6
		c0.7-0.4,1.5-0.5,2.4-0.5C167.2,26,168.4,26.4,169.3,27.2z"/>
</g>
<g class="st0">
	<path class="st1" d="M255.1,27.2c0.9,0.8,1.4,2,1.4,3.5v7.9h-2v-7.2c0-1.3-0.3-2.2-0.8-2.8s-1.3-0.9-2.2-0.9
		c-0.6,0-1.3,0.1-1.8,0.4s-1.1,0.8-1.4,1.4c-0.4,0.7-0.6,1.5-0.6,2.5v6.5h-2v-18h2v7.5c0.4-0.7,1-1.2,1.7-1.6
		c0.7-0.3,1.5-0.5,2.4-0.5C253,26,254.2,26.4,255.1,27.2z"/>
</g>
<g class="st0">
	<path class="st2" d="M272.1,37l-0.1,1.6c-0.5,0.2-1,0.2-1.5,0.2c-0.6,0-1.1-0.1-1.5-0.4c-0.4-0.3-0.6-0.7-0.7-1.4
		c-0.4,0.6-0.9,1-1.7,1.3c-0.7,0.3-1.5,0.5-2.3,0.5c-1.2,0-2.2-0.3-3-0.9c-0.8-0.6-1.2-1.4-1.2-2.5c0-0.9,0.4-1.7,1.2-2.4
		c0.8-0.7,2-1.2,3.6-1.4l3.3-0.5v-0.7c0-0.8-0.3-1.5-0.8-2c-0.5-0.5-1.2-0.7-2.1-0.7c-0.8,0-1.5,0.2-2.1,0.6c-0.6,0.4-1.1,1-1.4,1.8
		l-1.5-1.1c0.3-0.9,0.9-1.7,1.8-2.2s1.9-0.8,3.1-0.8c1.5,0,2.6,0.4,3.5,1.1c0.9,0.7,1.3,1.8,1.3,3.1v6.1c0,0.3,0.1,0.5,0.2,0.7
		c0.1,0.1,0.4,0.2,0.7,0.2S271.7,37.1,272.1,37z M267,36.3c0.7-0.5,1.1-1.1,1.1-1.9v-1.7l-2.8,0.5c-1.1,0.2-1.9,0.5-2.5,0.9
		s-0.8,0.8-0.8,1.4c0,0.5,0.2,0.9,0.6,1.2c0.4,0.3,0.9,0.4,1.7,0.4C265.4,37.1,266.3,36.8,267,36.3z"/>
</g>
<g class="st0">
	<path class="st3" d="M284.3,27.2c0.9,0.8,1.4,2,1.4,3.5v7.9h-2v-7.2c0-1.3-0.3-2.2-0.8-2.8s-1.3-0.9-2.2-0.9
		c-0.7,0-1.3,0.1-1.9,0.4c-0.6,0.3-1,0.8-1.4,1.4c-0.4,0.7-0.6,1.5-0.6,2.5v6.6h-2V26.2h1.7l0.1,1.9c0.4-0.7,1-1.3,1.7-1.6
		c0.7-0.4,1.5-0.5,2.4-0.5C282.2,26,283.4,26.4,284.3,27.2z"/>
</g>
<g class="st0">
	<path class="st1" d="M318,37.8c0.7,0.5,1,1.2,1,2.1c0,0.8-0.3,1.5-0.8,2.1s-1.3,1.1-2.2,1.4c-0.9,0.3-2,0.5-3.1,0.5
		c-1.9,0-3.3-0.3-4.2-0.9c-1-0.6-1.4-1.4-1.4-2.4c0-0.6,0.2-1.1,0.6-1.5s0.9-0.7,1.6-0.9c-0.5-0.2-0.9-0.6-1.2-0.9s-0.5-0.8-0.5-1.3
		c0-0.6,0.2-1.1,0.5-1.5s0.8-0.7,1.4-0.9c-0.6-0.4-1-0.8-1.3-1.4c-0.3-0.6-0.5-1.2-0.5-2c0-0.8,0.2-1.5,0.6-2.2
		c0.4-0.6,1-1.1,1.8-1.5c0.8-0.4,1.6-0.5,2.6-0.5c0.9,0,1.8,0.2,2.5,0.5c0.5-1.7,1.6-2.5,3.5-2.5l0.4,1.7c-1.6,0-2.6,0.5-2.9,1.4
		c0.5,0.4,0.9,0.8,1.1,1.4s0.4,1.1,0.4,1.8c0,0.8-0.2,1.5-0.6,2.2s-1,1.1-1.8,1.5c-0.8,0.4-1.6,0.5-2.6,0.5c-0.7,0-1.4-0.1-1.9-0.2
		c-0.5,0.1-0.8,0.3-1.1,0.5c-0.2,0.2-0.3,0.6-0.3,1s0.1,0.8,0.4,1c0.3,0.2,0.7,0.3,1.2,0.3h4.1C316.5,37,317.4,37.2,318,37.8z
		 M316.1,41.6c0.7-0.4,1.1-0.9,1.1-1.5c0-0.5-0.2-0.8-0.6-1.1c-0.4-0.2-1-0.4-1.9-0.4h-3.3c-0.8,0-1.3,0.1-1.8,0.4
		c-0.4,0.3-0.6,0.6-0.6,1.1c0,0.6,0.3,1.1,1,1.5s1.7,0.5,3,0.5C314.4,42.2,315.4,42,316.1,41.6z M310.7,28.3
		c-0.6,0.5-0.9,1.1-0.9,1.9c0,0.8,0.3,1.4,0.9,1.9c0.6,0.5,1.3,0.7,2.1,0.7c0.9,0,1.6-0.2,2.1-0.7c0.6-0.5,0.9-1.1,0.9-1.9
		c0-0.8-0.3-1.4-0.9-1.9c-0.6-0.5-1.3-0.7-2.1-0.7C312,27.6,311.3,27.8,310.7,28.3z"/>
</g>
<g class="st0">
	<path class="st2" d="M331.6,27.7c1.1,1.1,1.6,2.7,1.6,4.7c0,2-0.5,3.6-1.6,4.7c-1.1,1.1-2.5,1.7-4.4,1.7c-1.9,0-3.3-0.6-4.4-1.7
		c-1.1-1.1-1.6-2.7-1.6-4.7c0-2,0.5-3.6,1.6-4.7c1.1-1.1,2.5-1.7,4.4-1.7C329.1,26,330.5,26.5,331.6,27.7z M324.3,28.9
		c-0.7,0.8-1.1,2-1.1,3.5c0,1.5,0.4,2.6,1.1,3.5c0.7,0.8,1.7,1.3,2.9,1.3s2.2-0.4,2.9-1.3c0.7-0.8,1.1-2,1.1-3.5
		c0-1.5-0.4-2.6-1.1-3.5s-1.7-1.3-2.9-1.3S325,28.1,324.3,28.9z"/>
	<path class="st2" d="M346.6,27.7c1.1,1.1,1.6,2.7,1.6,4.7c0,2-0.5,3.6-1.6,4.7c-1.1,1.1-2.5,1.7-4.4,1.7c-1.9,0-3.3-0.6-4.4-1.7
		c-1.1-1.1-1.6-2.7-1.6-4.7c0-2,0.5-3.6,1.6-4.7c1.1-1.1,2.5-1.7,4.4-1.7C344.1,26,345.6,26.5,346.6,27.7z M339.3,28.9
		c-0.7,0.8-1.1,2-1.1,3.5c0,1.5,0.4,2.6,1.1,3.5c0.7,0.8,1.7,1.3,2.9,1.3s2.2-0.4,2.9-1.3c0.7-0.8,1.1-2,1.1-3.5
		c0-1.5-0.4-2.6-1.1-3.5s-1.7-1.3-2.9-1.3S340,28.1,339.3,28.9z"/>
</g>
<g class="st0">
	<path class="st3" d="M356.6,32.5l-2.6,2.6v3.5h-2v-18h2v12.1l6.4-6.4h2.5L358,31l5.1,7.5h-2.4L356.6,32.5z"/>
</g>
<g class="st0">
	<path class="st2" d="M407.8,33.1h-9.3c0.1,1.2,0.5,2.2,1.2,2.9s1.6,1,2.8,1c0.9,0,1.7-0.2,2.3-0.5c0.6-0.3,1-0.8,1.2-1.4l1.7,0.9
		c-0.5,0.9-1.2,1.5-2,2c-0.8,0.5-1.9,0.7-3.2,0.7c-1.9,0-3.3-0.6-4.4-1.7c-1.1-1.1-1.6-2.7-1.6-4.7c0-2,0.5-3.6,1.5-4.7
		c1-1.1,2.4-1.7,4.3-1.7c1.2,0,2.1,0.3,3,0.8c0.8,0.5,1.5,1.2,1.9,2.1s0.6,1.9,0.6,2.9C407.9,32.2,407.9,32.7,407.8,33.1z
		 M399.7,28.7c-0.7,0.6-1.1,1.5-1.2,2.7h7.5c-0.1-1.2-0.5-2.1-1.1-2.7c-0.6-0.7-1.5-1-2.5-1C401.3,27.7,400.4,28,399.7,28.7z"/>
	<path class="st2" d="M422.1,33.1h-9.3c0.1,1.2,0.5,2.2,1.2,2.9s1.6,1,2.8,1c0.9,0,1.7-0.2,2.3-0.5c0.6-0.3,1-0.8,1.2-1.4l1.7,0.9
		c-0.5,0.9-1.2,1.5-2,2c-0.8,0.5-1.9,0.7-3.2,0.7c-1.9,0-3.3-0.6-4.4-1.7c-1.1-1.1-1.6-2.7-1.6-4.7c0-2,0.5-3.6,1.5-4.7
		c1-1.1,2.4-1.7,4.3-1.7c1.2,0,2.1,0.3,3,0.8c0.8,0.5,1.5,1.2,1.9,2.1s0.6,1.9,0.6,2.9C422.2,32.2,422.2,32.7,422.1,33.1z
		 M414.1,28.7c-0.7,0.6-1.1,1.5-1.2,2.7h7.5c-0.1-1.2-0.5-2.1-1.1-2.7c-0.6-0.7-1.5-1-2.5-1C415.6,27.7,414.7,28,414.1,28.7z"/>
</g>
<g class="st0">
	<path class="st3" d="M435.4,27.2c0.9,0.8,1.4,2,1.4,3.5v7.9h-2v-7.2c0-1.3-0.3-2.2-0.8-2.8s-1.3-0.9-2.2-0.9
		c-0.7,0-1.3,0.1-1.9,0.4c-0.6,0.3-1,0.8-1.4,1.4c-0.4,0.7-0.6,1.5-0.6,2.5v6.6h-2V26.2h1.7l0.1,1.9c0.4-0.7,1-1.3,1.7-1.6
		c0.7-0.4,1.5-0.5,2.4-0.5C433.4,26,434.5,26.4,435.4,27.2z"/>
</g>
<g class="st0">
	<path class="st2" d="M494.1,33.1h-9.3c0.1,1.2,0.5,2.2,1.2,2.9s1.6,1,2.8,1c0.9,0,1.7-0.2,2.3-0.5c0.6-0.3,1-0.8,1.2-1.4l1.7,0.9
		c-0.5,0.9-1.2,1.5-2,2c-0.8,0.5-1.9,0.7-3.2,0.7c-1.9,0-3.3-0.6-4.4-1.7c-1.1-1.1-1.6-2.7-1.6-4.7c0-2,0.5-3.6,1.5-4.7
		c1-1.1,2.4-1.7,4.3-1.7c1.2,0,2.1,0.3,3,0.8c0.8,0.5,1.5,1.2,1.9,2.1s0.6,1.9,0.6,2.9C494.2,32.2,494.2,32.7,494.1,33.1z M486,28.7
		c-0.7,0.6-1.1,1.5-1.2,2.7h7.5c-0.1-1.2-0.5-2.1-1.1-2.7c-0.6-0.7-1.5-1-2.5-1C487.6,27.7,486.7,28,486,28.7z"/>
	<path class="st2" d="M508.4,33.1h-9.3c0.1,1.2,0.5,2.2,1.2,2.9c0.7,0.7,1.6,1,2.8,1c0.9,0,1.7-0.2,2.3-0.5c0.6-0.3,1-0.8,1.2-1.4
		l1.7,0.9c-0.5,0.9-1.2,1.5-2,2c-0.8,0.5-1.9,0.7-3.2,0.7c-1.9,0-3.3-0.6-4.4-1.7c-1.1-1.1-1.6-2.7-1.6-4.7c0-2,0.5-3.6,1.5-4.7
		s2.4-1.7,4.3-1.7c1.2,0,2.1,0.3,3,0.8c0.8,0.5,1.5,1.2,1.9,2.1s0.6,1.9,0.6,2.9C508.5,32.2,508.5,32.7,508.4,33.1z M500.4,28.7
		c-0.7,0.6-1.1,1.5-1.2,2.7h7.5c-0.1-1.2-0.5-2.1-1.1-2.7c-0.6-0.7-1.5-1-2.5-1C501.9,27.7,501,28,500.4,28.7z"/>
</g>
<g class="st0">
	<path class="st2" d="M606.5,37l-0.1,1.6c-0.5,0.2-1,0.2-1.5,0.2c-0.6,0-1.1-0.1-1.5-0.4c-0.4-0.3-0.6-0.7-0.7-1.4
		c-0.4,0.6-0.9,1-1.7,1.3c-0.7,0.3-1.5,0.5-2.3,0.5c-1.2,0-2.2-0.3-3-0.9c-0.8-0.6-1.2-1.4-1.2-2.5c0-0.9,0.4-1.7,1.2-2.4
		c0.8-0.7,2-1.2,3.6-1.4l3.3-0.5v-0.7c0-0.8-0.3-1.5-0.8-2c-0.5-0.5-1.2-0.7-2.1-0.7c-0.8,0-1.5,0.2-2.1,0.6c-0.6,0.4-1.1,1-1.4,1.8
		l-1.5-1.1c0.3-0.9,0.9-1.7,1.8-2.2s1.9-0.8,3.1-0.8c1.5,0,2.6,0.4,3.5,1.1c0.9,0.7,1.3,1.8,1.3,3.1v6.1c0,0.3,0.1,0.5,0.2,0.7
		c0.1,0.1,0.4,0.2,0.7,0.2S606.2,37.1,606.5,37z M601.5,36.3c0.7-0.5,1.1-1.1,1.1-1.9v-1.7l-2.8,0.5c-1.1,0.2-1.9,0.5-2.5,0.9
		s-0.8,0.8-0.8,1.4c0,0.5,0.2,0.9,0.6,1.2c0.4,0.3,0.9,0.4,1.7,0.4C599.9,37.1,600.8,36.8,601.5,36.3z"/>
</g>
<g class="st0">
	<path class="st1" d="M664.5,27.2c0.9,0.8,1.4,2,1.4,3.5v7.9h-2v-7.2c0-1.3-0.3-2.2-0.8-2.8s-1.3-0.9-2.2-0.9
		c-0.7,0-1.3,0.1-1.9,0.4c-0.6,0.3-1,0.8-1.4,1.4c-0.4,0.7-0.6,1.5-0.6,2.5v6.6h-2V26.2h1.7l0.1,1.9c0.4-0.7,1-1.3,1.7-1.6
		c0.7-0.4,1.5-0.5,2.4-0.5C662.5,26,663.6,26.4,664.5,27.2z"/>
</g>
<g class="st0">
	<path class="st2" d="M680.9,33.1h-9.3c0.1,1.2,0.5,2.2,1.2,2.9s1.6,1,2.8,1c0.9,0,1.7-0.2,2.3-0.5c0.6-0.3,1-0.8,1.2-1.4l1.7,0.9
		c-0.5,0.9-1.2,1.5-2,2c-0.8,0.5-1.9,0.7-3.2,0.7c-1.9,0-3.3-0.6-4.4-1.7c-1.1-1.1-1.6-2.7-1.6-4.7c0-2,0.5-3.6,1.5-4.7
		c1-1.1,2.4-1.7,4.3-1.7c1.2,0,2.1,0.3,3,0.8c0.8,0.5,1.5,1.2,1.9,2.1s0.6,1.9,0.6,2.9C681,32.2,680.9,32.7,680.9,33.1z M672.8,28.7
		c-0.7,0.6-1.1,1.5-1.2,2.7h7.5c-0.1-1.2-0.5-2.1-1.1-2.7c-0.6-0.7-1.5-1-2.5-1C674.3,27.7,673.5,28,672.8,28.7z"/>
	<path class="st2" d="M695.2,33.1h-9.3c0.1,1.2,0.5,2.2,1.2,2.9s1.6,1,2.8,1c0.9,0,1.7-0.2,2.3-0.5c0.6-0.3,1-0.8,1.2-1.4l1.7,0.9
		c-0.5,0.9-1.2,1.5-2,2c-0.8,0.5-1.9,0.7-3.2,0.7c-1.9,0-3.3-0.6-4.4-1.7c-1.1-1.1-1.6-2.7-1.6-4.7c0-2,0.5-3.6,1.5-4.7
		s2.4-1.7,4.3-1.7c1.2,0,2.1,0.3,3,0.8c0.8,0.5,1.5,1.2,1.9,2.1s0.6,1.9,0.6,2.9C695.3,32.2,695.3,32.7,695.2,33.1z M687.1,28.7
		c-0.7,0.6-1.1,1.5-1.2,2.7h7.5c-0.1-1.2-0.5-2.1-1.1-2.7c-0.6-0.7-1.5-1-2.5-1C688.7,27.7,687.8,28,687.1,28.7z"/>
</g>
<g class="st0">
	<path class="st3" d="M709.3,27.7c1,1.1,1.5,2.7,1.5,4.7c0,2-0.5,3.6-1.5,4.7s-2.4,1.7-4.1,1.7c-1,0-1.8-0.2-2.6-0.7
		c-0.7-0.4-1.3-1-1.7-1.7l-0.1,2.1h-1.7v-18h2v7.6c0.4-0.7,1-1.2,1.7-1.6c0.7-0.4,1.5-0.6,2.4-0.6C706.9,26,708.2,26.5,709.3,27.7z
		 M707.8,35.8c0.7-0.8,1-2,1-3.4s-0.3-2.6-1-3.4c-0.7-0.8-1.6-1.3-2.8-1.3c-1.2,0-2.1,0.4-2.8,1.2c-0.7,0.8-1,1.9-1,3.3v0.3
		c0,1.4,0.3,2.5,1,3.3s1.6,1.2,2.8,1.2C706.1,37.1,707.1,36.7,707.8,35.8z"/>
</g>
<g class="st0">
	<path class="st1" d="M747.9,27.2c0.9,0.8,1.4,2,1.4,3.5v7.9h-2v-7.2c0-1.3-0.3-2.2-0.8-2.8s-1.3-0.9-2.2-0.9
		c-0.7,0-1.3,0.1-1.9,0.4c-0.6,0.3-1,0.8-1.4,1.4c-0.4,0.7-0.6,1.5-0.6,2.5v6.6h-2V26.2h1.7l0.1,1.9c0.4-0.7,1-1.3,1.7-1.6
		c0.7-0.4,1.5-0.5,2.4-0.5C745.9,26,747,26.4,747.9,27.2z"/>
</g>
<g class="st0">
	<path class="st2" d="M764.3,33.1H755c0.1,1.2,0.5,2.2,1.2,2.9s1.6,1,2.8,1c0.9,0,1.7-0.2,2.3-0.5c0.6-0.3,1-0.8,1.2-1.4l1.7,0.9
		c-0.5,0.9-1.2,1.5-2,2c-0.8,0.5-1.9,0.7-3.2,0.7c-1.9,0-3.3-0.6-4.4-1.7c-1.1-1.1-1.6-2.7-1.6-4.7c0-2,0.5-3.6,1.5-4.7
		c1-1.1,2.4-1.7,4.3-1.7c1.2,0,2.1,0.3,3,0.8c0.8,0.5,1.5,1.2,1.9,2.1s0.6,1.9,0.6,2.9C764.4,32.2,764.3,32.7,764.3,33.1z
		 M756.2,28.7c-0.7,0.6-1.1,1.5-1.2,2.7h7.5c-0.1-1.2-0.5-2.1-1.1-2.7c-0.6-0.7-1.5-1-2.5-1C757.7,27.7,756.9,28,756.2,28.7z"/>
	<path class="st2" d="M778.6,33.1h-9.3c0.1,1.2,0.5,2.2,1.2,2.9s1.6,1,2.8,1c0.9,0,1.7-0.2,2.3-0.5c0.6-0.3,1-0.8,1.2-1.4l1.7,0.9
		c-0.5,0.9-1.2,1.5-2,2c-0.8,0.5-1.9,0.7-3.2,0.7c-1.9,0-3.3-0.6-4.4-1.7c-1.1-1.1-1.6-2.7-1.6-4.7c0-2,0.5-3.6,1.5-4.7
		s2.4-1.7,4.3-1.7c1.2,0,2.1,0.3,3,0.8c0.8,0.5,1.5,1.2,1.9,2.1s0.6,1.9,0.6,2.9C778.7,32.2,778.7,32.7,778.6,33.1z M770.5,28.7
		c-0.7,0.6-1.1,1.5-1.2,2.7h7.5c-0.1-1.2-0.5-2.1-1.1-2.7c-0.6-0.7-1.5-1-2.5-1C772.1,27.7,771.2,28,770.5,28.7z"/>
</g>
<g class="st0">
	<path class="st1" d="M831.9,20.5v18h-1.7l-0.1-2.1c-0.4,0.7-0.9,1.3-1.7,1.7c-0.7,0.4-1.6,0.7-2.6,0.7c-1.7,0-3.1-0.6-4.1-1.7
		s-1.5-2.7-1.5-4.7c0-2,0.5-3.6,1.5-4.7s2.4-1.7,4.1-1.7c0.9,0,1.7,0.2,2.4,0.6c0.7,0.4,1.3,0.9,1.7,1.6v-7.6H831.9z M828.9,35.8
		c0.7-0.8,1-1.9,1-3.3v-0.3c0-1.4-0.3-2.5-1-3.3c-0.7-0.8-1.6-1.2-2.8-1.2c-1.2,0-2.1,0.4-2.8,1.3c-0.7,0.8-1,2-1,3.4s0.3,2.6,1,3.4
		c0.7,0.8,1.6,1.3,2.8,1.3C827.3,37.1,828.2,36.7,828.9,35.8z"/>
</g>
<g class="st0">
	<path class="st2" d="M847.6,37l-0.1,1.6c-0.5,0.2-1,0.2-1.5,0.2c-0.6,0-1.1-0.1-1.5-0.4c-0.4-0.3-0.6-0.7-0.7-1.4
		c-0.4,0.6-0.9,1-1.7,1.3c-0.7,0.3-1.5,0.5-2.3,0.5c-1.2,0-2.2-0.3-3-0.9c-0.8-0.6-1.2-1.4-1.2-2.5c0-0.9,0.4-1.7,1.2-2.4
		c0.8-0.7,2-1.2,3.6-1.4l3.3-0.5v-0.7c0-0.8-0.3-1.5-0.8-2c-0.5-0.5-1.2-0.7-2.1-0.7c-0.8,0-1.5,0.2-2.1,0.6c-0.6,0.4-1.1,1-1.4,1.8
		l-1.5-1.1c0.3-0.9,0.9-1.7,1.8-2.2s1.9-0.8,3.1-0.8c1.5,0,2.6,0.4,3.5,1.1c0.9,0.7,1.3,1.8,1.3,3.1v6.1c0,0.3,0.1,0.5,0.2,0.7
		c0.1,0.1,0.4,0.2,0.7,0.2S847.2,37.1,847.6,37z M842.6,36.3c0.7-0.5,1.1-1.1,1.1-1.9v-1.7l-2.8,0.5c-1.1,0.2-1.9,0.5-2.5,0.9
		s-0.8,0.8-0.8,1.4c0,0.5,0.2,0.9,0.6,1.2c0.4,0.3,0.9,0.4,1.7,0.4C840.9,37.1,841.8,36.8,842.6,36.3z"/>
</g>
</svg>
