<svg id="Layer_1" data-name="Layer 1" xmlns="http://www.w3.org/2000/svg" viewBox="0 0 175 275"><defs><style>.cls-1{fill:#fff;}.cls-2{fill:#ffce00;}.cls-3{fill:#fcdfeb;}.cls-4{fill:#047272;}</style></defs><title>won-6</title><rect class="cls-1" x="71.42" y="171.12" width="86.25" height="86.25"/><rect class="cls-2" x="116.08" y="18.16" width="41.59" height="143.24"/><rect class="cls-3" x="17.91" y="18.12" width="86.25" height="86.25"/><rect class="cls-2" x="17.91" y="117.15" width="87.02" height="41.59"/><path class="cls-4" d="M59.63,129.7c-12,.56-23.52.7-33.46.7l-1.82-11.76c23.24-.14,54.32-.42,81.06-3.78l1.12,10.36a281.21,281.21,0,0,1-32.48,3.64v24.36H59.63ZM34,88.26C34,74.82,46.75,66,65.37,66s31.22,8.82,31.22,22.26-12.74,22.26-31.22,22.26S34,101.7,34,88.26Zm98.7,85.26v11.76H41.43V147.9H55.85v25.62Zm-85-85.26c0,7.14,7.14,11.62,17.64,11.62s17.5-4.48,17.5-11.62-7.14-11.62-17.5-11.62S47.73,81.12,47.73,88.26Zm67.62,47.18V61.1h14.42v96.18H115.35V145.52H90.57V135.44Z"/></svg>