<svg id="Layer_1" data-name="Layer 1" xmlns="http://www.w3.org/2000/svg" viewBox="0 0 175 275"><defs><style>.cls-1{fill:#fff;}.cls-2{fill:#ffce00;}.cls-3{fill:#fcdfeb;}.cls-4{fill:none;}.cls-5{fill:#047272;}</style></defs><title>won-5</title><rect class="cls-1" x="71.42" y="171.12" width="86.25" height="86.25"/><rect class="cls-2" x="116.08" y="18.16" width="41.59" height="143.24"/><rect class="cls-3" x="17.91" y="18.12" width="86.25" height="86.25"/><rect class="cls-2" x="17.91" y="117.15" width="87.02" height="41.59"/><path class="cls-4" d="M61.5,72.87c10.36,0,17.5-4.48,17.5-11.62S71.86,49.63,61.5,49.63,43.86,54.11,43.86,61.25,51,72.87,61.5,72.87Z"/><path class="cls-5" d="M70,157.13V132.77a281.21,281.21,0,0,0,32.48-3.64l-1.12-10.36c-26.74,3.36-57.82,3.64-81.06,3.78l1.82,11.76c9.94,0,21.42-.14,33.46-.7v23.52Z"/><polygon class="cls-5" points="83.86 221.17 83.86 195.55 69.44 195.55 69.44 232.93 160.72 232.93 160.72 221.17 83.86 221.17"/><polygon class="cls-5" points="139.32 137.87 153.74 137.87 153.74 41.69 139.32 41.69 139.32 116.03 114.54 116.03 114.54 126.11 139.32 126.11 139.32 137.87"/><path class="cls-5" d="M61.5,83.51c18.48,0,31.22-8.82,31.22-22.26S80,39,61.5,39,30.14,47.81,30.14,61.25,42.88,83.51,61.5,83.51Zm0-33.88c10.36,0,17.5,4.48,17.5,11.62S71.86,72.87,61.5,72.87,43.86,68.39,43.86,61.25,51,49.63,61.5,49.63Z"/></svg>