<svg id="Layer_1" data-name="Layer 1" xmlns="http://www.w3.org/2000/svg" viewBox="0 0 125 125"><defs><style>.cls-1{fill:#45c0c9;}.cls-2{fill:#047272;}</style></defs><title>08-kr-bow</title><path class="cls-1" d="M61.29,78.32c0,1.83,0,3.65.1,5.43s.16,3.51.26,5.17.23,3.13.36,4.35l0,.41,5.23-.83.05-.27c.28-1.46.52-3.13.73-5s.4-3.8.57-5.84.29-4.09.36-6.11.1-4,.1-5.84V51.51l-7.81,0Z"/><path class="cls-2" d="M110.74,44.14c-3.68.55-7.71,1-12,1.34s-8.8.62-13.55.82l-6.6.26c-2.74.11-5.72.19-8.87.26s-6.59.16-10.06.26-6.89.17-10.1.21-6.26.05-9,.05-4.95,0-6.64-.1c-3.21-.14-6.3-.29-9.18-.46s-5.92-.43-9.06-.77l-.63-.07L18,54l.32,0c2.51-.34,5.14-.63,7.82-.87s5.32-.43,7.93-.57l4.59-.26c1.92-.1,4.14-.19,6.59-.26s5.07-.15,7.9-.26,5.4-.18,8.15-.25l7.81,0c3.46-.19,6.74-.31,9.77-.34s5.69-.05,7.68-.05l13.05.21c4,.07,7.42.17,10.15.31l.36,0,1.17-7.59Z"/></svg>