<svg id="Layer_1" data-name="Layer 1" xmlns="http://www.w3.org/2000/svg" viewBox="0 0 125 125"><defs><style>.cls-1{fill:none;}.cls-2{fill:#45c0c9;}.cls-3{fill:#047272;}</style></defs><title>11-kr-topknot</title><path class="cls-1" d="M74.85,53.66a17.05,17.05,0,0,0-5.55-3.57,19.21,19.21,0,0,0-13.94,0,17.63,17.63,0,0,0-5.6,3.57A16.65,16.65,0,0,0,46,59a16.29,16.29,0,0,0,3.73,18.43,17.39,17.39,0,0,0,5.6,3.47,20,20,0,0,0,14,0,17.41,17.41,0,0,0,5.6-3.47,15.46,15.46,0,0,0,3.67-5.27,16.65,16.65,0,0,0,1.31-6.58A16.1,16.1,0,0,0,78.53,59,17.05,17.05,0,0,0,74.85,53.66Z"/><path class="cls-2" d="M66.51,42.52a5.06,5.06,0,0,0-.19.47C66.38,42.83,66.44,42.67,66.51,42.52Z"/><path class="cls-2" d="M86.58,57.76a21.1,21.1,0,0,0-4.78-6.57,24.82,24.82,0,0,0-7.24-4.61,29.52,29.52,0,0,0-8.67-2.16L60,44.19a29.83,29.83,0,0,0-9.24,1.92A26.68,26.68,0,0,0,43,50.66a20.19,20.19,0,0,0-5.16,6.73A19.3,19.3,0,0,0,36,65.72a19,19,0,0,0,2,8.69,21.5,21.5,0,0,0,5.47,6.83,25.67,25.67,0,0,0,8.23,4.51A31.83,31.83,0,0,0,62,87.37a29.42,29.42,0,0,0,6.88-.75,48.82,48.82,0,0,0,5.48-1.71A23.35,23.35,0,0,0,84,78a18.93,18.93,0,0,0,4.32-12.32A18.74,18.74,0,0,0,86.58,57.76Zm-8,14.38a15.46,15.46,0,0,1-3.67,5.27,17.41,17.41,0,0,1-5.6,3.47,20,20,0,0,1-14,0,17.39,17.39,0,0,1-5.6-3.47A16.43,16.43,0,0,1,46,59a16.65,16.65,0,0,1,3.73-5.33,17.63,17.63,0,0,1,5.6-3.57,19.21,19.21,0,0,1,13.94,0A16.66,16.66,0,0,1,78.53,59a16.1,16.1,0,0,1,1.36,6.58A16.65,16.65,0,0,1,78.58,72.14Z"/><path class="cls-3" d="M66.32,43a5.06,5.06,0,0,1,.19-.47c.35-.73.66-1.45.94-2.14l.17-.43-.45-.1c-1.78-.41-3.52-.74-5.19-1s-3.34-.53-5-.87l-.27-.05L55,40.67l.49.15a9.58,9.58,0,0,1,3.61,1.66A5.53,5.53,0,0,1,60,44.19l5.86.23S66.1,43.62,66.32,43Z"/></svg>