<?xml version="1.0" encoding="utf-8"?>
<!-- Generator: Adobe Illustrator 21.0.0, SVG Export Plug-In . SVG Version: 6.00 Build 0)  -->
<svg version="1.1" id="Layer_1" xmlns="http://www.w3.org/2000/svg" xmlns:xlink="http://www.w3.org/1999/xlink" x="0px" y="0px"
	 viewBox="0 0 20 20" style="enable-background:new 0 0 20 20;" xml:space="preserve">
<g>
	<path d="M13.3,3.6c0.9,0,1.7,0.4,2.5,1.1c0.7-0.1,1.4-0.4,2.1-0.8c-0.2,0.7-0.7,1.3-1.2,1.8c0.6,0,1.1-0.2,1.7-0.4
		C18,6,17.4,6.5,16.8,7c-0.2,4.7-2.1,8.1-6.6,9.8c-1.1,0.4-2.2,0.6-3.2,0.6c-2.1,0-4-0.6-5.3-1.6c0.2,0,0.5,0,0.7,0
		c1.6,0,3-0.5,4.3-1.4c-1.6-0.2-2.6-0.9-3.2-2.4c0.5,0,0.9,0,1.4,0c0,0,0-0.1,0-0.1c-0.8-0.2-1.4-0.6-1.9-1.2
		C2.5,10,2.3,9.3,2.3,8.5c0.5,0.1,0.9,0.3,1.4,0.4c0,0,0-0.1,0-0.1C3,8.3,2.5,7.6,2.3,6.7c-0.2-0.9,0-1.7,0.4-2.5
		c0.9,1.1,1.9,1.9,3.2,2.6c1.2,0.6,2.5,1,3.9,1.1c-0.2-1.7,0.3-3,1.8-3.8C12.2,3.7,12.8,3.6,13.3,3.6 M17.9,3.9L17.9,3.9 M18.4,5.3
		L18.4,5.3 M13.3,1.9C13.3,1.9,13.3,1.9,13.3,1.9c-0.8,0-1.6,0.2-2.4,0.6C9.4,3.3,8.5,4.4,8.2,5.9c-0.5-0.1-1-0.3-1.5-0.6
		C5.7,4.8,4.9,4.1,4,3.1C3.7,2.7,3.2,2.5,2.7,2.5c-0.1,0-0.1,0-0.2,0C2,2.6,1.5,2.9,1.2,3.4C0.6,4.6,0.4,5.8,0.7,7.1
		c0,0.2,0.1,0.3,0.1,0.5C0.6,7.8,0.6,8.2,0.6,8.5c0,1.2,0.4,2.2,1.1,3.2c0,0.1,0.1,0.1,0.1,0.2c0,0.2,0,0.5,0.1,0.7
		c0.2,0.6,0.5,1.1,0.9,1.5c-0.1,0-0.2,0-0.4,0c-0.2,0-0.4,0-0.6,0c-0.1,0-0.1,0-0.2,0c-0.7,0-1.4,0.4-1.6,1.1c-0.3,0.7,0,1.5,0.6,2
		c1.7,1.2,4,1.9,6.3,1.9c1.3,0,2.6-0.2,3.8-0.7c4.6-1.7,7.2-5.3,7.7-10.5c0.5-0.5,1-1,1.4-1.6C20,6,20.1,5.6,20.1,5.3
		c0-0.5-0.2-0.9-0.5-1.2c0-0.1,0-0.1,0-0.2c0-0.9-0.8-1.7-1.7-1.7c0,0,0,0,0,0c0,0-0.1,0-0.1,0c-0.2,0-0.5,0.1-0.7,0.2
		c-0.3,0.1-0.6,0.3-1,0.4C15.3,2.2,14.3,1.9,13.3,1.9L13.3,1.9z"/>
</g>
</svg>
