<?xml version="1.0" encoding="utf-8"?>
<!-- Generator: Adobe Illustrator 21.0.0, SVG Export Plug-In . SVG Version: 6.00 Build 0)  -->
<svg version="1.1" id="Layer_1" xmlns="http://www.w3.org/2000/svg" xmlns:xlink="http://www.w3.org/1999/xlink" x="0px" y="0px"
	 viewBox="0 0 25 20" style="enable-background:new 0 0 25 20;" xml:space="preserve">
<g>
	<path d="M7.1,20c-0.4,0-0.8-0.1-1.1-0.3c-0.9-0.6-1-1.9-1-2.9c0-4.6,3.3-8.4,7.4-8.4s7.4,3.8,7.4,8.4c0,1-0.1,2.2-1,2.9
		c-0.9,0.6-2.1,0.2-3.3-0.3c-1-0.4-2-0.8-3.1-0.8s-2.2,0.4-3.1,0.8C8.6,19.7,7.8,20,7.1,20z M12.5,10.3c-3.1,0-5.5,2.9-5.5,6.5
		c0,1.1,0.2,1.3,0.2,1.3c0.2,0,1-0.3,1.5-0.5c1.1-0.4,2.4-0.9,3.8-0.9s2.8,0.5,3.8,0.9c0.5,0.2,1.3,0.5,1.6,0.5c0,0,0.2-0.3,0.2-1.3
		C18,13.2,15.6,10.3,12.5,10.3z"/>
</g>
<g>
	<g>
		<path d="M9,8C7.1,8,5.9,6.4,5.9,4S7.1,0,9,0s3.1,1.6,3.1,4S10.9,8,9,8z M9,1.9C7.9,1.9,7.8,3.4,7.8,4S7.9,6.1,9,6.1
			s1.2-1.5,1.2-2.1S10.1,1.9,9,1.9z"/>
	</g>
	<g>
		<path d="M16,8c-1.9,0-3.1-1.6-3.1-4s1.2-4,3.1-4s3.1,1.6,3.1,4S17.9,8,16,8z M16,1.9c-1.1,0-1.2,1.5-1.2,2.1s0.1,2.1,1.2,2.1
			s1.2-1.5,1.2-2.1S17.1,1.9,16,1.9z"/>
	</g>
</g>
<g>
	<g>
		<path d="M21.9,13c-1.8,0-2.9-1.5-2.9-3.8c0-2.4,1.1-3.8,2.9-3.8s2.9,1.5,2.9,3.8S23.7,13,21.9,13z M21.9,7.2c-0.9,0-1,1.4-1,1.9
			c0,0.6,0.1,1.9,1,1.9s1-1.4,1-1.9C22.9,8.6,22.8,7.2,21.9,7.2z"/>
	</g>
	<g>
		<path d="M3.1,13c-1.8,0-2.9-1.5-2.9-3.8c0-2.4,1.1-3.8,2.9-3.8S6,6.9,6,9.2C6.1,11.5,4.9,13,3.1,13z M3.1,7.2c-0.9,0-1,1.4-1,1.9
			c0,0.6,0.1,1.9,1,1.9s1-1.4,1-1.9C4.2,8.6,4.1,7.2,3.1,7.2z"/>
	</g>
</g>
</svg>
