<?xml version="1.0" encoding="utf-8"?>
<!-- Generator: Adobe Illustrator 21.0.0, SVG Export Plug-In . SVG Version: 6.00 Build 0)  -->
<svg version="1.1" id="Layer_1" xmlns="http://www.w3.org/2000/svg" xmlns:xlink="http://www.w3.org/1999/xlink" x="0px" y="0px"
	 viewBox="0 0 20 20" style="enable-background:new 0 0 20 20;" xml:space="preserve">
<g id="IwwRYw_2_">
	<g>
		<path d="M20,10c0,0.8,0,1.5,0,2.3c0,0.9,0,1.8-0.1,2.6c-0.3,2.5-1.8,4.3-4.3,4.8C14.8,19.9,14,20,13.2,20c-1.6,0-3.2,0-4.8,0
			c-1.1,0-2.1,0-3.2-0.1c-1.5-0.1-2.9-0.7-3.9-1.9c-0.7-0.8-1-1.7-1.2-2.6C0,14.5,0,13.7,0,12.8c0-1.6,0-3.2,0-4.9C0,7,0,6,0.1,5
			c0.3-2.6,2-4.4,4.5-4.8C5.5,0,6.3,0,7.2,0c1.7,0,3.3,0,5,0c0.9,0,1.9,0,2.8,0.1c2.5,0.3,4.3,1.9,4.8,4.3C19.9,5.2,20,5.9,20,6.7
			C20,7.8,20,8.9,20,10C20,10,20,10,20,10z M18.2,10C18.2,10,18.2,10,18.2,10c0-1.4,0-2.8-0.1-4.3c0-0.6-0.1-1.3-0.4-1.9
			c-0.6-1.2-1.6-1.8-2.8-1.9c-0.9-0.1-1.7-0.1-2.6-0.1c-1.8,0-3.6,0-5.4,0c-0.6,0-1.3,0-1.9,0.1C3.4,2.2,2.3,3.3,2,4.8
			C1.8,5.6,1.8,6.4,1.8,7.2c0,1.4,0,2.9,0,4.3c0,1,0,2,0.1,3c0,0.6,0.2,1.2,0.5,1.7C3,17.4,4,17.9,5.1,18c0.9,0.1,1.7,0.1,2.6,0.1
			c1.8,0,3.6,0,5.4,0c0.7,0,1.3-0.1,2-0.1c1.5-0.2,2.6-1.3,2.9-2.8c0.2-0.8,0.2-1.6,0.2-2.4C18.2,11.9,18.2,11,18.2,10z"/>
		<path d="M15.1,10c0,2.8-2.3,5.1-5.2,5.1c-2.8,0-5.1-2.3-5.1-5.2c0-2.8,2.3-5.1,5.2-5.1C12.8,4.9,15.1,7.2,15.1,10z M13.3,10
			c0-1.8-1.5-3.3-3.3-3.3c-1.8,0-3.3,1.5-3.3,3.3c0,1.8,1.5,3.3,3.3,3.3C11.8,13.3,13.3,11.8,13.3,10z"/>
		<path d="M15.3,3.5c0.7,0,1.2,0.5,1.2,1.2c0,0.7-0.5,1.2-1.2,1.2c-0.7,0-1.2-0.5-1.2-1.2C14.1,4,14.7,3.5,15.3,3.5z"/>
	</g>
</g>
</svg>
