<?xml version="1.0" encoding="utf-8"?>
<!-- Generator: Adobe Illustrator 21.0.0, SVG Export Plug-In . SVG Version: 6.00 Build 0)  -->
<svg version="1.1" id="Layer_1" xmlns="http://www.w3.org/2000/svg" xmlns:xlink="http://www.w3.org/1999/xlink" x="0px" y="0px"
	 viewBox="0 0 20 20" style="enable-background:new 0 0 20 20;" xml:space="preserve">
<g>
	<path d="M11.8,14.7c1-0.1,1.8-0.4,2.6-0.8c0.8-0.5,1.3-1.1,1.6-2c0.3-1,0.4-2,0.2-3c-0.1-0.6-0.4-1.2-0.8-1.7
		c-0.1-0.1-0.1-0.2-0.1-0.3c0.2-0.8,0.2-1.6-0.1-2.4c-0.1-0.2-0.2-0.2-0.3-0.2c-0.5,0-0.9,0.2-1.4,0.4c0,0-0.1,0-0.1,0.1
		c-0.3,0.2-0.6,0.5-1,0.5c-0.4,0.1-0.7-0.1-1.1-0.2C10.2,5,9,5,7.8,5.3c-0.2,0-0.3,0-0.5-0.1C6.9,5,6.5,4.8,6.1,4.6
		C5.7,4.5,5.3,4.4,4.9,4.4c-0.1,0-0.2,0.1-0.2,0.2C4.4,5.3,4.3,6.1,4.6,6.9c0,0.1,0,0.2,0,0.2c-0.8,1-1.1,2.2-0.9,3.4
		c0.1,0.8,0.3,1.5,0.7,2.2c0.6,0.9,1.4,1.3,2.4,1.6c0.4,0.1,0.9,0.2,1.4,0.3c0,0-0.1,0.1-0.1,0.2c-0.1,0.3-0.3,0.6-0.4,0.9
		c-0.1,0.2-0.1,0.2-0.3,0.3c-1.3,0.4-2,0.1-2.7-0.9c-0.3-0.5-0.7-0.9-1.4-1c-0.2,0-0.3,0-0.5,0c-0.2,0-0.2,0.2-0.1,0.3
		c0.1,0.1,0.2,0.2,0.3,0.3c0.5,0.3,0.8,0.8,1.1,1.4c0.4,0.9,1,1.4,2,1.4c0.5,0,0.9,0,1.4-0.1c0,0.6,0,1.3,0,1.9
		c0,0.3-0.4,0.5-0.7,0.4c-1.2-0.4-2.3-1-3.3-1.9c-2-1.8-3.2-4-3.4-6.6c-0.5-5.6,3.4-10,8.1-10.8c4.5-0.8,8.9,1.4,10.8,5.5
		c2.5,5.3,0.1,11.4-5.2,13.6c-0.2,0.1-0.4,0.2-0.6,0.2c-0.4,0.1-0.7-0.1-0.7-0.5c0-0.8,0-1.6,0-2.4C12.5,16,12.4,15.3,11.8,14.7z"/>
</g>
</svg>
