<?xml version="1.0" encoding="utf-8"?>
<!-- Generator: Adobe Illustrator 21.0.0, SVG Export Plug-In . SVG Version: 6.00 Build 0)  -->
<svg version="1.1" id="Layer_1" xmlns="http://www.w3.org/2000/svg" xmlns:xlink="http://www.w3.org/1999/xlink" x="0px" y="0px"
	 viewBox="0 0 400 100" style="enable-background:new 0 0 400 100;" xml:space="preserve">
<style type="text/css">
	.st0{fill:#047272;}
</style>
<title>01-cuneiform</title>
<g>
	<polygon class="st0" points="272.7,36.7 272.7,77 275.7,77 275.7,36.7 288.2,24.1 260.1,24.1 	"/>
	<polygon class="st0" points="303.8,39.6 303.8,36.7 316.3,24.1 288.2,24.1 300.8,36.6 300.8,39.6 288.2,39.6 300.8,52.2 300.8,77 
		303.8,77 303.8,52.2 316.3,39.6 	"/>
	<polygon class="st0" points="172.6,65.4 186.7,51.4 172.6,37.3 	"/>
	<polygon class="st0" points="116.9,36.2 129,24.1 100.9,24.1 113.9,37.1 113.9,49.9 96.3,49.9 83.7,37.3 83.7,65.4 96.2,52.9 
		113.9,52.9 113.9,62.9 100.9,75.9 129,75.9 116.9,63.8 	"/>
	<polygon class="st0" points="213.6,49.9 213.6,36.7 226.2,24.1 198.1,24.1 210.7,36.7 210.7,49.9 200.1,49.9 187.5,37.3 
		187.5,65.4 200,52.9 210.7,52.9 210.7,77 213.6,77 213.6,52.9 235.5,52.9 248,65.4 248,37.3 235.4,49.9 	"/>
	<polygon class="st0" points="144.5,36.7 157.1,24.1 129,24.1 141.6,36.7 141.6,63.3 129,75.9 157.1,75.9 144.5,63.3 	"/>
</g>
</svg>
