<svg id="Layer_1" data-name="Layer 1" xmlns="http://www.w3.org/2000/svg" viewBox="0 0 400 100"><defs><style>.cls-1{fill:#047272;}</style></defs><title>07-carolingian</title><path class="cls-1" d="M70.44,64.15c-11.63-10.39-4.88-26.91-4.88-26.91S88,25.92,89.45,35.47c0,0,5-3.62,5.44-6.12S88.28,25,78.27,26.66c-7.52,1.23-9,6.32-11.18,8.1-5.79,4.66-9.56,11.15-9.8,13.5-.42,4.15-1.66,22.64,14.54,24.93S94.91,58,94.91,58l-.73-.32S82.07,74.53,70.44,64.15Z"/><path class="cls-1" d="M115.49,49.71c-3.12-1.14-4.47-.83-5.4,0-.62.56-3.93,3-6.07,4.58.59-8.7,1.31-19.51,1.49-22.45.31-5,2.18-6.75,2.18-6.75s-6.23,4.47-8,6-.94,2.6-.21,9.56-.83,26.59-1,29.3.62,3.12.62,3.12L104,69.34c-1.35-.93-.83-1.77-.73-3.32L104,55.09c3.28-1.89,10.06-4.5,11,5.52,1.25,13.3-7.79,18.08-7.79,18.08l.52.52C128.06,62.69,118.61,50.85,115.49,49.71Z"/><path class="cls-1" d="M165.55,49.5c-2.37-1-3.46-.55-4.09.3l-4.84,6.69c.1-2,.18-3.67.2-4.43a1.92,1.92,0,0,0-2.84-2c-.55.48-4.43,4-4.43,4v.35c2.35-.76,2.42.83,2.42,3,0,1.42-.17,6.3-.33,10l-.73.63c-1.77,1.56-4.26-.1-5.61-2.29S139.08,54.52,137,51.19s-5-3.84-7.17-2.18S124,53.38,124,53.38l.42.28,1.94-1c1.94-1,3.19-.69,4.64,1.59.41.64,1.12,1.79,2,3.18-2.2,2.1-7.64,7.39-9,9.64-1.66,2.84-2.29,6.23,2.15,6.37,3.16.1,8.73-5,11.65-7.85.65,1.14,1.21,2.16,1.58,2.9,1.66,3.32,5,5.4,8,3.12,1.47-1.12,3-2.23,4.22-3.08-.07,1.64-.14,2.94-.18,3.4-.14,1.52.69,1.52.69,1.52l4.22-4.22a2.27,2.27,0,0,1-.35-1.45c0-.54.31-5.24.53-9.42l3.09-4.3c10.76,1.1,10-4.46,10-4.75C167.47,50.3,167.06,50.12,165.55,49.5ZM132,69.1c-2.7,1.8-6.51-2.91-3.32-5.89,2.16-2,4.12-3.62,5.16-4.44,1.15,1.9,2.43,4,3.52,5.94A55.26,55.26,0,0,1,132,69.1Z"/><path class="cls-1" d="M174.7,63.81c0-3.32,1.35-33.14,1.56-35.63a4.33,4.33,0,0,1,1.87-3.43l-.21-.62s-7.27,5.92-8.62,7.9,1.14,6,1.14,9.25.1,17.45,0,20.26-1.77,12.36,2.91,11.84,9.45-6.13,9.45-6.13v-.83s-3.12,2-4.67,2.18S174.7,67.14,174.7,63.81Z"/><path class="cls-1" d="M342.87,64s-2.39,5.82-10,4.57c-4.23-.7-6.07-4.63-6.49-8.6,2.69-1.48,9.46-5.22,9.71-5.63s-.31-6.34-3.17-6.54S323,55.63,322.2,56.77,318.56,67.16,325.62,72s16.73-4.88,18-7.17ZM327.6,52.1s6.09-.95-1.24,7.36A13.85,13.85,0,0,1,327.6,52.1Z"/><path class="cls-1" d="M315.53,51.4c-1.39-3.26-7.2-2.22-9.07-1-1.12.71-3.4,2.42-5,3.67.08-1.53.14-2.72.12-3.18-.07-1.73-1.59-2.08-2.56-1s-5.68,5-5.68,5l.35.28c1.45-1.25,2-.62,2,.48V70.24c0,3.26,1,3.53,2,2.84s4.4-3.81,4.4-3.81c-1,.14-1.39-.62-1.39-2.77,0-1.48.43-7.51.67-11.7a11.62,11.62,0,0,1,6.12-1.33c6,0,3.39,11.36,3.39,15.31s.48,4.22,1.25,3.88,4.64-3,4.64-3V69s-1.11,0-1.25-.28S316.92,54.66,315.53,51.4Z"/><path class="cls-1" d="M239.4,51.4c-1.39-3.26-7.2-2.22-9.07-1-1,.63-2.9,2-4.46,3.23a8,8,0,0,0-.45-2.19c-1.39-3.26-7.2-2.22-9.07-1-1.12.71-3.4,2.42-5,3.67.08-1.53.14-2.72.12-3.18-.07-1.73-1.59-2.08-2.56-1s-5.68,5-5.68,5l.35.28c1.45-1.25,2-.62,2,.48v9.09l-.59-.67s-2.39,5.82-10,4.57c-4.23-.7-6.07-4.63-6.49-8.6,2.69-1.48,9.46-5.22,9.71-5.63S197.88,48,195,47.84s-9.92,7.79-10.75,8.93S180.63,67.16,187.7,72c6.85,4.73,16.14-4.3,17.83-6.94v5.14c0,3.26,1,3.53,2,2.84s4.4-3.81,4.4-3.81c-1,.14-1.39-.62-1.39-2.77,0-1.48.43-7.51.67-11.7a11.62,11.62,0,0,1,6.12-1.33c6,0,3.39,11.36,3.39,15.31s.48,4.22,1.25,3.88,4.64-3,4.64-3V69s-1.11,0-1.25-.28.84-9.07.52-14.27a13,13,0,0,1,5.44-1c6,0,3.39,11.36,3.39,15.31s.48,4.22,1.25,3.88,4.64-3,4.64-3V69s-1.11,0-1.25-.28S240.78,54.66,239.4,51.4Zm-49.73.69s6.08-.95-1.24,7.36A13.85,13.85,0,0,1,189.67,52.1Z"/><path class="cls-1" d="M285.28,62.63c2.78-2.55,6.67-5.43,5-10.15,3.79-2.11,6-6.58,6-6.58a5.9,5.9,0,0,1-4.5,2.35,5.06,5.06,0,0,0-3.16,1.3c-4.13-4.32-12,1.11-13.88,2.65-2.08,1.66-6.93,5.13-3.46,12.47a6,6,0,0,0,1.91,2.41c-.32.26-.71.6-1.21,1-1.77,1.56-4.26-.1-5.61-2.29s-6.23-11.32-8.31-14.65-5-3.84-7.17-2.18-5.82,4.36-5.82,4.36l.42.28,1.94-1c1.94-1,3.19-.69,4.64,1.59.41.64,1.12,1.79,2,3.18-2.2,2.1-7.64,7.39-9,9.64-1.66,2.84-2.29,6.23,2.15,6.37,3.16.1,8.73-5,11.65-7.85.65,1.14,1.21,2.16,1.58,2.9,1.66,3.32,5,5.4,8,3.12,2.11-1.6,4.37-3.2,5.54-4,2.08.9,4.65.08,6.94-1.33a9.59,9.59,0,0,0-1.13,3.87,9.25,9.25,0,0,0,3.38,7.16c-2.78.76-8.66,2.78-11.83,7-1.94,2.56-1.92,6,.69,9.35s11.5,3.81,15.79-.07S300.1,84.9,294.49,79C289.09,73.35,282.74,70.95,285.28,62.63ZM253,69.1c-2.7,1.8-6.51-2.91-3.32-5.89,2.16-2,4.12-3.62,5.16-4.44,1.15,1.9,2.43,4,3.52,5.94A55.26,55.26,0,0,1,253,69.1Zm22.6-16.75a6.88,6.88,0,0,1,8.17,2.08,6.32,6.32,0,0,1,.35,8.24s-3.67,2.56-7.55-1.45S275.65,52.35,275.65,52.35ZM290.73,90c-3,3.88-14.11,4.43-15.63-2.08-1.27-5.45,4.81-9.79,8.71-10.19.2.16.41.33.64.49C288.95,81.5,293.77,86.14,290.73,90Z"/></svg>