<svg id="Layer_1" data-name="Layer 1" xmlns="http://www.w3.org/2000/svg" viewBox="0 0 400 100"><defs><style>.cls-1{fill:#047272;}</style></defs><title>08-hangul</title><rect class="cls-1" x="243.8" y="47.82" width="40.57" height="4.25"/><polygon class="cls-1" points="123.05 57.63 118.8 57.63 118.8 65.71 118.8 68.68 118.8 69.96 152.37 69.96 152.37 65.71 123.05 65.71 123.05 57.63"/><path class="cls-1" d="M178.36,51.59h4.25V31.38H160.68v20.2h17.68Zm-13.43-16h13.43v11.7H164.93Z"/><polygon class="cls-1" points="224.05 52.39 227.44 49.83 216.73 35.63 224.98 35.63 224.98 31.38 203.05 31.38 203.05 35.63 211.3 35.63 200.59 49.83 203.99 52.39 214.02 39.09 224.05 52.39"/><polygon class="cls-1" points="164.93 57.63 160.68 57.63 160.68 65.71 160.68 68.68 160.68 69.96 194.24 69.96 194.24 65.71 164.93 65.71 164.93 57.63"/><path class="cls-1" d="M276.8,55.61H247.12V70H281V55.61H276.8Zm0,10.1H251.37V59.86H276.8Z"/><rect class="cls-1" x="190.86" y="29.41" width="4.25" height="27.1"/><rect class="cls-1" x="233.58" y="29.41" width="4.25" height="24.68"/><path class="cls-1" d="M144,40.76a8.37,8.37,0,0,0-2.81-6.25h11.19V30.26H137.71V26.44h-4.25v3.82H118.8v4.25H130a8.38,8.38,0,0,0,3.26,14.31H115.3v4.25h18.38a3.81,3.81,0,1,0,3.25,0h18.94V48.82H137.92A8.41,8.41,0,0,0,144,40.76Zm-8.4,4.1a4.1,4.1,0,1,1,4.1-4.1A4.1,4.1,0,0,1,135.59,44.86Z"/><path class="cls-1" d="M221.74,54.78a9.11,9.11,0,1,0,9.11,9.11A9.12,9.12,0,0,0,221.74,54.78Zm0,13.92a4.81,4.81,0,1,1,4.81-4.81A4.81,4.81,0,0,1,221.74,68.69Z"/><path class="cls-1" d="M264.08,44.74A9.11,9.11,0,1,0,255,35.63,9.12,9.12,0,0,0,264.08,44.74Zm0-13.92a4.81,4.81,0,1,1-4.81,4.81A4.81,4.81,0,0,1,264.08,30.83Z"/><circle class="cls-1" cx="228.69" cy="42.96" r="3.81"/></svg>