<svg id="Layer_1" data-name="Layer 1" xmlns="http://www.w3.org/2000/svg" viewBox="0 0 400 100"><defs><style>.cls-1{fill:#047272;}</style></defs><title>09-metal-type</title><path class="cls-1" d="M124.91,40.34c3.72-4.32,2.1-2.4,5.28-6.12a53.89,53.89,0,0,0,3.78-4.8l-.9-.66c-.84,1.08-1.38,1.5-1.92,1.5-2.46,0-5.34-.84-10.44-2.88a130.26,130.26,0,0,1-12.06,10V55.22c0,2.7-.66,4.68-2.7,6.06a24.56,24.56,0,0,1-3.12-12.54c0-5,1.92-11.58,5.64-15l-.72-.6c-5.34,2.46-12,10.44-12,19.92,0,12.48,9.24,20,20.34,20,10.38,0,23-6.66,23-18.66C139.07,45.32,133,40.52,124.91,40.34Zm-6.3-7.14c2.46,1.08,5.52,2.28,8.28,3.24l-8.1,9.84h-.18Zm0,14.34c1.38-.9,2.4-1.74,4.68-1.74A8.43,8.43,0,0,1,131.45,51l-12.84,5.76Zm-1.08,22a16.55,16.55,0,0,1-11-7.44c4-2.76,8.58-5.58,8.58-5.58V33.86l1.8-1.5.66.3Zm3.6.18c-.72,0-1.86,0-2.52-.06V63.32l13.8-6.12C132.29,65.24,128.39,69.74,121.13,69.74Zm-2.52-7.38V57.74l13.14-5.82a16.77,16.77,0,0,1,.66,4.26Z"/><path class="cls-1" d="M161.22,66.26V43.88c0-2,.3-2.64,1-3.06v-.24c-1.44-1-3.6-2.76-4.8-3.78-1.26,1.26-3.3,3.12-4.44,4.14V41c.78.6,1.32.9,2,1.5V65.84c-.36.3-2.34,2-2.34,2a29.44,29.44,0,0,1-2.82-2.28V44c0-1.8.3-2.52,1-2.88v-.24c-1.56-1-3.9-2.7-5.7-4.08-1.44,1.5-3.48,3.36-4.68,4.5l.12.12a6.15,6.15,0,0,1,3.06,1.38V65.06a2.62,2.62,0,0,1-1,2.4v.24c2.16,1.32,4.86,3.18,6.84,4.56l4.74-4h.06c1.74,1.2,3.54,2.52,5.46,4,1.5-1.62,2.82-2.88,4.56-4.5l-.12-.12A5.92,5.92,0,0,1,161.22,66.26Z"/><path class="cls-1" d="M179,66a1.8,1.8,0,0,1-1.26.6c-1,0-1.2.12-4.08-1.74V43.76h4.62l1.56-3.48h-6.18V31.22h-.42c-1.68,4.44-5,10.08-8.22,12.18v.36h2.52v20.7c0,1.44-.24,2.4-1,2.88v.24c2.22,1.08,5.7,3.12,8,4.62l5.82-5.88-.9-.84Z"/><path class="cls-1" d="M200.34,48.38c-1.68-2.7-4.8-8.64-6.18-11.64a41,41,0,0,1-10.8,4.86V63.2c0,1.86-.3,2.4-1,2.94v.24c3.06,1.5,7.8,4.2,10.38,5.82,1.5-1.68,4.38-4.56,5.76-5.88l-.9-1-.54.54a1.86,1.86,0,0,1-1.26.66c-1.08,0-2.58-.6-6.24-2.94V54.44C193,52.58,198.18,50,200.34,48.38Zm-10.8-7.62.3-.06c1,2.28,3.66,6.84,5.16,9.3a55.7,55.7,0,0,1-5.46,2.88Z"/><path class="cls-1" d="M220.57,66.26V44a2.62,2.62,0,0,1,1-2.4v-.24c-2.16-1.32-4.86-3.18-6.84-4.56l-4.74,4H210c-1.38-1-3.54-2.52-5.46-4-1.5,1.62-2.82,2.88-4.56,4.5l.12.12a5.9,5.9,0,0,1,3,1.38V65.18c0,2-.48,2.64-1,3.06v.24c1.14.84,3.06,2.34,4.86,3.72,1.26-1.26,2.94-2.82,4.38-4.08v-.06c-.78-.6-1.32-.9-2-1.5V43c.36-.3,2.1-1.68,2.1-1.68,1,.66,2,1.26,3.06,2.1v21.6c0,1.8-.42,2.52-1,2.88v.24c1.26.84,4.26,2.94,5.76,4.08,1.44-1.38,3.42-3.36,4.62-4.5l-.12-.12A6.17,6.17,0,0,1,220.57,66.26Z"/><path class="cls-1" d="M233.06,40.7V28.34a6.88,6.88,0,0,1,1-4l-.18-.12a7.66,7.66,0,0,0-4.68,4.56H229a4.36,4.36,0,0,0-2.52-2.46l-.24.12a5.2,5.2,0,0,1,.6,3.06v35.1a2.35,2.35,0,0,1-1,2.16V67c1.92,1.08,5.94,3.6,8.22,5.16a110.82,110.82,0,0,1,10.32-6.66V45.2c0-1.8.3-2.58,1-3.06V41.9c-1.92-1.14-5.82-3.6-8.1-5.1C235.94,38,234.92,39.14,233.06,40.7Zm5.16,27.24-.12.12c-1.38-.84-4-2.46-5-3.24V42l.78-.66c1.5.9,3.24,1.92,4.38,2.76Z"/><path class="cls-1" d="M266.24,48.38c-1.68-2.7-4.8-8.64-6.18-11.64a41,41,0,0,1-10.8,4.86V63.2c0,1.86-.3,2.4-1,2.94v.24c3.06,1.5,7.8,4.2,10.38,5.82,1.5-1.68,4.38-4.56,5.76-5.88l-.9-1-.54.54a1.86,1.86,0,0,1-1.26.66c-1.08,0-2.58-.6-6.24-2.94V54.44C258.86,52.58,264.08,50,266.24,48.38Zm-10.8-7.62.3-.06c1,2.28,3.66,6.84,5.16,9.3a55.7,55.7,0,0,1-5.46,2.88Z"/><path class="cls-1" d="M276.39,41.6a29.62,29.62,0,0,0,4.44,6.6h.24a45.41,45.41,0,0,1,3.84-4.74,49.82,49.82,0,0,1-5-6.66c-1.74,1.68-2.4,2.4-4.5,4.2-1.5-1.2-3.3-2.82-5-4.2a62.85,62.85,0,0,1-4.56,4.44l.12.18a5.44,5.44,0,0,1,3,1.38V64.28c0,1.86-.36,2.4-1,3v.24a68.6,68.6,0,0,1,8.4,4.68s2.28-2.34,5.82-5.88l-1-.9-.54.6c-.36.42-.72.78-1.14.78-.9,0-1.44-.24-4.32-2V42.92Z"/><path class="cls-1" d="M305,65.6V44.48A2.72,2.72,0,0,1,306,42v-.24c-2.16-1.2-5.4-3.12-8.22-5a77.64,77.64,0,0,1-10.32,6.66V64.28c0,1.5-.48,2.22-1,2.46V67l7.62,5.16A107.13,107.13,0,0,0,287,80.72c.18.42.66,1.26.78,1.5h.06a5.84,5.84,0,0,1,.78-1.62,20.09,20.09,0,0,1,11.28,2.34c1.32-1.92,5-6.42,5-6.42,1.08-1.38,2.7-2.88,2.7-4.14C307.61,70.4,305,68.78,305,65.6ZM293.69,65V41.12l.18-.12c1.74,1,3.54,2.16,5,3.12V66.5l-1.2,1.38Zm9.42,12.66c-2.46-1.14-4.74-2-10.38-2.1l6.18-7.32c.54,5,4,4.92,4.26,9.36Z"/></svg>