<svg id="Layer_1" data-name="Layer 1" xmlns="http://www.w3.org/2000/svg" viewBox="0 0 400 100"><defs><style>.cls-1{fill:#047272;}</style></defs><title>17-post-modernist</title><path class="cls-1" d="M92.37,44.42l-9.1-4.55v-11h-9.6v34.5h9.6V49.07h9.1v9.55a5.25,5.25,0,0,0,10.5,0V28.87H92.37Z"/><path class="cls-1" d="M119.7,37.57a12.9,12.9,0,0,0,0,25.8,13.08,13.08,0,0,0,9-3.65l-4.7-5a6.29,6.29,0,0,1-4.35,1.8,6,6,0,0,1-5.5-3.5h18.2a10.8,10.8,0,0,0,.25-2.5A12.93,12.93,0,0,0,119.7,37.57ZM114,47.62a5.92,5.92,0,0,1,11.2,0Z"/><path class="cls-1" d="M153.95,37.57a4.64,4.64,0,0,0-4.15,3.1l-2.7,12.5-7.3-16.45-7.25,3.6L143,63.17c0,2.2-.95,3.2-4.55,3.2a4.48,4.48,0,0,0-4.5,4.5c0,2.5,3,4.5,5.5,4.5,7.65,0,10.85-3.35,12.75-10.6l5.85-22.35a2.46,2.46,0,0,0,0-.65A4.23,4.23,0,0,0,153.95,37.57Z"/><path class="cls-1" d="M206.49,28.37a7,7,0,0,0-6.25,4.1L194.74,44,187,28.87h-10.2v30.5a4.5,4.5,0,0,0,9,0V46.27l9,18.25,8.4-19.1v18h9.75V34.77A6.38,6.38,0,0,0,206.49,28.37Z"/><path class="cls-1" d="M223.19,35.07a2.52,2.52,0,0,0,2.55-2.5,2.55,2.55,0,0,0-5.1,0A2.52,2.52,0,0,0,223.19,35.07Z"/><path class="cls-1" d="M223.19,38.37a4.8,4.8,0,0,0-4.8,4.8v20.2H228V43.17A4.8,4.8,0,0,0,223.19,38.37Z"/><path class="cls-1" d="M246.24,47.72c-3.25-.7-4.7-1.6-4.7-2.45s.6-1.45,1.85-1.45a9.76,9.76,0,0,1,6.3,2.35l3.45-5.7a16.21,16.21,0,0,0-9.9-2.9c-6.45,0-10.5,3.75-10.5,8.5,0,4.3,3.6,6.25,8.3,7.3,3.55.8,4.7,1.55,4.7,2.5s-1.1,1.3-2.2,1.3c-4.9,0-6.5-3.45-8.85-3.45a2.91,2.91,0,0,0-3,3.2c0,3.15,4.1,6.65,11.3,6.65,5.15,0,11-2.6,11-8.5C253.94,50.52,249.44,48.42,246.24,47.72Z"/><path class="cls-1" d="M269.77,38.87V28.71L261,33.57v5.3h-3.1a2.85,2.85,0,0,0,0,5.7H261V59.12l8.8,6.65V44.57h6.35l-1.9-5.7Z"/><path class="cls-1" d="M290,37.57a12.9,12.9,0,0,0,0,25.8,13.08,13.08,0,0,0,9-3.65l-4.7-5a6.29,6.29,0,0,1-4.35,1.8,6,6,0,0,1-5.5-3.5h18.2a10.8,10.8,0,0,0,.25-2.5A12.93,12.93,0,0,0,290,37.57Zm-5.65,10.05a5.92,5.92,0,0,1,11.2,0Z"/><path class="cls-1" d="M329.39,44.77a7.2,7.2,0,0,0-13.7-3.1V36.12l-9.6,5v18a4.8,4.8,0,0,0,9.6,0V48.67l5.6-3.7v5.3Z"/></svg>